<?xml version="1.0" encoding="utf-8" standalone="no"?>
<!DOCTYPE svg PUBLIC "-//W3C//DTD SVG 1.1//EN"
  "http://www.w3.org/Graphics/SVG/1.1/DTD/svg11.dtd">
<svg xmlns:xlink="http://www.w3.org/1999/xlink" width="639.978919pt" height="408.12942pt" viewBox="0 0 639.978919 408.12942" xmlns="http://www.w3.org/2000/svg" version="1.1">
 <metadata>
  <rdf:RDF xmlns:dc="http://purl.org/dc/elements/1.1/" xmlns:cc="http://creativecommons.org/ns#" xmlns:rdf="http://www.w3.org/1999/02/22-rdf-syntax-ns#">
   <cc:Work>
    <dc:type rdf:resource="http://purl.org/dc/dcmitype/StillImage"/>
    <dc:date>2026-06-16T16:27:17.629136</dc:date>
    <dc:format>image/svg+xml</dc:format>
    <dc:creator>
     <cc:Agent>
      <dc:title>Matplotlib v3.10.9, https://matplotlib.org/</dc:title>
     </cc:Agent>
    </dc:creator>
   </cc:Work>
  </rdf:RDF>
 </metadata>
 <defs>
  <style type="text/css">*{stroke-linejoin: round; stroke-linecap: butt}</style>
 </defs>
 <g id="figure_1">
  <g id="patch_1">
   <path d="M 0 408.12942 
L 639.978919 408.12942 
L 639.978919 0 
L 0 0 
z
" style="fill: #ffffff"/>
  </g>
  <g id="axes_1">
   <g id="patch_2">
    <path d="M 44.510313 371.540982 
L 632.778919 371.540982 
L 632.778919 22.318125 
L 44.510313 22.318125 
z
" style="fill: #ffffff"/>
   </g>
   <g id="FillBetweenPolyCollection_1">
    <defs>
     <path id="m0eb8e4b5be" d="M 44.510312 -545.356691 
L 44.510312 -264.259363 
L 45.689208 -264.875506 
L 46.868103 -265.49165 
L 48.046998 -266.107794 
L 49.225893 -266.723938 
L 50.404788 -267.340081 
L 51.583683 -267.956225 
L 52.762578 -268.572369 
L 53.941473 -269.188513 
L 55.120368 -269.804656 
L 56.299263 -270.4208 
L 57.478158 -271.036944 
L 58.657053 -271.653088 
L 59.835948 -272.269231 
L 61.014843 -272.885375 
L 62.193738 -273.501519 
L 63.372633 -274.117663 
L 64.551528 -274.733806 
L 65.730423 -275.34995 
L 66.909318 -275.966094 
L 68.088213 -276.582238 
L 69.267108 -277.198381 
L 70.446003 -277.814525 
L 71.624898 -278.430669 
L 72.803793 -279.046813 
L 73.982688 -279.662956 
L 75.161583 -280.2791 
L 76.340478 -280.895244 
L 77.519373 -281.511388 
L 78.698268 -282.127531 
L 79.877163 -282.743675 
L 81.056058 -283.359819 
L 82.234953 -283.975963 
L 83.413848 -284.592106 
L 84.592743 -285.20825 
L 85.771638 -285.824394 
L 86.950533 -286.440538 
L 88.129428 -287.056681 
L 89.308323 -287.672825 
L 90.487218 -288.288969 
L 91.666113 -288.905113 
L 92.845008 -289.521256 
L 94.023903 -290.1374 
L 95.202798 -290.753544 
L 96.381693 -291.369688 
L 97.560588 -291.985831 
L 98.739483 -292.601975 
L 99.918378 -293.218119 
L 101.097273 -293.834263 
L 102.276168 -294.450406 
L 103.455063 -295.06655 
L 104.633958 -295.682694 
L 105.812853 -296.298838 
L 106.991748 -296.914981 
L 108.170643 -297.531125 
L 109.349538 -298.147269 
L 110.528433 -298.763413 
L 111.707328 -299.379556 
L 112.886223 -299.9957 
L 114.065118 -300.611844 
L 115.244013 -301.227988 
L 116.422908 -301.844131 
L 117.601803 -302.460275 
L 118.780698 -303.076419 
L 119.959593 -303.692563 
L 121.138488 -304.308706 
L 122.317383 -304.92485 
L 123.496278 -305.540994 
L 124.675173 -306.157138 
L 125.854068 -306.773281 
L 127.032963 -307.389425 
L 128.211858 -308.005569 
L 129.390753 -308.621713 
L 130.569648 -309.237856 
L 131.748543 -309.854 
L 132.927438 -310.470144 
L 134.106333 -311.086288 
L 135.285228 -311.702431 
L 136.464123 -312.318575 
L 137.643018 -312.934719 
L 138.821913 -313.550863 
L 140.000808 -314.167006 
L 141.179703 -314.78315 
L 142.358598 -315.399294 
L 143.537493 -316.015438 
L 144.716388 -316.631581 
L 145.895283 -317.247725 
L 147.074178 -317.863869 
L 148.253073 -318.480013 
L 149.431968 -319.096157 
L 150.610863 -319.7123 
L 151.789758 -320.328444 
L 152.968653 -320.944588 
L 154.147548 -321.560732 
L 155.326443 -322.176875 
L 156.505338 -322.793019 
L 157.684233 -323.409163 
L 158.863128 -324.025307 
L 160.042023 -324.64145 
L 161.220918 -325.257594 
L 162.399813 -325.873738 
L 163.578708 -326.489882 
L 164.757603 -327.106025 
L 165.936498 -327.722169 
L 167.115393 -328.338313 
L 168.294288 -328.954457 
L 169.473183 -329.5706 
L 170.652078 -330.186744 
L 171.830973 -330.802888 
L 173.009868 -331.419032 
L 174.188763 -332.035175 
L 175.367658 -332.651319 
L 176.546553 -333.267463 
L 177.725448 -333.883607 
L 178.904343 -334.49975 
L 180.083238 -335.115894 
L 181.262133 -335.732038 
L 182.441028 -336.348182 
L 183.619923 -336.964325 
L 184.798818 -337.580469 
L 185.977713 -338.196613 
L 187.156608 -338.812757 
L 188.335503 -339.4289 
L 189.514398 -340.045044 
L 190.693293 -340.661188 
L 191.872188 -341.277332 
L 193.051083 -341.893475 
L 194.229978 -342.509619 
L 195.408873 -343.125763 
L 196.587768 -343.741907 
L 197.766663 -344.35805 
L 198.945558 -344.974194 
L 200.124453 -345.590338 
L 201.303348 -346.206482 
L 202.482243 -346.822625 
L 203.661138 -347.438769 
L 204.840033 -348.054913 
L 206.018928 -348.671057 
L 207.197823 -349.2872 
L 208.376718 -349.903344 
L 209.555613 -350.519488 
L 210.734508 -351.135632 
L 211.913403 -351.751775 
L 213.092298 -352.367919 
L 214.271193 -352.984063 
L 215.450088 -353.600207 
L 216.628983 -354.21635 
L 217.807878 -354.832494 
L 218.986773 -355.448638 
L 220.165668 -356.064782 
L 221.344563 -356.680925 
L 222.523458 -357.297069 
L 223.702353 -357.913213 
L 224.881248 -358.529357 
L 226.060143 -359.1455 
L 227.239038 -359.761644 
L 228.417933 -360.377788 
L 229.596828 -360.993932 
L 230.775723 -361.610075 
L 231.954618 -362.226219 
L 233.133513 -362.842363 
L 234.312408 -363.458507 
L 235.491303 -364.07465 
L 236.670198 -364.690794 
L 237.849093 -365.306938 
L 239.027988 -365.923082 
L 240.206883 -366.539225 
L 241.385778 -367.155369 
L 242.564673 -367.771513 
L 243.743568 -368.387657 
L 244.922463 -369.0038 
L 246.101358 -369.619944 
L 247.280253 -370.236088 
L 248.459148 -370.852232 
L 249.638043 -371.468375 
L 250.816938 -372.084519 
L 251.995833 -372.700663 
L 253.174728 -373.316807 
L 254.353623 -373.93295 
L 255.532518 -374.549094 
L 256.711413 -375.165238 
L 257.890308 -375.781382 
L 259.069203 -376.397525 
L 260.248098 -377.013669 
L 261.426993 -377.629813 
L 262.605888 -378.245957 
L 263.784783 -378.8621 
L 264.963678 -379.478244 
L 266.142573 -380.094388 
L 267.321468 -380.710532 
L 268.500363 -381.326675 
L 269.679258 -381.942819 
L 270.858153 -382.558963 
L 272.037048 -383.175107 
L 273.215943 -383.79125 
L 274.394838 -384.407394 
L 275.573733 -385.023538 
L 276.752628 -385.639682 
L 277.931523 -386.255825 
L 279.110418 -386.871969 
L 280.289313 -387.488113 
L 281.468208 -388.104257 
L 282.647103 -388.7204 
L 283.825998 -389.336544 
L 285.004893 -389.952688 
L 286.183788 -390.568832 
L 287.362683 -391.184975 
L 288.541578 -391.801119 
L 289.720473 -392.417263 
L 290.899368 -393.033407 
L 292.078263 -393.64955 
L 293.257158 -394.265694 
L 294.436053 -394.881838 
L 295.614948 -395.497982 
L 296.793843 -396.114125 
L 297.972738 -396.730269 
L 299.151633 -397.346413 
L 300.330528 -397.962557 
L 301.509423 -398.5787 
L 302.688318 -399.194844 
L 303.867213 -399.810988 
L 305.046108 -400.427132 
L 306.225003 -401.043275 
L 307.403898 -401.659419 
L 308.582793 -402.275563 
L 309.761688 -402.891707 
L 310.940583 -403.50785 
L 312.119478 -404.123994 
L 313.298373 -404.740138 
L 314.477268 -405.356282 
L 315.656163 -405.972425 
L 316.835058 -406.588569 
L 318.013953 -407.204713 
L 319.192848 -407.820857 
L 320.371743 -408.437 
L 321.550638 -409.053144 
L 322.729533 -409.669288 
L 323.908428 -410.285432 
L 325.087323 -410.901575 
L 326.266218 -411.517719 
L 327.445113 -412.133863 
L 328.624008 -412.750007 
L 329.802903 -413.36615 
L 330.981798 -413.982294 
L 332.160693 -414.598438 
L 333.339588 -415.214582 
L 334.518483 -415.830725 
L 335.697378 -416.446869 
L 336.876273 -417.063013 
L 338.055168 -417.679157 
L 339.234063 -418.2953 
L 340.412958 -418.911444 
L 341.591853 -419.527588 
L 342.770748 -420.143732 
L 343.949643 -420.759875 
L 345.128538 -421.376019 
L 346.307433 -421.992163 
L 347.486328 -422.608307 
L 348.665223 -423.22445 
L 349.844118 -423.840594 
L 351.023013 -424.456738 
L 352.201908 -425.072882 
L 353.380803 -425.127078 
L 354.559698 -425.127078 
L 355.738593 -425.127078 
L 356.917488 -425.127078 
L 358.096383 -425.127078 
L 359.275278 -425.127078 
L 360.454173 -425.127078 
L 361.633068 -425.127078 
L 362.811963 -425.127078 
L 363.990858 -425.127078 
L 365.169753 -425.127078 
L 366.348648 -425.127078 
L 367.527543 -425.127078 
L 368.706438 -425.127078 
L 369.885333 -425.127078 
L 371.064228 -425.127078 
L 372.243123 -425.127078 
L 373.422018 -425.127078 
L 374.600913 -425.127078 
L 375.779808 -425.127078 
L 376.958703 -425.127078 
L 378.137598 -425.127078 
L 379.316493 -425.127078 
L 380.495388 -425.127078 
L 381.674283 -425.127078 
L 382.853178 -425.127078 
L 384.032073 -425.127078 
L 385.210968 -425.127078 
L 386.389863 -425.127078 
L 387.568758 -425.127078 
L 388.747653 -425.127078 
L 389.926548 -425.127078 
L 391.105443 -425.127078 
L 392.284338 -425.127078 
L 393.463233 -425.127078 
L 394.642128 -425.127078 
L 395.821023 -425.127078 
L 396.999918 -425.127078 
L 398.178813 -425.127078 
L 399.357708 -425.127078 
L 400.536603 -425.127078 
L 401.715498 -425.127078 
L 402.894393 -425.127078 
L 404.073288 -425.127078 
L 405.252183 -425.127078 
L 406.431078 -425.127078 
L 407.609973 -425.127078 
L 408.788868 -425.127078 
L 409.967763 -425.127078 
L 411.146658 -425.127078 
L 412.325553 -425.127078 
L 413.504448 -425.127078 
L 414.683343 -425.127078 
L 415.862238 -425.127078 
L 417.041133 -425.127078 
L 418.220028 -425.127078 
L 419.398923 -425.127078 
L 420.577818 -425.127078 
L 421.756713 -425.127078 
L 422.935608 -425.127078 
L 424.114503 -425.127078 
L 425.293398 -425.127078 
L 426.472293 -425.127078 
L 427.651188 -425.127078 
L 428.830083 -425.127078 
L 430.008978 -425.127078 
L 431.187873 -425.127078 
L 432.366768 -425.127078 
L 433.545663 -425.127078 
L 434.724558 -425.127078 
L 435.903453 -425.127078 
L 437.082348 -425.127078 
L 438.261243 -425.127078 
L 439.440138 -425.127078 
L 440.619033 -425.127078 
L 441.797928 -425.127078 
L 442.976823 -425.127078 
L 444.155718 -425.127078 
L 445.334613 -425.127078 
L 446.513508 -425.127078 
L 447.692403 -425.127078 
L 448.871298 -425.127078 
L 450.050193 -425.127078 
L 451.229088 -425.127078 
L 452.407983 -425.127078 
L 453.586878 -425.127078 
L 454.765773 -425.127078 
L 455.944668 -425.127078 
L 457.123563 -425.127078 
L 458.302458 -425.127078 
L 459.481353 -425.127078 
L 460.660248 -425.127078 
L 461.839143 -425.127078 
L 463.018038 -425.127078 
L 464.196933 -425.127078 
L 465.375828 -425.127078 
L 466.554723 -425.127078 
L 467.733618 -425.127078 
L 468.912513 -425.127078 
L 470.091408 -425.127078 
L 471.270303 -425.127078 
L 472.449198 -425.127078 
L 473.628093 -425.127078 
L 474.806988 -425.127078 
L 475.985883 -425.127078 
L 477.164778 -425.127078 
L 478.343673 -425.127078 
L 479.522568 -425.127078 
L 480.701463 -425.127078 
L 481.880358 -425.127078 
L 483.059253 -425.127078 
L 484.238148 -425.127078 
L 485.417043 -425.127078 
L 486.595938 -425.127078 
L 487.774833 -425.127078 
L 488.953728 -425.127078 
L 490.132623 -425.127078 
L 491.311518 -425.127078 
L 492.490413 -425.127078 
L 493.669308 -425.127078 
L 494.848203 -425.127078 
L 496.027098 -425.127078 
L 497.205993 -425.127078 
L 498.384888 -425.127078 
L 499.563783 -425.127078 
L 500.742678 -425.127078 
L 501.921573 -425.127078 
L 503.100468 -425.127078 
L 504.279363 -425.127078 
L 505.458258 -425.127078 
L 506.637153 -425.127078 
L 507.816048 -425.127078 
L 508.994943 -425.127078 
L 510.173838 -425.127078 
L 511.352733 -425.127078 
L 512.531628 -425.127078 
L 513.710523 -425.127078 
L 514.889418 -425.127078 
L 516.068313 -425.127078 
L 517.247208 -425.127078 
L 518.426103 -425.127078 
L 519.604998 -425.127078 
L 520.783893 -425.127078 
L 521.962788 -425.127078 
L 523.141683 -425.127078 
L 524.320578 -425.127078 
L 525.499473 -425.127078 
L 526.678368 -425.127078 
L 527.857263 -425.127078 
L 529.036158 -425.127078 
L 530.215053 -425.127078 
L 531.393948 -425.127078 
L 532.572843 -425.127078 
L 533.751738 -425.127078 
L 534.930633 -425.127078 
L 536.109528 -425.127078 
L 537.288423 -425.127078 
L 538.467318 -425.127078 
L 539.646213 -425.127078 
L 540.825108 -425.127078 
L 542.004003 -425.127078 
L 543.182898 -425.127078 
L 544.361793 -425.127078 
L 545.540688 -425.127078 
L 546.719583 -425.127078 
L 547.898478 -425.127078 
L 549.077373 -425.127078 
L 550.256268 -425.127078 
L 551.435163 -425.127078 
L 552.614058 -425.127078 
L 553.792953 -425.127078 
L 554.971848 -425.127078 
L 556.150743 -425.127078 
L 557.329638 -425.127078 
L 558.508533 -425.127078 
L 559.687428 -425.127078 
L 560.866323 -425.127078 
L 562.045218 -425.127078 
L 563.224113 -425.127078 
L 564.403008 -425.127078 
L 565.581903 -425.127078 
L 566.760798 -425.127078 
L 567.939693 -425.127078 
L 569.118588 -425.127078 
L 570.297483 -425.127078 
L 571.476378 -425.127078 
L 572.655273 -425.127078 
L 573.834168 -425.127078 
L 575.013063 -425.127078 
L 576.191958 -425.127078 
L 577.370853 -425.127078 
L 578.549748 -425.127078 
L 579.728643 -425.127078 
L 580.907538 -425.127078 
L 582.086433 -425.127078 
L 583.265328 -425.127078 
L 584.444223 -425.127078 
L 585.623118 -425.127078 
L 586.802013 -425.127078 
L 587.980908 -425.127078 
L 589.159803 -425.127078 
L 590.338698 -425.127078 
L 591.517593 -425.127078 
L 592.696488 -425.127078 
L 593.875383 -425.127078 
L 595.054278 -425.127078 
L 596.233173 -425.127078 
L 597.412068 -425.127078 
L 598.590963 -425.127078 
L 599.769858 -425.127078 
L 600.948753 -425.127078 
L 602.127648 -425.127078 
L 603.306543 -425.127078 
L 604.485438 -425.127078 
L 605.664333 -425.127078 
L 606.843228 -425.127078 
L 608.022123 -425.127078 
L 609.201018 -425.127078 
L 610.379913 -425.127078 
L 611.558808 -425.127078 
L 612.737703 -425.127078 
L 613.916598 -425.127078 
L 615.095493 -425.127078 
L 616.274388 -425.127078 
L 617.453284 -425.127078 
L 618.632179 -425.127078 
L 619.811074 -425.127078 
L 620.989969 -425.127078 
L 622.168864 -425.127078 
L 623.347759 -425.127078 
L 624.526654 -425.127078 
L 625.705549 -425.127078 
L 626.884444 -425.127078 
L 628.063339 -425.127078 
L 629.242234 -425.127078 
L 630.421129 -425.127078 
L 631.600024 -425.127078 
L 632.778919 -425.127078 
L 632.778919 -545.356691 
L 632.778919 -545.356691 
L 631.600024 -545.356691 
L 630.421129 -545.356691 
L 629.242234 -545.356691 
L 628.063339 -545.356691 
L 626.884444 -545.356691 
L 625.705549 -545.356691 
L 624.526654 -545.356691 
L 623.347759 -545.356691 
L 622.168864 -545.356691 
L 620.989969 -545.356691 
L 619.811074 -545.356691 
L 618.632179 -545.356691 
L 617.453284 -545.356691 
L 616.274388 -545.356691 
L 615.095493 -545.356691 
L 613.916598 -545.356691 
L 612.737703 -545.356691 
L 611.558808 -545.356691 
L 610.379913 -545.356691 
L 609.201018 -545.356691 
L 608.022123 -545.356691 
L 606.843228 -545.356691 
L 605.664333 -545.356691 
L 604.485438 -545.356691 
L 603.306543 -545.356691 
L 602.127648 -545.356691 
L 600.948753 -545.356691 
L 599.769858 -545.356691 
L 598.590963 -545.356691 
L 597.412068 -545.356691 
L 596.233173 -545.356691 
L 595.054278 -545.356691 
L 593.875383 -545.356691 
L 592.696488 -545.356691 
L 591.517593 -545.356691 
L 590.338698 -545.356691 
L 589.159803 -545.356691 
L 587.980908 -545.356691 
L 586.802013 -545.356691 
L 585.623118 -545.356691 
L 584.444223 -545.356691 
L 583.265328 -545.356691 
L 582.086433 -545.356691 
L 580.907538 -545.356691 
L 579.728643 -545.356691 
L 578.549748 -545.356691 
L 577.370853 -545.356691 
L 576.191958 -545.356691 
L 575.013063 -545.356691 
L 573.834168 -545.356691 
L 572.655273 -545.356691 
L 571.476378 -545.356691 
L 570.297483 -545.356691 
L 569.118588 -545.356691 
L 567.939693 -545.356691 
L 566.760798 -545.356691 
L 565.581903 -545.356691 
L 564.403008 -545.356691 
L 563.224113 -545.356691 
L 562.045218 -545.356691 
L 560.866323 -545.356691 
L 559.687428 -545.356691 
L 558.508533 -545.356691 
L 557.329638 -545.356691 
L 556.150743 -545.356691 
L 554.971848 -545.356691 
L 553.792953 -545.356691 
L 552.614058 -545.356691 
L 551.435163 -545.356691 
L 550.256268 -545.356691 
L 549.077373 -545.356691 
L 547.898478 -545.356691 
L 546.719583 -545.356691 
L 545.540688 -545.356691 
L 544.361793 -545.356691 
L 543.182898 -545.356691 
L 542.004003 -545.356691 
L 540.825108 -545.356691 
L 539.646213 -545.356691 
L 538.467318 -545.356691 
L 537.288423 -545.356691 
L 536.109528 -545.356691 
L 534.930633 -545.356691 
L 533.751738 -545.356691 
L 532.572843 -545.356691 
L 531.393948 -545.356691 
L 530.215053 -545.356691 
L 529.036158 -545.356691 
L 527.857263 -545.356691 
L 526.678368 -545.356691 
L 525.499473 -545.356691 
L 524.320578 -545.356691 
L 523.141683 -545.356691 
L 521.962788 -545.356691 
L 520.783893 -545.356691 
L 519.604998 -545.356691 
L 518.426103 -545.356691 
L 517.247208 -545.356691 
L 516.068313 -545.356691 
L 514.889418 -545.356691 
L 513.710523 -545.356691 
L 512.531628 -545.356691 
L 511.352733 -545.356691 
L 510.173838 -545.356691 
L 508.994943 -545.356691 
L 507.816048 -545.356691 
L 506.637153 -545.356691 
L 505.458258 -545.356691 
L 504.279363 -545.356691 
L 503.100468 -545.356691 
L 501.921573 -545.356691 
L 500.742678 -545.356691 
L 499.563783 -545.356691 
L 498.384888 -545.356691 
L 497.205993 -545.356691 
L 496.027098 -545.356691 
L 494.848203 -545.356691 
L 493.669308 -545.356691 
L 492.490413 -545.356691 
L 491.311518 -545.356691 
L 490.132623 -545.356691 
L 488.953728 -545.356691 
L 487.774833 -545.356691 
L 486.595938 -545.356691 
L 485.417043 -545.356691 
L 484.238148 -545.356691 
L 483.059253 -545.356691 
L 481.880358 -545.356691 
L 480.701463 -545.356691 
L 479.522568 -545.356691 
L 478.343673 -545.356691 
L 477.164778 -545.356691 
L 475.985883 -545.356691 
L 474.806988 -545.356691 
L 473.628093 -545.356691 
L 472.449198 -545.356691 
L 471.270303 -545.356691 
L 470.091408 -545.356691 
L 468.912513 -545.356691 
L 467.733618 -545.356691 
L 466.554723 -545.356691 
L 465.375828 -545.356691 
L 464.196933 -545.356691 
L 463.018038 -545.356691 
L 461.839143 -545.356691 
L 460.660248 -545.356691 
L 459.481353 -545.356691 
L 458.302458 -545.356691 
L 457.123563 -545.356691 
L 455.944668 -545.356691 
L 454.765773 -545.356691 
L 453.586878 -545.356691 
L 452.407983 -545.356691 
L 451.229088 -545.356691 
L 450.050193 -545.356691 
L 448.871298 -545.356691 
L 447.692403 -545.356691 
L 446.513508 -545.356691 
L 445.334613 -545.356691 
L 444.155718 -545.356691 
L 442.976823 -545.356691 
L 441.797928 -545.356691 
L 440.619033 -545.356691 
L 439.440138 -545.356691 
L 438.261243 -545.356691 
L 437.082348 -545.356691 
L 435.903453 -545.356691 
L 434.724558 -545.356691 
L 433.545663 -545.356691 
L 432.366768 -545.356691 
L 431.187873 -545.356691 
L 430.008978 -545.356691 
L 428.830083 -545.356691 
L 427.651188 -545.356691 
L 426.472293 -545.356691 
L 425.293398 -545.356691 
L 424.114503 -545.356691 
L 422.935608 -545.356691 
L 421.756713 -545.356691 
L 420.577818 -545.356691 
L 419.398923 -545.356691 
L 418.220028 -545.356691 
L 417.041133 -545.356691 
L 415.862238 -545.356691 
L 414.683343 -545.356691 
L 413.504448 -545.356691 
L 412.325553 -545.356691 
L 411.146658 -545.356691 
L 409.967763 -545.356691 
L 408.788868 -545.356691 
L 407.609973 -545.356691 
L 406.431078 -545.356691 
L 405.252183 -545.356691 
L 404.073288 -545.356691 
L 402.894393 -545.356691 
L 401.715498 -545.356691 
L 400.536603 -545.356691 
L 399.357708 -545.356691 
L 398.178813 -545.356691 
L 396.999918 -545.356691 
L 395.821023 -545.356691 
L 394.642128 -545.356691 
L 393.463233 -545.356691 
L 392.284338 -545.356691 
L 391.105443 -545.356691 
L 389.926548 -545.356691 
L 388.747653 -545.356691 
L 387.568758 -545.356691 
L 386.389863 -545.356691 
L 385.210968 -545.356691 
L 384.032073 -545.356691 
L 382.853178 -545.356691 
L 381.674283 -545.356691 
L 380.495388 -545.356691 
L 379.316493 -545.356691 
L 378.137598 -545.356691 
L 376.958703 -545.356691 
L 375.779808 -545.356691 
L 374.600913 -545.356691 
L 373.422018 -545.356691 
L 372.243123 -545.356691 
L 371.064228 -545.356691 
L 369.885333 -545.356691 
L 368.706438 -545.356691 
L 367.527543 -545.356691 
L 366.348648 -545.356691 
L 365.169753 -545.356691 
L 363.990858 -545.356691 
L 362.811963 -545.356691 
L 361.633068 -545.356691 
L 360.454173 -545.356691 
L 359.275278 -545.356691 
L 358.096383 -545.356691 
L 356.917488 -545.356691 
L 355.738593 -545.356691 
L 354.559698 -545.356691 
L 353.380803 -545.356691 
L 352.201908 -545.356691 
L 351.023013 -545.356691 
L 349.844118 -545.356691 
L 348.665223 -545.356691 
L 347.486328 -545.356691 
L 346.307433 -545.356691 
L 345.128538 -545.356691 
L 343.949643 -545.356691 
L 342.770748 -545.356691 
L 341.591853 -545.356691 
L 340.412958 -545.356691 
L 339.234063 -545.356691 
L 338.055168 -545.356691 
L 336.876273 -545.356691 
L 335.697378 -545.356691 
L 334.518483 -545.356691 
L 333.339588 -545.356691 
L 332.160693 -545.356691 
L 330.981798 -545.356691 
L 329.802903 -545.356691 
L 328.624008 -545.356691 
L 327.445113 -545.356691 
L 326.266218 -545.356691 
L 325.087323 -545.356691 
L 323.908428 -545.356691 
L 322.729533 -545.356691 
L 321.550638 -545.356691 
L 320.371743 -545.356691 
L 319.192848 -545.356691 
L 318.013953 -545.356691 
L 316.835058 -545.356691 
L 315.656163 -545.356691 
L 314.477268 -545.356691 
L 313.298373 -545.356691 
L 312.119478 -545.356691 
L 310.940583 -545.356691 
L 309.761688 -545.356691 
L 308.582793 -545.356691 
L 307.403898 -545.356691 
L 306.225003 -545.356691 
L 305.046108 -545.356691 
L 303.867213 -545.356691 
L 302.688318 -545.356691 
L 301.509423 -545.356691 
L 300.330528 -545.356691 
L 299.151633 -545.356691 
L 297.972738 -545.356691 
L 296.793843 -545.356691 
L 295.614948 -545.356691 
L 294.436053 -545.356691 
L 293.257158 -545.356691 
L 292.078263 -545.356691 
L 290.899368 -545.356691 
L 289.720473 -545.356691 
L 288.541578 -545.356691 
L 287.362683 -545.356691 
L 286.183788 -545.356691 
L 285.004893 -545.356691 
L 283.825998 -545.356691 
L 282.647103 -545.356691 
L 281.468208 -545.356691 
L 280.289313 -545.356691 
L 279.110418 -545.356691 
L 277.931523 -545.356691 
L 276.752628 -545.356691 
L 275.573733 -545.356691 
L 274.394838 -545.356691 
L 273.215943 -545.356691 
L 272.037048 -545.356691 
L 270.858153 -545.356691 
L 269.679258 -545.356691 
L 268.500363 -545.356691 
L 267.321468 -545.356691 
L 266.142573 -545.356691 
L 264.963678 -545.356691 
L 263.784783 -545.356691 
L 262.605888 -545.356691 
L 261.426993 -545.356691 
L 260.248098 -545.356691 
L 259.069203 -545.356691 
L 257.890308 -545.356691 
L 256.711413 -545.356691 
L 255.532518 -545.356691 
L 254.353623 -545.356691 
L 253.174728 -545.356691 
L 251.995833 -545.356691 
L 250.816938 -545.356691 
L 249.638043 -545.356691 
L 248.459148 -545.356691 
L 247.280253 -545.356691 
L 246.101358 -545.356691 
L 244.922463 -545.356691 
L 243.743568 -545.356691 
L 242.564673 -545.356691 
L 241.385778 -545.356691 
L 240.206883 -545.356691 
L 239.027988 -545.356691 
L 237.849093 -545.356691 
L 236.670198 -545.356691 
L 235.491303 -545.356691 
L 234.312408 -545.356691 
L 233.133513 -545.356691 
L 231.954618 -545.356691 
L 230.775723 -545.356691 
L 229.596828 -545.356691 
L 228.417933 -545.356691 
L 227.239038 -545.356691 
L 226.060143 -545.356691 
L 224.881248 -545.356691 
L 223.702353 -545.356691 
L 222.523458 -545.356691 
L 221.344563 -545.356691 
L 220.165668 -545.356691 
L 218.986773 -545.356691 
L 217.807878 -545.356691 
L 216.628983 -545.356691 
L 215.450088 -545.356691 
L 214.271193 -545.356691 
L 213.092298 -545.356691 
L 211.913403 -545.356691 
L 210.734508 -545.356691 
L 209.555613 -545.356691 
L 208.376718 -545.356691 
L 207.197823 -545.356691 
L 206.018928 -545.356691 
L 204.840033 -545.356691 
L 203.661138 -545.356691 
L 202.482243 -545.356691 
L 201.303348 -545.356691 
L 200.124453 -545.356691 
L 198.945558 -545.356691 
L 197.766663 -545.356691 
L 196.587768 -545.356691 
L 195.408873 -545.356691 
L 194.229978 -545.356691 
L 193.051083 -545.356691 
L 191.872188 -545.356691 
L 190.693293 -545.356691 
L 189.514398 -545.356691 
L 188.335503 -545.356691 
L 187.156608 -545.356691 
L 185.977713 -545.356691 
L 184.798818 -545.356691 
L 183.619923 -545.356691 
L 182.441028 -545.356691 
L 181.262133 -545.356691 
L 180.083238 -545.356691 
L 178.904343 -545.356691 
L 177.725448 -545.356691 
L 176.546553 -545.356691 
L 175.367658 -545.356691 
L 174.188763 -545.356691 
L 173.009868 -545.356691 
L 171.830973 -545.356691 
L 170.652078 -545.356691 
L 169.473183 -545.356691 
L 168.294288 -545.356691 
L 167.115393 -545.356691 
L 165.936498 -545.356691 
L 164.757603 -545.356691 
L 163.578708 -545.356691 
L 162.399813 -545.356691 
L 161.220918 -545.356691 
L 160.042023 -545.356691 
L 158.863128 -545.356691 
L 157.684233 -545.356691 
L 156.505338 -545.356691 
L 155.326443 -545.356691 
L 154.147548 -545.356691 
L 152.968653 -545.356691 
L 151.789758 -545.356691 
L 150.610863 -545.356691 
L 149.431968 -545.356691 
L 148.253073 -545.356691 
L 147.074178 -545.356691 
L 145.895283 -545.356691 
L 144.716388 -545.356691 
L 143.537493 -545.356691 
L 142.358598 -545.356691 
L 141.179703 -545.356691 
L 140.000808 -545.356691 
L 138.821913 -545.356691 
L 137.643018 -545.356691 
L 136.464123 -545.356691 
L 135.285228 -545.356691 
L 134.106333 -545.356691 
L 132.927438 -545.356691 
L 131.748543 -545.356691 
L 130.569648 -545.356691 
L 129.390753 -545.356691 
L 128.211858 -545.356691 
L 127.032963 -545.356691 
L 125.854068 -545.356691 
L 124.675173 -545.356691 
L 123.496278 -545.356691 
L 122.317383 -545.356691 
L 121.138488 -545.356691 
L 119.959593 -545.356691 
L 118.780698 -545.356691 
L 117.601803 -545.356691 
L 116.422908 -545.356691 
L 115.244013 -545.356691 
L 114.065118 -545.356691 
L 112.886223 -545.356691 
L 111.707328 -545.356691 
L 110.528433 -545.356691 
L 109.349538 -545.356691 
L 108.170643 -545.356691 
L 106.991748 -545.356691 
L 105.812853 -545.356691 
L 104.633958 -545.356691 
L 103.455063 -545.356691 
L 102.276168 -545.356691 
L 101.097273 -545.356691 
L 99.918378 -545.356691 
L 98.739483 -545.356691 
L 97.560588 -545.356691 
L 96.381693 -545.356691 
L 95.202798 -545.356691 
L 94.023903 -545.356691 
L 92.845008 -545.356691 
L 91.666113 -545.356691 
L 90.487218 -545.356691 
L 89.308323 -545.356691 
L 88.129428 -545.356691 
L 86.950533 -545.356691 
L 85.771638 -545.356691 
L 84.592743 -545.356691 
L 83.413848 -545.356691 
L 82.234953 -545.356691 
L 81.056058 -545.356691 
L 79.877163 -545.356691 
L 78.698268 -545.356691 
L 77.519373 -545.356691 
L 76.340478 -545.356691 
L 75.161583 -545.356691 
L 73.982688 -545.356691 
L 72.803793 -545.356691 
L 71.624898 -545.356691 
L 70.446003 -545.356691 
L 69.267108 -545.356691 
L 68.088213 -545.356691 
L 66.909318 -545.356691 
L 65.730423 -545.356691 
L 64.551528 -545.356691 
L 63.372633 -545.356691 
L 62.193738 -545.356691 
L 61.014843 -545.356691 
L 59.835948 -545.356691 
L 58.657053 -545.356691 
L 57.478158 -545.356691 
L 56.299263 -545.356691 
L 55.120368 -545.356691 
L 53.941473 -545.356691 
L 52.762578 -545.356691 
L 51.583683 -545.356691 
L 50.404788 -545.356691 
L 49.225893 -545.356691 
L 48.046998 -545.356691 
L 46.868103 -545.356691 
L 45.689208 -545.356691 
L 44.510312 -545.356691 
z
" style="stroke: #eceff1; stroke-opacity: 0.45"/>
    </defs>
    <g clip-path="url(#p5284962ecf)">
     <use xlink:href="#m0eb8e4b5be" x="0" y="408.12942" style="fill: #eceff1; fill-opacity: 0.45; stroke: #eceff1; stroke-opacity: 0.45"/>
    </g>
   </g>
   <g id="matplotlib.axis_1">
    <g id="xtick_1">
     <g id="line2d_1">
      <path d="M 51.371617 371.540982 
L 51.371617 22.318125 
" clip-path="url(#p5284962ecf)" style="fill: none; stroke: #f4f4f4; stroke-width: 0.8; stroke-linecap: square"/>
     </g>
     <g id="line2d_2">
      <defs>
       <path id="m639618a416" d="M 0 0 
L 0 3.5 
" style="stroke: #000000; stroke-width: 0.8"/>
      </defs>
      <g>
       <use xlink:href="#m639618a416" x="51.371617" y="371.540982" style="stroke: #000000; stroke-width: 0.8"/>
      </g>
     </g>
     <g id="text_1">
      <!-- $\mathdefault{10^{1}}$ -->
      <g transform="translate(42.571617 386.13942) scale(0.1 -0.1)">
       <defs>
        <path id="DejaVuSans-31" d="M 794 531 
L 1825 531 
L 1825 4091 
L 703 3866 
L 703 4441 
L 1819 4666 
L 2450 4666 
L 2450 531 
L 3481 531 
L 3481 0 
L 794 0 
L 794 531 
z
" transform="scale(0.015625)"/>
        <path id="DejaVuSans-30" d="M 2034 4250 
Q 1547 4250 1301 3770 
Q 1056 3291 1056 2328 
Q 1056 1369 1301 889 
Q 1547 409 2034 409 
Q 2525 409 2770 889 
Q 3016 1369 3016 2328 
Q 3016 3291 2770 3770 
Q 2525 4250 2034 4250 
z
M 2034 4750 
Q 2819 4750 3233 4129 
Q 3647 3509 3647 2328 
Q 3647 1150 3233 529 
Q 2819 -91 2034 -91 
Q 1250 -91 836 529 
Q 422 1150 422 2328 
Q 422 3509 836 4129 
Q 1250 4750 2034 4750 
z
" transform="scale(0.015625)"/>
       </defs>
       <use xlink:href="#DejaVuSans-31" transform="translate(0 0.684375)"/>
       <use xlink:href="#DejaVuSans-30" transform="translate(63.623047 0.684375)"/>
       <use xlink:href="#DejaVuSans-31" transform="translate(128.203125 38.965625) scale(0.7)"/>
      </g>
     </g>
    </g>
    <g id="xtick_2">
     <g id="line2d_3">
      <path d="M 280.362496 371.540982 
L 280.362496 22.318125 
" clip-path="url(#p5284962ecf)" style="fill: none; stroke: #f4f4f4; stroke-width: 0.8; stroke-linecap: square"/>
     </g>
     <g id="line2d_4">
      <g>
       <use xlink:href="#m639618a416" x="280.362496" y="371.540982" style="stroke: #000000; stroke-width: 0.8"/>
      </g>
     </g>
     <g id="text_2">
      <!-- $\mathdefault{10^{2}}$ -->
      <g transform="translate(271.562496 386.13942) scale(0.1 -0.1)">
       <defs>
        <path id="DejaVuSans-32" d="M 1228 531 
L 3431 531 
L 3431 0 
L 469 0 
L 469 531 
Q 828 903 1448 1529 
Q 2069 2156 2228 2338 
Q 2531 2678 2651 2914 
Q 2772 3150 2772 3378 
Q 2772 3750 2511 3984 
Q 2250 4219 1831 4219 
Q 1534 4219 1204 4116 
Q 875 4013 500 3803 
L 500 4441 
Q 881 4594 1212 4672 
Q 1544 4750 1819 4750 
Q 2544 4750 2975 4387 
Q 3406 4025 3406 3419 
Q 3406 3131 3298 2873 
Q 3191 2616 2906 2266 
Q 2828 2175 2409 1742 
Q 1991 1309 1228 531 
z
" transform="scale(0.015625)"/>
       </defs>
       <use xlink:href="#DejaVuSans-31" transform="translate(0 0.765625)"/>
       <use xlink:href="#DejaVuSans-30" transform="translate(63.623047 0.765625)"/>
       <use xlink:href="#DejaVuSans-32" transform="translate(128.203125 39.046875) scale(0.7)"/>
      </g>
     </g>
    </g>
    <g id="xtick_3">
     <g id="line2d_5">
      <path d="M 509.353375 371.540982 
L 509.353375 22.318125 
" clip-path="url(#p5284962ecf)" style="fill: none; stroke: #f4f4f4; stroke-width: 0.8; stroke-linecap: square"/>
     </g>
     <g id="line2d_6">
      <g>
       <use xlink:href="#m639618a416" x="509.353375" y="371.540982" style="stroke: #000000; stroke-width: 0.8"/>
      </g>
     </g>
     <g id="text_3">
      <!-- $\mathdefault{10^{3}}$ -->
      <g transform="translate(500.553375 386.13942) scale(0.1 -0.1)">
       <defs>
        <path id="DejaVuSans-33" d="M 2597 2516 
Q 3050 2419 3304 2112 
Q 3559 1806 3559 1356 
Q 3559 666 3084 287 
Q 2609 -91 1734 -91 
Q 1441 -91 1130 -33 
Q 819 25 488 141 
L 488 750 
Q 750 597 1062 519 
Q 1375 441 1716 441 
Q 2309 441 2620 675 
Q 2931 909 2931 1356 
Q 2931 1769 2642 2001 
Q 2353 2234 1838 2234 
L 1294 2234 
L 1294 2753 
L 1863 2753 
Q 2328 2753 2575 2939 
Q 2822 3125 2822 3475 
Q 2822 3834 2567 4026 
Q 2313 4219 1838 4219 
Q 1578 4219 1281 4162 
Q 984 4106 628 3988 
L 628 4550 
Q 988 4650 1302 4700 
Q 1616 4750 1894 4750 
Q 2613 4750 3031 4423 
Q 3450 4097 3450 3541 
Q 3450 3153 3228 2886 
Q 3006 2619 2597 2516 
z
" transform="scale(0.015625)"/>
       </defs>
       <use xlink:href="#DejaVuSans-31" transform="translate(0 0.765625)"/>
       <use xlink:href="#DejaVuSans-30" transform="translate(63.623047 0.765625)"/>
       <use xlink:href="#DejaVuSans-33" transform="translate(128.203125 39.046875) scale(0.7)"/>
      </g>
     </g>
    </g>
    <g id="xtick_4">
     <g id="line2d_7">
      <path d="M 120.304741 371.540982 
L 120.304741 22.318125 
" clip-path="url(#p5284962ecf)" style="fill: none; stroke: #f4f4f4; stroke-width: 0.8; stroke-linecap: square"/>
     </g>
     <g id="line2d_8">
      <defs>
       <path id="m71ed722f5d" d="M 0 0 
L 0 2 
" style="stroke: #000000; stroke-width: 0.6"/>
      </defs>
      <g>
       <use xlink:href="#m71ed722f5d" x="120.304741" y="371.540982" style="stroke: #000000; stroke-width: 0.6"/>
      </g>
     </g>
    </g>
    <g id="xtick_5">
     <g id="line2d_9">
      <path d="M 160.628033 371.540982 
L 160.628033 22.318125 
" clip-path="url(#p5284962ecf)" style="fill: none; stroke: #f4f4f4; stroke-width: 0.8; stroke-linecap: square"/>
     </g>
     <g id="line2d_10">
      <g>
       <use xlink:href="#m71ed722f5d" x="160.628033" y="371.540982" style="stroke: #000000; stroke-width: 0.6"/>
      </g>
     </g>
    </g>
    <g id="xtick_6">
     <g id="line2d_11">
      <path d="M 189.237864 371.540982 
L 189.237864 22.318125 
" clip-path="url(#p5284962ecf)" style="fill: none; stroke: #f4f4f4; stroke-width: 0.8; stroke-linecap: square"/>
     </g>
     <g id="line2d_12">
      <g>
       <use xlink:href="#m71ed722f5d" x="189.237864" y="371.540982" style="stroke: #000000; stroke-width: 0.6"/>
      </g>
     </g>
    </g>
    <g id="xtick_7">
     <g id="line2d_13">
      <path d="M 211.429373 371.540982 
L 211.429373 22.318125 
" clip-path="url(#p5284962ecf)" style="fill: none; stroke: #f4f4f4; stroke-width: 0.8; stroke-linecap: square"/>
     </g>
     <g id="line2d_14">
      <g>
       <use xlink:href="#m71ed722f5d" x="211.429373" y="371.540982" style="stroke: #000000; stroke-width: 0.6"/>
      </g>
     </g>
    </g>
    <g id="xtick_8">
     <g id="line2d_15">
      <path d="M 229.561156 371.540982 
L 229.561156 22.318125 
" clip-path="url(#p5284962ecf)" style="fill: none; stroke: #f4f4f4; stroke-width: 0.8; stroke-linecap: square"/>
     </g>
     <g id="line2d_16">
      <g>
       <use xlink:href="#m71ed722f5d" x="229.561156" y="371.540982" style="stroke: #000000; stroke-width: 0.6"/>
      </g>
     </g>
    </g>
    <g id="xtick_9">
     <g id="line2d_17">
      <path d="M 244.89136 371.540982 
L 244.89136 22.318125 
" clip-path="url(#p5284962ecf)" style="fill: none; stroke: #f4f4f4; stroke-width: 0.8; stroke-linecap: square"/>
     </g>
     <g id="line2d_18">
      <g>
       <use xlink:href="#m71ed722f5d" x="244.89136" y="371.540982" style="stroke: #000000; stroke-width: 0.6"/>
      </g>
     </g>
    </g>
    <g id="xtick_10">
     <g id="line2d_19">
      <path d="M 258.170987 371.540982 
L 258.170987 22.318125 
" clip-path="url(#p5284962ecf)" style="fill: none; stroke: #f4f4f4; stroke-width: 0.8; stroke-linecap: square"/>
     </g>
     <g id="line2d_20">
      <g>
       <use xlink:href="#m71ed722f5d" x="258.170987" y="371.540982" style="stroke: #000000; stroke-width: 0.6"/>
      </g>
     </g>
    </g>
    <g id="xtick_11">
     <g id="line2d_21">
      <path d="M 269.884448 371.540982 
L 269.884448 22.318125 
" clip-path="url(#p5284962ecf)" style="fill: none; stroke: #f4f4f4; stroke-width: 0.8; stroke-linecap: square"/>
     </g>
     <g id="line2d_22">
      <g>
       <use xlink:href="#m71ed722f5d" x="269.884448" y="371.540982" style="stroke: #000000; stroke-width: 0.6"/>
      </g>
     </g>
    </g>
    <g id="xtick_12">
     <g id="line2d_23">
      <path d="M 349.295619 371.540982 
L 349.295619 22.318125 
" clip-path="url(#p5284962ecf)" style="fill: none; stroke: #f4f4f4; stroke-width: 0.8; stroke-linecap: square"/>
     </g>
     <g id="line2d_24">
      <g>
       <use xlink:href="#m71ed722f5d" x="349.295619" y="371.540982" style="stroke: #000000; stroke-width: 0.6"/>
      </g>
     </g>
    </g>
    <g id="xtick_13">
     <g id="line2d_25">
      <path d="M 389.618911 371.540982 
L 389.618911 22.318125 
" clip-path="url(#p5284962ecf)" style="fill: none; stroke: #f4f4f4; stroke-width: 0.8; stroke-linecap: square"/>
     </g>
     <g id="line2d_26">
      <g>
       <use xlink:href="#m71ed722f5d" x="389.618911" y="371.540982" style="stroke: #000000; stroke-width: 0.6"/>
      </g>
     </g>
    </g>
    <g id="xtick_14">
     <g id="line2d_27">
      <path d="M 418.228742 371.540982 
L 418.228742 22.318125 
" clip-path="url(#p5284962ecf)" style="fill: none; stroke: #f4f4f4; stroke-width: 0.8; stroke-linecap: square"/>
     </g>
     <g id="line2d_28">
      <g>
       <use xlink:href="#m71ed722f5d" x="418.228742" y="371.540982" style="stroke: #000000; stroke-width: 0.6"/>
      </g>
     </g>
    </g>
    <g id="xtick_15">
     <g id="line2d_29">
      <path d="M 440.420252 371.540982 
L 440.420252 22.318125 
" clip-path="url(#p5284962ecf)" style="fill: none; stroke: #f4f4f4; stroke-width: 0.8; stroke-linecap: square"/>
     </g>
     <g id="line2d_30">
      <g>
       <use xlink:href="#m71ed722f5d" x="440.420252" y="371.540982" style="stroke: #000000; stroke-width: 0.6"/>
      </g>
     </g>
    </g>
    <g id="xtick_16">
     <g id="line2d_31">
      <path d="M 458.552035 371.540982 
L 458.552035 22.318125 
" clip-path="url(#p5284962ecf)" style="fill: none; stroke: #f4f4f4; stroke-width: 0.8; stroke-linecap: square"/>
     </g>
     <g id="line2d_32">
      <g>
       <use xlink:href="#m71ed722f5d" x="458.552035" y="371.540982" style="stroke: #000000; stroke-width: 0.6"/>
      </g>
     </g>
    </g>
    <g id="xtick_17">
     <g id="line2d_33">
      <path d="M 473.882239 371.540982 
L 473.882239 22.318125 
" clip-path="url(#p5284962ecf)" style="fill: none; stroke: #f4f4f4; stroke-width: 0.8; stroke-linecap: square"/>
     </g>
     <g id="line2d_34">
      <g>
       <use xlink:href="#m71ed722f5d" x="473.882239" y="371.540982" style="stroke: #000000; stroke-width: 0.6"/>
      </g>
     </g>
    </g>
    <g id="xtick_18">
     <g id="line2d_35">
      <path d="M 487.161866 371.540982 
L 487.161866 22.318125 
" clip-path="url(#p5284962ecf)" style="fill: none; stroke: #f4f4f4; stroke-width: 0.8; stroke-linecap: square"/>
     </g>
     <g id="line2d_36">
      <g>
       <use xlink:href="#m71ed722f5d" x="487.161866" y="371.540982" style="stroke: #000000; stroke-width: 0.6"/>
      </g>
     </g>
    </g>
    <g id="xtick_19">
     <g id="line2d_37">
      <path d="M 498.875327 371.540982 
L 498.875327 22.318125 
" clip-path="url(#p5284962ecf)" style="fill: none; stroke: #f4f4f4; stroke-width: 0.8; stroke-linecap: square"/>
     </g>
     <g id="line2d_38">
      <g>
       <use xlink:href="#m71ed722f5d" x="498.875327" y="371.540982" style="stroke: #000000; stroke-width: 0.6"/>
      </g>
     </g>
    </g>
    <g id="xtick_20">
     <g id="line2d_39">
      <path d="M 578.286498 371.540982 
L 578.286498 22.318125 
" clip-path="url(#p5284962ecf)" style="fill: none; stroke: #f4f4f4; stroke-width: 0.8; stroke-linecap: square"/>
     </g>
     <g id="line2d_40">
      <g>
       <use xlink:href="#m71ed722f5d" x="578.286498" y="371.540982" style="stroke: #000000; stroke-width: 0.6"/>
      </g>
     </g>
    </g>
    <g id="xtick_21">
     <g id="line2d_41">
      <path d="M 618.60979 371.540982 
L 618.60979 22.318125 
" clip-path="url(#p5284962ecf)" style="fill: none; stroke: #f4f4f4; stroke-width: 0.8; stroke-linecap: square"/>
     </g>
     <g id="line2d_42">
      <g>
       <use xlink:href="#m71ed722f5d" x="618.60979" y="371.540982" style="stroke: #000000; stroke-width: 0.6"/>
      </g>
     </g>
    </g>
    <g id="text_4">
     <!-- Arithmetic intensity  (FLOP / byte) -->
     <g transform="translate(262.281022 399.057701) scale(0.09 -0.09)">
      <defs>
       <path id="DejaVuSans-41" d="M 2188 4044 
L 1331 1722 
L 3047 1722 
L 2188 4044 
z
M 1831 4666 
L 2547 4666 
L 4325 0 
L 3669 0 
L 3244 1197 
L 1141 1197 
L 716 0 
L 50 0 
L 1831 4666 
z
" transform="scale(0.015625)"/>
       <path id="DejaVuSans-72" d="M 2631 2963 
Q 2534 3019 2420 3045 
Q 2306 3072 2169 3072 
Q 1681 3072 1420 2755 
Q 1159 2438 1159 1844 
L 1159 0 
L 581 0 
L 581 3500 
L 1159 3500 
L 1159 2956 
Q 1341 3275 1631 3429 
Q 1922 3584 2338 3584 
Q 2397 3584 2469 3576 
Q 2541 3569 2628 3553 
L 2631 2963 
z
" transform="scale(0.015625)"/>
       <path id="DejaVuSans-69" d="M 603 3500 
L 1178 3500 
L 1178 0 
L 603 0 
L 603 3500 
z
M 603 4863 
L 1178 4863 
L 1178 4134 
L 603 4134 
L 603 4863 
z
" transform="scale(0.015625)"/>
       <path id="DejaVuSans-74" d="M 1172 4494 
L 1172 3500 
L 2356 3500 
L 2356 3053 
L 1172 3053 
L 1172 1153 
Q 1172 725 1289 603 
Q 1406 481 1766 481 
L 2356 481 
L 2356 0 
L 1766 0 
Q 1100 0 847 248 
Q 594 497 594 1153 
L 594 3053 
L 172 3053 
L 172 3500 
L 594 3500 
L 594 4494 
L 1172 4494 
z
" transform="scale(0.015625)"/>
       <path id="DejaVuSans-68" d="M 3513 2113 
L 3513 0 
L 2938 0 
L 2938 2094 
Q 2938 2591 2744 2837 
Q 2550 3084 2163 3084 
Q 1697 3084 1428 2787 
Q 1159 2491 1159 1978 
L 1159 0 
L 581 0 
L 581 4863 
L 1159 4863 
L 1159 2956 
Q 1366 3272 1645 3428 
Q 1925 3584 2291 3584 
Q 2894 3584 3203 3211 
Q 3513 2838 3513 2113 
z
" transform="scale(0.015625)"/>
       <path id="DejaVuSans-6d" d="M 3328 2828 
Q 3544 3216 3844 3400 
Q 4144 3584 4550 3584 
Q 5097 3584 5394 3201 
Q 5691 2819 5691 2113 
L 5691 0 
L 5113 0 
L 5113 2094 
Q 5113 2597 4934 2840 
Q 4756 3084 4391 3084 
Q 3944 3084 3684 2787 
Q 3425 2491 3425 1978 
L 3425 0 
L 2847 0 
L 2847 2094 
Q 2847 2600 2669 2842 
Q 2491 3084 2119 3084 
Q 1678 3084 1418 2786 
Q 1159 2488 1159 1978 
L 1159 0 
L 581 0 
L 581 3500 
L 1159 3500 
L 1159 2956 
Q 1356 3278 1631 3431 
Q 1906 3584 2284 3584 
Q 2666 3584 2933 3390 
Q 3200 3197 3328 2828 
z
" transform="scale(0.015625)"/>
       <path id="DejaVuSans-65" d="M 3597 1894 
L 3597 1613 
L 953 1613 
Q 991 1019 1311 708 
Q 1631 397 2203 397 
Q 2534 397 2845 478 
Q 3156 559 3463 722 
L 3463 178 
Q 3153 47 2828 -22 
Q 2503 -91 2169 -91 
Q 1331 -91 842 396 
Q 353 884 353 1716 
Q 353 2575 817 3079 
Q 1281 3584 2069 3584 
Q 2775 3584 3186 3129 
Q 3597 2675 3597 1894 
z
M 3022 2063 
Q 3016 2534 2758 2815 
Q 2500 3097 2075 3097 
Q 1594 3097 1305 2825 
Q 1016 2553 972 2059 
L 3022 2063 
z
" transform="scale(0.015625)"/>
       <path id="DejaVuSans-63" d="M 3122 3366 
L 3122 2828 
Q 2878 2963 2633 3030 
Q 2388 3097 2138 3097 
Q 1578 3097 1268 2742 
Q 959 2388 959 1747 
Q 959 1106 1268 751 
Q 1578 397 2138 397 
Q 2388 397 2633 464 
Q 2878 531 3122 666 
L 3122 134 
Q 2881 22 2623 -34 
Q 2366 -91 2075 -91 
Q 1284 -91 818 406 
Q 353 903 353 1747 
Q 353 2603 823 3093 
Q 1294 3584 2113 3584 
Q 2378 3584 2631 3529 
Q 2884 3475 3122 3366 
z
" transform="scale(0.015625)"/>
       <path id="DejaVuSans-20" transform="scale(0.015625)"/>
       <path id="DejaVuSans-6e" d="M 3513 2113 
L 3513 0 
L 2938 0 
L 2938 2094 
Q 2938 2591 2744 2837 
Q 2550 3084 2163 3084 
Q 1697 3084 1428 2787 
Q 1159 2491 1159 1978 
L 1159 0 
L 581 0 
L 581 3500 
L 1159 3500 
L 1159 2956 
Q 1366 3272 1645 3428 
Q 1925 3584 2291 3584 
Q 2894 3584 3203 3211 
Q 3513 2838 3513 2113 
z
" transform="scale(0.015625)"/>
       <path id="DejaVuSans-73" d="M 2834 3397 
L 2834 2853 
Q 2591 2978 2328 3040 
Q 2066 3103 1784 3103 
Q 1356 3103 1142 2972 
Q 928 2841 928 2578 
Q 928 2378 1081 2264 
Q 1234 2150 1697 2047 
L 1894 2003 
Q 2506 1872 2764 1633 
Q 3022 1394 3022 966 
Q 3022 478 2636 193 
Q 2250 -91 1575 -91 
Q 1294 -91 989 -36 
Q 684 19 347 128 
L 347 722 
Q 666 556 975 473 
Q 1284 391 1588 391 
Q 1994 391 2212 530 
Q 2431 669 2431 922 
Q 2431 1156 2273 1281 
Q 2116 1406 1581 1522 
L 1381 1569 
Q 847 1681 609 1914 
Q 372 2147 372 2553 
Q 372 3047 722 3315 
Q 1072 3584 1716 3584 
Q 2034 3584 2315 3537 
Q 2597 3491 2834 3397 
z
" transform="scale(0.015625)"/>
       <path id="DejaVuSans-79" d="M 2059 -325 
Q 1816 -950 1584 -1140 
Q 1353 -1331 966 -1331 
L 506 -1331 
L 506 -850 
L 844 -850 
Q 1081 -850 1212 -737 
Q 1344 -625 1503 -206 
L 1606 56 
L 191 3500 
L 800 3500 
L 1894 763 
L 2988 3500 
L 3597 3500 
L 2059 -325 
z
" transform="scale(0.015625)"/>
       <path id="DejaVuSans-28" d="M 1984 4856 
Q 1566 4138 1362 3434 
Q 1159 2731 1159 2009 
Q 1159 1288 1364 580 
Q 1569 -128 1984 -844 
L 1484 -844 
Q 1016 -109 783 600 
Q 550 1309 550 2009 
Q 550 2706 781 3412 
Q 1013 4119 1484 4856 
L 1984 4856 
z
" transform="scale(0.015625)"/>
       <path id="DejaVuSans-46" d="M 628 4666 
L 3309 4666 
L 3309 4134 
L 1259 4134 
L 1259 2759 
L 3109 2759 
L 3109 2228 
L 1259 2228 
L 1259 0 
L 628 0 
L 628 4666 
z
" transform="scale(0.015625)"/>
       <path id="DejaVuSans-4c" d="M 628 4666 
L 1259 4666 
L 1259 531 
L 3531 531 
L 3531 0 
L 628 0 
L 628 4666 
z
" transform="scale(0.015625)"/>
       <path id="DejaVuSans-4f" d="M 2522 4238 
Q 1834 4238 1429 3725 
Q 1025 3213 1025 2328 
Q 1025 1447 1429 934 
Q 1834 422 2522 422 
Q 3209 422 3611 934 
Q 4013 1447 4013 2328 
Q 4013 3213 3611 3725 
Q 3209 4238 2522 4238 
z
M 2522 4750 
Q 3503 4750 4090 4092 
Q 4678 3434 4678 2328 
Q 4678 1225 4090 567 
Q 3503 -91 2522 -91 
Q 1538 -91 948 565 
Q 359 1222 359 2328 
Q 359 3434 948 4092 
Q 1538 4750 2522 4750 
z
" transform="scale(0.015625)"/>
       <path id="DejaVuSans-50" d="M 1259 4147 
L 1259 2394 
L 2053 2394 
Q 2494 2394 2734 2622 
Q 2975 2850 2975 3272 
Q 2975 3691 2734 3919 
Q 2494 4147 2053 4147 
L 1259 4147 
z
M 628 4666 
L 2053 4666 
Q 2838 4666 3239 4311 
Q 3641 3956 3641 3272 
Q 3641 2581 3239 2228 
Q 2838 1875 2053 1875 
L 1259 1875 
L 1259 0 
L 628 0 
L 628 4666 
z
" transform="scale(0.015625)"/>
       <path id="DejaVuSans-2f" d="M 1625 4666 
L 2156 4666 
L 531 -594 
L 0 -594 
L 1625 4666 
z
" transform="scale(0.015625)"/>
       <path id="DejaVuSans-62" d="M 3116 1747 
Q 3116 2381 2855 2742 
Q 2594 3103 2138 3103 
Q 1681 3103 1420 2742 
Q 1159 2381 1159 1747 
Q 1159 1113 1420 752 
Q 1681 391 2138 391 
Q 2594 391 2855 752 
Q 3116 1113 3116 1747 
z
M 1159 2969 
Q 1341 3281 1617 3432 
Q 1894 3584 2278 3584 
Q 2916 3584 3314 3078 
Q 3713 2572 3713 1747 
Q 3713 922 3314 415 
Q 2916 -91 2278 -91 
Q 1894 -91 1617 61 
Q 1341 213 1159 525 
L 1159 0 
L 581 0 
L 581 4863 
L 1159 4863 
L 1159 2969 
z
" transform="scale(0.015625)"/>
       <path id="DejaVuSans-29" d="M 513 4856 
L 1013 4856 
Q 1481 4119 1714 3412 
Q 1947 2706 1947 2009 
Q 1947 1309 1714 600 
Q 1481 -109 1013 -844 
L 513 -844 
Q 928 -128 1133 580 
Q 1338 1288 1338 2009 
Q 1338 2731 1133 3434 
Q 928 4138 513 4856 
z
" transform="scale(0.015625)"/>
      </defs>
      <use xlink:href="#DejaVuSans-41"/>
      <use xlink:href="#DejaVuSans-72" transform="translate(68.408203 0)"/>
      <use xlink:href="#DejaVuSans-69" transform="translate(109.521484 0)"/>
      <use xlink:href="#DejaVuSans-74" transform="translate(137.304688 0)"/>
      <use xlink:href="#DejaVuSans-68" transform="translate(176.513672 0)"/>
      <use xlink:href="#DejaVuSans-6d" transform="translate(239.892578 0)"/>
      <use xlink:href="#DejaVuSans-65" transform="translate(337.304688 0)"/>
      <use xlink:href="#DejaVuSans-74" transform="translate(398.828125 0)"/>
      <use xlink:href="#DejaVuSans-69" transform="translate(438.037109 0)"/>
      <use xlink:href="#DejaVuSans-63" transform="translate(465.820312 0)"/>
      <use xlink:href="#DejaVuSans-20" transform="translate(520.800781 0)"/>
      <use xlink:href="#DejaVuSans-69" transform="translate(552.587891 0)"/>
      <use xlink:href="#DejaVuSans-6e" transform="translate(580.371094 0)"/>
      <use xlink:href="#DejaVuSans-74" transform="translate(643.75 0)"/>
      <use xlink:href="#DejaVuSans-65" transform="translate(682.958984 0)"/>
      <use xlink:href="#DejaVuSans-6e" transform="translate(744.482422 0)"/>
      <use xlink:href="#DejaVuSans-73" transform="translate(807.861328 0)"/>
      <use xlink:href="#DejaVuSans-69" transform="translate(859.960938 0)"/>
      <use xlink:href="#DejaVuSans-74" transform="translate(887.744141 0)"/>
      <use xlink:href="#DejaVuSans-79" transform="translate(926.953125 0)"/>
      <use xlink:href="#DejaVuSans-20" transform="translate(986.132812 0)"/>
      <use xlink:href="#DejaVuSans-20" transform="translate(1017.919922 0)"/>
      <use xlink:href="#DejaVuSans-28" transform="translate(1049.707031 0)"/>
      <use xlink:href="#DejaVuSans-46" transform="translate(1088.720703 0)"/>
      <use xlink:href="#DejaVuSans-4c" transform="translate(1146.240234 0)"/>
      <use xlink:href="#DejaVuSans-4f" transform="translate(1198.328125 0)"/>
      <use xlink:href="#DejaVuSans-50" transform="translate(1277.039062 0)"/>
      <use xlink:href="#DejaVuSans-20" transform="translate(1337.341797 0)"/>
      <use xlink:href="#DejaVuSans-2f" transform="translate(1369.128906 0)"/>
      <use xlink:href="#DejaVuSans-20" transform="translate(1402.820312 0)"/>
      <use xlink:href="#DejaVuSans-62" transform="translate(1434.607422 0)"/>
      <use xlink:href="#DejaVuSans-79" transform="translate(1498.083984 0)"/>
      <use xlink:href="#DejaVuSans-74" transform="translate(1557.263672 0)"/>
      <use xlink:href="#DejaVuSans-65" transform="translate(1596.472656 0)"/>
      <use xlink:href="#DejaVuSans-29" transform="translate(1657.996094 0)"/>
     </g>
    </g>
   </g>
   <g id="matplotlib.axis_2">
    <g id="ytick_1">
     <g id="line2d_43">
      <path d="M 44.510313 341.496614 
L 632.778919 341.496614 
" clip-path="url(#p5284962ecf)" style="fill: none; stroke: #f4f4f4; stroke-width: 0.8; stroke-linecap: square"/>
     </g>
     <g id="line2d_44">
      <defs>
       <path id="m41c12d27c0" d="M 0 0 
L -3.5 0 
" style="stroke: #000000; stroke-width: 0.8"/>
      </defs>
      <g>
       <use xlink:href="#m41c12d27c0" x="44.510313" y="341.496614" style="stroke: #000000; stroke-width: 0.8"/>
      </g>
     </g>
     <g id="text_5">
      <!-- $\mathdefault{10^{0}}$ -->
      <g transform="translate(19.910313 345.295832) scale(0.1 -0.1)">
       <use xlink:href="#DejaVuSans-31" transform="translate(0 0.765625)"/>
       <use xlink:href="#DejaVuSans-30" transform="translate(63.623047 0.765625)"/>
       <use xlink:href="#DejaVuSans-30" transform="translate(128.203125 39.046875) scale(0.7)"/>
      </g>
     </g>
    </g>
    <g id="ytick_2">
     <g id="line2d_45">
      <path d="M 44.510313 221.815642 
L 632.778919 221.815642 
" clip-path="url(#p5284962ecf)" style="fill: none; stroke: #f4f4f4; stroke-width: 0.8; stroke-linecap: square"/>
     </g>
     <g id="line2d_46">
      <g>
       <use xlink:href="#m41c12d27c0" x="44.510313" y="221.815642" style="stroke: #000000; stroke-width: 0.8"/>
      </g>
     </g>
     <g id="text_6">
      <!-- $\mathdefault{10^{1}}$ -->
      <g transform="translate(19.910313 225.614861) scale(0.1 -0.1)">
       <use xlink:href="#DejaVuSans-31" transform="translate(0 0.684375)"/>
       <use xlink:href="#DejaVuSans-30" transform="translate(63.623047 0.684375)"/>
       <use xlink:href="#DejaVuSans-31" transform="translate(128.203125 38.965625) scale(0.7)"/>
      </g>
     </g>
    </g>
    <g id="ytick_3">
     <g id="line2d_47">
      <path d="M 44.510313 102.134671 
L 632.778919 102.134671 
" clip-path="url(#p5284962ecf)" style="fill: none; stroke: #f4f4f4; stroke-width: 0.8; stroke-linecap: square"/>
     </g>
     <g id="line2d_48">
      <g>
       <use xlink:href="#m41c12d27c0" x="44.510313" y="102.134671" style="stroke: #000000; stroke-width: 0.8"/>
      </g>
     </g>
     <g id="text_7">
      <!-- $\mathdefault{10^{2}}$ -->
      <g transform="translate(19.910313 105.93389) scale(0.1 -0.1)">
       <use xlink:href="#DejaVuSans-31" transform="translate(0 0.765625)"/>
       <use xlink:href="#DejaVuSans-30" transform="translate(63.623047 0.765625)"/>
       <use xlink:href="#DejaVuSans-32" transform="translate(128.203125 39.046875) scale(0.7)"/>
      </g>
     </g>
    </g>
    <g id="ytick_4">
     <g id="line2d_49">
      <path d="M 44.510313 368.047687 
L 632.778919 368.047687 
" clip-path="url(#p5284962ecf)" style="fill: none; stroke: #f4f4f4; stroke-width: 0.8; stroke-linecap: square"/>
     </g>
     <g id="line2d_50">
      <defs>
       <path id="mdc54cff8a2" d="M 0 0 
L -2 0 
" style="stroke: #000000; stroke-width: 0.6"/>
      </defs>
      <g>
       <use xlink:href="#mdc54cff8a2" x="44.510313" y="368.047687" style="stroke: #000000; stroke-width: 0.6"/>
      </g>
     </g>
    </g>
    <g id="ytick_5">
     <g id="line2d_51">
      <path d="M 44.510313 360.035431 
L 632.778919 360.035431 
" clip-path="url(#p5284962ecf)" style="fill: none; stroke: #f4f4f4; stroke-width: 0.8; stroke-linecap: square"/>
     </g>
     <g id="line2d_52">
      <g>
       <use xlink:href="#mdc54cff8a2" x="44.510313" y="360.035431" style="stroke: #000000; stroke-width: 0.6"/>
      </g>
     </g>
    </g>
    <g id="ytick_6">
     <g id="line2d_53">
      <path d="M 44.510313 353.094898 
L 632.778919 353.094898 
" clip-path="url(#p5284962ecf)" style="fill: none; stroke: #f4f4f4; stroke-width: 0.8; stroke-linecap: square"/>
     </g>
     <g id="line2d_54">
      <g>
       <use xlink:href="#mdc54cff8a2" x="44.510313" y="353.094898" style="stroke: #000000; stroke-width: 0.6"/>
      </g>
     </g>
    </g>
    <g id="ytick_7">
     <g id="line2d_55">
      <path d="M 44.510313 346.972914 
L 632.778919 346.972914 
" clip-path="url(#p5284962ecf)" style="fill: none; stroke: #f4f4f4; stroke-width: 0.8; stroke-linecap: square"/>
     </g>
     <g id="line2d_56">
      <g>
       <use xlink:href="#mdc54cff8a2" x="44.510313" y="346.972914" style="stroke: #000000; stroke-width: 0.6"/>
      </g>
     </g>
    </g>
    <g id="ytick_8">
     <g id="line2d_57">
      <path d="M 44.510313 305.469051 
L 632.778919 305.469051 
" clip-path="url(#p5284962ecf)" style="fill: none; stroke: #f4f4f4; stroke-width: 0.8; stroke-linecap: square"/>
     </g>
     <g id="line2d_58">
      <g>
       <use xlink:href="#mdc54cff8a2" x="44.510313" y="305.469051" style="stroke: #000000; stroke-width: 0.6"/>
      </g>
     </g>
    </g>
    <g id="ytick_9">
     <g id="line2d_59">
      <path d="M 44.510313 284.394278 
L 632.778919 284.394278 
" clip-path="url(#p5284962ecf)" style="fill: none; stroke: #f4f4f4; stroke-width: 0.8; stroke-linecap: square"/>
     </g>
     <g id="line2d_60">
      <g>
       <use xlink:href="#mdc54cff8a2" x="44.510313" y="284.394278" style="stroke: #000000; stroke-width: 0.6"/>
      </g>
     </g>
    </g>
    <g id="ytick_10">
     <g id="line2d_61">
      <path d="M 44.510313 269.441489 
L 632.778919 269.441489 
" clip-path="url(#p5284962ecf)" style="fill: none; stroke: #f4f4f4; stroke-width: 0.8; stroke-linecap: square"/>
     </g>
     <g id="line2d_62">
      <g>
       <use xlink:href="#mdc54cff8a2" x="44.510313" y="269.441489" style="stroke: #000000; stroke-width: 0.6"/>
      </g>
     </g>
    </g>
    <g id="ytick_11">
     <g id="line2d_63">
      <path d="M 44.510313 257.843205 
L 632.778919 257.843205 
" clip-path="url(#p5284962ecf)" style="fill: none; stroke: #f4f4f4; stroke-width: 0.8; stroke-linecap: square"/>
     </g>
     <g id="line2d_64">
      <g>
       <use xlink:href="#mdc54cff8a2" x="44.510313" y="257.843205" style="stroke: #000000; stroke-width: 0.6"/>
      </g>
     </g>
    </g>
    <g id="ytick_12">
     <g id="line2d_65">
      <path d="M 44.510313 248.366716 
L 632.778919 248.366716 
" clip-path="url(#p5284962ecf)" style="fill: none; stroke: #f4f4f4; stroke-width: 0.8; stroke-linecap: square"/>
     </g>
     <g id="line2d_66">
      <g>
       <use xlink:href="#mdc54cff8a2" x="44.510313" y="248.366716" style="stroke: #000000; stroke-width: 0.6"/>
      </g>
     </g>
    </g>
    <g id="ytick_13">
     <g id="line2d_67">
      <path d="M 44.510313 240.354459 
L 632.778919 240.354459 
" clip-path="url(#p5284962ecf)" style="fill: none; stroke: #f4f4f4; stroke-width: 0.8; stroke-linecap: square"/>
     </g>
     <g id="line2d_68">
      <g>
       <use xlink:href="#mdc54cff8a2" x="44.510313" y="240.354459" style="stroke: #000000; stroke-width: 0.6"/>
      </g>
     </g>
    </g>
    <g id="ytick_14">
     <g id="line2d_69">
      <path d="M 44.510313 233.413927 
L 632.778919 233.413927 
" clip-path="url(#p5284962ecf)" style="fill: none; stroke: #f4f4f4; stroke-width: 0.8; stroke-linecap: square"/>
     </g>
     <g id="line2d_70">
      <g>
       <use xlink:href="#mdc54cff8a2" x="44.510313" y="233.413927" style="stroke: #000000; stroke-width: 0.6"/>
      </g>
     </g>
    </g>
    <g id="ytick_15">
     <g id="line2d_71">
      <path d="M 44.510313 227.291943 
L 632.778919 227.291943 
" clip-path="url(#p5284962ecf)" style="fill: none; stroke: #f4f4f4; stroke-width: 0.8; stroke-linecap: square"/>
     </g>
     <g id="line2d_72">
      <g>
       <use xlink:href="#mdc54cff8a2" x="44.510313" y="227.291943" style="stroke: #000000; stroke-width: 0.6"/>
      </g>
     </g>
    </g>
    <g id="ytick_16">
     <g id="line2d_73">
      <path d="M 44.510313 185.78808 
L 632.778919 185.78808 
" clip-path="url(#p5284962ecf)" style="fill: none; stroke: #f4f4f4; stroke-width: 0.8; stroke-linecap: square"/>
     </g>
     <g id="line2d_74">
      <g>
       <use xlink:href="#mdc54cff8a2" x="44.510313" y="185.78808" style="stroke: #000000; stroke-width: 0.6"/>
      </g>
     </g>
    </g>
    <g id="ytick_17">
     <g id="line2d_75">
      <path d="M 44.510313 164.713307 
L 632.778919 164.713307 
" clip-path="url(#p5284962ecf)" style="fill: none; stroke: #f4f4f4; stroke-width: 0.8; stroke-linecap: square"/>
     </g>
     <g id="line2d_76">
      <g>
       <use xlink:href="#mdc54cff8a2" x="44.510313" y="164.713307" style="stroke: #000000; stroke-width: 0.6"/>
      </g>
     </g>
    </g>
    <g id="ytick_18">
     <g id="line2d_77">
      <path d="M 44.510313 149.760518 
L 632.778919 149.760518 
" clip-path="url(#p5284962ecf)" style="fill: none; stroke: #f4f4f4; stroke-width: 0.8; stroke-linecap: square"/>
     </g>
     <g id="line2d_78">
      <g>
       <use xlink:href="#mdc54cff8a2" x="44.510313" y="149.760518" style="stroke: #000000; stroke-width: 0.6"/>
      </g>
     </g>
    </g>
    <g id="ytick_19">
     <g id="line2d_79">
      <path d="M 44.510313 138.162233 
L 632.778919 138.162233 
" clip-path="url(#p5284962ecf)" style="fill: none; stroke: #f4f4f4; stroke-width: 0.8; stroke-linecap: square"/>
     </g>
     <g id="line2d_80">
      <g>
       <use xlink:href="#mdc54cff8a2" x="44.510313" y="138.162233" style="stroke: #000000; stroke-width: 0.6"/>
      </g>
     </g>
    </g>
    <g id="ytick_20">
     <g id="line2d_81">
      <path d="M 44.510313 128.685745 
L 632.778919 128.685745 
" clip-path="url(#p5284962ecf)" style="fill: none; stroke: #f4f4f4; stroke-width: 0.8; stroke-linecap: square"/>
     </g>
     <g id="line2d_82">
      <g>
       <use xlink:href="#mdc54cff8a2" x="44.510313" y="128.685745" style="stroke: #000000; stroke-width: 0.6"/>
      </g>
     </g>
    </g>
    <g id="ytick_21">
     <g id="line2d_83">
      <path d="M 44.510313 120.673488 
L 632.778919 120.673488 
" clip-path="url(#p5284962ecf)" style="fill: none; stroke: #f4f4f4; stroke-width: 0.8; stroke-linecap: square"/>
     </g>
     <g id="line2d_84">
      <g>
       <use xlink:href="#mdc54cff8a2" x="44.510313" y="120.673488" style="stroke: #000000; stroke-width: 0.6"/>
      </g>
     </g>
    </g>
    <g id="ytick_22">
     <g id="line2d_85">
      <path d="M 44.510313 113.732955 
L 632.778919 113.732955 
" clip-path="url(#p5284962ecf)" style="fill: none; stroke: #f4f4f4; stroke-width: 0.8; stroke-linecap: square"/>
     </g>
     <g id="line2d_86">
      <g>
       <use xlink:href="#mdc54cff8a2" x="44.510313" y="113.732955" style="stroke: #000000; stroke-width: 0.6"/>
      </g>
     </g>
    </g>
    <g id="ytick_23">
     <g id="line2d_87">
      <path d="M 44.510313 107.610972 
L 632.778919 107.610972 
" clip-path="url(#p5284962ecf)" style="fill: none; stroke: #f4f4f4; stroke-width: 0.8; stroke-linecap: square"/>
     </g>
     <g id="line2d_88">
      <g>
       <use xlink:href="#mdc54cff8a2" x="44.510313" y="107.610972" style="stroke: #000000; stroke-width: 0.6"/>
      </g>
     </g>
    </g>
    <g id="ytick_24">
     <g id="line2d_89">
      <path d="M 44.510313 66.107109 
L 632.778919 66.107109 
" clip-path="url(#p5284962ecf)" style="fill: none; stroke: #f4f4f4; stroke-width: 0.8; stroke-linecap: square"/>
     </g>
     <g id="line2d_90">
      <g>
       <use xlink:href="#mdc54cff8a2" x="44.510313" y="66.107109" style="stroke: #000000; stroke-width: 0.6"/>
      </g>
     </g>
    </g>
    <g id="ytick_25">
     <g id="line2d_91">
      <path d="M 44.510313 45.032336 
L 632.778919 45.032336 
" clip-path="url(#p5284962ecf)" style="fill: none; stroke: #f4f4f4; stroke-width: 0.8; stroke-linecap: square"/>
     </g>
     <g id="line2d_92">
      <g>
       <use xlink:href="#mdc54cff8a2" x="44.510313" y="45.032336" style="stroke: #000000; stroke-width: 0.6"/>
      </g>
     </g>
    </g>
    <g id="ytick_26">
     <g id="line2d_93">
      <path d="M 44.510313 30.079546 
L 632.778919 30.079546 
" clip-path="url(#p5284962ecf)" style="fill: none; stroke: #f4f4f4; stroke-width: 0.8; stroke-linecap: square"/>
     </g>
     <g id="line2d_94">
      <g>
       <use xlink:href="#mdc54cff8a2" x="44.510313" y="30.079546" style="stroke: #000000; stroke-width: 0.6"/>
      </g>
     </g>
    </g>
    <g id="text_8">
     <!-- Achieved TFLOPS -->
     <g transform="translate(14.038594 235.787054) rotate(-90) scale(0.09 -0.09)">
      <defs>
       <path id="DejaVuSans-76" d="M 191 3500 
L 800 3500 
L 1894 563 
L 2988 3500 
L 3597 3500 
L 2284 0 
L 1503 0 
L 191 3500 
z
" transform="scale(0.015625)"/>
       <path id="DejaVuSans-64" d="M 2906 2969 
L 2906 4863 
L 3481 4863 
L 3481 0 
L 2906 0 
L 2906 525 
Q 2725 213 2448 61 
Q 2172 -91 1784 -91 
Q 1150 -91 751 415 
Q 353 922 353 1747 
Q 353 2572 751 3078 
Q 1150 3584 1784 3584 
Q 2172 3584 2448 3432 
Q 2725 3281 2906 2969 
z
M 947 1747 
Q 947 1113 1208 752 
Q 1469 391 1925 391 
Q 2381 391 2643 752 
Q 2906 1113 2906 1747 
Q 2906 2381 2643 2742 
Q 2381 3103 1925 3103 
Q 1469 3103 1208 2742 
Q 947 2381 947 1747 
z
" transform="scale(0.015625)"/>
       <path id="DejaVuSans-54" d="M -19 4666 
L 3928 4666 
L 3928 4134 
L 2272 4134 
L 2272 0 
L 1638 0 
L 1638 4134 
L -19 4134 
L -19 4666 
z
" transform="scale(0.015625)"/>
       <path id="DejaVuSans-53" d="M 3425 4513 
L 3425 3897 
Q 3066 4069 2747 4153 
Q 2428 4238 2131 4238 
Q 1616 4238 1336 4038 
Q 1056 3838 1056 3469 
Q 1056 3159 1242 3001 
Q 1428 2844 1947 2747 
L 2328 2669 
Q 3034 2534 3370 2195 
Q 3706 1856 3706 1288 
Q 3706 609 3251 259 
Q 2797 -91 1919 -91 
Q 1588 -91 1214 -16 
Q 841 59 441 206 
L 441 856 
Q 825 641 1194 531 
Q 1563 422 1919 422 
Q 2459 422 2753 634 
Q 3047 847 3047 1241 
Q 3047 1584 2836 1778 
Q 2625 1972 2144 2069 
L 1759 2144 
Q 1053 2284 737 2584 
Q 422 2884 422 3419 
Q 422 4038 858 4394 
Q 1294 4750 2059 4750 
Q 2388 4750 2728 4690 
Q 3069 4631 3425 4513 
z
" transform="scale(0.015625)"/>
      </defs>
      <use xlink:href="#DejaVuSans-41"/>
      <use xlink:href="#DejaVuSans-63" transform="translate(66.658203 0)"/>
      <use xlink:href="#DejaVuSans-68" transform="translate(121.638672 0)"/>
      <use xlink:href="#DejaVuSans-69" transform="translate(185.017578 0)"/>
      <use xlink:href="#DejaVuSans-65" transform="translate(212.800781 0)"/>
      <use xlink:href="#DejaVuSans-76" transform="translate(274.324219 0)"/>
      <use xlink:href="#DejaVuSans-65" transform="translate(333.503906 0)"/>
      <use xlink:href="#DejaVuSans-64" transform="translate(395.027344 0)"/>
      <use xlink:href="#DejaVuSans-20" transform="translate(458.503906 0)"/>
      <use xlink:href="#DejaVuSans-54" transform="translate(490.291016 0)"/>
      <use xlink:href="#DejaVuSans-46" transform="translate(551.375 0)"/>
      <use xlink:href="#DejaVuSans-4c" transform="translate(608.894531 0)"/>
      <use xlink:href="#DejaVuSans-4f" transform="translate(660.982422 0)"/>
      <use xlink:href="#DejaVuSans-50" transform="translate(739.693359 0)"/>
      <use xlink:href="#DejaVuSans-53" transform="translate(799.996094 0)"/>
     </g>
    </g>
   </g>
   <g id="patch_3">
    <path d="M 44.510313 371.540982 
L 44.510313 22.318125 
" style="fill: none; stroke: #000000; stroke-width: 0.8; stroke-linejoin: miter; stroke-linecap: square"/>
   </g>
   <g id="patch_4">
    <path d="M 632.778919 371.540982 
L 632.778919 22.318125 
" style="fill: none; stroke: #000000; stroke-width: 0.8; stroke-linejoin: miter; stroke-linecap: square"/>
   </g>
   <g id="patch_5">
    <path d="M 44.510312 371.540982 
L 632.778919 371.540982 
" style="fill: none; stroke: #000000; stroke-width: 0.8; stroke-linejoin: miter; stroke-linecap: square"/>
   </g>
   <g id="patch_6">
    <path d="M 44.510312 22.318125 
L 632.778919 22.318125 
" style="fill: none; stroke: #000000; stroke-width: 0.8; stroke-linejoin: miter; stroke-linecap: square"/>
   </g>
   <g id="text_9">
    <!-- HBM 4.8 TB/s roof -->
    <g style="fill: #546e7a" transform="translate(73.499185 129.012285) rotate(-33) scale(0.07 -0.07)">
     <defs>
      <path id="DejaVuSans-48" d="M 628 4666 
L 1259 4666 
L 1259 2753 
L 3553 2753 
L 3553 4666 
L 4184 4666 
L 4184 0 
L 3553 0 
L 3553 2222 
L 1259 2222 
L 1259 0 
L 628 0 
L 628 4666 
z
" transform="scale(0.015625)"/>
      <path id="DejaVuSans-42" d="M 1259 2228 
L 1259 519 
L 2272 519 
Q 2781 519 3026 730 
Q 3272 941 3272 1375 
Q 3272 1813 3026 2020 
Q 2781 2228 2272 2228 
L 1259 2228 
z
M 1259 4147 
L 1259 2741 
L 2194 2741 
Q 2656 2741 2882 2914 
Q 3109 3088 3109 3444 
Q 3109 3797 2882 3972 
Q 2656 4147 2194 4147 
L 1259 4147 
z
M 628 4666 
L 2241 4666 
Q 2963 4666 3353 4366 
Q 3744 4066 3744 3513 
Q 3744 3084 3544 2831 
Q 3344 2578 2956 2516 
Q 3422 2416 3680 2098 
Q 3938 1781 3938 1306 
Q 3938 681 3513 340 
Q 3088 0 2303 0 
L 628 0 
L 628 4666 
z
" transform="scale(0.015625)"/>
      <path id="DejaVuSans-4d" d="M 628 4666 
L 1569 4666 
L 2759 1491 
L 3956 4666 
L 4897 4666 
L 4897 0 
L 4281 0 
L 4281 4097 
L 3078 897 
L 2444 897 
L 1241 4097 
L 1241 0 
L 628 0 
L 628 4666 
z
" transform="scale(0.015625)"/>
      <path id="DejaVuSans-34" d="M 2419 4116 
L 825 1625 
L 2419 1625 
L 2419 4116 
z
M 2253 4666 
L 3047 4666 
L 3047 1625 
L 3713 1625 
L 3713 1100 
L 3047 1100 
L 3047 0 
L 2419 0 
L 2419 1100 
L 313 1100 
L 313 1709 
L 2253 4666 
z
" transform="scale(0.015625)"/>
      <path id="DejaVuSans-2e" d="M 684 794 
L 1344 794 
L 1344 0 
L 684 0 
L 684 794 
z
" transform="scale(0.015625)"/>
      <path id="DejaVuSans-38" d="M 2034 2216 
Q 1584 2216 1326 1975 
Q 1069 1734 1069 1313 
Q 1069 891 1326 650 
Q 1584 409 2034 409 
Q 2484 409 2743 651 
Q 3003 894 3003 1313 
Q 3003 1734 2745 1975 
Q 2488 2216 2034 2216 
z
M 1403 2484 
Q 997 2584 770 2862 
Q 544 3141 544 3541 
Q 544 4100 942 4425 
Q 1341 4750 2034 4750 
Q 2731 4750 3128 4425 
Q 3525 4100 3525 3541 
Q 3525 3141 3298 2862 
Q 3072 2584 2669 2484 
Q 3125 2378 3379 2068 
Q 3634 1759 3634 1313 
Q 3634 634 3220 271 
Q 2806 -91 2034 -91 
Q 1263 -91 848 271 
Q 434 634 434 1313 
Q 434 1759 690 2068 
Q 947 2378 1403 2484 
z
M 1172 3481 
Q 1172 3119 1398 2916 
Q 1625 2713 2034 2713 
Q 2441 2713 2670 2916 
Q 2900 3119 2900 3481 
Q 2900 3844 2670 4047 
Q 2441 4250 2034 4250 
Q 1625 4250 1398 4047 
Q 1172 3844 1172 3481 
z
" transform="scale(0.015625)"/>
      <path id="DejaVuSans-6f" d="M 1959 3097 
Q 1497 3097 1228 2736 
Q 959 2375 959 1747 
Q 959 1119 1226 758 
Q 1494 397 1959 397 
Q 2419 397 2687 759 
Q 2956 1122 2956 1747 
Q 2956 2369 2687 2733 
Q 2419 3097 1959 3097 
z
M 1959 3584 
Q 2709 3584 3137 3096 
Q 3566 2609 3566 1747 
Q 3566 888 3137 398 
Q 2709 -91 1959 -91 
Q 1206 -91 779 398 
Q 353 888 353 1747 
Q 353 2609 779 3096 
Q 1206 3584 1959 3584 
z
" transform="scale(0.015625)"/>
      <path id="DejaVuSans-66" d="M 2375 4863 
L 2375 4384 
L 1825 4384 
Q 1516 4384 1395 4259 
Q 1275 4134 1275 3809 
L 1275 3500 
L 2222 3500 
L 2222 3053 
L 1275 3053 
L 1275 0 
L 697 0 
L 697 3053 
L 147 3053 
L 147 3500 
L 697 3500 
L 697 3744 
Q 697 4328 969 4595 
Q 1241 4863 1831 4863 
L 2375 4863 
z
" transform="scale(0.015625)"/>
     </defs>
     <use xlink:href="#DejaVuSans-48"/>
     <use xlink:href="#DejaVuSans-42" transform="translate(75.195312 0)"/>
     <use xlink:href="#DejaVuSans-4d" transform="translate(143.798828 0)"/>
     <use xlink:href="#DejaVuSans-20" transform="translate(230.078125 0)"/>
     <use xlink:href="#DejaVuSans-34" transform="translate(261.865234 0)"/>
     <use xlink:href="#DejaVuSans-2e" transform="translate(325.488281 0)"/>
     <use xlink:href="#DejaVuSans-38" transform="translate(357.275391 0)"/>
     <use xlink:href="#DejaVuSans-20" transform="translate(420.898438 0)"/>
     <use xlink:href="#DejaVuSans-54" transform="translate(452.685547 0)"/>
     <use xlink:href="#DejaVuSans-42" transform="translate(513.769531 0)"/>
     <use xlink:href="#DejaVuSans-2f" transform="translate(582.373047 0)"/>
     <use xlink:href="#DejaVuSans-73" transform="translate(616.064453 0)"/>
     <use xlink:href="#DejaVuSans-20" transform="translate(668.164062 0)"/>
     <use xlink:href="#DejaVuSans-72" transform="translate(699.951172 0)"/>
     <use xlink:href="#DejaVuSans-6f" transform="translate(738.814453 0)"/>
     <use xlink:href="#DejaVuSans-6f" transform="translate(799.996094 0)"/>
     <use xlink:href="#DejaVuSans-66" transform="translate(861.177734 0)"/>
    </g>
   </g>
   <g id="PathCollection_1">
    <defs>
     <path id="m3c7935cbfb" d="M 0 2.915476 
C 0.773193 2.915476 1.514823 2.608283 2.061553 2.061553 
C 2.608283 1.514823 2.915476 0.773193 2.915476 0 
C 2.915476 -0.773193 2.608283 -1.514823 2.061553 -2.061553 
C 1.514823 -2.608283 0.773193 -2.915476 0 -2.915476 
C -0.773193 -2.915476 -1.514823 -2.608283 -2.061553 -2.061553 
C -2.608283 -1.514823 -2.915476 -0.773193 -2.915476 0 
C -2.915476 0.773193 -2.608283 1.514823 -2.061553 2.061553 
C -1.514823 2.608283 -0.773193 2.915476 0 2.915476 
z
" style="stroke: #ffffff; stroke-opacity: 0.55; stroke-width: 0.4"/>
    </defs>
    <g clip-path="url(#p5284962ecf)">
     <use xlink:href="#m3c7935cbfb" x="333.420637" y="130.537531" style="fill: #cfd8dc; fill-opacity: 0.55; stroke: #ffffff; stroke-opacity: 0.55; stroke-width: 0.4"/>
     <use xlink:href="#m3c7935cbfb" x="373.160917" y="125.120512" style="fill: #cfd8dc; fill-opacity: 0.55; stroke: #ffffff; stroke-opacity: 0.55; stroke-width: 0.4"/>
     <use xlink:href="#m3c7935cbfb" x="327.217057" y="139.382303" style="fill: #cfd8dc; fill-opacity: 0.55; stroke: #ffffff; stroke-opacity: 0.55; stroke-width: 0.4"/>
     <use xlink:href="#m3c7935cbfb" x="456.270022" y="86.992512" style="fill: #cfd8dc; fill-opacity: 0.55; stroke: #ffffff; stroke-opacity: 0.55; stroke-width: 0.4"/>
     <use xlink:href="#m3c7935cbfb" x="341.262458" y="228.637506" style="fill: #cfd8dc; fill-opacity: 0.55; stroke: #ffffff; stroke-opacity: 0.55; stroke-width: 0.4"/>
     <use xlink:href="#m3c7935cbfb" x="372.521587" y="124.95093" style="fill: #cfd8dc; fill-opacity: 0.55; stroke: #ffffff; stroke-opacity: 0.55; stroke-width: 0.4"/>
     <use xlink:href="#m3c7935cbfb" x="375.896302" y="181.691728" style="fill: #cfd8dc; fill-opacity: 0.55; stroke: #ffffff; stroke-opacity: 0.55; stroke-width: 0.4"/>
     <use xlink:href="#m3c7935cbfb" x="135.634945" y="340.467337" style="fill: #cfd8dc; fill-opacity: 0.55; stroke: #ffffff; stroke-opacity: 0.55; stroke-width: 0.4"/>
     <use xlink:href="#m3c7935cbfb" x="381.254563" y="186.127032" style="fill: #cfd8dc; fill-opacity: 0.55; stroke: #ffffff; stroke-opacity: 0.55; stroke-width: 0.4"/>
     <use xlink:href="#m3c7935cbfb" x="541.654286" y="65.977329" style="fill: #cfd8dc; fill-opacity: 0.55; stroke: #ffffff; stroke-opacity: 0.55; stroke-width: 0.4"/>
     <use xlink:href="#m3c7935cbfb" x="485.784947" y="137.861639" style="fill: #cfd8dc; fill-opacity: 0.55; stroke: #ffffff; stroke-opacity: 0.55; stroke-width: 0.4"/>
     <use xlink:href="#m3c7935cbfb" x="423.788727" y="151.250001" style="fill: #cfd8dc; fill-opacity: 0.55; stroke: #ffffff; stroke-opacity: 0.55; stroke-width: 0.4"/>
     <use xlink:href="#m3c7935cbfb" x="274.20902" y="289.678428" style="fill: #cfd8dc; fill-opacity: 0.55; stroke: #ffffff; stroke-opacity: 0.55; stroke-width: 0.4"/>
     <use xlink:href="#m3c7935cbfb" x="213.398734" y="195.472892" style="fill: #cfd8dc; fill-opacity: 0.55; stroke: #ffffff; stroke-opacity: 0.55; stroke-width: 0.4"/>
     <use xlink:href="#m3c7935cbfb" x="275.751567" y="181.908349" style="fill: #cfd8dc; fill-opacity: 0.55; stroke: #ffffff; stroke-opacity: 0.55; stroke-width: 0.4"/>
     <use xlink:href="#m3c7935cbfb" x="277.254447" y="175.901729" style="fill: #cfd8dc; fill-opacity: 0.55; stroke: #ffffff; stroke-opacity: 0.55; stroke-width: 0.4"/>
     <use xlink:href="#m3c7935cbfb" x="282.087809" y="223.452426" style="fill: #cfd8dc; fill-opacity: 0.55; stroke: #ffffff; stroke-opacity: 0.55; stroke-width: 0.4"/>
     <use xlink:href="#m3c7935cbfb" x="195.942019" y="235.468089" style="fill: #cfd8dc; fill-opacity: 0.55; stroke: #ffffff; stroke-opacity: 0.55; stroke-width: 0.4"/>
     <use xlink:href="#m3c7935cbfb" x="213.04991" y="195.849993" style="fill: #cfd8dc; fill-opacity: 0.55; stroke: #ffffff; stroke-opacity: 0.55; stroke-width: 0.4"/>
     <use xlink:href="#m3c7935cbfb" x="476.890789" y="118.835218" style="fill: #cfd8dc; fill-opacity: 0.55; stroke: #ffffff; stroke-opacity: 0.55; stroke-width: 0.4"/>
     <use xlink:href="#m3c7935cbfb" x="254.924443" y="225.867833" style="fill: #cfd8dc; fill-opacity: 0.55; stroke: #ffffff; stroke-opacity: 0.55; stroke-width: 0.4"/>
     <use xlink:href="#m3c7935cbfb" x="395.328396" y="148.616712" style="fill: #cfd8dc; fill-opacity: 0.55; stroke: #ffffff; stroke-opacity: 0.55; stroke-width: 0.4"/>
     <use xlink:href="#m3c7935cbfb" x="445.130235" y="120.215149" style="fill: #cfd8dc; fill-opacity: 0.55; stroke: #ffffff; stroke-opacity: 0.55; stroke-width: 0.4"/>
     <use xlink:href="#m3c7935cbfb" x="535.857605" y="76.960344" style="fill: #cfd8dc; fill-opacity: 0.55; stroke: #ffffff; stroke-opacity: 0.55; stroke-width: 0.4"/>
    </g>
   </g>
   <g id="text_10">
    <!-- Convolution — roofline (H200) -->
    <g transform="translate(44.510313 16.318125) scale(0.12 -0.12)">
     <defs>
      <path id="DejaVuSans-Bold-43" d="M 4288 256 
Q 3956 84 3597 -3 
Q 3238 -91 2847 -91 
Q 1681 -91 1000 561 
Q 319 1213 319 2328 
Q 319 3447 1000 4098 
Q 1681 4750 2847 4750 
Q 3238 4750 3597 4662 
Q 3956 4575 4288 4403 
L 4288 3438 
Q 3953 3666 3628 3772 
Q 3303 3878 2944 3878 
Q 2300 3878 1931 3465 
Q 1563 3053 1563 2328 
Q 1563 1606 1931 1193 
Q 2300 781 2944 781 
Q 3303 781 3628 887 
Q 3953 994 4288 1222 
L 4288 256 
z
" transform="scale(0.015625)"/>
      <path id="DejaVuSans-Bold-6f" d="M 2203 2784 
Q 1831 2784 1636 2517 
Q 1441 2250 1441 1747 
Q 1441 1244 1636 976 
Q 1831 709 2203 709 
Q 2569 709 2762 976 
Q 2956 1244 2956 1747 
Q 2956 2250 2762 2517 
Q 2569 2784 2203 2784 
z
M 2203 3584 
Q 3106 3584 3614 3096 
Q 4122 2609 4122 1747 
Q 4122 884 3614 396 
Q 3106 -91 2203 -91 
Q 1297 -91 786 396 
Q 275 884 275 1747 
Q 275 2609 786 3096 
Q 1297 3584 2203 3584 
z
" transform="scale(0.015625)"/>
      <path id="DejaVuSans-Bold-6e" d="M 4056 2131 
L 4056 0 
L 2931 0 
L 2931 347 
L 2931 1631 
Q 2931 2084 2911 2256 
Q 2891 2428 2841 2509 
Q 2775 2619 2662 2680 
Q 2550 2741 2406 2741 
Q 2056 2741 1856 2470 
Q 1656 2200 1656 1722 
L 1656 0 
L 538 0 
L 538 3500 
L 1656 3500 
L 1656 2988 
Q 1909 3294 2193 3439 
Q 2478 3584 2822 3584 
Q 3428 3584 3742 3212 
Q 4056 2841 4056 2131 
z
" transform="scale(0.015625)"/>
      <path id="DejaVuSans-Bold-76" d="M 97 3500 
L 1216 3500 
L 2088 1081 
L 2956 3500 
L 4078 3500 
L 2700 0 
L 1472 0 
L 97 3500 
z
" transform="scale(0.015625)"/>
      <path id="DejaVuSans-Bold-6c" d="M 538 4863 
L 1656 4863 
L 1656 0 
L 538 0 
L 538 4863 
z
" transform="scale(0.015625)"/>
      <path id="DejaVuSans-Bold-75" d="M 500 1363 
L 500 3500 
L 1625 3500 
L 1625 3150 
Q 1625 2866 1622 2436 
Q 1619 2006 1619 1863 
Q 1619 1441 1641 1255 
Q 1663 1069 1716 984 
Q 1784 875 1895 815 
Q 2006 756 2150 756 
Q 2500 756 2700 1025 
Q 2900 1294 2900 1772 
L 2900 3500 
L 4019 3500 
L 4019 0 
L 2900 0 
L 2900 506 
Q 2647 200 2364 54 
Q 2081 -91 1741 -91 
Q 1134 -91 817 281 
Q 500 653 500 1363 
z
" transform="scale(0.015625)"/>
      <path id="DejaVuSans-Bold-74" d="M 1759 4494 
L 1759 3500 
L 2913 3500 
L 2913 2700 
L 1759 2700 
L 1759 1216 
Q 1759 972 1856 886 
Q 1953 800 2241 800 
L 2816 800 
L 2816 0 
L 1856 0 
Q 1194 0 917 276 
Q 641 553 641 1216 
L 641 2700 
L 84 2700 
L 84 3500 
L 641 3500 
L 641 4494 
L 1759 4494 
z
" transform="scale(0.015625)"/>
      <path id="DejaVuSans-Bold-69" d="M 538 3500 
L 1656 3500 
L 1656 0 
L 538 0 
L 538 3500 
z
M 538 4863 
L 1656 4863 
L 1656 3950 
L 538 3950 
L 538 4863 
z
" transform="scale(0.015625)"/>
      <path id="DejaVuSans-Bold-20" transform="scale(0.015625)"/>
      <path id="DejaVuSans-Bold-2014" d="M 344 2156 
L 6056 2156 
L 6056 1350 
L 344 1350 
L 344 2156 
z
" transform="scale(0.015625)"/>
      <path id="DejaVuSans-Bold-72" d="M 3138 2547 
Q 2991 2616 2845 2648 
Q 2700 2681 2553 2681 
Q 2122 2681 1889 2404 
Q 1656 2128 1656 1613 
L 1656 0 
L 538 0 
L 538 3500 
L 1656 3500 
L 1656 2925 
Q 1872 3269 2151 3426 
Q 2431 3584 2822 3584 
Q 2878 3584 2943 3579 
Q 3009 3575 3134 3559 
L 3138 2547 
z
" transform="scale(0.015625)"/>
      <path id="DejaVuSans-Bold-66" d="M 2841 4863 
L 2841 4128 
L 2222 4128 
Q 1984 4128 1890 4042 
Q 1797 3956 1797 3744 
L 1797 3500 
L 2753 3500 
L 2753 2700 
L 1797 2700 
L 1797 0 
L 678 0 
L 678 2700 
L 122 2700 
L 122 3500 
L 678 3500 
L 678 3744 
Q 678 4316 997 4589 
Q 1316 4863 1984 4863 
L 2841 4863 
z
" transform="scale(0.015625)"/>
      <path id="DejaVuSans-Bold-65" d="M 4031 1759 
L 4031 1441 
L 1416 1441 
Q 1456 1047 1700 850 
Q 1944 653 2381 653 
Q 2734 653 3104 758 
Q 3475 863 3866 1075 
L 3866 213 
Q 3469 63 3072 -14 
Q 2675 -91 2278 -91 
Q 1328 -91 801 392 
Q 275 875 275 1747 
Q 275 2603 792 3093 
Q 1309 3584 2216 3584 
Q 3041 3584 3536 3087 
Q 4031 2591 4031 1759 
z
M 2881 2131 
Q 2881 2450 2695 2645 
Q 2509 2841 2209 2841 
Q 1884 2841 1681 2658 
Q 1478 2475 1428 2131 
L 2881 2131 
z
" transform="scale(0.015625)"/>
      <path id="DejaVuSans-Bold-28" d="M 2413 -844 
L 1484 -844 
Q 1006 -72 778 623 
Q 550 1319 550 2003 
Q 550 2688 779 3389 
Q 1009 4091 1484 4856 
L 2413 4856 
Q 2013 4116 1813 3408 
Q 1613 2700 1613 2009 
Q 1613 1319 1811 609 
Q 2009 -100 2413 -844 
z
" transform="scale(0.015625)"/>
      <path id="DejaVuSans-Bold-48" d="M 588 4666 
L 1791 4666 
L 1791 2888 
L 3566 2888 
L 3566 4666 
L 4769 4666 
L 4769 0 
L 3566 0 
L 3566 1978 
L 1791 1978 
L 1791 0 
L 588 0 
L 588 4666 
z
" transform="scale(0.015625)"/>
      <path id="DejaVuSans-Bold-32" d="M 1844 884 
L 3897 884 
L 3897 0 
L 506 0 
L 506 884 
L 2209 2388 
Q 2438 2594 2547 2791 
Q 2656 2988 2656 3200 
Q 2656 3528 2436 3728 
Q 2216 3928 1850 3928 
Q 1569 3928 1234 3808 
Q 900 3688 519 3450 
L 519 4475 
Q 925 4609 1322 4679 
Q 1719 4750 2100 4750 
Q 2938 4750 3402 4381 
Q 3866 4013 3866 3353 
Q 3866 2972 3669 2642 
Q 3472 2313 2841 1759 
L 1844 884 
z
" transform="scale(0.015625)"/>
      <path id="DejaVuSans-Bold-30" d="M 2944 2338 
Q 2944 3213 2780 3570 
Q 2616 3928 2228 3928 
Q 1841 3928 1675 3570 
Q 1509 3213 1509 2338 
Q 1509 1453 1675 1090 
Q 1841 728 2228 728 
Q 2613 728 2778 1090 
Q 2944 1453 2944 2338 
z
M 4147 2328 
Q 4147 1169 3647 539 
Q 3147 -91 2228 -91 
Q 1306 -91 806 539 
Q 306 1169 306 2328 
Q 306 3491 806 4120 
Q 1306 4750 2228 4750 
Q 3147 4750 3647 4120 
Q 4147 3491 4147 2328 
z
" transform="scale(0.015625)"/>
      <path id="DejaVuSans-Bold-29" d="M 513 -844 
Q 913 -100 1113 609 
Q 1313 1319 1313 2009 
Q 1313 2700 1113 3408 
Q 913 4116 513 4856 
L 1441 4856 
Q 1916 4091 2145 3389 
Q 2375 2688 2375 2003 
Q 2375 1319 2147 623 
Q 1919 -72 1441 -844 
L 513 -844 
z
" transform="scale(0.015625)"/>
     </defs>
     <use xlink:href="#DejaVuSans-Bold-43"/>
     <use xlink:href="#DejaVuSans-Bold-6f" transform="translate(73.388672 0)"/>
     <use xlink:href="#DejaVuSans-Bold-6e" transform="translate(142.089844 0)"/>
     <use xlink:href="#DejaVuSans-Bold-76" transform="translate(213.28125 0)"/>
     <use xlink:href="#DejaVuSans-Bold-6f" transform="translate(278.466797 0)"/>
     <use xlink:href="#DejaVuSans-Bold-6c" transform="translate(347.167969 0)"/>
     <use xlink:href="#DejaVuSans-Bold-75" transform="translate(381.445312 0)"/>
     <use xlink:href="#DejaVuSans-Bold-74" transform="translate(452.636719 0)"/>
     <use xlink:href="#DejaVuSans-Bold-69" transform="translate(500.439453 0)"/>
     <use xlink:href="#DejaVuSans-Bold-6f" transform="translate(534.716797 0)"/>
     <use xlink:href="#DejaVuSans-Bold-6e" transform="translate(603.417969 0)"/>
     <use xlink:href="#DejaVuSans-Bold-20" transform="translate(674.609375 0)"/>
     <use xlink:href="#DejaVuSans-Bold-2014" transform="translate(709.423828 0)"/>
     <use xlink:href="#DejaVuSans-Bold-20" transform="translate(809.423828 0)"/>
     <use xlink:href="#DejaVuSans-Bold-72" transform="translate(844.238281 0)"/>
     <use xlink:href="#DejaVuSans-Bold-6f" transform="translate(893.554688 0)"/>
     <use xlink:href="#DejaVuSans-Bold-6f" transform="translate(962.255859 0)"/>
     <use xlink:href="#DejaVuSans-Bold-66" transform="translate(1030.957031 0)"/>
     <use xlink:href="#DejaVuSans-Bold-6c" transform="translate(1074.462891 0)"/>
     <use xlink:href="#DejaVuSans-Bold-69" transform="translate(1108.740234 0)"/>
     <use xlink:href="#DejaVuSans-Bold-6e" transform="translate(1143.017578 0)"/>
     <use xlink:href="#DejaVuSans-Bold-65" transform="translate(1214.208984 0)"/>
     <use xlink:href="#DejaVuSans-Bold-20" transform="translate(1282.03125 0)"/>
     <use xlink:href="#DejaVuSans-Bold-28" transform="translate(1316.845703 0)"/>
     <use xlink:href="#DejaVuSans-Bold-48" transform="translate(1362.548828 0)"/>
     <use xlink:href="#DejaVuSans-Bold-32" transform="translate(1446.240234 0)"/>
     <use xlink:href="#DejaVuSans-Bold-30" transform="translate(1515.820312 0)"/>
     <use xlink:href="#DejaVuSans-Bold-30" transform="translate(1585.400391 0)"/>
     <use xlink:href="#DejaVuSans-Bold-29" transform="translate(1654.980469 0)"/>
    </g>
   </g>
   <g id="line2d_95">
    <path d="M 44.510312 143.870057 
L 321.696579 -1 
L 321.696579 -1 
" clip-path="url(#p5284962ecf)" style="fill: none; stroke: #37474f; stroke-width: 1.4; stroke-linecap: square"/>
   </g>
   <g id="legend_1">
    <g id="patch_7">
     <path d="M 502.472278 367.790982 
L 627.528919 367.790982 
Q 629.028919 367.790982 629.028919 366.290982 
L 629.028919 356.032388 
Q 629.028919 354.532388 627.528919 354.532388 
L 502.472278 354.532388 
Q 500.972278 354.532388 500.972278 356.032388 
L 500.972278 366.290982 
Q 500.972278 367.790982 502.472278 367.790982 
z
" style="fill: #ffffff; opacity: 0.9; stroke: #cccccc; stroke-linejoin: miter"/>
    </g>
    <g id="PathCollection_2">
     <g>
      <use xlink:href="#m3c7935cbfb" x="511.472278" y="361.262467" style="fill: #cfd8dc; fill-opacity: 0.55; stroke: #ffffff; stroke-opacity: 0.55; stroke-width: 0.4"/>
     </g>
    </g>
    <g id="text_11">
     <!-- torch (ref) -->
     <g transform="translate(524.972278 363.231217) scale(0.075 -0.075)">
      <use xlink:href="#DejaVuSans-74"/>
      <use xlink:href="#DejaVuSans-6f" transform="translate(39.208984 0)"/>
      <use xlink:href="#DejaVuSans-72" transform="translate(100.390625 0)"/>
      <use xlink:href="#DejaVuSans-63" transform="translate(139.253906 0)"/>
      <use xlink:href="#DejaVuSans-68" transform="translate(194.234375 0)"/>
      <use xlink:href="#DejaVuSans-20" transform="translate(257.613281 0)"/>
      <use xlink:href="#DejaVuSans-28" transform="translate(289.400391 0)"/>
      <use xlink:href="#DejaVuSans-72" transform="translate(328.414062 0)"/>
      <use xlink:href="#DejaVuSans-65" transform="translate(367.277344 0)"/>
      <use xlink:href="#DejaVuSans-66" transform="translate(428.800781 0)"/>
      <use xlink:href="#DejaVuSans-29" transform="translate(464.005859 0)"/>
     </g>
    </g>
    <g id="PathCollection_3">
     <defs>
      <path id="mc320eb4cc4" d="M 0 -4.062019 
L -4.062019 4.062019 
L 4.062019 4.062019 
z
" style="stroke: #ffffff; stroke-width: 0.6"/>
     </defs>
     <g>
      <use xlink:href="#mc320eb4cc4" x="585.19845" y="361.262467" style="fill: #00897b; stroke: #ffffff; stroke-width: 0.6"/>
     </g>
    </g>
    <g id="text_12">
     <!-- TileOPs -->
     <g transform="translate(598.69845 363.231217) scale(0.075 -0.075)">
      <defs>
       <path id="DejaVuSans-6c" d="M 603 4863 
L 1178 4863 
L 1178 0 
L 603 0 
L 603 4863 
z
" transform="scale(0.015625)"/>
      </defs>
      <use xlink:href="#DejaVuSans-54"/>
      <use xlink:href="#DejaVuSans-69" transform="translate(57.958984 0)"/>
      <use xlink:href="#DejaVuSans-6c" transform="translate(85.742188 0)"/>
      <use xlink:href="#DejaVuSans-65" transform="translate(113.525391 0)"/>
      <use xlink:href="#DejaVuSans-4f" transform="translate(175.048828 0)"/>
      <use xlink:href="#DejaVuSans-50" transform="translate(253.759766 0)"/>
      <use xlink:href="#DejaVuSans-73" transform="translate(312.3125 0)"/>
     </g>
    </g>
   </g>
   <g id="PathCollection_4">
    <g clip-path="url(#p5284962ecf)">
     <use xlink:href="#mc320eb4cc4" x="333.420637" y="98.419209" style="fill: #00897b; stroke: #ffffff; stroke-width: 0.6"/>
     <use xlink:href="#mc320eb4cc4" x="373.160917" y="105.312064" style="fill: #00897b; stroke: #ffffff; stroke-width: 0.6"/>
     <use xlink:href="#mc320eb4cc4" x="327.217057" y="99.243519" style="fill: #00897b; stroke: #ffffff; stroke-width: 0.6"/>
     <use xlink:href="#mc320eb4cc4" x="456.270022" y="63.299604" style="fill: #00897b; stroke: #ffffff; stroke-width: 0.6"/>
     <use xlink:href="#mc320eb4cc4" x="341.262458" y="142.360726" style="fill: #00897b; stroke: #ffffff; stroke-width: 0.6"/>
     <use xlink:href="#mc320eb4cc4" x="372.521587" y="83.185304" style="fill: #00897b; stroke: #ffffff; stroke-width: 0.6"/>
     <use xlink:href="#mc320eb4cc4" x="375.896302" y="177.361663" style="fill: #00897b; stroke: #ffffff; stroke-width: 0.6"/>
     <use xlink:href="#mc320eb4cc4" x="135.634945" y="287.980306" style="fill: #00897b; stroke: #ffffff; stroke-width: 0.6"/>
     <use xlink:href="#mc320eb4cc4" x="381.254563" y="205.112455" style="fill: #00897b; stroke: #ffffff; stroke-width: 0.6"/>
     <use xlink:href="#mc320eb4cc4" x="541.654286" y="132.878603" style="fill: #00897b; stroke: #ffffff; stroke-width: 0.6"/>
     <use xlink:href="#mc320eb4cc4" x="485.784947" y="177.031231" style="fill: #00897b; stroke: #ffffff; stroke-width: 0.6"/>
     <use xlink:href="#mc320eb4cc4" x="423.788727" y="209.433255" style="fill: #00897b; stroke: #ffffff; stroke-width: 0.6"/>
     <use xlink:href="#mc320eb4cc4" x="274.20902" y="308.685136" style="fill: #00897b; stroke: #ffffff; stroke-width: 0.6"/>
     <use xlink:href="#mc320eb4cc4" x="213.398734" y="146.817769" style="fill: #00897b; stroke: #ffffff; stroke-width: 0.6"/>
     <use xlink:href="#mc320eb4cc4" x="275.751567" y="141.622185" style="fill: #00897b; stroke: #ffffff; stroke-width: 0.6"/>
     <use xlink:href="#mc320eb4cc4" x="277.254447" y="152.700863" style="fill: #00897b; stroke: #ffffff; stroke-width: 0.6"/>
     <use xlink:href="#mc320eb4cc4" x="282.087809" y="196.484638" style="fill: #00897b; stroke: #ffffff; stroke-width: 0.6"/>
     <use xlink:href="#mc320eb4cc4" x="195.942019" y="232.576093" style="fill: #00897b; stroke: #ffffff; stroke-width: 0.6"/>
     <use xlink:href="#mc320eb4cc4" x="213.04991" y="146.377596" style="fill: #00897b; stroke: #ffffff; stroke-width: 0.6"/>
     <use xlink:href="#mc320eb4cc4" x="476.890789" y="166.726931" style="fill: #00897b; stroke: #ffffff; stroke-width: 0.6"/>
     <use xlink:href="#mc320eb4cc4" x="254.924443" y="132.504331" style="fill: #00897b; stroke: #ffffff; stroke-width: 0.6"/>
     <use xlink:href="#mc320eb4cc4" x="395.328396" y="156.775356" style="fill: #00897b; stroke: #ffffff; stroke-width: 0.6"/>
     <use xlink:href="#mc320eb4cc4" x="445.130235" y="183.32643" style="fill: #00897b; stroke: #ffffff; stroke-width: 0.6"/>
     <use xlink:href="#mc320eb4cc4" x="535.857605" y="124.309926" style="fill: #00897b; stroke: #ffffff; stroke-width: 0.6"/>
    </g>
   </g>
  </g>
 </g>
 <defs>
  <clipPath id="p5284962ecf">
   <rect x="44.510313" y="22.318125" width="588.268606" height="349.222857"/>
  </clipPath>
 </defs>
</svg>
