<?xml version="1.0" encoding="utf-8" standalone="no"?>
<!DOCTYPE svg PUBLIC "-//W3C//DTD SVG 1.1//EN"
  "http://www.w3.org/Graphics/SVG/1.1/DTD/svg11.dtd">
<svg xmlns:xlink="http://www.w3.org/1999/xlink" width="640.098838pt" height="408.12942pt" viewBox="0 0 640.098838 408.12942" xmlns="http://www.w3.org/2000/svg" version="1.1">
 <metadata>
  <rdf:RDF xmlns:dc="http://purl.org/dc/elements/1.1/" xmlns:cc="http://creativecommons.org/ns#" xmlns:rdf="http://www.w3.org/1999/02/22-rdf-syntax-ns#">
   <cc:Work>
    <dc:type rdf:resource="http://purl.org/dc/dcmitype/StillImage"/>
    <dc:date>2026-06-16T16:27:18.304812</dc:date>
    <dc:format>image/svg+xml</dc:format>
    <dc:creator>
     <cc:Agent>
      <dc:title>Matplotlib v3.10.9, https://matplotlib.org/</dc:title>
     </cc:Agent>
    </dc:creator>
   </cc:Work>
  </rdf:RDF>
 </metadata>
 <defs>
  <style type="text/css">*{stroke-linejoin: round; stroke-linecap: butt}</style>
 </defs>
 <g id="figure_1">
  <g id="patch_1">
   <path d="M 0 408.12942 
L 640.098838 408.12942 
L 640.098838 0 
L 0 0 
z
" style="fill: #ffffff"/>
  </g>
  <g id="axes_1">
   <g id="patch_2">
    <path d="M 67.410313 371.540982 
L 632.898838 371.540982 
L 632.898838 22.318125 
L 67.410313 22.318125 
z
" style="fill: #ffffff"/>
   </g>
   <g id="FillBetweenPolyCollection_1">
    <path d="M 67.410313 -1393.876207 
L 67.410313 -273.003069 
L 68.543556 -273.711002 
L 69.6768 -274.418935 
L 70.810043 -275.126868 
L 71.943287 -275.834801 
L 73.07653 -276.542735 
L 74.209774 -277.250668 
L 75.343017 -277.958601 
L 76.476261 -278.666534 
L 77.609504 -279.374467 
L 78.742748 -280.0824 
L 79.875991 -280.790333 
L 81.009235 -281.498266 
L 82.142478 -282.206199 
L 83.275722 -282.914132 
L 84.408966 -283.622065 
L 85.542209 -284.329998 
L 86.675453 -285.037931 
L 87.808696 -285.745864 
L 88.94194 -286.453797 
L 90.075183 -287.16173 
L 91.208427 -287.869663 
L 92.34167 -288.577596 
L 93.474914 -289.28553 
L 94.608157 -289.993463 
L 95.741401 -290.701396 
L 96.874644 -291.409329 
L 98.007888 -292.117262 
L 99.141132 -292.825195 
L 100.274375 -293.533128 
L 101.407619 -294.241061 
L 102.540862 -294.948994 
L 103.674106 -295.656927 
L 104.807349 -296.36486 
L 105.940593 -297.072793 
L 107.073836 -297.780726 
L 108.20708 -298.488659 
L 109.340323 -299.196592 
L 110.473567 -299.904525 
L 111.60681 -300.612458 
L 112.740054 -301.320391 
L 113.873298 -302.028324 
L 115.006541 -302.736258 
L 116.139785 -303.444191 
L 117.273028 -304.152124 
L 118.406272 -304.860057 
L 119.539515 -305.56799 
L 120.672759 -306.275923 
L 121.806002 -306.983856 
L 122.939246 -307.691789 
L 124.072489 -308.399722 
L 125.205733 -309.107655 
L 126.338976 -309.815588 
L 127.47222 -310.523521 
L 128.605464 -311.231454 
L 129.738707 -311.939387 
L 130.871951 -312.64732 
L 132.005194 -313.355253 
L 133.138438 -314.063186 
L 134.271681 -314.771119 
L 135.404925 -315.479052 
L 136.538168 -316.186986 
L 137.671412 -316.894919 
L 138.804655 -317.602852 
L 139.937899 -318.310785 
L 141.071142 -319.018718 
L 142.204386 -319.726651 
L 143.337629 -320.434584 
L 144.470873 -321.142517 
L 145.604117 -321.85045 
L 146.73736 -322.558383 
L 147.870604 -323.266316 
L 149.003847 -323.974249 
L 150.137091 -324.682182 
L 151.270334 -325.390115 
L 152.403578 -326.098048 
L 153.536821 -326.805981 
L 154.670065 -327.513914 
L 155.803308 -328.221847 
L 156.936552 -328.929781 
L 158.069795 -329.637714 
L 159.203039 -330.345647 
L 160.336283 -331.05358 
L 161.469526 -331.761513 
L 162.60277 -332.469446 
L 163.736013 -333.177379 
L 164.869257 -333.885312 
L 166.0025 -334.593245 
L 167.135744 -335.301178 
L 168.268987 -336.009111 
L 169.402231 -336.717044 
L 170.535474 -337.424977 
L 171.668718 -338.13291 
L 172.801961 -338.840843 
L 173.935205 -339.548776 
L 175.068449 -340.256709 
L 176.201692 -340.964642 
L 177.334936 -341.672575 
L 178.468179 -342.380509 
L 179.601423 -343.088442 
L 180.734666 -343.796375 
L 181.86791 -344.504308 
L 183.001153 -345.212241 
L 184.134397 -345.920174 
L 185.26764 -346.628107 
L 186.400884 -347.33604 
L 187.534127 -348.043973 
L 188.667371 -348.751906 
L 189.800615 -349.459839 
L 190.933858 -350.167772 
L 192.067102 -350.875705 
L 193.200345 -351.583638 
L 194.333589 -352.291571 
L 195.466832 -352.999504 
L 196.600076 -353.707437 
L 197.733319 -354.41537 
L 198.866563 -355.123304 
L 199.999806 -355.831237 
L 201.13305 -356.53917 
L 202.266293 -357.247103 
L 203.399537 -357.955036 
L 204.532781 -358.662969 
L 205.666024 -359.370902 
L 206.799268 -360.078835 
L 207.932511 -360.786768 
L 209.065755 -361.494701 
L 210.198998 -362.202634 
L 211.332242 -362.910567 
L 212.465485 -363.6185 
L 213.598729 -364.326433 
L 214.731972 -365.034366 
L 215.865216 -365.742299 
L 216.998459 -366.450232 
L 218.131703 -367.158165 
L 219.264946 -367.866098 
L 220.39819 -368.574032 
L 221.531434 -369.281965 
L 222.664677 -369.989898 
L 223.797921 -370.697831 
L 224.931164 -371.405764 
L 226.064408 -372.113697 
L 227.197651 -372.82163 
L 228.330895 -373.529563 
L 229.464138 -374.237496 
L 230.597382 -374.945429 
L 231.730625 -375.653362 
L 232.863869 -376.361295 
L 233.997112 -377.069228 
L 235.130356 -377.777161 
L 236.2636 -378.485094 
L 237.396843 -379.193027 
L 238.530087 -379.90096 
L 239.66333 -380.608893 
L 240.796574 -381.316827 
L 241.929817 -382.02476 
L 243.063061 -382.732693 
L 244.196304 -383.440626 
L 245.329548 -384.148559 
L 246.462791 -384.856492 
L 247.596035 -385.564425 
L 248.729278 -386.272358 
L 249.862522 -386.980291 
L 250.995766 -387.688224 
L 252.129009 -388.396157 
L 253.262253 -389.10409 
L 254.395496 -389.812023 
L 255.52874 -390.519956 
L 256.661983 -391.227889 
L 257.795227 -391.935822 
L 258.92847 -392.643755 
L 260.061714 -393.351688 
L 261.194957 -394.059621 
L 262.328201 -394.767555 
L 263.461444 -395.475488 
L 264.594688 -396.183421 
L 265.727932 -396.891354 
L 266.861175 -397.599287 
L 267.994419 -398.30722 
L 269.127662 -399.015153 
L 270.260906 -399.723086 
L 271.394149 -400.431019 
L 272.527393 -401.138952 
L 273.660636 -401.846885 
L 274.79388 -402.554818 
L 275.927123 -403.262751 
L 277.060367 -403.970684 
L 278.19361 -404.678617 
L 279.326854 -405.38655 
L 280.460098 -406.094483 
L 281.593341 -406.802416 
L 282.726585 -407.51035 
L 283.859828 -408.218283 
L 284.993072 -408.926216 
L 286.126315 -409.634149 
L 287.259559 -410.342082 
L 288.392802 -411.050015 
L 289.526046 -411.757948 
L 290.659289 -412.465881 
L 291.792533 -413.173814 
L 292.925776 -413.881747 
L 294.05902 -414.58968 
L 295.192263 -415.297613 
L 296.325507 -416.005546 
L 297.458751 -416.713479 
L 298.591994 -417.421412 
L 299.725238 -418.129345 
L 300.858481 -418.837278 
L 301.991725 -419.545211 
L 303.124968 -420.253144 
L 304.258212 -420.961078 
L 305.391455 -421.669011 
L 306.524699 -422.376944 
L 307.657942 -423.084877 
L 308.791186 -423.79281 
L 309.924429 -424.500743 
L 311.057673 -425.208676 
L 312.190917 -425.916609 
L 313.32416 -426.624542 
L 314.457404 -427.332475 
L 315.590647 -428.040408 
L 316.723891 -428.748341 
L 317.857134 -429.456274 
L 318.990378 -430.164207 
L 320.123621 -430.87214 
L 321.256865 -431.580073 
L 322.390108 -432.288006 
L 323.523352 -432.995939 
L 324.656595 -433.703872 
L 325.789839 -434.411806 
L 326.923083 -435.119739 
L 328.056326 -435.827672 
L 329.18957 -436.535605 
L 330.322813 -437.243538 
L 331.456057 -437.951471 
L 332.5893 -438.659404 
L 333.722544 -439.367337 
L 334.855787 -440.07527 
L 335.989031 -440.783203 
L 337.122274 -441.491136 
L 338.255518 -442.199069 
L 339.388761 -442.907002 
L 340.522005 -443.614935 
L 341.655249 -444.322868 
L 342.788492 -445.030801 
L 343.921736 -445.738734 
L 345.054979 -446.446667 
L 346.188223 -447.154601 
L 347.321466 -447.862534 
L 348.45471 -448.570467 
L 349.587953 -449.2784 
L 350.721197 -449.986333 
L 351.85444 -450.694266 
L 352.987684 -451.402199 
L 354.120927 -452.110132 
L 355.254171 -452.818065 
L 356.387415 -453.525998 
L 357.520658 -454.233931 
L 358.653902 -454.941864 
L 359.787145 -455.649797 
L 360.920389 -456.35773 
L 362.053632 -457.065663 
L 363.186876 -457.773596 
L 364.320119 -458.481529 
L 365.453363 -459.189462 
L 366.586606 -459.897395 
L 367.71985 -460.605329 
L 368.853093 -461.313262 
L 369.986337 -462.021195 
L 371.11958 -462.729128 
L 372.252824 -463.437061 
L 373.386068 -464.144994 
L 374.519311 -464.852927 
L 375.652555 -465.56086 
L 376.785798 -466.268793 
L 377.919042 -466.976726 
L 379.052285 -467.684659 
L 380.185529 -468.392592 
L 381.318772 -469.100525 
L 382.452016 -469.808458 
L 383.585259 -470.516391 
L 384.718503 -471.224324 
L 385.851746 -471.932257 
L 386.98499 -472.64019 
L 388.118234 -473.348124 
L 389.251477 -474.056057 
L 390.384721 -474.76399 
L 391.517964 -475.471923 
L 392.651208 -476.179856 
L 393.784451 -476.887789 
L 394.917695 -477.595722 
L 396.050938 -478.303655 
L 397.184182 -479.011588 
L 398.317425 -479.719521 
L 399.450669 -480.427454 
L 400.583912 -481.135387 
L 401.717156 -481.84332 
L 402.8504 -482.551253 
L 403.983643 -483.259186 
L 405.116887 -483.967119 
L 406.25013 -484.675052 
L 407.383374 -485.382985 
L 408.516617 -486.090918 
L 409.649861 -486.798852 
L 410.783104 -487.506785 
L 411.916348 -488.214718 
L 413.049591 -488.922651 
L 414.182835 -489.630584 
L 415.316078 -490.338517 
L 416.449322 -491.04645 
L 417.582566 -491.754383 
L 418.715809 -492.462316 
L 419.849053 -493.170249 
L 420.982296 -493.878182 
L 422.11554 -494.586115 
L 423.248783 -495.294048 
L 424.382027 -496.001981 
L 425.51527 -496.709914 
L 426.648514 -497.417847 
L 427.781757 -498.12578 
L 428.915001 -498.833713 
L 430.048244 -499.541647 
L 431.181488 -500.24958 
L 432.314732 -500.957513 
L 433.447975 -501.665446 
L 434.581219 -502.373379 
L 435.714462 -503.081312 
L 436.847706 -503.789245 
L 437.980949 -504.497178 
L 439.114193 -505.205111 
L 440.247436 -505.913044 
L 441.38068 -506.620977 
L 442.513923 -507.32891 
L 443.647167 -508.036843 
L 444.78041 -508.744776 
L 445.913654 -509.452709 
L 447.046897 -510.160642 
L 448.180141 -510.868575 
L 449.313385 -511.576508 
L 450.446628 -512.284441 
L 451.579872 -512.992375 
L 452.713115 -513.700308 
L 453.846359 -514.408241 
L 454.979602 -515.116174 
L 456.112846 -515.824107 
L 457.246089 -516.53204 
L 458.379333 -517.239973 
L 459.512576 -517.947906 
L 460.64582 -518.655839 
L 461.779063 -519.363772 
L 462.912307 -520.071705 
L 464.045551 -520.779638 
L 465.178794 -521.487571 
L 466.312038 -522.195504 
L 467.445281 -522.903437 
L 468.578525 -523.61137 
L 469.711768 -524.319303 
L 470.845012 -525.027236 
L 471.978255 -525.735169 
L 473.111499 -526.443103 
L 474.244742 -527.151036 
L 475.377986 -527.858969 
L 476.511229 -528.566902 
L 477.644473 -529.274835 
L 478.777717 -529.982768 
L 479.91096 -530.690701 
L 481.044204 -531.398634 
L 482.177447 -532.106567 
L 483.310691 -532.8145 
L 484.443934 -533.522433 
L 485.577178 -534.230366 
L 486.710421 -534.938299 
L 487.843665 -535.646232 
L 488.976908 -536.354165 
L 490.110152 -537.062098 
L 491.243395 -537.770031 
L 492.376639 -538.477964 
L 493.509883 -539.185898 
L 494.643126 -539.893831 
L 495.77637 -540.601764 
L 496.909613 -541.309697 
L 498.042857 -542.01763 
L 499.1761 -542.725563 
L 500.309344 -543.433496 
L 501.442587 -544.141429 
L 502.575831 -544.849362 
L 503.709074 -545.557295 
L 504.842318 -546.265228 
L 505.975561 -546.973161 
L 507.108805 -547.681094 
L 508.242049 -548.389027 
L 509.375292 -549.09696 
L 510.508536 -549.804893 
L 511.641779 -550.512826 
L 512.775023 -551.220759 
L 513.908266 -551.928692 
L 515.04151 -552.636626 
L 516.174753 -553.344559 
L 517.307997 -554.052492 
L 518.44124 -554.760425 
L 519.574484 -555.468358 
L 520.707727 -556.176291 
L 521.840971 -556.884224 
L 522.974214 -557.592157 
L 524.107458 -558.30009 
L 525.240702 -559.008023 
L 526.373945 -559.715956 
L 527.507189 -560.423889 
L 528.640432 -561.131822 
L 529.773676 -561.839755 
L 530.906919 -562.547688 
L 532.040163 -563.255621 
L 533.173406 -563.963554 
L 534.30665 -564.671487 
L 535.439893 -565.379421 
L 536.573137 -566.087354 
L 537.70638 -566.795287 
L 538.839624 -567.50322 
L 539.972868 -568.211153 
L 541.106111 -568.919086 
L 542.239355 -569.627019 
L 543.372598 -570.334952 
L 544.505842 -571.042885 
L 545.639085 -571.750818 
L 546.772329 -572.458751 
L 547.905572 -573.166684 
L 549.038816 -573.874617 
L 550.172059 -574.58255 
L 551.305303 -575.290483 
L 552.438546 -575.998416 
L 553.57179 -576.706349 
L 554.705034 -577.414282 
L 555.838277 -578.122215 
L 556.971521 -578.830149 
L 558.104764 -579.538082 
L 559.238008 -580.246015 
L 560.371251 -580.953948 
L 561.504495 -581.661881 
L 562.637738 -582.369814 
L 563.770982 -583.077747 
L 564.904225 -583.78568 
L 566.037469 -584.493613 
L 567.170712 -585.201546 
L 568.303956 -585.909479 
L 569.4372 -586.617412 
L 570.570443 -587.325345 
L 571.703687 -588.033278 
L 572.83693 -588.741211 
L 573.970174 -589.449144 
L 575.103417 -590.157077 
L 576.236661 -590.86501 
L 577.369904 -591.572944 
L 578.503148 -592.280877 
L 579.636391 -592.98881 
L 580.769635 -593.696743 
L 581.902878 -594.404676 
L 583.036122 -595.112609 
L 584.169366 -595.820542 
L 585.302609 -596.528475 
L 586.435853 -597.236408 
L 587.569096 -597.944341 
L 588.70234 -598.652274 
L 589.835583 -599.360207 
L 590.968827 -600.06814 
L 592.10207 -600.776073 
L 593.235314 -601.484006 
L 594.368557 -602.191939 
L 595.501801 -602.899872 
L 596.635044 -603.607805 
L 597.768288 -604.315738 
L 598.901531 -605.023672 
L 600.034775 -605.731605 
L 601.168019 -606.439538 
L 602.301262 -607.147471 
L 603.434506 -607.855404 
L 604.567749 -608.563337 
L 605.700993 -609.27127 
L 606.834236 -609.979203 
L 607.96748 -610.687136 
L 609.100723 -611.395069 
L 610.233967 -612.103002 
L 611.36721 -612.810935 
L 612.500454 -613.518868 
L 613.633697 -614.226801 
L 614.766941 -614.934734 
L 615.900185 -615.642667 
L 617.033428 -616.3506 
L 618.166672 -617.058533 
L 619.299915 -617.766466 
L 620.433159 -618.4744 
L 621.566402 -619.182333 
L 622.699646 -619.890266 
L 623.832889 -620.598199 
L 624.966133 -621.306132 
L 626.099376 -622.014065 
L 627.23262 -622.721998 
L 628.365863 -623.429931 
L 629.499107 -624.137864 
L 630.632351 -624.845797 
L 631.765594 -625.55373 
L 632.898838 -626.261663 
L 632.898838 -1393.876207 
L 632.898838 -1393.876207 
L 631.765594 -1393.876207 
L 630.632351 -1393.876207 
L 629.499107 -1393.876207 
L 628.365863 -1393.876207 
L 627.23262 -1393.876207 
L 626.099376 -1393.876207 
L 624.966133 -1393.876207 
L 623.832889 -1393.876207 
L 622.699646 -1393.876207 
L 621.566402 -1393.876207 
L 620.433159 -1393.876207 
L 619.299915 -1393.876207 
L 618.166672 -1393.876207 
L 617.033428 -1393.876207 
L 615.900185 -1393.876207 
L 614.766941 -1393.876207 
L 613.633697 -1393.876207 
L 612.500454 -1393.876207 
L 611.36721 -1393.876207 
L 610.233967 -1393.876207 
L 609.100723 -1393.876207 
L 607.96748 -1393.876207 
L 606.834236 -1393.876207 
L 605.700993 -1393.876207 
L 604.567749 -1393.876207 
L 603.434506 -1393.876207 
L 602.301262 -1393.876207 
L 601.168019 -1393.876207 
L 600.034775 -1393.876207 
L 598.901531 -1393.876207 
L 597.768288 -1393.876207 
L 596.635044 -1393.876207 
L 595.501801 -1393.876207 
L 594.368557 -1393.876207 
L 593.235314 -1393.876207 
L 592.10207 -1393.876207 
L 590.968827 -1393.876207 
L 589.835583 -1393.876207 
L 588.70234 -1393.876207 
L 587.569096 -1393.876207 
L 586.435853 -1393.876207 
L 585.302609 -1393.876207 
L 584.169366 -1393.876207 
L 583.036122 -1393.876207 
L 581.902878 -1393.876207 
L 580.769635 -1393.876207 
L 579.636391 -1393.876207 
L 578.503148 -1393.876207 
L 577.369904 -1393.876207 
L 576.236661 -1393.876207 
L 575.103417 -1393.876207 
L 573.970174 -1393.876207 
L 572.83693 -1393.876207 
L 571.703687 -1393.876207 
L 570.570443 -1393.876207 
L 569.4372 -1393.876207 
L 568.303956 -1393.876207 
L 567.170712 -1393.876207 
L 566.037469 -1393.876207 
L 564.904225 -1393.876207 
L 563.770982 -1393.876207 
L 562.637738 -1393.876207 
L 561.504495 -1393.876207 
L 560.371251 -1393.876207 
L 559.238008 -1393.876207 
L 558.104764 -1393.876207 
L 556.971521 -1393.876207 
L 555.838277 -1393.876207 
L 554.705034 -1393.876207 
L 553.57179 -1393.876207 
L 552.438546 -1393.876207 
L 551.305303 -1393.876207 
L 550.172059 -1393.876207 
L 549.038816 -1393.876207 
L 547.905572 -1393.876207 
L 546.772329 -1393.876207 
L 545.639085 -1393.876207 
L 544.505842 -1393.876207 
L 543.372598 -1393.876207 
L 542.239355 -1393.876207 
L 541.106111 -1393.876207 
L 539.972868 -1393.876207 
L 538.839624 -1393.876207 
L 537.70638 -1393.876207 
L 536.573137 -1393.876207 
L 535.439893 -1393.876207 
L 534.30665 -1393.876207 
L 533.173406 -1393.876207 
L 532.040163 -1393.876207 
L 530.906919 -1393.876207 
L 529.773676 -1393.876207 
L 528.640432 -1393.876207 
L 527.507189 -1393.876207 
L 526.373945 -1393.876207 
L 525.240702 -1393.876207 
L 524.107458 -1393.876207 
L 522.974214 -1393.876207 
L 521.840971 -1393.876207 
L 520.707727 -1393.876207 
L 519.574484 -1393.876207 
L 518.44124 -1393.876207 
L 517.307997 -1393.876207 
L 516.174753 -1393.876207 
L 515.04151 -1393.876207 
L 513.908266 -1393.876207 
L 512.775023 -1393.876207 
L 511.641779 -1393.876207 
L 510.508536 -1393.876207 
L 509.375292 -1393.876207 
L 508.242049 -1393.876207 
L 507.108805 -1393.876207 
L 505.975561 -1393.876207 
L 504.842318 -1393.876207 
L 503.709074 -1393.876207 
L 502.575831 -1393.876207 
L 501.442587 -1393.876207 
L 500.309344 -1393.876207 
L 499.1761 -1393.876207 
L 498.042857 -1393.876207 
L 496.909613 -1393.876207 
L 495.77637 -1393.876207 
L 494.643126 -1393.876207 
L 493.509883 -1393.876207 
L 492.376639 -1393.876207 
L 491.243395 -1393.876207 
L 490.110152 -1393.876207 
L 488.976908 -1393.876207 
L 487.843665 -1393.876207 
L 486.710421 -1393.876207 
L 485.577178 -1393.876207 
L 484.443934 -1393.876207 
L 483.310691 -1393.876207 
L 482.177447 -1393.876207 
L 481.044204 -1393.876207 
L 479.91096 -1393.876207 
L 478.777717 -1393.876207 
L 477.644473 -1393.876207 
L 476.511229 -1393.876207 
L 475.377986 -1393.876207 
L 474.244742 -1393.876207 
L 473.111499 -1393.876207 
L 471.978255 -1393.876207 
L 470.845012 -1393.876207 
L 469.711768 -1393.876207 
L 468.578525 -1393.876207 
L 467.445281 -1393.876207 
L 466.312038 -1393.876207 
L 465.178794 -1393.876207 
L 464.045551 -1393.876207 
L 462.912307 -1393.876207 
L 461.779063 -1393.876207 
L 460.64582 -1393.876207 
L 459.512576 -1393.876207 
L 458.379333 -1393.876207 
L 457.246089 -1393.876207 
L 456.112846 -1393.876207 
L 454.979602 -1393.876207 
L 453.846359 -1393.876207 
L 452.713115 -1393.876207 
L 451.579872 -1393.876207 
L 450.446628 -1393.876207 
L 449.313385 -1393.876207 
L 448.180141 -1393.876207 
L 447.046897 -1393.876207 
L 445.913654 -1393.876207 
L 444.78041 -1393.876207 
L 443.647167 -1393.876207 
L 442.513923 -1393.876207 
L 441.38068 -1393.876207 
L 440.247436 -1393.876207 
L 439.114193 -1393.876207 
L 437.980949 -1393.876207 
L 436.847706 -1393.876207 
L 435.714462 -1393.876207 
L 434.581219 -1393.876207 
L 433.447975 -1393.876207 
L 432.314732 -1393.876207 
L 431.181488 -1393.876207 
L 430.048244 -1393.876207 
L 428.915001 -1393.876207 
L 427.781757 -1393.876207 
L 426.648514 -1393.876207 
L 425.51527 -1393.876207 
L 424.382027 -1393.876207 
L 423.248783 -1393.876207 
L 422.11554 -1393.876207 
L 420.982296 -1393.876207 
L 419.849053 -1393.876207 
L 418.715809 -1393.876207 
L 417.582566 -1393.876207 
L 416.449322 -1393.876207 
L 415.316078 -1393.876207 
L 414.182835 -1393.876207 
L 413.049591 -1393.876207 
L 411.916348 -1393.876207 
L 410.783104 -1393.876207 
L 409.649861 -1393.876207 
L 408.516617 -1393.876207 
L 407.383374 -1393.876207 
L 406.25013 -1393.876207 
L 405.116887 -1393.876207 
L 403.983643 -1393.876207 
L 402.8504 -1393.876207 
L 401.717156 -1393.876207 
L 400.583912 -1393.876207 
L 399.450669 -1393.876207 
L 398.317425 -1393.876207 
L 397.184182 -1393.876207 
L 396.050938 -1393.876207 
L 394.917695 -1393.876207 
L 393.784451 -1393.876207 
L 392.651208 -1393.876207 
L 391.517964 -1393.876207 
L 390.384721 -1393.876207 
L 389.251477 -1393.876207 
L 388.118234 -1393.876207 
L 386.98499 -1393.876207 
L 385.851746 -1393.876207 
L 384.718503 -1393.876207 
L 383.585259 -1393.876207 
L 382.452016 -1393.876207 
L 381.318772 -1393.876207 
L 380.185529 -1393.876207 
L 379.052285 -1393.876207 
L 377.919042 -1393.876207 
L 376.785798 -1393.876207 
L 375.652555 -1393.876207 
L 374.519311 -1393.876207 
L 373.386068 -1393.876207 
L 372.252824 -1393.876207 
L 371.11958 -1393.876207 
L 369.986337 -1393.876207 
L 368.853093 -1393.876207 
L 367.71985 -1393.876207 
L 366.586606 -1393.876207 
L 365.453363 -1393.876207 
L 364.320119 -1393.876207 
L 363.186876 -1393.876207 
L 362.053632 -1393.876207 
L 360.920389 -1393.876207 
L 359.787145 -1393.876207 
L 358.653902 -1393.876207 
L 357.520658 -1393.876207 
L 356.387415 -1393.876207 
L 355.254171 -1393.876207 
L 354.120927 -1393.876207 
L 352.987684 -1393.876207 
L 351.85444 -1393.876207 
L 350.721197 -1393.876207 
L 349.587953 -1393.876207 
L 348.45471 -1393.876207 
L 347.321466 -1393.876207 
L 346.188223 -1393.876207 
L 345.054979 -1393.876207 
L 343.921736 -1393.876207 
L 342.788492 -1393.876207 
L 341.655249 -1393.876207 
L 340.522005 -1393.876207 
L 339.388761 -1393.876207 
L 338.255518 -1393.876207 
L 337.122274 -1393.876207 
L 335.989031 -1393.876207 
L 334.855787 -1393.876207 
L 333.722544 -1393.876207 
L 332.5893 -1393.876207 
L 331.456057 -1393.876207 
L 330.322813 -1393.876207 
L 329.18957 -1393.876207 
L 328.056326 -1393.876207 
L 326.923083 -1393.876207 
L 325.789839 -1393.876207 
L 324.656595 -1393.876207 
L 323.523352 -1393.876207 
L 322.390108 -1393.876207 
L 321.256865 -1393.876207 
L 320.123621 -1393.876207 
L 318.990378 -1393.876207 
L 317.857134 -1393.876207 
L 316.723891 -1393.876207 
L 315.590647 -1393.876207 
L 314.457404 -1393.876207 
L 313.32416 -1393.876207 
L 312.190917 -1393.876207 
L 311.057673 -1393.876207 
L 309.924429 -1393.876207 
L 308.791186 -1393.876207 
L 307.657942 -1393.876207 
L 306.524699 -1393.876207 
L 305.391455 -1393.876207 
L 304.258212 -1393.876207 
L 303.124968 -1393.876207 
L 301.991725 -1393.876207 
L 300.858481 -1393.876207 
L 299.725238 -1393.876207 
L 298.591994 -1393.876207 
L 297.458751 -1393.876207 
L 296.325507 -1393.876207 
L 295.192263 -1393.876207 
L 294.05902 -1393.876207 
L 292.925776 -1393.876207 
L 291.792533 -1393.876207 
L 290.659289 -1393.876207 
L 289.526046 -1393.876207 
L 288.392802 -1393.876207 
L 287.259559 -1393.876207 
L 286.126315 -1393.876207 
L 284.993072 -1393.876207 
L 283.859828 -1393.876207 
L 282.726585 -1393.876207 
L 281.593341 -1393.876207 
L 280.460098 -1393.876207 
L 279.326854 -1393.876207 
L 278.19361 -1393.876207 
L 277.060367 -1393.876207 
L 275.927123 -1393.876207 
L 274.79388 -1393.876207 
L 273.660636 -1393.876207 
L 272.527393 -1393.876207 
L 271.394149 -1393.876207 
L 270.260906 -1393.876207 
L 269.127662 -1393.876207 
L 267.994419 -1393.876207 
L 266.861175 -1393.876207 
L 265.727932 -1393.876207 
L 264.594688 -1393.876207 
L 263.461444 -1393.876207 
L 262.328201 -1393.876207 
L 261.194957 -1393.876207 
L 260.061714 -1393.876207 
L 258.92847 -1393.876207 
L 257.795227 -1393.876207 
L 256.661983 -1393.876207 
L 255.52874 -1393.876207 
L 254.395496 -1393.876207 
L 253.262253 -1393.876207 
L 252.129009 -1393.876207 
L 250.995766 -1393.876207 
L 249.862522 -1393.876207 
L 248.729278 -1393.876207 
L 247.596035 -1393.876207 
L 246.462791 -1393.876207 
L 245.329548 -1393.876207 
L 244.196304 -1393.876207 
L 243.063061 -1393.876207 
L 241.929817 -1393.876207 
L 240.796574 -1393.876207 
L 239.66333 -1393.876207 
L 238.530087 -1393.876207 
L 237.396843 -1393.876207 
L 236.2636 -1393.876207 
L 235.130356 -1393.876207 
L 233.997112 -1393.876207 
L 232.863869 -1393.876207 
L 231.730625 -1393.876207 
L 230.597382 -1393.876207 
L 229.464138 -1393.876207 
L 228.330895 -1393.876207 
L 227.197651 -1393.876207 
L 226.064408 -1393.876207 
L 224.931164 -1393.876207 
L 223.797921 -1393.876207 
L 222.664677 -1393.876207 
L 221.531434 -1393.876207 
L 220.39819 -1393.876207 
L 219.264946 -1393.876207 
L 218.131703 -1393.876207 
L 216.998459 -1393.876207 
L 215.865216 -1393.876207 
L 214.731972 -1393.876207 
L 213.598729 -1393.876207 
L 212.465485 -1393.876207 
L 211.332242 -1393.876207 
L 210.198998 -1393.876207 
L 209.065755 -1393.876207 
L 207.932511 -1393.876207 
L 206.799268 -1393.876207 
L 205.666024 -1393.876207 
L 204.532781 -1393.876207 
L 203.399537 -1393.876207 
L 202.266293 -1393.876207 
L 201.13305 -1393.876207 
L 199.999806 -1393.876207 
L 198.866563 -1393.876207 
L 197.733319 -1393.876207 
L 196.600076 -1393.876207 
L 195.466832 -1393.876207 
L 194.333589 -1393.876207 
L 193.200345 -1393.876207 
L 192.067102 -1393.876207 
L 190.933858 -1393.876207 
L 189.800615 -1393.876207 
L 188.667371 -1393.876207 
L 187.534127 -1393.876207 
L 186.400884 -1393.876207 
L 185.26764 -1393.876207 
L 184.134397 -1393.876207 
L 183.001153 -1393.876207 
L 181.86791 -1393.876207 
L 180.734666 -1393.876207 
L 179.601423 -1393.876207 
L 178.468179 -1393.876207 
L 177.334936 -1393.876207 
L 176.201692 -1393.876207 
L 175.068449 -1393.876207 
L 173.935205 -1393.876207 
L 172.801961 -1393.876207 
L 171.668718 -1393.876207 
L 170.535474 -1393.876207 
L 169.402231 -1393.876207 
L 168.268987 -1393.876207 
L 167.135744 -1393.876207 
L 166.0025 -1393.876207 
L 164.869257 -1393.876207 
L 163.736013 -1393.876207 
L 162.60277 -1393.876207 
L 161.469526 -1393.876207 
L 160.336283 -1393.876207 
L 159.203039 -1393.876207 
L 158.069795 -1393.876207 
L 156.936552 -1393.876207 
L 155.803308 -1393.876207 
L 154.670065 -1393.876207 
L 153.536821 -1393.876207 
L 152.403578 -1393.876207 
L 151.270334 -1393.876207 
L 150.137091 -1393.876207 
L 149.003847 -1393.876207 
L 147.870604 -1393.876207 
L 146.73736 -1393.876207 
L 145.604117 -1393.876207 
L 144.470873 -1393.876207 
L 143.337629 -1393.876207 
L 142.204386 -1393.876207 
L 141.071142 -1393.876207 
L 139.937899 -1393.876207 
L 138.804655 -1393.876207 
L 137.671412 -1393.876207 
L 136.538168 -1393.876207 
L 135.404925 -1393.876207 
L 134.271681 -1393.876207 
L 133.138438 -1393.876207 
L 132.005194 -1393.876207 
L 130.871951 -1393.876207 
L 129.738707 -1393.876207 
L 128.605464 -1393.876207 
L 127.47222 -1393.876207 
L 126.338976 -1393.876207 
L 125.205733 -1393.876207 
L 124.072489 -1393.876207 
L 122.939246 -1393.876207 
L 121.806002 -1393.876207 
L 120.672759 -1393.876207 
L 119.539515 -1393.876207 
L 118.406272 -1393.876207 
L 117.273028 -1393.876207 
L 116.139785 -1393.876207 
L 115.006541 -1393.876207 
L 113.873298 -1393.876207 
L 112.740054 -1393.876207 
L 111.60681 -1393.876207 
L 110.473567 -1393.876207 
L 109.340323 -1393.876207 
L 108.20708 -1393.876207 
L 107.073836 -1393.876207 
L 105.940593 -1393.876207 
L 104.807349 -1393.876207 
L 103.674106 -1393.876207 
L 102.540862 -1393.876207 
L 101.407619 -1393.876207 
L 100.274375 -1393.876207 
L 99.141132 -1393.876207 
L 98.007888 -1393.876207 
L 96.874644 -1393.876207 
L 95.741401 -1393.876207 
L 94.608157 -1393.876207 
L 93.474914 -1393.876207 
L 92.34167 -1393.876207 
L 91.208427 -1393.876207 
L 90.075183 -1393.876207 
L 88.94194 -1393.876207 
L 87.808696 -1393.876207 
L 86.675453 -1393.876207 
L 85.542209 -1393.876207 
L 84.408966 -1393.876207 
L 83.275722 -1393.876207 
L 82.142478 -1393.876207 
L 81.009235 -1393.876207 
L 79.875991 -1393.876207 
L 78.742748 -1393.876207 
L 77.609504 -1393.876207 
L 76.476261 -1393.876207 
L 75.343017 -1393.876207 
L 74.209774 -1393.876207 
L 73.07653 -1393.876207 
L 71.943287 -1393.876207 
L 70.810043 -1393.876207 
L 69.6768 -1393.876207 
L 68.543556 -1393.876207 
L 67.410313 -1393.876207 
z
" clip-path="url(#pc1fffdaa18)" style="fill: #eceff1; fill-opacity: 0.45; stroke: #eceff1; stroke-opacity: 0.45"/>
   </g>
   <g id="matplotlib.axis_1">
    <g id="xtick_1">
     <g id="line2d_1">
      <path d="M 412.843827 371.540982 
L 412.843827 22.318125 
" clip-path="url(#pc1fffdaa18)" style="fill: none; stroke: #f4f4f4; stroke-width: 0.8; stroke-linecap: square"/>
     </g>
     <g id="line2d_2">
      <defs>
       <path id="md1b3f55793" d="M 0 0 
L 0 3.5 
" style="stroke: #000000; stroke-width: 0.8"/>
      </defs>
      <g>
       <use xlink:href="#md1b3f55793" x="412.843827" y="371.540982" style="stroke: #000000; stroke-width: 0.8"/>
      </g>
     </g>
     <g id="text_1">
      <!-- $\mathdefault{10^{1}}$ -->
      <g transform="translate(404.043827 386.13942) scale(0.1 -0.1)">
       <defs>
        <path id="DejaVuSans-31" d="M 794 531 
L 1825 531 
L 1825 4091 
L 703 3866 
L 703 4441 
L 1819 4666 
L 2450 4666 
L 2450 531 
L 3481 531 
L 3481 0 
L 794 0 
L 794 531 
z
" transform="scale(0.015625)"/>
        <path id="DejaVuSans-30" d="M 2034 4250 
Q 1547 4250 1301 3770 
Q 1056 3291 1056 2328 
Q 1056 1369 1301 889 
Q 1547 409 2034 409 
Q 2525 409 2770 889 
Q 3016 1369 3016 2328 
Q 3016 3291 2770 3770 
Q 2525 4250 2034 4250 
z
M 2034 4750 
Q 2819 4750 3233 4129 
Q 3647 3509 3647 2328 
Q 3647 1150 3233 529 
Q 2819 -91 2034 -91 
Q 1250 -91 836 529 
Q 422 1150 422 2328 
Q 422 3509 836 4129 
Q 1250 4750 2034 4750 
z
" transform="scale(0.015625)"/>
       </defs>
       <use xlink:href="#DejaVuSans-31" transform="translate(0 0.684375)"/>
       <use xlink:href="#DejaVuSans-30" transform="translate(63.623047 0.684375)"/>
       <use xlink:href="#DejaVuSans-31" transform="translate(128.203125 38.965625) scale(0.7)"/>
      </g>
     </g>
    </g>
    <g id="xtick_2">
     <g id="line2d_3">
      <path d="M 86.132302 371.540982 
L 86.132302 22.318125 
" clip-path="url(#pc1fffdaa18)" style="fill: none; stroke: #f4f4f4; stroke-width: 0.8; stroke-linecap: square"/>
     </g>
     <g id="line2d_4">
      <defs>
       <path id="ma4c2357787" d="M 0 0 
L 0 2 
" style="stroke: #000000; stroke-width: 0.6"/>
      </defs>
      <g>
       <use xlink:href="#ma4c2357787" x="86.132302" y="371.540982" style="stroke: #000000; stroke-width: 0.6"/>
      </g>
     </g>
     <g id="text_2">
      <!-- $\mathdefault{3\times10^{0}}$ -->
      <g transform="translate(68.032302 384.53942) scale(0.1 -0.1)">
       <defs>
        <path id="DejaVuSans-33" d="M 2597 2516 
Q 3050 2419 3304 2112 
Q 3559 1806 3559 1356 
Q 3559 666 3084 287 
Q 2609 -91 1734 -91 
Q 1441 -91 1130 -33 
Q 819 25 488 141 
L 488 750 
Q 750 597 1062 519 
Q 1375 441 1716 441 
Q 2309 441 2620 675 
Q 2931 909 2931 1356 
Q 2931 1769 2642 2001 
Q 2353 2234 1838 2234 
L 1294 2234 
L 1294 2753 
L 1863 2753 
Q 2328 2753 2575 2939 
Q 2822 3125 2822 3475 
Q 2822 3834 2567 4026 
Q 2313 4219 1838 4219 
Q 1578 4219 1281 4162 
Q 984 4106 628 3988 
L 628 4550 
Q 988 4650 1302 4700 
Q 1616 4750 1894 4750 
Q 2613 4750 3031 4423 
Q 3450 4097 3450 3541 
Q 3450 3153 3228 2886 
Q 3006 2619 2597 2516 
z
" transform="scale(0.015625)"/>
        <path id="DejaVuSans-d7" d="M 4488 3438 
L 3059 2003 
L 4488 575 
L 4116 197 
L 2681 1631 
L 1247 197 
L 878 575 
L 2303 2003 
L 878 3438 
L 1247 3816 
L 2681 2381 
L 4116 3816 
L 4488 3438 
z
" transform="scale(0.015625)"/>
       </defs>
       <use xlink:href="#DejaVuSans-33" transform="translate(0 0.765625)"/>
       <use xlink:href="#DejaVuSans-d7" transform="translate(83.105469 0.765625)"/>
       <use xlink:href="#DejaVuSans-31" transform="translate(186.376953 0.765625)"/>
       <use xlink:href="#DejaVuSans-30" transform="translate(250 0.765625)"/>
       <use xlink:href="#DejaVuSans-30" transform="translate(314.580078 39.046875) scale(0.7)"/>
      </g>
     </g>
    </g>
    <g id="xtick_3">
     <g id="line2d_5">
      <path d="M 164.198059 371.540982 
L 164.198059 22.318125 
" clip-path="url(#pc1fffdaa18)" style="fill: none; stroke: #f4f4f4; stroke-width: 0.8; stroke-linecap: square"/>
     </g>
     <g id="line2d_6">
      <g>
       <use xlink:href="#ma4c2357787" x="164.198059" y="371.540982" style="stroke: #000000; stroke-width: 0.6"/>
      </g>
     </g>
     <g id="text_3">
      <!-- $\mathdefault{4\times10^{0}}$ -->
      <g transform="translate(146.098059 384.53942) scale(0.1 -0.1)">
       <defs>
        <path id="DejaVuSans-34" d="M 2419 4116 
L 825 1625 
L 2419 1625 
L 2419 4116 
z
M 2253 4666 
L 3047 4666 
L 3047 1625 
L 3713 1625 
L 3713 1100 
L 3047 1100 
L 3047 0 
L 2419 0 
L 2419 1100 
L 313 1100 
L 313 1709 
L 2253 4666 
z
" transform="scale(0.015625)"/>
       </defs>
       <use xlink:href="#DejaVuSans-34" transform="translate(0 0.765625)"/>
       <use xlink:href="#DejaVuSans-d7" transform="translate(83.105469 0.765625)"/>
       <use xlink:href="#DejaVuSans-31" transform="translate(186.376953 0.765625)"/>
       <use xlink:href="#DejaVuSans-30" transform="translate(250 0.765625)"/>
       <use xlink:href="#DejaVuSans-30" transform="translate(314.580078 39.046875) scale(0.7)"/>
      </g>
     </g>
    </g>
    <g id="xtick_4">
     <g id="line2d_7">
      <path d="M 224.750565 371.540982 
L 224.750565 22.318125 
" clip-path="url(#pc1fffdaa18)" style="fill: none; stroke: #f4f4f4; stroke-width: 0.8; stroke-linecap: square"/>
     </g>
     <g id="line2d_8">
      <g>
       <use xlink:href="#ma4c2357787" x="224.750565" y="371.540982" style="stroke: #000000; stroke-width: 0.6"/>
      </g>
     </g>
    </g>
    <g id="xtick_5">
     <g id="line2d_9">
      <path d="M 274.225564 371.540982 
L 274.225564 22.318125 
" clip-path="url(#pc1fffdaa18)" style="fill: none; stroke: #f4f4f4; stroke-width: 0.8; stroke-linecap: square"/>
     </g>
     <g id="line2d_10">
      <g>
       <use xlink:href="#ma4c2357787" x="274.225564" y="371.540982" style="stroke: #000000; stroke-width: 0.6"/>
      </g>
     </g>
     <g id="text_4">
      <!-- $\mathdefault{6\times10^{0}}$ -->
      <g transform="translate(256.125564 384.53942) scale(0.1 -0.1)">
       <defs>
        <path id="DejaVuSans-36" d="M 2113 2584 
Q 1688 2584 1439 2293 
Q 1191 2003 1191 1497 
Q 1191 994 1439 701 
Q 1688 409 2113 409 
Q 2538 409 2786 701 
Q 3034 994 3034 1497 
Q 3034 2003 2786 2293 
Q 2538 2584 2113 2584 
z
M 3366 4563 
L 3366 3988 
Q 3128 4100 2886 4159 
Q 2644 4219 2406 4219 
Q 1781 4219 1451 3797 
Q 1122 3375 1075 2522 
Q 1259 2794 1537 2939 
Q 1816 3084 2150 3084 
Q 2853 3084 3261 2657 
Q 3669 2231 3669 1497 
Q 3669 778 3244 343 
Q 2819 -91 2113 -91 
Q 1303 -91 875 529 
Q 447 1150 447 2328 
Q 447 3434 972 4092 
Q 1497 4750 2381 4750 
Q 2619 4750 2861 4703 
Q 3103 4656 3366 4563 
z
" transform="scale(0.015625)"/>
       </defs>
       <use xlink:href="#DejaVuSans-36" transform="translate(0 0.765625)"/>
       <use xlink:href="#DejaVuSans-d7" transform="translate(83.105469 0.765625)"/>
       <use xlink:href="#DejaVuSans-31" transform="translate(186.376953 0.765625)"/>
       <use xlink:href="#DejaVuSans-30" transform="translate(250 0.765625)"/>
       <use xlink:href="#DejaVuSans-30" transform="translate(314.580078 39.046875) scale(0.7)"/>
      </g>
     </g>
    </g>
    <g id="xtick_6">
     <g id="line2d_11">
      <path d="M 316.056081 371.540982 
L 316.056081 22.318125 
" clip-path="url(#pc1fffdaa18)" style="fill: none; stroke: #f4f4f4; stroke-width: 0.8; stroke-linecap: square"/>
     </g>
     <g id="line2d_12">
      <g>
       <use xlink:href="#ma4c2357787" x="316.056081" y="371.540982" style="stroke: #000000; stroke-width: 0.6"/>
      </g>
     </g>
    </g>
    <g id="xtick_7">
     <g id="line2d_13">
      <path d="M 352.291322 371.540982 
L 352.291322 22.318125 
" clip-path="url(#pc1fffdaa18)" style="fill: none; stroke: #f4f4f4; stroke-width: 0.8; stroke-linecap: square"/>
     </g>
     <g id="line2d_14">
      <g>
       <use xlink:href="#ma4c2357787" x="352.291322" y="371.540982" style="stroke: #000000; stroke-width: 0.6"/>
      </g>
     </g>
    </g>
    <g id="xtick_8">
     <g id="line2d_15">
      <path d="M 384.25307 371.540982 
L 384.25307 22.318125 
" clip-path="url(#pc1fffdaa18)" style="fill: none; stroke: #f4f4f4; stroke-width: 0.8; stroke-linecap: square"/>
     </g>
     <g id="line2d_16">
      <g>
       <use xlink:href="#ma4c2357787" x="384.25307" y="371.540982" style="stroke: #000000; stroke-width: 0.6"/>
      </g>
     </g>
    </g>
    <g id="xtick_9">
     <g id="line2d_17">
      <path d="M 600.93709 371.540982 
L 600.93709 22.318125 
" clip-path="url(#pc1fffdaa18)" style="fill: none; stroke: #f4f4f4; stroke-width: 0.8; stroke-linecap: square"/>
     </g>
     <g id="line2d_18">
      <g>
       <use xlink:href="#ma4c2357787" x="600.93709" y="371.540982" style="stroke: #000000; stroke-width: 0.6"/>
      </g>
     </g>
     <g id="text_5">
      <!-- $\mathdefault{2\times10^{1}}$ -->
      <g transform="translate(582.83709 384.53942) scale(0.1 -0.1)">
       <defs>
        <path id="DejaVuSans-32" d="M 1228 531 
L 3431 531 
L 3431 0 
L 469 0 
L 469 531 
Q 828 903 1448 1529 
Q 2069 2156 2228 2338 
Q 2531 2678 2651 2914 
Q 2772 3150 2772 3378 
Q 2772 3750 2511 3984 
Q 2250 4219 1831 4219 
Q 1534 4219 1204 4116 
Q 875 4013 500 3803 
L 500 4441 
Q 881 4594 1212 4672 
Q 1544 4750 1819 4750 
Q 2544 4750 2975 4387 
Q 3406 4025 3406 3419 
Q 3406 3131 3298 2873 
Q 3191 2616 2906 2266 
Q 2828 2175 2409 1742 
Q 1991 1309 1228 531 
z
" transform="scale(0.015625)"/>
       </defs>
       <use xlink:href="#DejaVuSans-32" transform="translate(0 0.684375)"/>
       <use xlink:href="#DejaVuSans-d7" transform="translate(83.105469 0.684375)"/>
       <use xlink:href="#DejaVuSans-31" transform="translate(186.376953 0.684375)"/>
       <use xlink:href="#DejaVuSans-30" transform="translate(250 0.684375)"/>
       <use xlink:href="#DejaVuSans-31" transform="translate(314.580078 38.965625) scale(0.7)"/>
      </g>
     </g>
    </g>
    <g id="text_6">
     <!-- Arithmetic intensity  (FLOP / byte) -->
     <g transform="translate(273.790981 399.057701) scale(0.09 -0.09)">
      <defs>
       <path id="DejaVuSans-41" d="M 2188 4044 
L 1331 1722 
L 3047 1722 
L 2188 4044 
z
M 1831 4666 
L 2547 4666 
L 4325 0 
L 3669 0 
L 3244 1197 
L 1141 1197 
L 716 0 
L 50 0 
L 1831 4666 
z
" transform="scale(0.015625)"/>
       <path id="DejaVuSans-72" d="M 2631 2963 
Q 2534 3019 2420 3045 
Q 2306 3072 2169 3072 
Q 1681 3072 1420 2755 
Q 1159 2438 1159 1844 
L 1159 0 
L 581 0 
L 581 3500 
L 1159 3500 
L 1159 2956 
Q 1341 3275 1631 3429 
Q 1922 3584 2338 3584 
Q 2397 3584 2469 3576 
Q 2541 3569 2628 3553 
L 2631 2963 
z
" transform="scale(0.015625)"/>
       <path id="DejaVuSans-69" d="M 603 3500 
L 1178 3500 
L 1178 0 
L 603 0 
L 603 3500 
z
M 603 4863 
L 1178 4863 
L 1178 4134 
L 603 4134 
L 603 4863 
z
" transform="scale(0.015625)"/>
       <path id="DejaVuSans-74" d="M 1172 4494 
L 1172 3500 
L 2356 3500 
L 2356 3053 
L 1172 3053 
L 1172 1153 
Q 1172 725 1289 603 
Q 1406 481 1766 481 
L 2356 481 
L 2356 0 
L 1766 0 
Q 1100 0 847 248 
Q 594 497 594 1153 
L 594 3053 
L 172 3053 
L 172 3500 
L 594 3500 
L 594 4494 
L 1172 4494 
z
" transform="scale(0.015625)"/>
       <path id="DejaVuSans-68" d="M 3513 2113 
L 3513 0 
L 2938 0 
L 2938 2094 
Q 2938 2591 2744 2837 
Q 2550 3084 2163 3084 
Q 1697 3084 1428 2787 
Q 1159 2491 1159 1978 
L 1159 0 
L 581 0 
L 581 4863 
L 1159 4863 
L 1159 2956 
Q 1366 3272 1645 3428 
Q 1925 3584 2291 3584 
Q 2894 3584 3203 3211 
Q 3513 2838 3513 2113 
z
" transform="scale(0.015625)"/>
       <path id="DejaVuSans-6d" d="M 3328 2828 
Q 3544 3216 3844 3400 
Q 4144 3584 4550 3584 
Q 5097 3584 5394 3201 
Q 5691 2819 5691 2113 
L 5691 0 
L 5113 0 
L 5113 2094 
Q 5113 2597 4934 2840 
Q 4756 3084 4391 3084 
Q 3944 3084 3684 2787 
Q 3425 2491 3425 1978 
L 3425 0 
L 2847 0 
L 2847 2094 
Q 2847 2600 2669 2842 
Q 2491 3084 2119 3084 
Q 1678 3084 1418 2786 
Q 1159 2488 1159 1978 
L 1159 0 
L 581 0 
L 581 3500 
L 1159 3500 
L 1159 2956 
Q 1356 3278 1631 3431 
Q 1906 3584 2284 3584 
Q 2666 3584 2933 3390 
Q 3200 3197 3328 2828 
z
" transform="scale(0.015625)"/>
       <path id="DejaVuSans-65" d="M 3597 1894 
L 3597 1613 
L 953 1613 
Q 991 1019 1311 708 
Q 1631 397 2203 397 
Q 2534 397 2845 478 
Q 3156 559 3463 722 
L 3463 178 
Q 3153 47 2828 -22 
Q 2503 -91 2169 -91 
Q 1331 -91 842 396 
Q 353 884 353 1716 
Q 353 2575 817 3079 
Q 1281 3584 2069 3584 
Q 2775 3584 3186 3129 
Q 3597 2675 3597 1894 
z
M 3022 2063 
Q 3016 2534 2758 2815 
Q 2500 3097 2075 3097 
Q 1594 3097 1305 2825 
Q 1016 2553 972 2059 
L 3022 2063 
z
" transform="scale(0.015625)"/>
       <path id="DejaVuSans-63" d="M 3122 3366 
L 3122 2828 
Q 2878 2963 2633 3030 
Q 2388 3097 2138 3097 
Q 1578 3097 1268 2742 
Q 959 2388 959 1747 
Q 959 1106 1268 751 
Q 1578 397 2138 397 
Q 2388 397 2633 464 
Q 2878 531 3122 666 
L 3122 134 
Q 2881 22 2623 -34 
Q 2366 -91 2075 -91 
Q 1284 -91 818 406 
Q 353 903 353 1747 
Q 353 2603 823 3093 
Q 1294 3584 2113 3584 
Q 2378 3584 2631 3529 
Q 2884 3475 3122 3366 
z
" transform="scale(0.015625)"/>
       <path id="DejaVuSans-20" transform="scale(0.015625)"/>
       <path id="DejaVuSans-6e" d="M 3513 2113 
L 3513 0 
L 2938 0 
L 2938 2094 
Q 2938 2591 2744 2837 
Q 2550 3084 2163 3084 
Q 1697 3084 1428 2787 
Q 1159 2491 1159 1978 
L 1159 0 
L 581 0 
L 581 3500 
L 1159 3500 
L 1159 2956 
Q 1366 3272 1645 3428 
Q 1925 3584 2291 3584 
Q 2894 3584 3203 3211 
Q 3513 2838 3513 2113 
z
" transform="scale(0.015625)"/>
       <path id="DejaVuSans-73" d="M 2834 3397 
L 2834 2853 
Q 2591 2978 2328 3040 
Q 2066 3103 1784 3103 
Q 1356 3103 1142 2972 
Q 928 2841 928 2578 
Q 928 2378 1081 2264 
Q 1234 2150 1697 2047 
L 1894 2003 
Q 2506 1872 2764 1633 
Q 3022 1394 3022 966 
Q 3022 478 2636 193 
Q 2250 -91 1575 -91 
Q 1294 -91 989 -36 
Q 684 19 347 128 
L 347 722 
Q 666 556 975 473 
Q 1284 391 1588 391 
Q 1994 391 2212 530 
Q 2431 669 2431 922 
Q 2431 1156 2273 1281 
Q 2116 1406 1581 1522 
L 1381 1569 
Q 847 1681 609 1914 
Q 372 2147 372 2553 
Q 372 3047 722 3315 
Q 1072 3584 1716 3584 
Q 2034 3584 2315 3537 
Q 2597 3491 2834 3397 
z
" transform="scale(0.015625)"/>
       <path id="DejaVuSans-79" d="M 2059 -325 
Q 1816 -950 1584 -1140 
Q 1353 -1331 966 -1331 
L 506 -1331 
L 506 -850 
L 844 -850 
Q 1081 -850 1212 -737 
Q 1344 -625 1503 -206 
L 1606 56 
L 191 3500 
L 800 3500 
L 1894 763 
L 2988 3500 
L 3597 3500 
L 2059 -325 
z
" transform="scale(0.015625)"/>
       <path id="DejaVuSans-28" d="M 1984 4856 
Q 1566 4138 1362 3434 
Q 1159 2731 1159 2009 
Q 1159 1288 1364 580 
Q 1569 -128 1984 -844 
L 1484 -844 
Q 1016 -109 783 600 
Q 550 1309 550 2009 
Q 550 2706 781 3412 
Q 1013 4119 1484 4856 
L 1984 4856 
z
" transform="scale(0.015625)"/>
       <path id="DejaVuSans-46" d="M 628 4666 
L 3309 4666 
L 3309 4134 
L 1259 4134 
L 1259 2759 
L 3109 2759 
L 3109 2228 
L 1259 2228 
L 1259 0 
L 628 0 
L 628 4666 
z
" transform="scale(0.015625)"/>
       <path id="DejaVuSans-4c" d="M 628 4666 
L 1259 4666 
L 1259 531 
L 3531 531 
L 3531 0 
L 628 0 
L 628 4666 
z
" transform="scale(0.015625)"/>
       <path id="DejaVuSans-4f" d="M 2522 4238 
Q 1834 4238 1429 3725 
Q 1025 3213 1025 2328 
Q 1025 1447 1429 934 
Q 1834 422 2522 422 
Q 3209 422 3611 934 
Q 4013 1447 4013 2328 
Q 4013 3213 3611 3725 
Q 3209 4238 2522 4238 
z
M 2522 4750 
Q 3503 4750 4090 4092 
Q 4678 3434 4678 2328 
Q 4678 1225 4090 567 
Q 3503 -91 2522 -91 
Q 1538 -91 948 565 
Q 359 1222 359 2328 
Q 359 3434 948 4092 
Q 1538 4750 2522 4750 
z
" transform="scale(0.015625)"/>
       <path id="DejaVuSans-50" d="M 1259 4147 
L 1259 2394 
L 2053 2394 
Q 2494 2394 2734 2622 
Q 2975 2850 2975 3272 
Q 2975 3691 2734 3919 
Q 2494 4147 2053 4147 
L 1259 4147 
z
M 628 4666 
L 2053 4666 
Q 2838 4666 3239 4311 
Q 3641 3956 3641 3272 
Q 3641 2581 3239 2228 
Q 2838 1875 2053 1875 
L 1259 1875 
L 1259 0 
L 628 0 
L 628 4666 
z
" transform="scale(0.015625)"/>
       <path id="DejaVuSans-2f" d="M 1625 4666 
L 2156 4666 
L 531 -594 
L 0 -594 
L 1625 4666 
z
" transform="scale(0.015625)"/>
       <path id="DejaVuSans-62" d="M 3116 1747 
Q 3116 2381 2855 2742 
Q 2594 3103 2138 3103 
Q 1681 3103 1420 2742 
Q 1159 2381 1159 1747 
Q 1159 1113 1420 752 
Q 1681 391 2138 391 
Q 2594 391 2855 752 
Q 3116 1113 3116 1747 
z
M 1159 2969 
Q 1341 3281 1617 3432 
Q 1894 3584 2278 3584 
Q 2916 3584 3314 3078 
Q 3713 2572 3713 1747 
Q 3713 922 3314 415 
Q 2916 -91 2278 -91 
Q 1894 -91 1617 61 
Q 1341 213 1159 525 
L 1159 0 
L 581 0 
L 581 4863 
L 1159 4863 
L 1159 2969 
z
" transform="scale(0.015625)"/>
       <path id="DejaVuSans-29" d="M 513 4856 
L 1013 4856 
Q 1481 4119 1714 3412 
Q 1947 2706 1947 2009 
Q 1947 1309 1714 600 
Q 1481 -109 1013 -844 
L 513 -844 
Q 928 -128 1133 580 
Q 1338 1288 1338 2009 
Q 1338 2731 1133 3434 
Q 928 4138 513 4856 
z
" transform="scale(0.015625)"/>
      </defs>
      <use xlink:href="#DejaVuSans-41"/>
      <use xlink:href="#DejaVuSans-72" transform="translate(68.408203 0)"/>
      <use xlink:href="#DejaVuSans-69" transform="translate(109.521484 0)"/>
      <use xlink:href="#DejaVuSans-74" transform="translate(137.304688 0)"/>
      <use xlink:href="#DejaVuSans-68" transform="translate(176.513672 0)"/>
      <use xlink:href="#DejaVuSans-6d" transform="translate(239.892578 0)"/>
      <use xlink:href="#DejaVuSans-65" transform="translate(337.304688 0)"/>
      <use xlink:href="#DejaVuSans-74" transform="translate(398.828125 0)"/>
      <use xlink:href="#DejaVuSans-69" transform="translate(438.037109 0)"/>
      <use xlink:href="#DejaVuSans-63" transform="translate(465.820312 0)"/>
      <use xlink:href="#DejaVuSans-20" transform="translate(520.800781 0)"/>
      <use xlink:href="#DejaVuSans-69" transform="translate(552.587891 0)"/>
      <use xlink:href="#DejaVuSans-6e" transform="translate(580.371094 0)"/>
      <use xlink:href="#DejaVuSans-74" transform="translate(643.75 0)"/>
      <use xlink:href="#DejaVuSans-65" transform="translate(682.958984 0)"/>
      <use xlink:href="#DejaVuSans-6e" transform="translate(744.482422 0)"/>
      <use xlink:href="#DejaVuSans-73" transform="translate(807.861328 0)"/>
      <use xlink:href="#DejaVuSans-69" transform="translate(859.960938 0)"/>
      <use xlink:href="#DejaVuSans-74" transform="translate(887.744141 0)"/>
      <use xlink:href="#DejaVuSans-79" transform="translate(926.953125 0)"/>
      <use xlink:href="#DejaVuSans-20" transform="translate(986.132812 0)"/>
      <use xlink:href="#DejaVuSans-20" transform="translate(1017.919922 0)"/>
      <use xlink:href="#DejaVuSans-28" transform="translate(1049.707031 0)"/>
      <use xlink:href="#DejaVuSans-46" transform="translate(1088.720703 0)"/>
      <use xlink:href="#DejaVuSans-4c" transform="translate(1146.240234 0)"/>
      <use xlink:href="#DejaVuSans-4f" transform="translate(1198.328125 0)"/>
      <use xlink:href="#DejaVuSans-50" transform="translate(1277.039062 0)"/>
      <use xlink:href="#DejaVuSans-20" transform="translate(1337.341797 0)"/>
      <use xlink:href="#DejaVuSans-2f" transform="translate(1369.128906 0)"/>
      <use xlink:href="#DejaVuSans-20" transform="translate(1402.820312 0)"/>
      <use xlink:href="#DejaVuSans-62" transform="translate(1434.607422 0)"/>
      <use xlink:href="#DejaVuSans-79" transform="translate(1498.083984 0)"/>
      <use xlink:href="#DejaVuSans-74" transform="translate(1557.263672 0)"/>
      <use xlink:href="#DejaVuSans-65" transform="translate(1596.472656 0)"/>
      <use xlink:href="#DejaVuSans-29" transform="translate(1657.996094 0)"/>
     </g>
    </g>
   </g>
   <g id="matplotlib.axis_2">
    <g id="ytick_1">
     <g id="line2d_19">
      <path d="M 67.410313 167.445499 
L 632.898838 167.445499 
" clip-path="url(#pc1fffdaa18)" style="fill: none; stroke: #f4f4f4; stroke-width: 0.8; stroke-linecap: square"/>
     </g>
     <g id="line2d_20">
      <defs>
       <path id="m6f655e03e8" d="M 0 0 
L -3.5 0 
" style="stroke: #000000; stroke-width: 0.8"/>
      </defs>
      <g>
       <use xlink:href="#m6f655e03e8" x="67.410313" y="167.445499" style="stroke: #000000; stroke-width: 0.8"/>
      </g>
     </g>
     <g id="text_7">
      <!-- $\mathdefault{10^{0}}$ -->
      <g transform="translate(42.810313 171.244717) scale(0.1 -0.1)">
       <use xlink:href="#DejaVuSans-31" transform="translate(0 0.765625)"/>
       <use xlink:href="#DejaVuSans-30" transform="translate(63.623047 0.765625)"/>
       <use xlink:href="#DejaVuSans-30" transform="translate(128.203125 39.046875) scale(0.7)"/>
      </g>
     </g>
    </g>
    <g id="ytick_2">
     <g id="line2d_21">
      <path d="M 67.410313 371.540982 
L 632.898838 371.540982 
" clip-path="url(#pc1fffdaa18)" style="fill: none; stroke: #f4f4f4; stroke-width: 0.8; stroke-linecap: square"/>
     </g>
     <g id="line2d_22">
      <defs>
       <path id="m3c8df89bf2" d="M 0 0 
L -2 0 
" style="stroke: #000000; stroke-width: 0.6"/>
      </defs>
      <g>
       <use xlink:href="#m3c8df89bf2" x="67.410313" y="371.540982" style="stroke: #000000; stroke-width: 0.6"/>
      </g>
     </g>
     <g id="text_8">
      <!-- $\mathdefault{3\times10^{-1}}$ -->
      <g transform="translate(19.910313 375.340201) scale(0.1 -0.1)">
       <defs>
        <path id="DejaVuSans-2212" d="M 678 2272 
L 4684 2272 
L 4684 1741 
L 678 1741 
L 678 2272 
z
" transform="scale(0.015625)"/>
       </defs>
       <use xlink:href="#DejaVuSans-33" transform="translate(0 0.684375)"/>
       <use xlink:href="#DejaVuSans-d7" transform="translate(83.105469 0.684375)"/>
       <use xlink:href="#DejaVuSans-31" transform="translate(186.376953 0.684375)"/>
       <use xlink:href="#DejaVuSans-30" transform="translate(250 0.684375)"/>
       <use xlink:href="#DejaVuSans-2212" transform="translate(314.580078 38.965625) scale(0.7)"/>
       <use xlink:href="#DejaVuSans-31" transform="translate(373.232422 38.965625) scale(0.7)"/>
      </g>
     </g>
    </g>
    <g id="ytick_3">
     <g id="line2d_23">
      <path d="M 67.410313 322.773592 
L 632.898838 322.773592 
" clip-path="url(#pc1fffdaa18)" style="fill: none; stroke: #f4f4f4; stroke-width: 0.8; stroke-linecap: square"/>
     </g>
     <g id="line2d_24">
      <g>
       <use xlink:href="#m3c8df89bf2" x="67.410313" y="322.773592" style="stroke: #000000; stroke-width: 0.6"/>
      </g>
     </g>
     <g id="text_9">
      <!-- $\mathdefault{4\times10^{-1}}$ -->
      <g transform="translate(19.910313 326.572811) scale(0.1 -0.1)">
       <use xlink:href="#DejaVuSans-34" transform="translate(0 0.684375)"/>
       <use xlink:href="#DejaVuSans-d7" transform="translate(83.105469 0.684375)"/>
       <use xlink:href="#DejaVuSans-31" transform="translate(186.376953 0.684375)"/>
       <use xlink:href="#DejaVuSans-30" transform="translate(250 0.684375)"/>
       <use xlink:href="#DejaVuSans-2212" transform="translate(314.580078 38.965625) scale(0.7)"/>
       <use xlink:href="#DejaVuSans-31" transform="translate(373.232422 38.965625) scale(0.7)"/>
      </g>
     </g>
    </g>
    <g id="ytick_4">
     <g id="line2d_25">
      <path d="M 67.410313 284.946665 
L 632.898838 284.946665 
" clip-path="url(#pc1fffdaa18)" style="fill: none; stroke: #f4f4f4; stroke-width: 0.8; stroke-linecap: square"/>
     </g>
     <g id="line2d_26">
      <g>
       <use xlink:href="#m3c8df89bf2" x="67.410313" y="284.946665" style="stroke: #000000; stroke-width: 0.6"/>
      </g>
     </g>
    </g>
    <g id="ytick_5">
     <g id="line2d_27">
      <path d="M 67.410313 254.039816 
L 632.898838 254.039816 
" clip-path="url(#pc1fffdaa18)" style="fill: none; stroke: #f4f4f4; stroke-width: 0.8; stroke-linecap: square"/>
     </g>
     <g id="line2d_28">
      <g>
       <use xlink:href="#m3c8df89bf2" x="67.410313" y="254.039816" style="stroke: #000000; stroke-width: 0.6"/>
      </g>
     </g>
     <g id="text_10">
      <!-- $\mathdefault{6\times10^{-1}}$ -->
      <g transform="translate(19.910313 257.839034) scale(0.1 -0.1)">
       <use xlink:href="#DejaVuSans-36" transform="translate(0 0.684375)"/>
       <use xlink:href="#DejaVuSans-d7" transform="translate(83.105469 0.684375)"/>
       <use xlink:href="#DejaVuSans-31" transform="translate(186.376953 0.684375)"/>
       <use xlink:href="#DejaVuSans-30" transform="translate(250 0.684375)"/>
       <use xlink:href="#DejaVuSans-2212" transform="translate(314.580078 38.965625) scale(0.7)"/>
       <use xlink:href="#DejaVuSans-31" transform="translate(373.232422 38.965625) scale(0.7)"/>
      </g>
     </g>
    </g>
    <g id="ytick_6">
     <g id="line2d_29">
      <path d="M 67.410313 227.908447 
L 632.898838 227.908447 
" clip-path="url(#pc1fffdaa18)" style="fill: none; stroke: #f4f4f4; stroke-width: 0.8; stroke-linecap: square"/>
     </g>
     <g id="line2d_30">
      <g>
       <use xlink:href="#m3c8df89bf2" x="67.410313" y="227.908447" style="stroke: #000000; stroke-width: 0.6"/>
      </g>
     </g>
    </g>
    <g id="ytick_7">
     <g id="line2d_31">
      <path d="M 67.410313 205.272425 
L 632.898838 205.272425 
" clip-path="url(#pc1fffdaa18)" style="fill: none; stroke: #f4f4f4; stroke-width: 0.8; stroke-linecap: square"/>
     </g>
     <g id="line2d_32">
      <g>
       <use xlink:href="#m3c8df89bf2" x="67.410313" y="205.272425" style="stroke: #000000; stroke-width: 0.6"/>
      </g>
     </g>
    </g>
    <g id="ytick_8">
     <g id="line2d_33">
      <path d="M 67.410313 185.306039 
L 632.898838 185.306039 
" clip-path="url(#pc1fffdaa18)" style="fill: none; stroke: #f4f4f4; stroke-width: 0.8; stroke-linecap: square"/>
     </g>
     <g id="line2d_34">
      <g>
       <use xlink:href="#m3c8df89bf2" x="67.410313" y="185.306039" style="stroke: #000000; stroke-width: 0.6"/>
      </g>
     </g>
    </g>
    <g id="ytick_9">
     <g id="line2d_35">
      <path d="M 67.410313 49.944332 
L 632.898838 49.944332 
" clip-path="url(#pc1fffdaa18)" style="fill: none; stroke: #f4f4f4; stroke-width: 0.8; stroke-linecap: square"/>
     </g>
     <g id="line2d_36">
      <g>
       <use xlink:href="#m3c8df89bf2" x="67.410313" y="49.944332" style="stroke: #000000; stroke-width: 0.6"/>
      </g>
     </g>
     <g id="text_11">
      <!-- $\mathdefault{2\times10^{0}}$ -->
      <g transform="translate(25.810313 53.743551) scale(0.1 -0.1)">
       <use xlink:href="#DejaVuSans-32" transform="translate(0 0.765625)"/>
       <use xlink:href="#DejaVuSans-d7" transform="translate(83.105469 0.765625)"/>
       <use xlink:href="#DejaVuSans-31" transform="translate(186.376953 0.765625)"/>
       <use xlink:href="#DejaVuSans-30" transform="translate(250 0.765625)"/>
       <use xlink:href="#DejaVuSans-30" transform="translate(314.580078 39.046875) scale(0.7)"/>
      </g>
     </g>
    </g>
    <g id="text_12">
     <!-- Achieved TFLOPS -->
     <g transform="translate(14.038594 235.787054) rotate(-90) scale(0.09 -0.09)">
      <defs>
       <path id="DejaVuSans-76" d="M 191 3500 
L 800 3500 
L 1894 563 
L 2988 3500 
L 3597 3500 
L 2284 0 
L 1503 0 
L 191 3500 
z
" transform="scale(0.015625)"/>
       <path id="DejaVuSans-64" d="M 2906 2969 
L 2906 4863 
L 3481 4863 
L 3481 0 
L 2906 0 
L 2906 525 
Q 2725 213 2448 61 
Q 2172 -91 1784 -91 
Q 1150 -91 751 415 
Q 353 922 353 1747 
Q 353 2572 751 3078 
Q 1150 3584 1784 3584 
Q 2172 3584 2448 3432 
Q 2725 3281 2906 2969 
z
M 947 1747 
Q 947 1113 1208 752 
Q 1469 391 1925 391 
Q 2381 391 2643 752 
Q 2906 1113 2906 1747 
Q 2906 2381 2643 2742 
Q 2381 3103 1925 3103 
Q 1469 3103 1208 2742 
Q 947 2381 947 1747 
z
" transform="scale(0.015625)"/>
       <path id="DejaVuSans-54" d="M -19 4666 
L 3928 4666 
L 3928 4134 
L 2272 4134 
L 2272 0 
L 1638 0 
L 1638 4134 
L -19 4134 
L -19 4666 
z
" transform="scale(0.015625)"/>
       <path id="DejaVuSans-53" d="M 3425 4513 
L 3425 3897 
Q 3066 4069 2747 4153 
Q 2428 4238 2131 4238 
Q 1616 4238 1336 4038 
Q 1056 3838 1056 3469 
Q 1056 3159 1242 3001 
Q 1428 2844 1947 2747 
L 2328 2669 
Q 3034 2534 3370 2195 
Q 3706 1856 3706 1288 
Q 3706 609 3251 259 
Q 2797 -91 1919 -91 
Q 1588 -91 1214 -16 
Q 841 59 441 206 
L 441 856 
Q 825 641 1194 531 
Q 1563 422 1919 422 
Q 2459 422 2753 634 
Q 3047 847 3047 1241 
Q 3047 1584 2836 1778 
Q 2625 1972 2144 2069 
L 1759 2144 
Q 1053 2284 737 2584 
Q 422 2884 422 3419 
Q 422 4038 858 4394 
Q 1294 4750 2059 4750 
Q 2388 4750 2728 4690 
Q 3069 4631 3425 4513 
z
" transform="scale(0.015625)"/>
      </defs>
      <use xlink:href="#DejaVuSans-41"/>
      <use xlink:href="#DejaVuSans-63" transform="translate(66.658203 0)"/>
      <use xlink:href="#DejaVuSans-68" transform="translate(121.638672 0)"/>
      <use xlink:href="#DejaVuSans-69" transform="translate(185.017578 0)"/>
      <use xlink:href="#DejaVuSans-65" transform="translate(212.800781 0)"/>
      <use xlink:href="#DejaVuSans-76" transform="translate(274.324219 0)"/>
      <use xlink:href="#DejaVuSans-65" transform="translate(333.503906 0)"/>
      <use xlink:href="#DejaVuSans-64" transform="translate(395.027344 0)"/>
      <use xlink:href="#DejaVuSans-20" transform="translate(458.503906 0)"/>
      <use xlink:href="#DejaVuSans-54" transform="translate(490.291016 0)"/>
      <use xlink:href="#DejaVuSans-46" transform="translate(551.375 0)"/>
      <use xlink:href="#DejaVuSans-4c" transform="translate(608.894531 0)"/>
      <use xlink:href="#DejaVuSans-4f" transform="translate(660.982422 0)"/>
      <use xlink:href="#DejaVuSans-50" transform="translate(739.693359 0)"/>
      <use xlink:href="#DejaVuSans-53" transform="translate(799.996094 0)"/>
     </g>
    </g>
   </g>
   <g id="patch_3">
    <path d="M 67.410313 371.540982 
L 67.410313 22.318125 
" style="fill: none; stroke: #000000; stroke-width: 0.8; stroke-linejoin: miter; stroke-linecap: square"/>
   </g>
   <g id="patch_4">
    <path d="M 632.898838 371.540982 
L 632.898838 22.318125 
" style="fill: none; stroke: #000000; stroke-width: 0.8; stroke-linejoin: miter; stroke-linecap: square"/>
   </g>
   <g id="patch_5">
    <path d="M 67.410313 371.540982 
L 632.898838 371.540982 
" style="fill: none; stroke: #000000; stroke-width: 0.8; stroke-linejoin: miter; stroke-linecap: square"/>
   </g>
   <g id="patch_6">
    <path d="M 67.410313 22.318125 
L 632.898838 22.318125 
" style="fill: none; stroke: #000000; stroke-width: 0.8; stroke-linejoin: miter; stroke-linecap: square"/>
   </g>
   <g id="text_13">
    <!-- Top-k — roofline (H200) -->
    <g transform="translate(67.410313 16.318125) scale(0.12 -0.12)">
     <defs>
      <path id="DejaVuSans-Bold-54" d="M 31 4666 
L 4331 4666 
L 4331 3756 
L 2784 3756 
L 2784 0 
L 1581 0 
L 1581 3756 
L 31 3756 
L 31 4666 
z
" transform="scale(0.015625)"/>
      <path id="DejaVuSans-Bold-6f" d="M 2203 2784 
Q 1831 2784 1636 2517 
Q 1441 2250 1441 1747 
Q 1441 1244 1636 976 
Q 1831 709 2203 709 
Q 2569 709 2762 976 
Q 2956 1244 2956 1747 
Q 2956 2250 2762 2517 
Q 2569 2784 2203 2784 
z
M 2203 3584 
Q 3106 3584 3614 3096 
Q 4122 2609 4122 1747 
Q 4122 884 3614 396 
Q 3106 -91 2203 -91 
Q 1297 -91 786 396 
Q 275 884 275 1747 
Q 275 2609 786 3096 
Q 1297 3584 2203 3584 
z
" transform="scale(0.015625)"/>
      <path id="DejaVuSans-Bold-70" d="M 1656 506 
L 1656 -1331 
L 538 -1331 
L 538 3500 
L 1656 3500 
L 1656 2988 
Q 1888 3294 2169 3439 
Q 2450 3584 2816 3584 
Q 3463 3584 3878 3070 
Q 4294 2556 4294 1747 
Q 4294 938 3878 423 
Q 3463 -91 2816 -91 
Q 2450 -91 2169 54 
Q 1888 200 1656 506 
z
M 2400 2772 
Q 2041 2772 1848 2508 
Q 1656 2244 1656 1747 
Q 1656 1250 1848 986 
Q 2041 722 2400 722 
Q 2759 722 2948 984 
Q 3138 1247 3138 1747 
Q 3138 2247 2948 2509 
Q 2759 2772 2400 2772 
z
" transform="scale(0.015625)"/>
      <path id="DejaVuSans-Bold-2d" d="M 347 2297 
L 2309 2297 
L 2309 1388 
L 347 1388 
L 347 2297 
z
" transform="scale(0.015625)"/>
      <path id="DejaVuSans-Bold-6b" d="M 538 4863 
L 1656 4863 
L 1656 2216 
L 2944 3500 
L 4244 3500 
L 2534 1894 
L 4378 0 
L 3022 0 
L 1656 1459 
L 1656 0 
L 538 0 
L 538 4863 
z
" transform="scale(0.015625)"/>
      <path id="DejaVuSans-Bold-20" transform="scale(0.015625)"/>
      <path id="DejaVuSans-Bold-2014" d="M 344 2156 
L 6056 2156 
L 6056 1350 
L 344 1350 
L 344 2156 
z
" transform="scale(0.015625)"/>
      <path id="DejaVuSans-Bold-72" d="M 3138 2547 
Q 2991 2616 2845 2648 
Q 2700 2681 2553 2681 
Q 2122 2681 1889 2404 
Q 1656 2128 1656 1613 
L 1656 0 
L 538 0 
L 538 3500 
L 1656 3500 
L 1656 2925 
Q 1872 3269 2151 3426 
Q 2431 3584 2822 3584 
Q 2878 3584 2943 3579 
Q 3009 3575 3134 3559 
L 3138 2547 
z
" transform="scale(0.015625)"/>
      <path id="DejaVuSans-Bold-66" d="M 2841 4863 
L 2841 4128 
L 2222 4128 
Q 1984 4128 1890 4042 
Q 1797 3956 1797 3744 
L 1797 3500 
L 2753 3500 
L 2753 2700 
L 1797 2700 
L 1797 0 
L 678 0 
L 678 2700 
L 122 2700 
L 122 3500 
L 678 3500 
L 678 3744 
Q 678 4316 997 4589 
Q 1316 4863 1984 4863 
L 2841 4863 
z
" transform="scale(0.015625)"/>
      <path id="DejaVuSans-Bold-6c" d="M 538 4863 
L 1656 4863 
L 1656 0 
L 538 0 
L 538 4863 
z
" transform="scale(0.015625)"/>
      <path id="DejaVuSans-Bold-69" d="M 538 3500 
L 1656 3500 
L 1656 0 
L 538 0 
L 538 3500 
z
M 538 4863 
L 1656 4863 
L 1656 3950 
L 538 3950 
L 538 4863 
z
" transform="scale(0.015625)"/>
      <path id="DejaVuSans-Bold-6e" d="M 4056 2131 
L 4056 0 
L 2931 0 
L 2931 347 
L 2931 1631 
Q 2931 2084 2911 2256 
Q 2891 2428 2841 2509 
Q 2775 2619 2662 2680 
Q 2550 2741 2406 2741 
Q 2056 2741 1856 2470 
Q 1656 2200 1656 1722 
L 1656 0 
L 538 0 
L 538 3500 
L 1656 3500 
L 1656 2988 
Q 1909 3294 2193 3439 
Q 2478 3584 2822 3584 
Q 3428 3584 3742 3212 
Q 4056 2841 4056 2131 
z
" transform="scale(0.015625)"/>
      <path id="DejaVuSans-Bold-65" d="M 4031 1759 
L 4031 1441 
L 1416 1441 
Q 1456 1047 1700 850 
Q 1944 653 2381 653 
Q 2734 653 3104 758 
Q 3475 863 3866 1075 
L 3866 213 
Q 3469 63 3072 -14 
Q 2675 -91 2278 -91 
Q 1328 -91 801 392 
Q 275 875 275 1747 
Q 275 2603 792 3093 
Q 1309 3584 2216 3584 
Q 3041 3584 3536 3087 
Q 4031 2591 4031 1759 
z
M 2881 2131 
Q 2881 2450 2695 2645 
Q 2509 2841 2209 2841 
Q 1884 2841 1681 2658 
Q 1478 2475 1428 2131 
L 2881 2131 
z
" transform="scale(0.015625)"/>
      <path id="DejaVuSans-Bold-28" d="M 2413 -844 
L 1484 -844 
Q 1006 -72 778 623 
Q 550 1319 550 2003 
Q 550 2688 779 3389 
Q 1009 4091 1484 4856 
L 2413 4856 
Q 2013 4116 1813 3408 
Q 1613 2700 1613 2009 
Q 1613 1319 1811 609 
Q 2009 -100 2413 -844 
z
" transform="scale(0.015625)"/>
      <path id="DejaVuSans-Bold-48" d="M 588 4666 
L 1791 4666 
L 1791 2888 
L 3566 2888 
L 3566 4666 
L 4769 4666 
L 4769 0 
L 3566 0 
L 3566 1978 
L 1791 1978 
L 1791 0 
L 588 0 
L 588 4666 
z
" transform="scale(0.015625)"/>
      <path id="DejaVuSans-Bold-32" d="M 1844 884 
L 3897 884 
L 3897 0 
L 506 0 
L 506 884 
L 2209 2388 
Q 2438 2594 2547 2791 
Q 2656 2988 2656 3200 
Q 2656 3528 2436 3728 
Q 2216 3928 1850 3928 
Q 1569 3928 1234 3808 
Q 900 3688 519 3450 
L 519 4475 
Q 925 4609 1322 4679 
Q 1719 4750 2100 4750 
Q 2938 4750 3402 4381 
Q 3866 4013 3866 3353 
Q 3866 2972 3669 2642 
Q 3472 2313 2841 1759 
L 1844 884 
z
" transform="scale(0.015625)"/>
      <path id="DejaVuSans-Bold-30" d="M 2944 2338 
Q 2944 3213 2780 3570 
Q 2616 3928 2228 3928 
Q 1841 3928 1675 3570 
Q 1509 3213 1509 2338 
Q 1509 1453 1675 1090 
Q 1841 728 2228 728 
Q 2613 728 2778 1090 
Q 2944 1453 2944 2338 
z
M 4147 2328 
Q 4147 1169 3647 539 
Q 3147 -91 2228 -91 
Q 1306 -91 806 539 
Q 306 1169 306 2328 
Q 306 3491 806 4120 
Q 1306 4750 2228 4750 
Q 3147 4750 3647 4120 
Q 4147 3491 4147 2328 
z
" transform="scale(0.015625)"/>
      <path id="DejaVuSans-Bold-29" d="M 513 -844 
Q 913 -100 1113 609 
Q 1313 1319 1313 2009 
Q 1313 2700 1113 3408 
Q 913 4116 513 4856 
L 1441 4856 
Q 1916 4091 2145 3389 
Q 2375 2688 2375 2003 
Q 2375 1319 2147 623 
Q 1919 -72 1441 -844 
L 513 -844 
z
" transform="scale(0.015625)"/>
     </defs>
     <use xlink:href="#DejaVuSans-Bold-54"/>
     <use xlink:href="#DejaVuSans-Bold-6f" transform="translate(54.962891 0)"/>
     <use xlink:href="#DejaVuSans-Bold-70" transform="translate(123.664062 0)"/>
     <use xlink:href="#DejaVuSans-Bold-2d" transform="translate(195.246094 0)"/>
     <use xlink:href="#DejaVuSans-Bold-6b" transform="translate(236.75 0)"/>
     <use xlink:href="#DejaVuSans-Bold-20" transform="translate(303.253906 0)"/>
     <use xlink:href="#DejaVuSans-Bold-2014" transform="translate(338.068359 0)"/>
     <use xlink:href="#DejaVuSans-Bold-20" transform="translate(438.068359 0)"/>
     <use xlink:href="#DejaVuSans-Bold-72" transform="translate(472.882812 0)"/>
     <use xlink:href="#DejaVuSans-Bold-6f" transform="translate(522.199219 0)"/>
     <use xlink:href="#DejaVuSans-Bold-6f" transform="translate(590.900391 0)"/>
     <use xlink:href="#DejaVuSans-Bold-66" transform="translate(659.601562 0)"/>
     <use xlink:href="#DejaVuSans-Bold-6c" transform="translate(703.107422 0)"/>
     <use xlink:href="#DejaVuSans-Bold-69" transform="translate(737.384766 0)"/>
     <use xlink:href="#DejaVuSans-Bold-6e" transform="translate(771.662109 0)"/>
     <use xlink:href="#DejaVuSans-Bold-65" transform="translate(842.853516 0)"/>
     <use xlink:href="#DejaVuSans-Bold-20" transform="translate(910.675781 0)"/>
     <use xlink:href="#DejaVuSans-Bold-28" transform="translate(945.490234 0)"/>
     <use xlink:href="#DejaVuSans-Bold-48" transform="translate(991.193359 0)"/>
     <use xlink:href="#DejaVuSans-Bold-32" transform="translate(1074.884766 0)"/>
     <use xlink:href="#DejaVuSans-Bold-30" transform="translate(1144.464844 0)"/>
     <use xlink:href="#DejaVuSans-Bold-30" transform="translate(1214.044922 0)"/>
     <use xlink:href="#DejaVuSans-Bold-29" transform="translate(1283.625 0)"/>
    </g>
   </g>
   <g id="PathCollection_1">
    <defs>
     <path id="m00b9303326" d="M 0 2.915476 
C 0.773193 2.915476 1.514823 2.608283 2.061553 2.061553 
C 2.608283 1.514823 2.915476 0.773193 2.915476 0 
C 2.915476 -0.773193 2.608283 -1.514823 2.061553 -2.061553 
C 1.514823 -2.608283 0.773193 -2.915476 0 -2.915476 
C -0.773193 -2.915476 -1.514823 -2.608283 -2.061553 -2.061553 
C -2.608283 -1.514823 -2.915476 -0.773193 -2.915476 0 
C -2.915476 0.773193 -2.608283 1.514823 -2.061553 2.061553 
C -1.514823 2.608283 -0.773193 2.915476 0 2.915476 
z
" style="stroke: #ffffff; stroke-opacity: 0.85; stroke-width: 0.4"/>
    </defs>
    <g clip-path="url(#pc1fffdaa18)">
     <use xlink:href="#m00b9303326" x="384.25307" y="383.23654" style="fill: #42a5f5; fill-opacity: 0.85; stroke: #ffffff; stroke-opacity: 0.85; stroke-width: 0.4"/>
     <use xlink:href="#m00b9303326" x="363.368828" y="155.976116" style="fill: #42a5f5; fill-opacity: 0.85; stroke: #ffffff; stroke-opacity: 0.85; stroke-width: 0.4"/>
     <use xlink:href="#m00b9303326" x="316.056081" y="448.969913" style="fill: #42a5f5; fill-opacity: 0.85; stroke: #ffffff; stroke-opacity: 0.85; stroke-width: 0.4"/>
     <use xlink:href="#m00b9303326" x="342.879006" y="194.995439" style="fill: #42a5f5; fill-opacity: 0.85; stroke: #ffffff; stroke-opacity: 0.85; stroke-width: 0.4"/>
     <use xlink:href="#m00b9303326" x="316.056081" y="513.300368" style="fill: #42a5f5; fill-opacity: 0.85; stroke: #ffffff; stroke-opacity: 0.85; stroke-width: 0.4"/>
     <use xlink:href="#m00b9303326" x="326.427835" y="254.039816" style="fill: #42a5f5; fill-opacity: 0.85; stroke: #ffffff; stroke-opacity: 0.85; stroke-width: 0.4"/>
    </g>
   </g>
   <g id="line2d_37">
    <path d="M 0 0 
" clip-path="url(#pc1fffdaa18)" style="fill: none; stroke: #37474f; stroke-width: 1.4; stroke-linecap: square"/>
   </g>
   <g id="legend_1">
    <g id="patch_7">
     <path d="M 524.40665 367.790982 
L 627.648838 367.790982 
Q 629.148838 367.790982 629.148838 366.290982 
L 629.148838 356.032388 
Q 629.148838 354.532388 627.648838 354.532388 
L 524.40665 354.532388 
Q 522.90665 354.532388 522.90665 356.032388 
L 522.90665 366.290982 
Q 522.90665 367.790982 524.40665 367.790982 
z
" style="fill: #ffffff; opacity: 0.9; stroke: #cccccc; stroke-linejoin: miter"/>
    </g>
    <g id="PathCollection_2">
     <g>
      <use xlink:href="#m00b9303326" x="533.40665" y="361.262467" style="fill: #42a5f5; fill-opacity: 0.85; stroke: #ffffff; stroke-opacity: 0.85; stroke-width: 0.4"/>
     </g>
    </g>
    <g id="text_14">
     <!-- vllm -->
     <g transform="translate(546.90665 363.231217) scale(0.075 -0.075)">
      <defs>
       <path id="DejaVuSans-6c" d="M 603 4863 
L 1178 4863 
L 1178 0 
L 603 0 
L 603 4863 
z
" transform="scale(0.015625)"/>
      </defs>
      <use xlink:href="#DejaVuSans-76"/>
      <use xlink:href="#DejaVuSans-6c" transform="translate(59.179688 0)"/>
      <use xlink:href="#DejaVuSans-6c" transform="translate(86.962891 0)"/>
      <use xlink:href="#DejaVuSans-6d" transform="translate(114.746094 0)"/>
     </g>
    </g>
    <g id="PathCollection_3">
     <defs>
      <path id="m070ddb8f9e" d="M 0 -4.062019 
L -4.062019 4.062019 
L 4.062019 4.062019 
z
" style="stroke: #ffffff; stroke-width: 0.6"/>
     </defs>
     <g>
      <use xlink:href="#m070ddb8f9e" x="585.318369" y="361.262467" style="fill: #00897b; stroke: #ffffff; stroke-width: 0.6"/>
     </g>
    </g>
    <g id="text_15">
     <!-- TileOPs -->
     <g transform="translate(598.818369 363.231217) scale(0.075 -0.075)">
      <use xlink:href="#DejaVuSans-54"/>
      <use xlink:href="#DejaVuSans-69" transform="translate(57.958984 0)"/>
      <use xlink:href="#DejaVuSans-6c" transform="translate(85.742188 0)"/>
      <use xlink:href="#DejaVuSans-65" transform="translate(113.525391 0)"/>
      <use xlink:href="#DejaVuSans-4f" transform="translate(175.048828 0)"/>
      <use xlink:href="#DejaVuSans-50" transform="translate(253.759766 0)"/>
      <use xlink:href="#DejaVuSans-73" transform="translate(312.3125 0)"/>
     </g>
    </g>
   </g>
   <g id="PathCollection_4">
    <g clip-path="url(#pc1fffdaa18)">
     <use xlink:href="#m070ddb8f9e" x="384.25307" y="458.135299" style="fill: #00897b; stroke: #ffffff; stroke-width: 0.6"/>
     <use xlink:href="#m070ddb8f9e" x="363.368828" y="167.445499" style="fill: #00897b; stroke: #ffffff; stroke-width: 0.6"/>
     <use xlink:href="#m070ddb8f9e" x="316.056081" y="500.737706" style="fill: #00897b; stroke: #ffffff; stroke-width: 0.6"/>
     <use xlink:href="#m070ddb8f9e" x="342.879006" y="194.995439" style="fill: #00897b; stroke: #ffffff; stroke-width: 0.6"/>
     <use xlink:href="#m070ddb8f9e" x="316.056081" y="500.737706" style="fill: #00897b; stroke: #ffffff; stroke-width: 0.6"/>
     <use xlink:href="#m070ddb8f9e" x="326.427835" y="205.272425" style="fill: #00897b; stroke: #ffffff; stroke-width: 0.6"/>
    </g>
   </g>
  </g>
 </g>
 <defs>
  <clipPath id="pc1fffdaa18">
   <rect x="67.410313" y="22.318125" width="565.488525" height="349.222857"/>
  </clipPath>
 </defs>
</svg>
