<?xml version="1.0" encoding="utf-8" standalone="no"?>
<!DOCTYPE svg PUBLIC "-//W3C//DTD SVG 1.1//EN"
  "http://www.w3.org/Graphics/SVG/1.1/DTD/svg11.dtd">
<svg xmlns:xlink="http://www.w3.org/1999/xlink" width="640.128651pt" height="408.12942pt" viewBox="0 0 640.128651 408.12942" xmlns="http://www.w3.org/2000/svg" version="1.1">
 <metadata>
  <rdf:RDF xmlns:dc="http://purl.org/dc/elements/1.1/" xmlns:cc="http://creativecommons.org/ns#" xmlns:rdf="http://www.w3.org/1999/02/22-rdf-syntax-ns#">
   <cc:Work>
    <dc:type rdf:resource="http://purl.org/dc/dcmitype/StillImage"/>
    <dc:date>2026-06-16T16:27:16.017367</dc:date>
    <dc:format>image/svg+xml</dc:format>
    <dc:creator>
     <cc:Agent>
      <dc:title>Matplotlib v3.10.9, https://matplotlib.org/</dc:title>
     </cc:Agent>
    </dc:creator>
   </cc:Work>
  </rdf:RDF>
 </metadata>
 <defs>
  <style type="text/css">*{stroke-linejoin: round; stroke-linecap: butt}</style>
 </defs>
 <g id="figure_1">
  <g id="patch_1">
   <path d="M 0 408.12942 
L 640.128651 408.12942 
L 640.128651 0 
L 0 0 
z
" style="fill: #ffffff"/>
  </g>
  <g id="axes_1">
   <g id="patch_2">
    <path d="M 82.810313 371.540982 
L 632.928651 371.540982 
L 632.928651 22.318125 
L 82.810313 22.318125 
z
" style="fill: #ffffff"/>
   </g>
   <g id="FillBetweenPolyCollection_1">
    <path d="M 82.810313 3996.487218 
L 82.810313 776.402933 
L 83.912754 777.836888 
L 85.015196 779.270842 
L 86.117637 780.704797 
L 87.220079 782.138752 
L 88.32252 783.572706 
L 89.424962 785.006661 
L 90.527403 786.440615 
L 91.629845 787.87457 
L 92.732287 789.308525 
L 93.834728 790.742479 
L 94.93717 792.176434 
L 96.039611 793.610389 
L 97.142053 795.044343 
L 98.244494 796.478298 
L 99.346936 797.912252 
L 100.449377 799.346207 
L 101.551819 800.780162 
L 102.654261 802.214116 
L 103.756702 803.648071 
L 104.859144 805.082026 
L 105.961585 806.51598 
L 107.064027 807.949935 
L 108.166468 809.38389 
L 109.26891 810.817844 
L 110.371351 812.251799 
L 111.473793 813.685753 
L 112.576235 815.119708 
L 113.678676 816.553663 
L 114.781118 817.987617 
L 115.883559 819.421572 
L 116.986001 820.855527 
L 118.088442 822.289481 
L 119.190884 823.723436 
L 120.293326 825.15739 
L 121.395767 826.591345 
L 122.498209 828.0253 
L 123.60065 829.459254 
L 124.703092 830.893209 
L 125.805533 832.327164 
L 126.907975 833.761118 
L 128.010416 835.195073 
L 129.112858 836.629028 
L 130.2153 838.062982 
L 131.317741 839.496937 
L 132.420183 840.930891 
L 133.522624 842.364846 
L 134.625066 843.798801 
L 135.727507 845.232755 
L 136.829949 846.66671 
L 137.93239 848.100665 
L 139.034832 849.534619 
L 140.137274 850.968574 
L 141.239715 852.402528 
L 142.342157 853.836483 
L 143.444598 855.270438 
L 144.54704 856.704392 
L 145.649481 858.138347 
L 146.751923 859.572302 
L 147.854365 861.006256 
L 148.956806 862.440211 
L 150.059248 863.874166 
L 151.161689 865.30812 
L 152.264131 866.742075 
L 153.366572 868.176029 
L 154.469014 869.609984 
L 155.571455 871.043939 
L 156.673897 872.477893 
L 157.776339 873.911848 
L 158.87878 875.345803 
L 159.981222 876.779757 
L 161.083663 878.213712 
L 162.186105 879.647666 
L 163.288546 881.081621 
L 164.390988 882.515576 
L 165.493429 883.94953 
L 166.595871 885.383485 
L 167.698313 886.81744 
L 168.800754 888.251394 
L 169.903196 889.685349 
L 171.005637 891.119304 
L 172.108079 892.553258 
L 173.21052 893.987213 
L 174.312962 895.421167 
L 175.415403 896.855122 
L 176.517845 898.289077 
L 177.620287 899.723031 
L 178.722728 901.156986 
L 179.82517 902.590941 
L 180.927611 904.024895 
L 182.030053 905.45885 
L 183.132494 906.892804 
L 184.234936 908.326759 
L 185.337378 909.760714 
L 186.439819 911.194668 
L 187.542261 912.628623 
L 188.644702 914.062578 
L 189.747144 915.496532 
L 190.849585 916.930487 
L 191.952027 918.364442 
L 193.054468 919.798396 
L 194.15691 921.232351 
L 195.259352 922.666305 
L 196.361793 924.10026 
L 197.464235 925.534215 
L 198.566676 926.968169 
L 199.669118 928.402124 
L 200.771559 929.836079 
L 201.874001 931.270033 
L 202.976442 932.703988 
L 204.078884 934.137942 
L 205.181326 935.571897 
L 206.283767 937.005852 
L 207.386209 938.439806 
L 208.48865 939.873761 
L 209.591092 941.307716 
L 210.693533 942.74167 
L 211.795975 944.175625 
L 212.898417 945.60958 
L 214.000858 947.043534 
L 215.1033 948.477489 
L 216.205741 949.911443 
L 217.308183 951.345398 
L 218.410624 952.779353 
L 219.513066 954.213307 
L 220.615507 955.647262 
L 221.717949 957.081217 
L 222.820391 958.515171 
L 223.922832 959.949126 
L 225.025274 961.38308 
L 226.127715 962.817035 
L 227.230157 964.25099 
L 228.332598 965.684944 
L 229.43504 967.118899 
L 230.537481 968.552854 
L 231.639923 969.986808 
L 232.742365 971.420763 
L 233.844806 972.854718 
L 234.947248 974.288672 
L 236.049689 975.722627 
L 237.152131 977.156581 
L 238.254572 978.590536 
L 239.357014 980.024491 
L 240.459456 981.458445 
L 241.561897 982.8924 
L 242.664339 984.326355 
L 243.76678 985.760309 
L 244.869222 987.194264 
L 245.971663 988.628218 
L 247.074105 990.062173 
L 248.176546 991.496128 
L 249.278988 992.930082 
L 250.38143 994.364037 
L 251.483871 995.797992 
L 252.586313 997.231946 
L 253.688754 998.665901 
L 254.791196 1000.099856 
L 255.893637 1001.53381 
L 256.996079 1002.967765 
L 258.09852 1004.401719 
L 259.200962 1005.835674 
L 260.303404 1007.269629 
L 261.405845 1008.703583 
L 262.508287 1010.137538 
L 263.610728 1011.571493 
L 264.71317 1013.005447 
L 265.815611 1014.439402 
L 266.918053 1015.873356 
L 268.020494 1017.307311 
L 269.122936 1018.741266 
L 270.225378 1020.17522 
L 271.327819 1021.609175 
L 272.430261 1023.04313 
L 273.532702 1024.477084 
L 274.635144 1025.911039 
L 275.737585 1027.344994 
L 276.840027 1028.778948 
L 277.942469 1030.212903 
L 279.04491 1031.646857 
L 280.147352 1033.080812 
L 281.249793 1034.514767 
L 282.352235 1035.948721 
L 283.454676 1037.382676 
L 284.557118 1038.816631 
L 285.659559 1040.250585 
L 286.762001 1041.68454 
L 287.864443 1043.118494 
L 288.966884 1044.552449 
L 290.069326 1045.986404 
L 291.171767 1047.420358 
L 292.274209 1048.854313 
L 293.37665 1050.288268 
L 294.479092 1051.722222 
L 295.581533 1053.156177 
L 296.683975 1054.590132 
L 297.786417 1056.024086 
L 298.888858 1057.458041 
L 299.9913 1058.891995 
L 301.093741 1060.32595 
L 302.196183 1061.759905 
L 303.298624 1063.193859 
L 304.401066 1064.627814 
L 305.503508 1066.061769 
L 306.605949 1067.495723 
L 307.708391 1068.929678 
L 308.810832 1070.363632 
L 309.913274 1071.797587 
L 311.015715 1073.231542 
L 312.118157 1074.665496 
L 313.220598 1076.099451 
L 314.32304 1077.533406 
L 315.425482 1078.96736 
L 316.527923 1080.401315 
L 317.630365 1081.83527 
L 318.732806 1083.269224 
L 319.835248 1084.703179 
L 320.937689 1086.137133 
L 322.040131 1087.571088 
L 323.142572 1089.005043 
L 324.245014 1090.438997 
L 325.347456 1091.872952 
L 326.449897 1093.306907 
L 327.552339 1094.740861 
L 328.65478 1096.174816 
L 329.757222 1097.60877 
L 330.859663 1099.042725 
L 331.962105 1100.47668 
L 333.064546 1101.910634 
L 334.166988 1103.344589 
L 335.26943 1104.778544 
L 336.371871 1106.212498 
L 337.474313 1107.646453 
L 338.576754 1109.080408 
L 339.679196 1110.514362 
L 340.781637 1111.948317 
L 341.884079 1113.382271 
L 342.986521 1114.816226 
L 344.088962 1116.250181 
L 345.191404 1117.684135 
L 346.293845 1119.11809 
L 347.396287 1120.552045 
L 348.498728 1121.985999 
L 349.60117 1123.419954 
L 350.703611 1124.853908 
L 351.806053 1126.287863 
L 352.908495 1127.721818 
L 354.010936 1129.155772 
L 355.113378 1130.589727 
L 356.215819 1132.023682 
L 357.318261 1133.457636 
L 358.420702 1134.891591 
L 359.523144 1136.325546 
L 360.625585 1137.7595 
L 361.728027 1139.193455 
L 362.830469 1140.627409 
L 363.93291 1142.061364 
L 365.035352 1143.495319 
L 366.137793 1144.929273 
L 367.240235 1146.363228 
L 368.342676 1147.797183 
L 369.445118 1149.231137 
L 370.54756 1150.665092 
L 371.650001 1152.099046 
L 372.752443 1153.533001 
L 373.854884 1154.966956 
L 374.957326 1156.40091 
L 376.059767 1157.834865 
L 377.162209 1159.26882 
L 378.26465 1160.702774 
L 379.367092 1162.136729 
L 380.469534 1163.570684 
L 381.571975 1165.004638 
L 382.674417 1166.438593 
L 383.776858 1167.872547 
L 384.8793 1169.306502 
L 385.981741 1170.740457 
L 387.084183 1172.174411 
L 388.186624 1173.608366 
L 389.289066 1175.042321 
L 390.391508 1176.476275 
L 391.493949 1177.91023 
L 392.596391 1179.344184 
L 393.698832 1180.778139 
L 394.801274 1182.212094 
L 395.903715 1183.646048 
L 397.006157 1185.080003 
L 398.108599 1186.513958 
L 399.21104 1187.947912 
L 400.313482 1189.381867 
L 401.415923 1190.815822 
L 402.518365 1192.249776 
L 403.620806 1193.683731 
L 404.723248 1195.117685 
L 405.825689 1196.55164 
L 406.928131 1197.985595 
L 408.030573 1199.419549 
L 409.133014 1200.853504 
L 410.235456 1202.287459 
L 411.337897 1203.721413 
L 412.440339 1205.155368 
L 413.54278 1206.589322 
L 414.645222 1208.023277 
L 415.747663 1209.457232 
L 416.850105 1210.891186 
L 417.952547 1212.325141 
L 419.054988 1213.759096 
L 420.15743 1215.19305 
L 421.259871 1216.627005 
L 422.362313 1218.06096 
L 423.464754 1219.494914 
L 424.567196 1220.928869 
L 425.669637 1222.362823 
L 426.772079 1223.796778 
L 427.874521 1225.230733 
L 428.976962 1226.664687 
L 430.079404 1228.098642 
L 431.181845 1229.532597 
L 432.284287 1230.966551 
L 433.386728 1232.400506 
L 434.48917 1233.83446 
L 435.591612 1235.268415 
L 436.694053 1236.70237 
L 437.796495 1238.136324 
L 438.898936 1239.570279 
L 440.001378 1241.004234 
L 441.103819 1242.438188 
L 442.206261 1243.872143 
L 443.308702 1245.306098 
L 444.411144 1246.740052 
L 445.513586 1248.174007 
L 446.616027 1249.607961 
L 447.718469 1251.041916 
L 448.82091 1252.475871 
L 449.923352 1253.909825 
L 451.025793 1255.34378 
L 452.128235 1256.777735 
L 453.230676 1258.211689 
L 454.333118 1259.645644 
L 455.43556 1261.079598 
L 456.538001 1262.513553 
L 457.640443 1263.947508 
L 458.742884 1265.381462 
L 459.845326 1266.815417 
L 460.947767 1268.249372 
L 462.050209 1269.683326 
L 463.152651 1271.117281 
L 464.255092 1272.551236 
L 465.357534 1273.98519 
L 466.459975 1275.419145 
L 467.562417 1276.853099 
L 468.664858 1278.287054 
L 469.7673 1279.721009 
L 470.869741 1281.154963 
L 471.972183 1282.588918 
L 473.074625 1284.022873 
L 474.177066 1285.456827 
L 475.279508 1286.890782 
L 476.381949 1288.324736 
L 477.484391 1289.758691 
L 478.586832 1291.192646 
L 479.689274 1292.6266 
L 480.791715 1294.060555 
L 481.894157 1295.49451 
L 482.996599 1296.928464 
L 484.09904 1298.362419 
L 485.201482 1299.796374 
L 486.303923 1301.230328 
L 487.406365 1302.664283 
L 488.508806 1304.098237 
L 489.611248 1305.532192 
L 490.713689 1306.966147 
L 491.816131 1308.400101 
L 492.918573 1309.834056 
L 494.021014 1311.268011 
L 495.123456 1312.701965 
L 496.225897 1314.13592 
L 497.328339 1315.569874 
L 498.43078 1317.003829 
L 499.533222 1318.437784 
L 500.635664 1319.871738 
L 501.738105 1321.305693 
L 502.840547 1322.739648 
L 503.942988 1324.173602 
L 505.04543 1325.607557 
L 506.147871 1327.041512 
L 507.250313 1328.475466 
L 508.352754 1329.909421 
L 509.455196 1331.343375 
L 510.557638 1332.77733 
L 511.660079 1334.211285 
L 512.762521 1335.645239 
L 513.864962 1337.079194 
L 514.967404 1338.513149 
L 516.069845 1339.947103 
L 517.172287 1341.381058 
L 518.274728 1342.815012 
L 519.37717 1344.248967 
L 520.479612 1345.682922 
L 521.582053 1347.116876 
L 522.684495 1348.550831 
L 523.786936 1349.984786 
L 524.889378 1351.41874 
L 525.991819 1352.852695 
L 527.094261 1354.28665 
L 528.196703 1355.720604 
L 529.299144 1357.154559 
L 530.401586 1358.588513 
L 531.504027 1360.022468 
L 532.606469 1361.456423 
L 533.70891 1362.890377 
L 534.811352 1364.324332 
L 535.913793 1365.758287 
L 537.016235 1367.192241 
L 538.118677 1368.626196 
L 539.221118 1370.06015 
L 540.32356 1371.494105 
L 541.426001 1372.92806 
L 542.528443 1374.362014 
L 543.630884 1375.795969 
L 544.733326 1377.229924 
L 545.835767 1378.663878 
L 546.938209 1380.097833 
L 548.040651 1381.531788 
L 549.143092 1382.965742 
L 550.245534 1384.399697 
L 551.347975 1385.833651 
L 552.450417 1387.267606 
L 553.552858 1388.701561 
L 554.6553 1390.135515 
L 555.757742 1391.56947 
L 556.860183 1393.003425 
L 557.962625 1394.437379 
L 559.065066 1395.871334 
L 560.167508 1397.305288 
L 561.269949 1398.739243 
L 562.372391 1400.173198 
L 563.474832 1401.607152 
L 564.577274 1403.041107 
L 565.679716 1404.475062 
L 566.782157 1405.909016 
L 567.884599 1407.342971 
L 568.98704 1408.776926 
L 570.089482 1410.21088 
L 571.191923 1411.644835 
L 572.294365 1413.078789 
L 573.396806 1414.512744 
L 574.499248 1415.946699 
L 575.60169 1417.380653 
L 576.704131 1418.814608 
L 577.806573 1420.248563 
L 578.909014 1421.682517 
L 580.011456 1423.116472 
L 581.113897 1424.550426 
L 582.216339 1425.984381 
L 583.31878 1427.418336 
L 584.421222 1428.85229 
L 585.523664 1430.286245 
L 586.626105 1431.7202 
L 587.728547 1433.154154 
L 588.830988 1434.588109 
L 589.93343 1436.022064 
L 591.035871 1437.456018 
L 592.138313 1438.889973 
L 593.240755 1440.323927 
L 594.343196 1441.757882 
L 595.445638 1443.191837 
L 596.548079 1444.625791 
L 597.650521 1446.059746 
L 598.752962 1447.493701 
L 599.855404 1448.927655 
L 600.957845 1450.36161 
L 602.060287 1451.795564 
L 603.162729 1453.229519 
L 604.26517 1454.663474 
L 605.367612 1456.097428 
L 606.470053 1457.531383 
L 607.572495 1458.965338 
L 608.674936 1460.399292 
L 609.777378 1461.833247 
L 610.879819 1463.267202 
L 611.982261 1464.701156 
L 613.084703 1466.135111 
L 614.187144 1467.569065 
L 615.289586 1469.00302 
L 616.392027 1470.436975 
L 617.494469 1471.870929 
L 618.59691 1473.304884 
L 619.699352 1474.738839 
L 620.801794 1476.172793 
L 621.904235 1477.606748 
L 623.006677 1479.040702 
L 624.109118 1480.474657 
L 625.21156 1481.908612 
L 626.314001 1483.342566 
L 627.416443 1484.776521 
L 628.518884 1486.210476 
L 629.621326 1487.64443 
L 630.723768 1489.078385 
L 631.826209 1490.51234 
L 632.928651 1491.946294 
L 632.928651 3996.487218 
L 632.928651 3996.487218 
L 631.826209 3996.487218 
L 630.723768 3996.487218 
L 629.621326 3996.487218 
L 628.518884 3996.487218 
L 627.416443 3996.487218 
L 626.314001 3996.487218 
L 625.21156 3996.487218 
L 624.109118 3996.487218 
L 623.006677 3996.487218 
L 621.904235 3996.487218 
L 620.801794 3996.487218 
L 619.699352 3996.487218 
L 618.59691 3996.487218 
L 617.494469 3996.487218 
L 616.392027 3996.487218 
L 615.289586 3996.487218 
L 614.187144 3996.487218 
L 613.084703 3996.487218 
L 611.982261 3996.487218 
L 610.879819 3996.487218 
L 609.777378 3996.487218 
L 608.674936 3996.487218 
L 607.572495 3996.487218 
L 606.470053 3996.487218 
L 605.367612 3996.487218 
L 604.26517 3996.487218 
L 603.162729 3996.487218 
L 602.060287 3996.487218 
L 600.957845 3996.487218 
L 599.855404 3996.487218 
L 598.752962 3996.487218 
L 597.650521 3996.487218 
L 596.548079 3996.487218 
L 595.445638 3996.487218 
L 594.343196 3996.487218 
L 593.240755 3996.487218 
L 592.138313 3996.487218 
L 591.035871 3996.487218 
L 589.93343 3996.487218 
L 588.830988 3996.487218 
L 587.728547 3996.487218 
L 586.626105 3996.487218 
L 585.523664 3996.487218 
L 584.421222 3996.487218 
L 583.31878 3996.487218 
L 582.216339 3996.487218 
L 581.113897 3996.487218 
L 580.011456 3996.487218 
L 578.909014 3996.487218 
L 577.806573 3996.487218 
L 576.704131 3996.487218 
L 575.60169 3996.487218 
L 574.499248 3996.487218 
L 573.396806 3996.487218 
L 572.294365 3996.487218 
L 571.191923 3996.487218 
L 570.089482 3996.487218 
L 568.98704 3996.487218 
L 567.884599 3996.487218 
L 566.782157 3996.487218 
L 565.679716 3996.487218 
L 564.577274 3996.487218 
L 563.474832 3996.487218 
L 562.372391 3996.487218 
L 561.269949 3996.487218 
L 560.167508 3996.487218 
L 559.065066 3996.487218 
L 557.962625 3996.487218 
L 556.860183 3996.487218 
L 555.757742 3996.487218 
L 554.6553 3996.487218 
L 553.552858 3996.487218 
L 552.450417 3996.487218 
L 551.347975 3996.487218 
L 550.245534 3996.487218 
L 549.143092 3996.487218 
L 548.040651 3996.487218 
L 546.938209 3996.487218 
L 545.835767 3996.487218 
L 544.733326 3996.487218 
L 543.630884 3996.487218 
L 542.528443 3996.487218 
L 541.426001 3996.487218 
L 540.32356 3996.487218 
L 539.221118 3996.487218 
L 538.118677 3996.487218 
L 537.016235 3996.487218 
L 535.913793 3996.487218 
L 534.811352 3996.487218 
L 533.70891 3996.487218 
L 532.606469 3996.487218 
L 531.504027 3996.487218 
L 530.401586 3996.487218 
L 529.299144 3996.487218 
L 528.196703 3996.487218 
L 527.094261 3996.487218 
L 525.991819 3996.487218 
L 524.889378 3996.487218 
L 523.786936 3996.487218 
L 522.684495 3996.487218 
L 521.582053 3996.487218 
L 520.479612 3996.487218 
L 519.37717 3996.487218 
L 518.274728 3996.487218 
L 517.172287 3996.487218 
L 516.069845 3996.487218 
L 514.967404 3996.487218 
L 513.864962 3996.487218 
L 512.762521 3996.487218 
L 511.660079 3996.487218 
L 510.557638 3996.487218 
L 509.455196 3996.487218 
L 508.352754 3996.487218 
L 507.250313 3996.487218 
L 506.147871 3996.487218 
L 505.04543 3996.487218 
L 503.942988 3996.487218 
L 502.840547 3996.487218 
L 501.738105 3996.487218 
L 500.635664 3996.487218 
L 499.533222 3996.487218 
L 498.43078 3996.487218 
L 497.328339 3996.487218 
L 496.225897 3996.487218 
L 495.123456 3996.487218 
L 494.021014 3996.487218 
L 492.918573 3996.487218 
L 491.816131 3996.487218 
L 490.713689 3996.487218 
L 489.611248 3996.487218 
L 488.508806 3996.487218 
L 487.406365 3996.487218 
L 486.303923 3996.487218 
L 485.201482 3996.487218 
L 484.09904 3996.487218 
L 482.996599 3996.487218 
L 481.894157 3996.487218 
L 480.791715 3996.487218 
L 479.689274 3996.487218 
L 478.586832 3996.487218 
L 477.484391 3996.487218 
L 476.381949 3996.487218 
L 475.279508 3996.487218 
L 474.177066 3996.487218 
L 473.074625 3996.487218 
L 471.972183 3996.487218 
L 470.869741 3996.487218 
L 469.7673 3996.487218 
L 468.664858 3996.487218 
L 467.562417 3996.487218 
L 466.459975 3996.487218 
L 465.357534 3996.487218 
L 464.255092 3996.487218 
L 463.152651 3996.487218 
L 462.050209 3996.487218 
L 460.947767 3996.487218 
L 459.845326 3996.487218 
L 458.742884 3996.487218 
L 457.640443 3996.487218 
L 456.538001 3996.487218 
L 455.43556 3996.487218 
L 454.333118 3996.487218 
L 453.230676 3996.487218 
L 452.128235 3996.487218 
L 451.025793 3996.487218 
L 449.923352 3996.487218 
L 448.82091 3996.487218 
L 447.718469 3996.487218 
L 446.616027 3996.487218 
L 445.513586 3996.487218 
L 444.411144 3996.487218 
L 443.308702 3996.487218 
L 442.206261 3996.487218 
L 441.103819 3996.487218 
L 440.001378 3996.487218 
L 438.898936 3996.487218 
L 437.796495 3996.487218 
L 436.694053 3996.487218 
L 435.591612 3996.487218 
L 434.48917 3996.487218 
L 433.386728 3996.487218 
L 432.284287 3996.487218 
L 431.181845 3996.487218 
L 430.079404 3996.487218 
L 428.976962 3996.487218 
L 427.874521 3996.487218 
L 426.772079 3996.487218 
L 425.669637 3996.487218 
L 424.567196 3996.487218 
L 423.464754 3996.487218 
L 422.362313 3996.487218 
L 421.259871 3996.487218 
L 420.15743 3996.487218 
L 419.054988 3996.487218 
L 417.952547 3996.487218 
L 416.850105 3996.487218 
L 415.747663 3996.487218 
L 414.645222 3996.487218 
L 413.54278 3996.487218 
L 412.440339 3996.487218 
L 411.337897 3996.487218 
L 410.235456 3996.487218 
L 409.133014 3996.487218 
L 408.030573 3996.487218 
L 406.928131 3996.487218 
L 405.825689 3996.487218 
L 404.723248 3996.487218 
L 403.620806 3996.487218 
L 402.518365 3996.487218 
L 401.415923 3996.487218 
L 400.313482 3996.487218 
L 399.21104 3996.487218 
L 398.108599 3996.487218 
L 397.006157 3996.487218 
L 395.903715 3996.487218 
L 394.801274 3996.487218 
L 393.698832 3996.487218 
L 392.596391 3996.487218 
L 391.493949 3996.487218 
L 390.391508 3996.487218 
L 389.289066 3996.487218 
L 388.186624 3996.487218 
L 387.084183 3996.487218 
L 385.981741 3996.487218 
L 384.8793 3996.487218 
L 383.776858 3996.487218 
L 382.674417 3996.487218 
L 381.571975 3996.487218 
L 380.469534 3996.487218 
L 379.367092 3996.487218 
L 378.26465 3996.487218 
L 377.162209 3996.487218 
L 376.059767 3996.487218 
L 374.957326 3996.487218 
L 373.854884 3996.487218 
L 372.752443 3996.487218 
L 371.650001 3996.487218 
L 370.54756 3996.487218 
L 369.445118 3996.487218 
L 368.342676 3996.487218 
L 367.240235 3996.487218 
L 366.137793 3996.487218 
L 365.035352 3996.487218 
L 363.93291 3996.487218 
L 362.830469 3996.487218 
L 361.728027 3996.487218 
L 360.625585 3996.487218 
L 359.523144 3996.487218 
L 358.420702 3996.487218 
L 357.318261 3996.487218 
L 356.215819 3996.487218 
L 355.113378 3996.487218 
L 354.010936 3996.487218 
L 352.908495 3996.487218 
L 351.806053 3996.487218 
L 350.703611 3996.487218 
L 349.60117 3996.487218 
L 348.498728 3996.487218 
L 347.396287 3996.487218 
L 346.293845 3996.487218 
L 345.191404 3996.487218 
L 344.088962 3996.487218 
L 342.986521 3996.487218 
L 341.884079 3996.487218 
L 340.781637 3996.487218 
L 339.679196 3996.487218 
L 338.576754 3996.487218 
L 337.474313 3996.487218 
L 336.371871 3996.487218 
L 335.26943 3996.487218 
L 334.166988 3996.487218 
L 333.064546 3996.487218 
L 331.962105 3996.487218 
L 330.859663 3996.487218 
L 329.757222 3996.487218 
L 328.65478 3996.487218 
L 327.552339 3996.487218 
L 326.449897 3996.487218 
L 325.347456 3996.487218 
L 324.245014 3996.487218 
L 323.142572 3996.487218 
L 322.040131 3996.487218 
L 320.937689 3996.487218 
L 319.835248 3996.487218 
L 318.732806 3996.487218 
L 317.630365 3996.487218 
L 316.527923 3996.487218 
L 315.425482 3996.487218 
L 314.32304 3996.487218 
L 313.220598 3996.487218 
L 312.118157 3996.487218 
L 311.015715 3996.487218 
L 309.913274 3996.487218 
L 308.810832 3996.487218 
L 307.708391 3996.487218 
L 306.605949 3996.487218 
L 305.503508 3996.487218 
L 304.401066 3996.487218 
L 303.298624 3996.487218 
L 302.196183 3996.487218 
L 301.093741 3996.487218 
L 299.9913 3996.487218 
L 298.888858 3996.487218 
L 297.786417 3996.487218 
L 296.683975 3996.487218 
L 295.581533 3996.487218 
L 294.479092 3996.487218 
L 293.37665 3996.487218 
L 292.274209 3996.487218 
L 291.171767 3996.487218 
L 290.069326 3996.487218 
L 288.966884 3996.487218 
L 287.864443 3996.487218 
L 286.762001 3996.487218 
L 285.659559 3996.487218 
L 284.557118 3996.487218 
L 283.454676 3996.487218 
L 282.352235 3996.487218 
L 281.249793 3996.487218 
L 280.147352 3996.487218 
L 279.04491 3996.487218 
L 277.942469 3996.487218 
L 276.840027 3996.487218 
L 275.737585 3996.487218 
L 274.635144 3996.487218 
L 273.532702 3996.487218 
L 272.430261 3996.487218 
L 271.327819 3996.487218 
L 270.225378 3996.487218 
L 269.122936 3996.487218 
L 268.020494 3996.487218 
L 266.918053 3996.487218 
L 265.815611 3996.487218 
L 264.71317 3996.487218 
L 263.610728 3996.487218 
L 262.508287 3996.487218 
L 261.405845 3996.487218 
L 260.303404 3996.487218 
L 259.200962 3996.487218 
L 258.09852 3996.487218 
L 256.996079 3996.487218 
L 255.893637 3996.487218 
L 254.791196 3996.487218 
L 253.688754 3996.487218 
L 252.586313 3996.487218 
L 251.483871 3996.487218 
L 250.38143 3996.487218 
L 249.278988 3996.487218 
L 248.176546 3996.487218 
L 247.074105 3996.487218 
L 245.971663 3996.487218 
L 244.869222 3996.487218 
L 243.76678 3996.487218 
L 242.664339 3996.487218 
L 241.561897 3996.487218 
L 240.459456 3996.487218 
L 239.357014 3996.487218 
L 238.254572 3996.487218 
L 237.152131 3996.487218 
L 236.049689 3996.487218 
L 234.947248 3996.487218 
L 233.844806 3996.487218 
L 232.742365 3996.487218 
L 231.639923 3996.487218 
L 230.537481 3996.487218 
L 229.43504 3996.487218 
L 228.332598 3996.487218 
L 227.230157 3996.487218 
L 226.127715 3996.487218 
L 225.025274 3996.487218 
L 223.922832 3996.487218 
L 222.820391 3996.487218 
L 221.717949 3996.487218 
L 220.615507 3996.487218 
L 219.513066 3996.487218 
L 218.410624 3996.487218 
L 217.308183 3996.487218 
L 216.205741 3996.487218 
L 215.1033 3996.487218 
L 214.000858 3996.487218 
L 212.898417 3996.487218 
L 211.795975 3996.487218 
L 210.693533 3996.487218 
L 209.591092 3996.487218 
L 208.48865 3996.487218 
L 207.386209 3996.487218 
L 206.283767 3996.487218 
L 205.181326 3996.487218 
L 204.078884 3996.487218 
L 202.976442 3996.487218 
L 201.874001 3996.487218 
L 200.771559 3996.487218 
L 199.669118 3996.487218 
L 198.566676 3996.487218 
L 197.464235 3996.487218 
L 196.361793 3996.487218 
L 195.259352 3996.487218 
L 194.15691 3996.487218 
L 193.054468 3996.487218 
L 191.952027 3996.487218 
L 190.849585 3996.487218 
L 189.747144 3996.487218 
L 188.644702 3996.487218 
L 187.542261 3996.487218 
L 186.439819 3996.487218 
L 185.337378 3996.487218 
L 184.234936 3996.487218 
L 183.132494 3996.487218 
L 182.030053 3996.487218 
L 180.927611 3996.487218 
L 179.82517 3996.487218 
L 178.722728 3996.487218 
L 177.620287 3996.487218 
L 176.517845 3996.487218 
L 175.415403 3996.487218 
L 174.312962 3996.487218 
L 173.21052 3996.487218 
L 172.108079 3996.487218 
L 171.005637 3996.487218 
L 169.903196 3996.487218 
L 168.800754 3996.487218 
L 167.698313 3996.487218 
L 166.595871 3996.487218 
L 165.493429 3996.487218 
L 164.390988 3996.487218 
L 163.288546 3996.487218 
L 162.186105 3996.487218 
L 161.083663 3996.487218 
L 159.981222 3996.487218 
L 158.87878 3996.487218 
L 157.776339 3996.487218 
L 156.673897 3996.487218 
L 155.571455 3996.487218 
L 154.469014 3996.487218 
L 153.366572 3996.487218 
L 152.264131 3996.487218 
L 151.161689 3996.487218 
L 150.059248 3996.487218 
L 148.956806 3996.487218 
L 147.854365 3996.487218 
L 146.751923 3996.487218 
L 145.649481 3996.487218 
L 144.54704 3996.487218 
L 143.444598 3996.487218 
L 142.342157 3996.487218 
L 141.239715 3996.487218 
L 140.137274 3996.487218 
L 139.034832 3996.487218 
L 137.93239 3996.487218 
L 136.829949 3996.487218 
L 135.727507 3996.487218 
L 134.625066 3996.487218 
L 133.522624 3996.487218 
L 132.420183 3996.487218 
L 131.317741 3996.487218 
L 130.2153 3996.487218 
L 129.112858 3996.487218 
L 128.010416 3996.487218 
L 126.907975 3996.487218 
L 125.805533 3996.487218 
L 124.703092 3996.487218 
L 123.60065 3996.487218 
L 122.498209 3996.487218 
L 121.395767 3996.487218 
L 120.293326 3996.487218 
L 119.190884 3996.487218 
L 118.088442 3996.487218 
L 116.986001 3996.487218 
L 115.883559 3996.487218 
L 114.781118 3996.487218 
L 113.678676 3996.487218 
L 112.576235 3996.487218 
L 111.473793 3996.487218 
L 110.371351 3996.487218 
L 109.26891 3996.487218 
L 108.166468 3996.487218 
L 107.064027 3996.487218 
L 105.961585 3996.487218 
L 104.859144 3996.487218 
L 103.756702 3996.487218 
L 102.654261 3996.487218 
L 101.551819 3996.487218 
L 100.449377 3996.487218 
L 99.346936 3996.487218 
L 98.244494 3996.487218 
L 97.142053 3996.487218 
L 96.039611 3996.487218 
L 94.93717 3996.487218 
L 93.834728 3996.487218 
L 92.732287 3996.487218 
L 91.629845 3996.487218 
L 90.527403 3996.487218 
L 89.424962 3996.487218 
L 88.32252 3996.487218 
L 87.220079 3996.487218 
L 86.117637 3996.487218 
L 85.015196 3996.487218 
L 83.912754 3996.487218 
L 82.810313 3996.487218 
z
" clip-path="url(#pebf0f5acac)" style="fill: #eceff1; fill-opacity: 0.45; stroke: #eceff1; stroke-opacity: 0.45"/>
   </g>
   <g id="matplotlib.axis_1">
    <g id="xtick_1">
     <g id="line2d_1">
      <path d="M 513.500849 371.540982 
L 513.500849 22.318125 
" clip-path="url(#pebf0f5acac)" style="fill: none; stroke: #f4f4f4; stroke-width: 0.8; stroke-linecap: square"/>
     </g>
     <g id="line2d_2">
      <defs>
       <path id="mf6bf5775d1" d="M 0 0 
L 0 3.5 
" style="stroke: #000000; stroke-width: 0.8"/>
      </defs>
      <g>
       <use xlink:href="#mf6bf5775d1" x="513.500849" y="371.540982" style="stroke: #000000; stroke-width: 0.8"/>
      </g>
     </g>
     <g id="text_1">
      <!-- $\mathdefault{10^{0}}$ -->
      <g transform="translate(504.700849 386.13942) scale(0.1 -0.1)">
       <defs>
        <path id="DejaVuSans-31" d="M 794 531 
L 1825 531 
L 1825 4091 
L 703 3866 
L 703 4441 
L 1819 4666 
L 2450 4666 
L 2450 531 
L 3481 531 
L 3481 0 
L 794 0 
L 794 531 
z
" transform="scale(0.015625)"/>
        <path id="DejaVuSans-30" d="M 2034 4250 
Q 1547 4250 1301 3770 
Q 1056 3291 1056 2328 
Q 1056 1369 1301 889 
Q 1547 409 2034 409 
Q 2525 409 2770 889 
Q 3016 1369 3016 2328 
Q 3016 3291 2770 3770 
Q 2525 4250 2034 4250 
z
M 2034 4750 
Q 2819 4750 3233 4129 
Q 3647 3509 3647 2328 
Q 3647 1150 3233 529 
Q 2819 -91 2034 -91 
Q 1250 -91 836 529 
Q 422 1150 422 2328 
Q 422 3509 836 4129 
Q 1250 4750 2034 4750 
z
" transform="scale(0.015625)"/>
       </defs>
       <use xlink:href="#DejaVuSans-31" transform="translate(0 0.765625)"/>
       <use xlink:href="#DejaVuSans-30" transform="translate(63.623047 0.765625)"/>
       <use xlink:href="#DejaVuSans-30" transform="translate(128.203125 39.046875) scale(0.7)"/>
      </g>
     </g>
    </g>
    <g id="xtick_2">
     <g id="line2d_3">
      <path d="M 82.810313 371.540982 
L 82.810313 22.318125 
" clip-path="url(#pebf0f5acac)" style="fill: none; stroke: #f4f4f4; stroke-width: 0.8; stroke-linecap: square"/>
     </g>
     <g id="line2d_4">
      <defs>
       <path id="m274bfa9a3b" d="M 0 0 
L 0 2 
" style="stroke: #000000; stroke-width: 0.6"/>
      </defs>
      <g>
       <use xlink:href="#m274bfa9a3b" x="82.810313" y="371.540982" style="stroke: #000000; stroke-width: 0.6"/>
      </g>
     </g>
     <g id="text_2">
      <!-- $\mathdefault{2\times10^{-1}}$ -->
      <g transform="translate(61.760313 384.53942) scale(0.1 -0.1)">
       <defs>
        <path id="DejaVuSans-32" d="M 1228 531 
L 3431 531 
L 3431 0 
L 469 0 
L 469 531 
Q 828 903 1448 1529 
Q 2069 2156 2228 2338 
Q 2531 2678 2651 2914 
Q 2772 3150 2772 3378 
Q 2772 3750 2511 3984 
Q 2250 4219 1831 4219 
Q 1534 4219 1204 4116 
Q 875 4013 500 3803 
L 500 4441 
Q 881 4594 1212 4672 
Q 1544 4750 1819 4750 
Q 2544 4750 2975 4387 
Q 3406 4025 3406 3419 
Q 3406 3131 3298 2873 
Q 3191 2616 2906 2266 
Q 2828 2175 2409 1742 
Q 1991 1309 1228 531 
z
" transform="scale(0.015625)"/>
        <path id="DejaVuSans-d7" d="M 4488 3438 
L 3059 2003 
L 4488 575 
L 4116 197 
L 2681 1631 
L 1247 197 
L 878 575 
L 2303 2003 
L 878 3438 
L 1247 3816 
L 2681 2381 
L 4116 3816 
L 4488 3438 
z
" transform="scale(0.015625)"/>
        <path id="DejaVuSans-2212" d="M 678 2272 
L 4684 2272 
L 4684 1741 
L 678 1741 
L 678 2272 
z
" transform="scale(0.015625)"/>
       </defs>
       <use xlink:href="#DejaVuSans-32" transform="translate(0 0.684375)"/>
       <use xlink:href="#DejaVuSans-d7" transform="translate(83.105469 0.684375)"/>
       <use xlink:href="#DejaVuSans-31" transform="translate(186.376953 0.684375)"/>
       <use xlink:href="#DejaVuSans-30" transform="translate(250 0.684375)"/>
       <use xlink:href="#DejaVuSans-2212" transform="translate(314.580078 38.965625) scale(0.7)"/>
       <use xlink:href="#DejaVuSans-31" transform="translate(373.232422 38.965625) scale(0.7)"/>
      </g>
     </g>
    </g>
    <g id="xtick_3">
     <g id="line2d_5">
      <path d="M 191.314023 371.540982 
L 191.314023 22.318125 
" clip-path="url(#pebf0f5acac)" style="fill: none; stroke: #f4f4f4; stroke-width: 0.8; stroke-linecap: square"/>
     </g>
     <g id="line2d_6">
      <g>
       <use xlink:href="#m274bfa9a3b" x="191.314023" y="371.540982" style="stroke: #000000; stroke-width: 0.6"/>
      </g>
     </g>
     <g id="text_3">
      <!-- $\mathdefault{3\times10^{-1}}$ -->
      <g transform="translate(170.264023 384.53942) scale(0.1 -0.1)">
       <defs>
        <path id="DejaVuSans-33" d="M 2597 2516 
Q 3050 2419 3304 2112 
Q 3559 1806 3559 1356 
Q 3559 666 3084 287 
Q 2609 -91 1734 -91 
Q 1441 -91 1130 -33 
Q 819 25 488 141 
L 488 750 
Q 750 597 1062 519 
Q 1375 441 1716 441 
Q 2309 441 2620 675 
Q 2931 909 2931 1356 
Q 2931 1769 2642 2001 
Q 2353 2234 1838 2234 
L 1294 2234 
L 1294 2753 
L 1863 2753 
Q 2328 2753 2575 2939 
Q 2822 3125 2822 3475 
Q 2822 3834 2567 4026 
Q 2313 4219 1838 4219 
Q 1578 4219 1281 4162 
Q 984 4106 628 3988 
L 628 4550 
Q 988 4650 1302 4700 
Q 1616 4750 1894 4750 
Q 2613 4750 3031 4423 
Q 3450 4097 3450 3541 
Q 3450 3153 3228 2886 
Q 3006 2619 2597 2516 
z
" transform="scale(0.015625)"/>
       </defs>
       <use xlink:href="#DejaVuSans-33" transform="translate(0 0.684375)"/>
       <use xlink:href="#DejaVuSans-d7" transform="translate(83.105469 0.684375)"/>
       <use xlink:href="#DejaVuSans-31" transform="translate(186.376953 0.684375)"/>
       <use xlink:href="#DejaVuSans-30" transform="translate(250 0.684375)"/>
       <use xlink:href="#DejaVuSans-2212" transform="translate(314.580078 38.965625) scale(0.7)"/>
       <use xlink:href="#DejaVuSans-31" transform="translate(373.232422 38.965625) scale(0.7)"/>
      </g>
     </g>
    </g>
    <g id="xtick_4">
     <g id="line2d_7">
      <path d="M 268.29863 371.540982 
L 268.29863 22.318125 
" clip-path="url(#pebf0f5acac)" style="fill: none; stroke: #f4f4f4; stroke-width: 0.8; stroke-linecap: square"/>
     </g>
     <g id="line2d_8">
      <g>
       <use xlink:href="#m274bfa9a3b" x="268.29863" y="371.540982" style="stroke: #000000; stroke-width: 0.6"/>
      </g>
     </g>
     <g id="text_4">
      <!-- $\mathdefault{4\times10^{-1}}$ -->
      <g transform="translate(247.24863 384.53942) scale(0.1 -0.1)">
       <defs>
        <path id="DejaVuSans-34" d="M 2419 4116 
L 825 1625 
L 2419 1625 
L 2419 4116 
z
M 2253 4666 
L 3047 4666 
L 3047 1625 
L 3713 1625 
L 3713 1100 
L 3047 1100 
L 3047 0 
L 2419 0 
L 2419 1100 
L 313 1100 
L 313 1709 
L 2253 4666 
z
" transform="scale(0.015625)"/>
       </defs>
       <use xlink:href="#DejaVuSans-34" transform="translate(0 0.684375)"/>
       <use xlink:href="#DejaVuSans-d7" transform="translate(83.105469 0.684375)"/>
       <use xlink:href="#DejaVuSans-31" transform="translate(186.376953 0.684375)"/>
       <use xlink:href="#DejaVuSans-30" transform="translate(250 0.684375)"/>
       <use xlink:href="#DejaVuSans-2212" transform="translate(314.580078 38.965625) scale(0.7)"/>
       <use xlink:href="#DejaVuSans-31" transform="translate(373.232422 38.965625) scale(0.7)"/>
      </g>
     </g>
    </g>
    <g id="xtick_5">
     <g id="line2d_9">
      <path d="M 328.012531 371.540982 
L 328.012531 22.318125 
" clip-path="url(#pebf0f5acac)" style="fill: none; stroke: #f4f4f4; stroke-width: 0.8; stroke-linecap: square"/>
     </g>
     <g id="line2d_10">
      <g>
       <use xlink:href="#m274bfa9a3b" x="328.012531" y="371.540982" style="stroke: #000000; stroke-width: 0.6"/>
      </g>
     </g>
    </g>
    <g id="xtick_6">
     <g id="line2d_11">
      <path d="M 376.802341 371.540982 
L 376.802341 22.318125 
" clip-path="url(#pebf0f5acac)" style="fill: none; stroke: #f4f4f4; stroke-width: 0.8; stroke-linecap: square"/>
     </g>
     <g id="line2d_12">
      <g>
       <use xlink:href="#m274bfa9a3b" x="376.802341" y="371.540982" style="stroke: #000000; stroke-width: 0.6"/>
      </g>
     </g>
     <g id="text_5">
      <!-- $\mathdefault{6\times10^{-1}}$ -->
      <g transform="translate(355.752341 384.53942) scale(0.1 -0.1)">
       <defs>
        <path id="DejaVuSans-36" d="M 2113 2584 
Q 1688 2584 1439 2293 
Q 1191 2003 1191 1497 
Q 1191 994 1439 701 
Q 1688 409 2113 409 
Q 2538 409 2786 701 
Q 3034 994 3034 1497 
Q 3034 2003 2786 2293 
Q 2538 2584 2113 2584 
z
M 3366 4563 
L 3366 3988 
Q 3128 4100 2886 4159 
Q 2644 4219 2406 4219 
Q 1781 4219 1451 3797 
Q 1122 3375 1075 2522 
Q 1259 2794 1537 2939 
Q 1816 3084 2150 3084 
Q 2853 3084 3261 2657 
Q 3669 2231 3669 1497 
Q 3669 778 3244 343 
Q 2819 -91 2113 -91 
Q 1303 -91 875 529 
Q 447 1150 447 2328 
Q 447 3434 972 4092 
Q 1497 4750 2381 4750 
Q 2619 4750 2861 4703 
Q 3103 4656 3366 4563 
z
" transform="scale(0.015625)"/>
       </defs>
       <use xlink:href="#DejaVuSans-36" transform="translate(0 0.684375)"/>
       <use xlink:href="#DejaVuSans-d7" transform="translate(83.105469 0.684375)"/>
       <use xlink:href="#DejaVuSans-31" transform="translate(186.376953 0.684375)"/>
       <use xlink:href="#DejaVuSans-30" transform="translate(250 0.684375)"/>
       <use xlink:href="#DejaVuSans-2212" transform="translate(314.580078 38.965625) scale(0.7)"/>
       <use xlink:href="#DejaVuSans-31" transform="translate(373.232422 38.965625) scale(0.7)"/>
      </g>
     </g>
    </g>
    <g id="xtick_7">
     <g id="line2d_13">
      <path d="M 418.053537 371.540982 
L 418.053537 22.318125 
" clip-path="url(#pebf0f5acac)" style="fill: none; stroke: #f4f4f4; stroke-width: 0.8; stroke-linecap: square"/>
     </g>
     <g id="line2d_14">
      <g>
       <use xlink:href="#m274bfa9a3b" x="418.053537" y="371.540982" style="stroke: #000000; stroke-width: 0.6"/>
      </g>
     </g>
    </g>
    <g id="xtick_8">
     <g id="line2d_15">
      <path d="M 453.786948 371.540982 
L 453.786948 22.318125 
" clip-path="url(#pebf0f5acac)" style="fill: none; stroke: #f4f4f4; stroke-width: 0.8; stroke-linecap: square"/>
     </g>
     <g id="line2d_16">
      <g>
       <use xlink:href="#m274bfa9a3b" x="453.786948" y="371.540982" style="stroke: #000000; stroke-width: 0.6"/>
      </g>
     </g>
    </g>
    <g id="xtick_9">
     <g id="line2d_17">
      <path d="M 485.306051 371.540982 
L 485.306051 22.318125 
" clip-path="url(#pebf0f5acac)" style="fill: none; stroke: #f4f4f4; stroke-width: 0.8; stroke-linecap: square"/>
     </g>
     <g id="line2d_18">
      <g>
       <use xlink:href="#m274bfa9a3b" x="485.306051" y="371.540982" style="stroke: #000000; stroke-width: 0.6"/>
      </g>
     </g>
    </g>
    <g id="text_6">
     <!-- Arithmetic intensity  (FLOP / byte) -->
     <g transform="translate(281.505888 399.057701) scale(0.09 -0.09)">
      <defs>
       <path id="DejaVuSans-41" d="M 2188 4044 
L 1331 1722 
L 3047 1722 
L 2188 4044 
z
M 1831 4666 
L 2547 4666 
L 4325 0 
L 3669 0 
L 3244 1197 
L 1141 1197 
L 716 0 
L 50 0 
L 1831 4666 
z
" transform="scale(0.015625)"/>
       <path id="DejaVuSans-72" d="M 2631 2963 
Q 2534 3019 2420 3045 
Q 2306 3072 2169 3072 
Q 1681 3072 1420 2755 
Q 1159 2438 1159 1844 
L 1159 0 
L 581 0 
L 581 3500 
L 1159 3500 
L 1159 2956 
Q 1341 3275 1631 3429 
Q 1922 3584 2338 3584 
Q 2397 3584 2469 3576 
Q 2541 3569 2628 3553 
L 2631 2963 
z
" transform="scale(0.015625)"/>
       <path id="DejaVuSans-69" d="M 603 3500 
L 1178 3500 
L 1178 0 
L 603 0 
L 603 3500 
z
M 603 4863 
L 1178 4863 
L 1178 4134 
L 603 4134 
L 603 4863 
z
" transform="scale(0.015625)"/>
       <path id="DejaVuSans-74" d="M 1172 4494 
L 1172 3500 
L 2356 3500 
L 2356 3053 
L 1172 3053 
L 1172 1153 
Q 1172 725 1289 603 
Q 1406 481 1766 481 
L 2356 481 
L 2356 0 
L 1766 0 
Q 1100 0 847 248 
Q 594 497 594 1153 
L 594 3053 
L 172 3053 
L 172 3500 
L 594 3500 
L 594 4494 
L 1172 4494 
z
" transform="scale(0.015625)"/>
       <path id="DejaVuSans-68" d="M 3513 2113 
L 3513 0 
L 2938 0 
L 2938 2094 
Q 2938 2591 2744 2837 
Q 2550 3084 2163 3084 
Q 1697 3084 1428 2787 
Q 1159 2491 1159 1978 
L 1159 0 
L 581 0 
L 581 4863 
L 1159 4863 
L 1159 2956 
Q 1366 3272 1645 3428 
Q 1925 3584 2291 3584 
Q 2894 3584 3203 3211 
Q 3513 2838 3513 2113 
z
" transform="scale(0.015625)"/>
       <path id="DejaVuSans-6d" d="M 3328 2828 
Q 3544 3216 3844 3400 
Q 4144 3584 4550 3584 
Q 5097 3584 5394 3201 
Q 5691 2819 5691 2113 
L 5691 0 
L 5113 0 
L 5113 2094 
Q 5113 2597 4934 2840 
Q 4756 3084 4391 3084 
Q 3944 3084 3684 2787 
Q 3425 2491 3425 1978 
L 3425 0 
L 2847 0 
L 2847 2094 
Q 2847 2600 2669 2842 
Q 2491 3084 2119 3084 
Q 1678 3084 1418 2786 
Q 1159 2488 1159 1978 
L 1159 0 
L 581 0 
L 581 3500 
L 1159 3500 
L 1159 2956 
Q 1356 3278 1631 3431 
Q 1906 3584 2284 3584 
Q 2666 3584 2933 3390 
Q 3200 3197 3328 2828 
z
" transform="scale(0.015625)"/>
       <path id="DejaVuSans-65" d="M 3597 1894 
L 3597 1613 
L 953 1613 
Q 991 1019 1311 708 
Q 1631 397 2203 397 
Q 2534 397 2845 478 
Q 3156 559 3463 722 
L 3463 178 
Q 3153 47 2828 -22 
Q 2503 -91 2169 -91 
Q 1331 -91 842 396 
Q 353 884 353 1716 
Q 353 2575 817 3079 
Q 1281 3584 2069 3584 
Q 2775 3584 3186 3129 
Q 3597 2675 3597 1894 
z
M 3022 2063 
Q 3016 2534 2758 2815 
Q 2500 3097 2075 3097 
Q 1594 3097 1305 2825 
Q 1016 2553 972 2059 
L 3022 2063 
z
" transform="scale(0.015625)"/>
       <path id="DejaVuSans-63" d="M 3122 3366 
L 3122 2828 
Q 2878 2963 2633 3030 
Q 2388 3097 2138 3097 
Q 1578 3097 1268 2742 
Q 959 2388 959 1747 
Q 959 1106 1268 751 
Q 1578 397 2138 397 
Q 2388 397 2633 464 
Q 2878 531 3122 666 
L 3122 134 
Q 2881 22 2623 -34 
Q 2366 -91 2075 -91 
Q 1284 -91 818 406 
Q 353 903 353 1747 
Q 353 2603 823 3093 
Q 1294 3584 2113 3584 
Q 2378 3584 2631 3529 
Q 2884 3475 3122 3366 
z
" transform="scale(0.015625)"/>
       <path id="DejaVuSans-20" transform="scale(0.015625)"/>
       <path id="DejaVuSans-6e" d="M 3513 2113 
L 3513 0 
L 2938 0 
L 2938 2094 
Q 2938 2591 2744 2837 
Q 2550 3084 2163 3084 
Q 1697 3084 1428 2787 
Q 1159 2491 1159 1978 
L 1159 0 
L 581 0 
L 581 3500 
L 1159 3500 
L 1159 2956 
Q 1366 3272 1645 3428 
Q 1925 3584 2291 3584 
Q 2894 3584 3203 3211 
Q 3513 2838 3513 2113 
z
" transform="scale(0.015625)"/>
       <path id="DejaVuSans-73" d="M 2834 3397 
L 2834 2853 
Q 2591 2978 2328 3040 
Q 2066 3103 1784 3103 
Q 1356 3103 1142 2972 
Q 928 2841 928 2578 
Q 928 2378 1081 2264 
Q 1234 2150 1697 2047 
L 1894 2003 
Q 2506 1872 2764 1633 
Q 3022 1394 3022 966 
Q 3022 478 2636 193 
Q 2250 -91 1575 -91 
Q 1294 -91 989 -36 
Q 684 19 347 128 
L 347 722 
Q 666 556 975 473 
Q 1284 391 1588 391 
Q 1994 391 2212 530 
Q 2431 669 2431 922 
Q 2431 1156 2273 1281 
Q 2116 1406 1581 1522 
L 1381 1569 
Q 847 1681 609 1914 
Q 372 2147 372 2553 
Q 372 3047 722 3315 
Q 1072 3584 1716 3584 
Q 2034 3584 2315 3537 
Q 2597 3491 2834 3397 
z
" transform="scale(0.015625)"/>
       <path id="DejaVuSans-79" d="M 2059 -325 
Q 1816 -950 1584 -1140 
Q 1353 -1331 966 -1331 
L 506 -1331 
L 506 -850 
L 844 -850 
Q 1081 -850 1212 -737 
Q 1344 -625 1503 -206 
L 1606 56 
L 191 3500 
L 800 3500 
L 1894 763 
L 2988 3500 
L 3597 3500 
L 2059 -325 
z
" transform="scale(0.015625)"/>
       <path id="DejaVuSans-28" d="M 1984 4856 
Q 1566 4138 1362 3434 
Q 1159 2731 1159 2009 
Q 1159 1288 1364 580 
Q 1569 -128 1984 -844 
L 1484 -844 
Q 1016 -109 783 600 
Q 550 1309 550 2009 
Q 550 2706 781 3412 
Q 1013 4119 1484 4856 
L 1984 4856 
z
" transform="scale(0.015625)"/>
       <path id="DejaVuSans-46" d="M 628 4666 
L 3309 4666 
L 3309 4134 
L 1259 4134 
L 1259 2759 
L 3109 2759 
L 3109 2228 
L 1259 2228 
L 1259 0 
L 628 0 
L 628 4666 
z
" transform="scale(0.015625)"/>
       <path id="DejaVuSans-4c" d="M 628 4666 
L 1259 4666 
L 1259 531 
L 3531 531 
L 3531 0 
L 628 0 
L 628 4666 
z
" transform="scale(0.015625)"/>
       <path id="DejaVuSans-4f" d="M 2522 4238 
Q 1834 4238 1429 3725 
Q 1025 3213 1025 2328 
Q 1025 1447 1429 934 
Q 1834 422 2522 422 
Q 3209 422 3611 934 
Q 4013 1447 4013 2328 
Q 4013 3213 3611 3725 
Q 3209 4238 2522 4238 
z
M 2522 4750 
Q 3503 4750 4090 4092 
Q 4678 3434 4678 2328 
Q 4678 1225 4090 567 
Q 3503 -91 2522 -91 
Q 1538 -91 948 565 
Q 359 1222 359 2328 
Q 359 3434 948 4092 
Q 1538 4750 2522 4750 
z
" transform="scale(0.015625)"/>
       <path id="DejaVuSans-50" d="M 1259 4147 
L 1259 2394 
L 2053 2394 
Q 2494 2394 2734 2622 
Q 2975 2850 2975 3272 
Q 2975 3691 2734 3919 
Q 2494 4147 2053 4147 
L 1259 4147 
z
M 628 4666 
L 2053 4666 
Q 2838 4666 3239 4311 
Q 3641 3956 3641 3272 
Q 3641 2581 3239 2228 
Q 2838 1875 2053 1875 
L 1259 1875 
L 1259 0 
L 628 0 
L 628 4666 
z
" transform="scale(0.015625)"/>
       <path id="DejaVuSans-2f" d="M 1625 4666 
L 2156 4666 
L 531 -594 
L 0 -594 
L 1625 4666 
z
" transform="scale(0.015625)"/>
       <path id="DejaVuSans-62" d="M 3116 1747 
Q 3116 2381 2855 2742 
Q 2594 3103 2138 3103 
Q 1681 3103 1420 2742 
Q 1159 2381 1159 1747 
Q 1159 1113 1420 752 
Q 1681 391 2138 391 
Q 2594 391 2855 752 
Q 3116 1113 3116 1747 
z
M 1159 2969 
Q 1341 3281 1617 3432 
Q 1894 3584 2278 3584 
Q 2916 3584 3314 3078 
Q 3713 2572 3713 1747 
Q 3713 922 3314 415 
Q 2916 -91 2278 -91 
Q 1894 -91 1617 61 
Q 1341 213 1159 525 
L 1159 0 
L 581 0 
L 581 4863 
L 1159 4863 
L 1159 2969 
z
" transform="scale(0.015625)"/>
       <path id="DejaVuSans-29" d="M 513 4856 
L 1013 4856 
Q 1481 4119 1714 3412 
Q 1947 2706 1947 2009 
Q 1947 1309 1714 600 
Q 1481 -109 1013 -844 
L 513 -844 
Q 928 -128 1133 580 
Q 1338 1288 1338 2009 
Q 1338 2731 1133 3434 
Q 928 4138 513 4856 
z
" transform="scale(0.015625)"/>
      </defs>
      <use xlink:href="#DejaVuSans-41"/>
      <use xlink:href="#DejaVuSans-72" transform="translate(68.408203 0)"/>
      <use xlink:href="#DejaVuSans-69" transform="translate(109.521484 0)"/>
      <use xlink:href="#DejaVuSans-74" transform="translate(137.304688 0)"/>
      <use xlink:href="#DejaVuSans-68" transform="translate(176.513672 0)"/>
      <use xlink:href="#DejaVuSans-6d" transform="translate(239.892578 0)"/>
      <use xlink:href="#DejaVuSans-65" transform="translate(337.304688 0)"/>
      <use xlink:href="#DejaVuSans-74" transform="translate(398.828125 0)"/>
      <use xlink:href="#DejaVuSans-69" transform="translate(438.037109 0)"/>
      <use xlink:href="#DejaVuSans-63" transform="translate(465.820312 0)"/>
      <use xlink:href="#DejaVuSans-20" transform="translate(520.800781 0)"/>
      <use xlink:href="#DejaVuSans-69" transform="translate(552.587891 0)"/>
      <use xlink:href="#DejaVuSans-6e" transform="translate(580.371094 0)"/>
      <use xlink:href="#DejaVuSans-74" transform="translate(643.75 0)"/>
      <use xlink:href="#DejaVuSans-65" transform="translate(682.958984 0)"/>
      <use xlink:href="#DejaVuSans-6e" transform="translate(744.482422 0)"/>
      <use xlink:href="#DejaVuSans-73" transform="translate(807.861328 0)"/>
      <use xlink:href="#DejaVuSans-69" transform="translate(859.960938 0)"/>
      <use xlink:href="#DejaVuSans-74" transform="translate(887.744141 0)"/>
      <use xlink:href="#DejaVuSans-79" transform="translate(926.953125 0)"/>
      <use xlink:href="#DejaVuSans-20" transform="translate(986.132812 0)"/>
      <use xlink:href="#DejaVuSans-20" transform="translate(1017.919922 0)"/>
      <use xlink:href="#DejaVuSans-28" transform="translate(1049.707031 0)"/>
      <use xlink:href="#DejaVuSans-46" transform="translate(1088.720703 0)"/>
      <use xlink:href="#DejaVuSans-4c" transform="translate(1146.240234 0)"/>
      <use xlink:href="#DejaVuSans-4f" transform="translate(1198.328125 0)"/>
      <use xlink:href="#DejaVuSans-50" transform="translate(1277.039062 0)"/>
      <use xlink:href="#DejaVuSans-20" transform="translate(1337.341797 0)"/>
      <use xlink:href="#DejaVuSans-2f" transform="translate(1369.128906 0)"/>
      <use xlink:href="#DejaVuSans-20" transform="translate(1402.820312 0)"/>
      <use xlink:href="#DejaVuSans-62" transform="translate(1434.607422 0)"/>
      <use xlink:href="#DejaVuSans-79" transform="translate(1498.083984 0)"/>
      <use xlink:href="#DejaVuSans-74" transform="translate(1557.263672 0)"/>
      <use xlink:href="#DejaVuSans-65" transform="translate(1596.472656 0)"/>
      <use xlink:href="#DejaVuSans-29" transform="translate(1657.996094 0)"/>
     </g>
    </g>
   </g>
   <g id="matplotlib.axis_2">
    <g id="ytick_1">
     <g id="line2d_19">
      <path d="M 82.810313 66.813532 
L 632.928651 66.813532 
" clip-path="url(#pebf0f5acac)" style="fill: none; stroke: #f4f4f4; stroke-width: 0.8; stroke-linecap: square"/>
     </g>
     <g id="line2d_20">
      <defs>
       <path id="m53e8417fbf" d="M 0 0 
L -2 0 
" style="stroke: #000000; stroke-width: 0.6"/>
      </defs>
      <g>
       <use xlink:href="#m53e8417fbf" x="82.810313" y="66.813532" style="stroke: #000000; stroke-width: 0.6"/>
      </g>
     </g>
     <g id="text_7">
      <!-- $\mathdefault{1.25\times10^{-1}}$ -->
      <g transform="translate(19.910313 70.61275) scale(0.1 -0.1)">
       <defs>
        <path id="DejaVuSans-2e" d="M 684 794 
L 1344 794 
L 1344 0 
L 684 0 
L 684 794 
z
" transform="scale(0.015625)"/>
        <path id="DejaVuSans-35" d="M 691 4666 
L 3169 4666 
L 3169 4134 
L 1269 4134 
L 1269 2991 
Q 1406 3038 1543 3061 
Q 1681 3084 1819 3084 
Q 2600 3084 3056 2656 
Q 3513 2228 3513 1497 
Q 3513 744 3044 326 
Q 2575 -91 1722 -91 
Q 1428 -91 1123 -41 
Q 819 9 494 109 
L 494 744 
Q 775 591 1075 516 
Q 1375 441 1709 441 
Q 2250 441 2565 725 
Q 2881 1009 2881 1497 
Q 2881 1984 2565 2268 
Q 2250 2553 1709 2553 
Q 1456 2553 1204 2497 
Q 953 2441 691 2322 
L 691 4666 
z
" transform="scale(0.015625)"/>
       </defs>
       <use xlink:href="#DejaVuSans-31" transform="translate(0 0.684375)"/>
       <use xlink:href="#DejaVuSans-2e" transform="translate(63.623047 0.684375)"/>
       <use xlink:href="#DejaVuSans-32" transform="translate(89.910156 0.684375)"/>
       <use xlink:href="#DejaVuSans-35" transform="translate(153.533203 0.684375)"/>
       <use xlink:href="#DejaVuSans-d7" transform="translate(236.638672 0.684375)"/>
       <use xlink:href="#DejaVuSans-31" transform="translate(339.910156 0.684375)"/>
       <use xlink:href="#DejaVuSans-30" transform="translate(403.533203 0.684375)"/>
       <use xlink:href="#DejaVuSans-2212" transform="translate(468.113281 38.965625) scale(0.7)"/>
       <use xlink:href="#DejaVuSans-31" transform="translate(526.765625 38.965625) scale(0.7)"/>
      </g>
     </g>
    </g>
    <g id="ytick_2">
     <g id="line2d_21">
      <path d="M 82.810313 130.27483 
L 632.928651 130.27483 
" clip-path="url(#pebf0f5acac)" style="fill: none; stroke: #f4f4f4; stroke-width: 0.8; stroke-linecap: square"/>
     </g>
     <g id="line2d_22">
      <g>
       <use xlink:href="#m53e8417fbf" x="82.810313" y="130.27483" style="stroke: #000000; stroke-width: 0.6"/>
      </g>
     </g>
     <g id="text_8">
      <!-- $\mathdefault{1.5\times10^{-1}}$ -->
      <g transform="translate(25.810313 134.074049) scale(0.1 -0.1)">
       <use xlink:href="#DejaVuSans-31" transform="translate(0 0.684375)"/>
       <use xlink:href="#DejaVuSans-2e" transform="translate(63.623047 0.684375)"/>
       <use xlink:href="#DejaVuSans-35" transform="translate(95.410156 0.684375)"/>
       <use xlink:href="#DejaVuSans-d7" transform="translate(178.515625 0.684375)"/>
       <use xlink:href="#DejaVuSans-31" transform="translate(281.787109 0.684375)"/>
       <use xlink:href="#DejaVuSans-30" transform="translate(345.410156 0.684375)"/>
       <use xlink:href="#DejaVuSans-2212" transform="translate(409.990234 38.965625) scale(0.7)"/>
       <use xlink:href="#DejaVuSans-31" transform="translate(468.642578 38.965625) scale(0.7)"/>
      </g>
     </g>
    </g>
    <g id="ytick_3">
     <g id="line2d_23">
      <path d="M 82.810313 183.930594 
L 632.928651 183.930594 
" clip-path="url(#pebf0f5acac)" style="fill: none; stroke: #f4f4f4; stroke-width: 0.8; stroke-linecap: square"/>
     </g>
     <g id="line2d_24">
      <g>
       <use xlink:href="#m53e8417fbf" x="82.810313" y="183.930594" style="stroke: #000000; stroke-width: 0.6"/>
      </g>
     </g>
     <g id="text_9">
      <!-- $\mathdefault{1.75\times10^{-1}}$ -->
      <g transform="translate(20.210313 187.729813) scale(0.1 -0.1)">
       <defs>
        <path id="DejaVuSans-37" d="M 525 4666 
L 3525 4666 
L 3525 4397 
L 1831 0 
L 1172 0 
L 2766 4134 
L 525 4134 
L 525 4666 
z
" transform="scale(0.015625)"/>
       </defs>
       <use xlink:href="#DejaVuSans-31" transform="translate(0 0.684375)"/>
       <use xlink:href="#DejaVuSans-2e" transform="translate(63.623047 0.684375)"/>
       <use xlink:href="#DejaVuSans-37" transform="translate(87.660156 0.684375)"/>
       <use xlink:href="#DejaVuSans-35" transform="translate(151.283203 0.684375)"/>
       <use xlink:href="#DejaVuSans-d7" transform="translate(234.388672 0.684375)"/>
       <use xlink:href="#DejaVuSans-31" transform="translate(337.660156 0.684375)"/>
       <use xlink:href="#DejaVuSans-30" transform="translate(401.283203 0.684375)"/>
       <use xlink:href="#DejaVuSans-2212" transform="translate(465.863281 38.965625) scale(0.7)"/>
       <use xlink:href="#DejaVuSans-31" transform="translate(524.515625 38.965625) scale(0.7)"/>
      </g>
     </g>
    </g>
    <g id="ytick_4">
     <g id="line2d_25">
      <path d="M 82.810313 230.409331 
L 632.928651 230.409331 
" clip-path="url(#pebf0f5acac)" style="fill: none; stroke: #f4f4f4; stroke-width: 0.8; stroke-linecap: square"/>
     </g>
     <g id="line2d_26">
      <g>
       <use xlink:href="#m53e8417fbf" x="82.810313" y="230.409331" style="stroke: #000000; stroke-width: 0.6"/>
      </g>
     </g>
     <g id="text_10">
      <!-- $\mathdefault{2\times10^{-1}}$ -->
      <g transform="translate(35.310313 234.208549) scale(0.1 -0.1)">
       <use xlink:href="#DejaVuSans-32" transform="translate(0 0.684375)"/>
       <use xlink:href="#DejaVuSans-d7" transform="translate(83.105469 0.684375)"/>
       <use xlink:href="#DejaVuSans-31" transform="translate(186.376953 0.684375)"/>
       <use xlink:href="#DejaVuSans-30" transform="translate(250 0.684375)"/>
       <use xlink:href="#DejaVuSans-2212" transform="translate(314.580078 38.965625) scale(0.7)"/>
       <use xlink:href="#DejaVuSans-31" transform="translate(373.232422 38.965625) scale(0.7)"/>
      </g>
     </g>
    </g>
    <g id="ytick_5">
     <g id="line2d_27">
      <path d="M 82.810313 271.406482 
L 632.928651 271.406482 
" clip-path="url(#pebf0f5acac)" style="fill: none; stroke: #f4f4f4; stroke-width: 0.8; stroke-linecap: square"/>
     </g>
     <g id="line2d_28">
      <g>
       <use xlink:href="#m53e8417fbf" x="82.810313" y="271.406482" style="stroke: #000000; stroke-width: 0.6"/>
      </g>
     </g>
     <g id="text_11">
      <!-- $\mathdefault{2.25\times10^{-1}}$ -->
      <g transform="translate(19.910313 275.205701) scale(0.1 -0.1)">
       <use xlink:href="#DejaVuSans-32" transform="translate(0 0.684375)"/>
       <use xlink:href="#DejaVuSans-2e" transform="translate(63.623047 0.684375)"/>
       <use xlink:href="#DejaVuSans-32" transform="translate(89.910156 0.684375)"/>
       <use xlink:href="#DejaVuSans-35" transform="translate(153.533203 0.684375)"/>
       <use xlink:href="#DejaVuSans-d7" transform="translate(236.638672 0.684375)"/>
       <use xlink:href="#DejaVuSans-31" transform="translate(339.910156 0.684375)"/>
       <use xlink:href="#DejaVuSans-30" transform="translate(403.533203 0.684375)"/>
       <use xlink:href="#DejaVuSans-2212" transform="translate(468.113281 38.965625) scale(0.7)"/>
       <use xlink:href="#DejaVuSans-31" transform="translate(526.765625 38.965625) scale(0.7)"/>
      </g>
     </g>
    </g>
    <g id="ytick_6">
     <g id="line2d_29">
      <path d="M 82.810313 308.079683 
L 632.928651 308.079683 
" clip-path="url(#pebf0f5acac)" style="fill: none; stroke: #f4f4f4; stroke-width: 0.8; stroke-linecap: square"/>
     </g>
     <g id="line2d_30">
      <g>
       <use xlink:href="#m53e8417fbf" x="82.810313" y="308.079683" style="stroke: #000000; stroke-width: 0.6"/>
      </g>
     </g>
     <g id="text_12">
      <!-- $\mathdefault{2.5\times10^{-1}}$ -->
      <g transform="translate(25.810313 311.878902) scale(0.1 -0.1)">
       <use xlink:href="#DejaVuSans-32" transform="translate(0 0.684375)"/>
       <use xlink:href="#DejaVuSans-2e" transform="translate(63.623047 0.684375)"/>
       <use xlink:href="#DejaVuSans-35" transform="translate(95.410156 0.684375)"/>
       <use xlink:href="#DejaVuSans-d7" transform="translate(178.515625 0.684375)"/>
       <use xlink:href="#DejaVuSans-31" transform="translate(281.787109 0.684375)"/>
       <use xlink:href="#DejaVuSans-30" transform="translate(345.410156 0.684375)"/>
       <use xlink:href="#DejaVuSans-2212" transform="translate(409.990234 38.965625) scale(0.7)"/>
       <use xlink:href="#DejaVuSans-31" transform="translate(468.642578 38.965625) scale(0.7)"/>
      </g>
     </g>
    </g>
    <g id="ytick_7">
     <g id="line2d_31">
      <path d="M 82.810313 341.254629 
L 632.928651 341.254629 
" clip-path="url(#pebf0f5acac)" style="fill: none; stroke: #f4f4f4; stroke-width: 0.8; stroke-linecap: square"/>
     </g>
     <g id="line2d_32">
      <g>
       <use xlink:href="#m53e8417fbf" x="82.810313" y="341.254629" style="stroke: #000000; stroke-width: 0.6"/>
      </g>
     </g>
     <g id="text_13">
      <!-- $\mathdefault{2.75\times10^{-1}}$ -->
      <g transform="translate(20.210313 345.053848) scale(0.1 -0.1)">
       <use xlink:href="#DejaVuSans-32" transform="translate(0 0.684375)"/>
       <use xlink:href="#DejaVuSans-2e" transform="translate(63.623047 0.684375)"/>
       <use xlink:href="#DejaVuSans-37" transform="translate(87.660156 0.684375)"/>
       <use xlink:href="#DejaVuSans-35" transform="translate(151.283203 0.684375)"/>
       <use xlink:href="#DejaVuSans-d7" transform="translate(234.388672 0.684375)"/>
       <use xlink:href="#DejaVuSans-31" transform="translate(337.660156 0.684375)"/>
       <use xlink:href="#DejaVuSans-30" transform="translate(401.283203 0.684375)"/>
       <use xlink:href="#DejaVuSans-2212" transform="translate(465.863281 38.965625) scale(0.7)"/>
       <use xlink:href="#DejaVuSans-31" transform="translate(524.515625 38.965625) scale(0.7)"/>
      </g>
     </g>
    </g>
    <g id="ytick_8">
     <g id="line2d_33">
      <path d="M 82.810313 371.540982 
L 632.928651 371.540982 
" clip-path="url(#pebf0f5acac)" style="fill: none; stroke: #f4f4f4; stroke-width: 0.8; stroke-linecap: square"/>
     </g>
     <g id="line2d_34">
      <g>
       <use xlink:href="#m53e8417fbf" x="82.810313" y="371.540982" style="stroke: #000000; stroke-width: 0.6"/>
      </g>
     </g>
     <g id="text_14">
      <!-- $\mathdefault{3\times10^{-1}}$ -->
      <g transform="translate(35.310313 375.340201) scale(0.1 -0.1)">
       <use xlink:href="#DejaVuSans-33" transform="translate(0 0.684375)"/>
       <use xlink:href="#DejaVuSans-d7" transform="translate(83.105469 0.684375)"/>
       <use xlink:href="#DejaVuSans-31" transform="translate(186.376953 0.684375)"/>
       <use xlink:href="#DejaVuSans-30" transform="translate(250 0.684375)"/>
       <use xlink:href="#DejaVuSans-2212" transform="translate(314.580078 38.965625) scale(0.7)"/>
       <use xlink:href="#DejaVuSans-31" transform="translate(373.232422 38.965625) scale(0.7)"/>
      </g>
     </g>
    </g>
    <g id="text_15">
     <!-- Achieved TFLOPS -->
     <g transform="translate(14.038594 235.787054) rotate(-90) scale(0.09 -0.09)">
      <defs>
       <path id="DejaVuSans-76" d="M 191 3500 
L 800 3500 
L 1894 563 
L 2988 3500 
L 3597 3500 
L 2284 0 
L 1503 0 
L 191 3500 
z
" transform="scale(0.015625)"/>
       <path id="DejaVuSans-64" d="M 2906 2969 
L 2906 4863 
L 3481 4863 
L 3481 0 
L 2906 0 
L 2906 525 
Q 2725 213 2448 61 
Q 2172 -91 1784 -91 
Q 1150 -91 751 415 
Q 353 922 353 1747 
Q 353 2572 751 3078 
Q 1150 3584 1784 3584 
Q 2172 3584 2448 3432 
Q 2725 3281 2906 2969 
z
M 947 1747 
Q 947 1113 1208 752 
Q 1469 391 1925 391 
Q 2381 391 2643 752 
Q 2906 1113 2906 1747 
Q 2906 2381 2643 2742 
Q 2381 3103 1925 3103 
Q 1469 3103 1208 2742 
Q 947 2381 947 1747 
z
" transform="scale(0.015625)"/>
       <path id="DejaVuSans-54" d="M -19 4666 
L 3928 4666 
L 3928 4134 
L 2272 4134 
L 2272 0 
L 1638 0 
L 1638 4134 
L -19 4134 
L -19 4666 
z
" transform="scale(0.015625)"/>
       <path id="DejaVuSans-53" d="M 3425 4513 
L 3425 3897 
Q 3066 4069 2747 4153 
Q 2428 4238 2131 4238 
Q 1616 4238 1336 4038 
Q 1056 3838 1056 3469 
Q 1056 3159 1242 3001 
Q 1428 2844 1947 2747 
L 2328 2669 
Q 3034 2534 3370 2195 
Q 3706 1856 3706 1288 
Q 3706 609 3251 259 
Q 2797 -91 1919 -91 
Q 1588 -91 1214 -16 
Q 841 59 441 206 
L 441 856 
Q 825 641 1194 531 
Q 1563 422 1919 422 
Q 2459 422 2753 634 
Q 3047 847 3047 1241 
Q 3047 1584 2836 1778 
Q 2625 1972 2144 2069 
L 1759 2144 
Q 1053 2284 737 2584 
Q 422 2884 422 3419 
Q 422 4038 858 4394 
Q 1294 4750 2059 4750 
Q 2388 4750 2728 4690 
Q 3069 4631 3425 4513 
z
" transform="scale(0.015625)"/>
      </defs>
      <use xlink:href="#DejaVuSans-41"/>
      <use xlink:href="#DejaVuSans-63" transform="translate(66.658203 0)"/>
      <use xlink:href="#DejaVuSans-68" transform="translate(121.638672 0)"/>
      <use xlink:href="#DejaVuSans-69" transform="translate(185.017578 0)"/>
      <use xlink:href="#DejaVuSans-65" transform="translate(212.800781 0)"/>
      <use xlink:href="#DejaVuSans-76" transform="translate(274.324219 0)"/>
      <use xlink:href="#DejaVuSans-65" transform="translate(333.503906 0)"/>
      <use xlink:href="#DejaVuSans-64" transform="translate(395.027344 0)"/>
      <use xlink:href="#DejaVuSans-20" transform="translate(458.503906 0)"/>
      <use xlink:href="#DejaVuSans-54" transform="translate(490.291016 0)"/>
      <use xlink:href="#DejaVuSans-46" transform="translate(551.375 0)"/>
      <use xlink:href="#DejaVuSans-4c" transform="translate(608.894531 0)"/>
      <use xlink:href="#DejaVuSans-4f" transform="translate(660.982422 0)"/>
      <use xlink:href="#DejaVuSans-50" transform="translate(739.693359 0)"/>
      <use xlink:href="#DejaVuSans-53" transform="translate(799.996094 0)"/>
     </g>
    </g>
   </g>
   <g id="patch_3">
    <path d="M 82.810313 371.540982 
L 82.810313 22.318125 
" style="fill: none; stroke: #000000; stroke-width: 0.8; stroke-linejoin: miter; stroke-linecap: square"/>
   </g>
   <g id="patch_4">
    <path d="M 632.928651 371.540982 
L 632.928651 22.318125 
" style="fill: none; stroke: #000000; stroke-width: 0.8; stroke-linejoin: miter; stroke-linecap: square"/>
   </g>
   <g id="patch_5">
    <path d="M 82.810313 371.540982 
L 632.928651 371.540982 
" style="fill: none; stroke: #000000; stroke-width: 0.8; stroke-linejoin: miter; stroke-linecap: square"/>
   </g>
   <g id="patch_6">
    <path d="M 82.810313 22.318125 
L 632.928651 22.318125 
" style="fill: none; stroke: #000000; stroke-width: 0.8; stroke-linejoin: miter; stroke-linecap: square"/>
   </g>
   <g id="text_16">
    <!-- Scan — roofline (H200) -->
    <g transform="translate(82.810313 16.318125) scale(0.12 -0.12)">
     <defs>
      <path id="DejaVuSans-Bold-53" d="M 3834 4519 
L 3834 3531 
Q 3450 3703 3084 3790 
Q 2719 3878 2394 3878 
Q 1963 3878 1756 3759 
Q 1550 3641 1550 3391 
Q 1550 3203 1689 3098 
Q 1828 2994 2194 2919 
L 2706 2816 
Q 3484 2659 3812 2340 
Q 4141 2022 4141 1434 
Q 4141 663 3683 286 
Q 3225 -91 2284 -91 
Q 1841 -91 1394 -6 
Q 947 78 500 244 
L 500 1259 
Q 947 1022 1364 901 
Q 1781 781 2169 781 
Q 2563 781 2772 912 
Q 2981 1044 2981 1288 
Q 2981 1506 2839 1625 
Q 2697 1744 2272 1838 
L 1806 1941 
Q 1106 2091 782 2419 
Q 459 2747 459 3303 
Q 459 4000 909 4375 
Q 1359 4750 2203 4750 
Q 2588 4750 2994 4692 
Q 3400 4634 3834 4519 
z
" transform="scale(0.015625)"/>
      <path id="DejaVuSans-Bold-63" d="M 3366 3391 
L 3366 2478 
Q 3138 2634 2908 2709 
Q 2678 2784 2431 2784 
Q 1963 2784 1702 2511 
Q 1441 2238 1441 1747 
Q 1441 1256 1702 982 
Q 1963 709 2431 709 
Q 2694 709 2930 787 
Q 3166 866 3366 1019 
L 3366 103 
Q 3103 6 2833 -42 
Q 2563 -91 2291 -91 
Q 1344 -91 809 395 
Q 275 881 275 1747 
Q 275 2613 809 3098 
Q 1344 3584 2291 3584 
Q 2566 3584 2833 3536 
Q 3100 3488 3366 3391 
z
" transform="scale(0.015625)"/>
      <path id="DejaVuSans-Bold-61" d="M 2106 1575 
Q 1756 1575 1579 1456 
Q 1403 1338 1403 1106 
Q 1403 894 1545 773 
Q 1688 653 1941 653 
Q 2256 653 2472 879 
Q 2688 1106 2688 1447 
L 2688 1575 
L 2106 1575 
z
M 3816 1997 
L 3816 0 
L 2688 0 
L 2688 519 
Q 2463 200 2181 54 
Q 1900 -91 1497 -91 
Q 953 -91 614 226 
Q 275 544 275 1050 
Q 275 1666 698 1953 
Q 1122 2241 2028 2241 
L 2688 2241 
L 2688 2328 
Q 2688 2594 2478 2717 
Q 2269 2841 1825 2841 
Q 1466 2841 1156 2769 
Q 847 2697 581 2553 
L 581 3406 
Q 941 3494 1303 3539 
Q 1666 3584 2028 3584 
Q 2975 3584 3395 3211 
Q 3816 2838 3816 1997 
z
" transform="scale(0.015625)"/>
      <path id="DejaVuSans-Bold-6e" d="M 4056 2131 
L 4056 0 
L 2931 0 
L 2931 347 
L 2931 1631 
Q 2931 2084 2911 2256 
Q 2891 2428 2841 2509 
Q 2775 2619 2662 2680 
Q 2550 2741 2406 2741 
Q 2056 2741 1856 2470 
Q 1656 2200 1656 1722 
L 1656 0 
L 538 0 
L 538 3500 
L 1656 3500 
L 1656 2988 
Q 1909 3294 2193 3439 
Q 2478 3584 2822 3584 
Q 3428 3584 3742 3212 
Q 4056 2841 4056 2131 
z
" transform="scale(0.015625)"/>
      <path id="DejaVuSans-Bold-20" transform="scale(0.015625)"/>
      <path id="DejaVuSans-Bold-2014" d="M 344 2156 
L 6056 2156 
L 6056 1350 
L 344 1350 
L 344 2156 
z
" transform="scale(0.015625)"/>
      <path id="DejaVuSans-Bold-72" d="M 3138 2547 
Q 2991 2616 2845 2648 
Q 2700 2681 2553 2681 
Q 2122 2681 1889 2404 
Q 1656 2128 1656 1613 
L 1656 0 
L 538 0 
L 538 3500 
L 1656 3500 
L 1656 2925 
Q 1872 3269 2151 3426 
Q 2431 3584 2822 3584 
Q 2878 3584 2943 3579 
Q 3009 3575 3134 3559 
L 3138 2547 
z
" transform="scale(0.015625)"/>
      <path id="DejaVuSans-Bold-6f" d="M 2203 2784 
Q 1831 2784 1636 2517 
Q 1441 2250 1441 1747 
Q 1441 1244 1636 976 
Q 1831 709 2203 709 
Q 2569 709 2762 976 
Q 2956 1244 2956 1747 
Q 2956 2250 2762 2517 
Q 2569 2784 2203 2784 
z
M 2203 3584 
Q 3106 3584 3614 3096 
Q 4122 2609 4122 1747 
Q 4122 884 3614 396 
Q 3106 -91 2203 -91 
Q 1297 -91 786 396 
Q 275 884 275 1747 
Q 275 2609 786 3096 
Q 1297 3584 2203 3584 
z
" transform="scale(0.015625)"/>
      <path id="DejaVuSans-Bold-66" d="M 2841 4863 
L 2841 4128 
L 2222 4128 
Q 1984 4128 1890 4042 
Q 1797 3956 1797 3744 
L 1797 3500 
L 2753 3500 
L 2753 2700 
L 1797 2700 
L 1797 0 
L 678 0 
L 678 2700 
L 122 2700 
L 122 3500 
L 678 3500 
L 678 3744 
Q 678 4316 997 4589 
Q 1316 4863 1984 4863 
L 2841 4863 
z
" transform="scale(0.015625)"/>
      <path id="DejaVuSans-Bold-6c" d="M 538 4863 
L 1656 4863 
L 1656 0 
L 538 0 
L 538 4863 
z
" transform="scale(0.015625)"/>
      <path id="DejaVuSans-Bold-69" d="M 538 3500 
L 1656 3500 
L 1656 0 
L 538 0 
L 538 3500 
z
M 538 4863 
L 1656 4863 
L 1656 3950 
L 538 3950 
L 538 4863 
z
" transform="scale(0.015625)"/>
      <path id="DejaVuSans-Bold-65" d="M 4031 1759 
L 4031 1441 
L 1416 1441 
Q 1456 1047 1700 850 
Q 1944 653 2381 653 
Q 2734 653 3104 758 
Q 3475 863 3866 1075 
L 3866 213 
Q 3469 63 3072 -14 
Q 2675 -91 2278 -91 
Q 1328 -91 801 392 
Q 275 875 275 1747 
Q 275 2603 792 3093 
Q 1309 3584 2216 3584 
Q 3041 3584 3536 3087 
Q 4031 2591 4031 1759 
z
M 2881 2131 
Q 2881 2450 2695 2645 
Q 2509 2841 2209 2841 
Q 1884 2841 1681 2658 
Q 1478 2475 1428 2131 
L 2881 2131 
z
" transform="scale(0.015625)"/>
      <path id="DejaVuSans-Bold-28" d="M 2413 -844 
L 1484 -844 
Q 1006 -72 778 623 
Q 550 1319 550 2003 
Q 550 2688 779 3389 
Q 1009 4091 1484 4856 
L 2413 4856 
Q 2013 4116 1813 3408 
Q 1613 2700 1613 2009 
Q 1613 1319 1811 609 
Q 2009 -100 2413 -844 
z
" transform="scale(0.015625)"/>
      <path id="DejaVuSans-Bold-48" d="M 588 4666 
L 1791 4666 
L 1791 2888 
L 3566 2888 
L 3566 4666 
L 4769 4666 
L 4769 0 
L 3566 0 
L 3566 1978 
L 1791 1978 
L 1791 0 
L 588 0 
L 588 4666 
z
" transform="scale(0.015625)"/>
      <path id="DejaVuSans-Bold-32" d="M 1844 884 
L 3897 884 
L 3897 0 
L 506 0 
L 506 884 
L 2209 2388 
Q 2438 2594 2547 2791 
Q 2656 2988 2656 3200 
Q 2656 3528 2436 3728 
Q 2216 3928 1850 3928 
Q 1569 3928 1234 3808 
Q 900 3688 519 3450 
L 519 4475 
Q 925 4609 1322 4679 
Q 1719 4750 2100 4750 
Q 2938 4750 3402 4381 
Q 3866 4013 3866 3353 
Q 3866 2972 3669 2642 
Q 3472 2313 2841 1759 
L 1844 884 
z
" transform="scale(0.015625)"/>
      <path id="DejaVuSans-Bold-30" d="M 2944 2338 
Q 2944 3213 2780 3570 
Q 2616 3928 2228 3928 
Q 1841 3928 1675 3570 
Q 1509 3213 1509 2338 
Q 1509 1453 1675 1090 
Q 1841 728 2228 728 
Q 2613 728 2778 1090 
Q 2944 1453 2944 2338 
z
M 4147 2328 
Q 4147 1169 3647 539 
Q 3147 -91 2228 -91 
Q 1306 -91 806 539 
Q 306 1169 306 2328 
Q 306 3491 806 4120 
Q 1306 4750 2228 4750 
Q 3147 4750 3647 4120 
Q 4147 3491 4147 2328 
z
" transform="scale(0.015625)"/>
      <path id="DejaVuSans-Bold-29" d="M 513 -844 
Q 913 -100 1113 609 
Q 1313 1319 1313 2009 
Q 1313 2700 1113 3408 
Q 913 4116 513 4856 
L 1441 4856 
Q 1916 4091 2145 3389 
Q 2375 2688 2375 2003 
Q 2375 1319 2147 623 
Q 1919 -72 1441 -844 
L 513 -844 
z
" transform="scale(0.015625)"/>
     </defs>
     <use xlink:href="#DejaVuSans-Bold-53"/>
     <use xlink:href="#DejaVuSans-Bold-63" transform="translate(72.021484 0)"/>
     <use xlink:href="#DejaVuSans-Bold-61" transform="translate(131.298828 0)"/>
     <use xlink:href="#DejaVuSans-Bold-6e" transform="translate(198.779297 0)"/>
     <use xlink:href="#DejaVuSans-Bold-20" transform="translate(269.970703 0)"/>
     <use xlink:href="#DejaVuSans-Bold-2014" transform="translate(304.785156 0)"/>
     <use xlink:href="#DejaVuSans-Bold-20" transform="translate(404.785156 0)"/>
     <use xlink:href="#DejaVuSans-Bold-72" transform="translate(439.599609 0)"/>
     <use xlink:href="#DejaVuSans-Bold-6f" transform="translate(488.916016 0)"/>
     <use xlink:href="#DejaVuSans-Bold-6f" transform="translate(557.617188 0)"/>
     <use xlink:href="#DejaVuSans-Bold-66" transform="translate(626.318359 0)"/>
     <use xlink:href="#DejaVuSans-Bold-6c" transform="translate(669.824219 0)"/>
     <use xlink:href="#DejaVuSans-Bold-69" transform="translate(704.101562 0)"/>
     <use xlink:href="#DejaVuSans-Bold-6e" transform="translate(738.378906 0)"/>
     <use xlink:href="#DejaVuSans-Bold-65" transform="translate(809.570312 0)"/>
     <use xlink:href="#DejaVuSans-Bold-20" transform="translate(877.392578 0)"/>
     <use xlink:href="#DejaVuSans-Bold-28" transform="translate(912.207031 0)"/>
     <use xlink:href="#DejaVuSans-Bold-48" transform="translate(957.910156 0)"/>
     <use xlink:href="#DejaVuSans-Bold-32" transform="translate(1041.601562 0)"/>
     <use xlink:href="#DejaVuSans-Bold-30" transform="translate(1111.181641 0)"/>
     <use xlink:href="#DejaVuSans-Bold-30" transform="translate(1180.761719 0)"/>
     <use xlink:href="#DejaVuSans-Bold-29" transform="translate(1250.341797 0)"/>
    </g>
   </g>
   <g id="PathCollection_1">
    <defs>
     <path id="mcd1f686d40" d="M 0 2.915476 
C 0.773193 2.915476 1.514823 2.608283 2.061553 2.061553 
C 2.608283 1.514823 2.915476 0.773193 2.915476 0 
C 2.915476 -0.773193 2.608283 -1.514823 2.061553 -2.061553 
C 1.514823 -2.608283 0.773193 -2.915476 0 -2.915476 
C -0.773193 -2.915476 -1.514823 -2.608283 -2.061553 -2.061553 
C -2.608283 -1.514823 -2.915476 -0.773193 -2.915476 0 
C -2.915476 0.773193 -2.608283 1.514823 -2.061553 2.061553 
C -1.514823 2.608283 -0.773193 2.915476 0 2.915476 
z
" style="stroke: #ffffff; stroke-opacity: 0.85; stroke-width: 0.4"/>
    </defs>
    <g clip-path="url(#pebf0f5acac)"/>
   </g>
   <g id="line2d_35">
    <path d="M 0 0 
" clip-path="url(#pebf0f5acac)" style="fill: none; stroke: #37474f; stroke-width: 1.4; stroke-linecap: square"/>
   </g>
   <g id="legend_1">
    <g id="patch_7">
     <path d="M 511.783729 367.790982 
L 627.678651 367.790982 
Q 629.178651 367.790982 629.178651 366.290982 
L 629.178651 356.032388 
Q 629.178651 354.532388 627.678651 354.532388 
L 511.783729 354.532388 
Q 510.283729 354.532388 510.283729 356.032388 
L 510.283729 366.290982 
Q 510.283729 367.790982 511.783729 367.790982 
z
" style="fill: #ffffff; opacity: 0.9; stroke: #cccccc; stroke-linejoin: miter"/>
    </g>
    <g id="PathCollection_2">
     <g>
      <use xlink:href="#mcd1f686d40" x="520.783729" y="361.262467" style="fill: #9ccc65; fill-opacity: 0.85; stroke: #ffffff; stroke-opacity: 0.85; stroke-width: 0.4"/>
     </g>
    </g>
    <g id="text_17">
     <!-- mamba -->
     <g transform="translate(534.283729 363.231217) scale(0.075 -0.075)">
      <defs>
       <path id="DejaVuSans-61" d="M 2194 1759 
Q 1497 1759 1228 1600 
Q 959 1441 959 1056 
Q 959 750 1161 570 
Q 1363 391 1709 391 
Q 2188 391 2477 730 
Q 2766 1069 2766 1631 
L 2766 1759 
L 2194 1759 
z
M 3341 1997 
L 3341 0 
L 2766 0 
L 2766 531 
Q 2569 213 2275 61 
Q 1981 -91 1556 -91 
Q 1019 -91 701 211 
Q 384 513 384 1019 
Q 384 1609 779 1909 
Q 1175 2209 1959 2209 
L 2766 2209 
L 2766 2266 
Q 2766 2663 2505 2880 
Q 2244 3097 1772 3097 
Q 1472 3097 1187 3025 
Q 903 2953 641 2809 
L 641 3341 
Q 956 3463 1253 3523 
Q 1550 3584 1831 3584 
Q 2591 3584 2966 3190 
Q 3341 2797 3341 1997 
z
" transform="scale(0.015625)"/>
      </defs>
      <use xlink:href="#DejaVuSans-6d"/>
      <use xlink:href="#DejaVuSans-61" transform="translate(97.412109 0)"/>
      <use xlink:href="#DejaVuSans-6d" transform="translate(158.691406 0)"/>
      <use xlink:href="#DejaVuSans-62" transform="translate(256.103516 0)"/>
      <use xlink:href="#DejaVuSans-61" transform="translate(319.580078 0)"/>
     </g>
    </g>
    <g id="PathCollection_3">
     <defs>
      <path id="md0458757e1" d="M 0 -4.062019 
L -4.062019 4.062019 
L 4.062019 4.062019 
z
" style="stroke: #ffffff; stroke-width: 0.6"/>
     </defs>
     <g>
      <use xlink:href="#md0458757e1" x="585.348182" y="361.262467" style="fill: #00897b; stroke: #ffffff; stroke-width: 0.6"/>
     </g>
    </g>
    <g id="text_18">
     <!-- TileOPs -->
     <g transform="translate(598.848182 363.231217) scale(0.075 -0.075)">
      <defs>
       <path id="DejaVuSans-6c" d="M 603 4863 
L 1178 4863 
L 1178 0 
L 603 0 
L 603 4863 
z
" transform="scale(0.015625)"/>
      </defs>
      <use xlink:href="#DejaVuSans-54"/>
      <use xlink:href="#DejaVuSans-69" transform="translate(57.958984 0)"/>
      <use xlink:href="#DejaVuSans-6c" transform="translate(85.742188 0)"/>
      <use xlink:href="#DejaVuSans-65" transform="translate(113.525391 0)"/>
      <use xlink:href="#DejaVuSans-4f" transform="translate(175.048828 0)"/>
      <use xlink:href="#DejaVuSans-50" transform="translate(253.759766 0)"/>
      <use xlink:href="#DejaVuSans-73" transform="translate(312.3125 0)"/>
     </g>
    </g>
   </g>
   <g id="PathCollection_4">
    <g clip-path="url(#pebf0f5acac)"/>
   </g>
  </g>
 </g>
 <defs>
  <clipPath id="pebf0f5acac">
   <rect x="82.810313" y="22.318125" width="550.118338" height="349.222857"/>
  </clipPath>
 </defs>
</svg>
