<?xml version="1.0" encoding="utf-8" standalone="no"?>
<!DOCTYPE svg PUBLIC "-//W3C//DTD SVG 1.1//EN"
  "http://www.w3.org/Graphics/SVG/1.1/DTD/svg11.dtd">
<svg xmlns:xlink="http://www.w3.org/1999/xlink" width="639.978919pt" height="408.12942pt" viewBox="0 0 639.978919 408.12942" xmlns="http://www.w3.org/2000/svg" version="1.1">
 <metadata>
  <rdf:RDF xmlns:dc="http://purl.org/dc/elements/1.1/" xmlns:cc="http://creativecommons.org/ns#" xmlns:rdf="http://www.w3.org/1999/02/22-rdf-syntax-ns#">
   <cc:Work>
    <dc:type rdf:resource="http://purl.org/dc/dcmitype/StillImage"/>
    <dc:date>2026-06-16T16:27:16.266785</dc:date>
    <dc:format>image/svg+xml</dc:format>
    <dc:creator>
     <cc:Agent>
      <dc:title>Matplotlib v3.10.9, https://matplotlib.org/</dc:title>
     </cc:Agent>
    </dc:creator>
   </cc:Work>
  </rdf:RDF>
 </metadata>
 <defs>
  <style type="text/css">*{stroke-linejoin: round; stroke-linecap: butt}</style>
 </defs>
 <g id="figure_1">
  <g id="patch_1">
   <path d="M 0 408.12942 
L 639.978919 408.12942 
L 639.978919 0 
L 0 0 
z
" style="fill: #ffffff"/>
  </g>
  <g id="axes_1">
   <g id="patch_2">
    <path d="M 44.510313 371.540982 
L 632.778919 371.540982 
L 632.778919 22.318125 
L 44.510313 22.318125 
z
" style="fill: #ffffff"/>
   </g>
   <g id="FillBetweenPolyCollection_1">
    <path d="M 44.510312 -774.248527 
L 44.510312 243.570374 
L 45.689208 242.964296 
L 46.868103 242.358218 
L 48.046998 241.752141 
L 49.225893 241.146063 
L 50.404788 240.539986 
L 51.583683 239.933908 
L 52.762578 239.327831 
L 53.941473 238.721753 
L 55.120368 238.115675 
L 56.299263 237.509598 
L 57.478158 236.90352 
L 58.657053 236.297443 
L 59.835948 235.691365 
L 61.014843 235.085288 
L 62.193738 234.47921 
L 63.372633 233.873132 
L 64.551528 233.267055 
L 65.730423 232.660977 
L 66.909318 232.0549 
L 68.088213 231.448822 
L 69.267108 230.842745 
L 70.446003 230.236667 
L 71.624898 229.630589 
L 72.803793 229.024512 
L 73.982688 228.418434 
L 75.161583 227.812357 
L 76.340478 227.206279 
L 77.519373 226.600202 
L 78.698268 225.994124 
L 79.877163 225.388047 
L 81.056058 224.781969 
L 82.234953 224.175891 
L 83.413848 223.569814 
L 84.592743 222.963736 
L 85.771638 222.357659 
L 86.950533 221.751581 
L 88.129428 221.145504 
L 89.308323 220.539426 
L 90.487218 219.933348 
L 91.666113 219.327271 
L 92.845008 218.721193 
L 94.023903 218.115116 
L 95.202798 217.509038 
L 96.381693 216.902961 
L 97.560588 216.296883 
L 98.739483 215.690805 
L 99.918378 215.084728 
L 101.097273 214.47865 
L 102.276168 213.872573 
L 103.455063 213.266495 
L 104.633958 212.660418 
L 105.812853 212.05434 
L 106.991748 211.448262 
L 108.170643 210.842185 
L 109.349538 210.236107 
L 110.528433 209.63003 
L 111.707328 209.023952 
L 112.886223 208.417875 
L 114.065118 207.811797 
L 115.244013 207.205719 
L 116.422908 206.599642 
L 117.601803 205.993564 
L 118.780698 205.387487 
L 119.959593 204.781409 
L 121.138488 204.175332 
L 122.317383 203.569254 
L 123.496278 202.963176 
L 124.675173 202.357099 
L 125.854068 201.751021 
L 127.032963 201.144944 
L 128.211858 200.538866 
L 129.390753 199.932789 
L 130.569648 199.326711 
L 131.748543 198.720633 
L 132.927438 198.114556 
L 134.106333 197.508478 
L 135.285228 196.902401 
L 136.464123 196.296323 
L 137.643018 195.690246 
L 138.821913 195.084168 
L 140.000808 194.478091 
L 141.179703 193.872013 
L 142.358598 193.265935 
L 143.537493 192.659858 
L 144.716388 192.05378 
L 145.895283 191.447703 
L 147.074178 190.841625 
L 148.253073 190.235548 
L 149.431968 189.62947 
L 150.610863 189.023392 
L 151.789758 188.417315 
L 152.968653 187.811237 
L 154.147548 187.20516 
L 155.326443 186.599082 
L 156.505338 185.993005 
L 157.684233 185.386927 
L 158.863128 184.780849 
L 160.042023 184.174772 
L 161.220918 183.568694 
L 162.399813 182.962617 
L 163.578708 182.356539 
L 164.757603 181.750462 
L 165.936498 181.144384 
L 167.115393 180.538306 
L 168.294288 179.932229 
L 169.473183 179.326151 
L 170.652078 178.720074 
L 171.830973 178.113996 
L 173.009868 177.507919 
L 174.188763 176.901841 
L 175.367658 176.295763 
L 176.546553 175.689686 
L 177.725448 175.083608 
L 178.904343 174.477531 
L 180.083238 173.871453 
L 181.262133 173.265376 
L 182.441028 172.659298 
L 183.619923 172.05322 
L 184.798818 171.447143 
L 185.977713 170.841065 
L 187.156608 170.234988 
L 188.335503 169.62891 
L 189.514398 169.022833 
L 190.693293 168.416755 
L 191.872188 167.810677 
L 193.051083 167.2046 
L 194.229978 166.598522 
L 195.408873 165.992445 
L 196.587768 165.386367 
L 197.766663 164.78029 
L 198.945558 164.174212 
L 200.124453 163.568135 
L 201.303348 162.962057 
L 202.482243 162.355979 
L 203.661138 161.749902 
L 204.840033 161.143824 
L 206.018928 160.537747 
L 207.197823 159.931669 
L 208.376718 159.325592 
L 209.555613 158.719514 
L 210.734508 158.113436 
L 211.913403 157.507359 
L 213.092298 156.901281 
L 214.271193 156.295204 
L 215.450088 155.689126 
L 216.628983 155.083049 
L 217.807878 154.476971 
L 218.986773 153.870893 
L 220.165668 153.264816 
L 221.344563 152.658738 
L 222.523458 152.052661 
L 223.702353 151.446583 
L 224.881248 150.840506 
L 226.060143 150.234428 
L 227.239038 149.62835 
L 228.417933 149.022273 
L 229.596828 148.416195 
L 230.775723 147.810118 
L 231.954618 147.20404 
L 233.133513 146.597963 
L 234.312408 145.991885 
L 235.491303 145.385807 
L 236.670198 144.77973 
L 237.849093 144.173652 
L 239.027988 143.567575 
L 240.206883 142.961497 
L 241.385778 142.35542 
L 242.564673 141.749342 
L 243.743568 141.143264 
L 244.922463 140.537187 
L 246.101358 139.931109 
L 247.280253 139.325032 
L 248.459148 138.718954 
L 249.638043 138.112877 
L 250.816938 137.506799 
L 251.995833 136.900721 
L 253.174728 136.294644 
L 254.353623 135.688566 
L 255.532518 135.082489 
L 256.711413 134.476411 
L 257.890308 133.870334 
L 259.069203 133.264256 
L 260.248098 132.658179 
L 261.426993 132.052101 
L 262.605888 131.446023 
L 263.784783 130.839946 
L 264.963678 130.233868 
L 266.142573 129.627791 
L 267.321468 129.021713 
L 268.500363 128.415636 
L 269.679258 127.809558 
L 270.858153 127.20348 
L 272.037048 126.597403 
L 273.215943 125.991325 
L 274.394838 125.385248 
L 275.573733 124.77917 
L 276.752628 124.173093 
L 277.931523 123.567015 
L 279.110418 122.960937 
L 280.289313 122.35486 
L 281.468208 121.748782 
L 282.647103 121.142705 
L 283.825998 120.536627 
L 285.004893 119.93055 
L 286.183788 119.324472 
L 287.362683 118.718394 
L 288.541578 118.112317 
L 289.720473 117.506239 
L 290.899368 116.900162 
L 292.078263 116.294084 
L 293.257158 115.688007 
L 294.436053 115.081929 
L 295.614948 114.475851 
L 296.793843 113.869774 
L 297.972738 113.263696 
L 299.151633 112.657619 
L 300.330528 112.051541 
L 301.509423 111.445464 
L 302.688318 110.839386 
L 303.867213 110.233308 
L 305.046108 109.627231 
L 306.225003 109.021153 
L 307.403898 108.415076 
L 308.582793 107.808998 
L 309.761688 107.202921 
L 310.940583 106.596843 
L 312.119478 105.990765 
L 313.298373 105.384688 
L 314.477268 104.77861 
L 315.656163 104.172533 
L 316.835058 103.566455 
L 318.013953 102.960378 
L 319.192848 102.3543 
L 320.371743 101.748223 
L 321.550638 101.142145 
L 322.729533 100.536067 
L 323.908428 99.92999 
L 325.087323 99.323912 
L 326.266218 98.717835 
L 327.445113 98.111757 
L 328.624008 97.50568 
L 329.802903 96.899602 
L 330.981798 96.293524 
L 332.160693 95.687447 
L 333.339588 95.081369 
L 334.518483 94.475292 
L 335.697378 93.869214 
L 336.876273 93.263137 
L 338.055168 92.657059 
L 339.234063 92.050981 
L 340.412958 91.444904 
L 341.591853 90.838826 
L 342.770748 90.232749 
L 343.949643 89.626671 
L 345.128538 89.020594 
L 346.307433 88.414516 
L 347.486328 87.808438 
L 348.665223 87.202361 
L 349.844118 86.596283 
L 351.023013 85.990206 
L 352.201908 85.384128 
L 353.380803 84.778051 
L 354.559698 84.171973 
L 355.738593 83.565895 
L 356.917488 82.959818 
L 358.096383 82.35374 
L 359.275278 81.747663 
L 360.454173 81.141585 
L 361.633068 80.535508 
L 362.811963 79.92943 
L 363.990858 79.323352 
L 365.169753 78.717275 
L 366.348648 78.111197 
L 367.527543 77.50512 
L 368.706438 76.899042 
L 369.885333 76.292965 
L 371.064228 75.686887 
L 372.243123 75.080809 
L 373.422018 74.474732 
L 374.600913 73.868654 
L 375.779808 73.262577 
L 376.958703 72.656499 
L 378.137598 72.050422 
L 379.316493 71.444344 
L 380.495388 70.838267 
L 381.674283 70.232189 
L 382.853178 69.626111 
L 384.032073 69.020034 
L 385.210968 68.413956 
L 386.389863 67.807879 
L 387.568758 67.201801 
L 388.747653 66.595724 
L 389.926548 65.989646 
L 391.105443 65.383568 
L 392.284338 64.777491 
L 393.463233 64.171413 
L 394.642128 63.565336 
L 395.821023 62.959258 
L 396.999918 62.353181 
L 398.178813 61.747103 
L 399.357708 61.141025 
L 400.536603 60.534948 
L 401.715498 59.92887 
L 402.894393 59.322793 
L 404.073288 58.716715 
L 405.252183 58.110638 
L 406.431078 57.50456 
L 407.609973 56.898482 
L 408.788868 56.292405 
L 409.967763 55.686327 
L 411.146658 55.08025 
L 412.325553 54.474172 
L 413.504448 53.868095 
L 414.683343 53.262017 
L 415.862238 52.655939 
L 417.041133 52.049862 
L 418.220028 51.443784 
L 419.398923 50.837707 
L 420.577818 50.231629 
L 421.756713 49.625552 
L 422.935608 49.019474 
L 424.114503 48.413396 
L 425.293398 47.807319 
L 426.472293 47.201241 
L 427.651188 46.595164 
L 428.830083 45.989086 
L 430.008978 45.383009 
L 431.187873 44.776931 
L 432.366768 44.170853 
L 433.545663 43.564776 
L 434.724558 42.958698 
L 435.903453 42.352621 
L 437.082348 41.746543 
L 438.261243 41.140466 
L 439.440138 40.534388 
L 440.619033 39.92831 
L 441.797928 39.322233 
L 442.976823 38.716155 
L 444.155718 38.110078 
L 445.334613 37.504 
L 446.513508 36.897923 
L 447.692403 36.291845 
L 448.871298 35.685768 
L 450.050193 35.07969 
L 451.229088 34.473612 
L 452.407983 33.867535 
L 453.586878 33.261457 
L 454.765773 32.65538 
L 455.944668 32.049302 
L 457.123563 31.443225 
L 458.302458 30.837147 
L 459.481353 30.231069 
L 460.660248 29.624992 
L 461.839143 29.018914 
L 463.018038 28.412837 
L 464.196933 27.806759 
L 465.375828 27.200682 
L 466.554723 26.594604 
L 467.733618 25.988526 
L 468.912513 25.382449 
L 470.091408 24.776371 
L 471.270303 24.170294 
L 472.449198 23.564216 
L 473.628093 22.958139 
L 474.806988 22.352061 
L 475.985883 21.745983 
L 477.164778 21.139906 
L 478.343673 20.533828 
L 479.522568 19.927751 
L 480.701463 19.321673 
L 481.880358 18.715596 
L 483.059253 18.109518 
L 484.238148 17.50344 
L 485.417043 16.897363 
L 486.595938 16.291285 
L 487.774833 15.685208 
L 488.953728 15.07913 
L 490.132623 14.473053 
L 491.311518 13.866975 
L 492.490413 13.260897 
L 493.669308 12.65482 
L 494.848203 12.048742 
L 496.027098 11.442665 
L 497.205993 10.836587 
L 498.384888 10.23051 
L 499.563783 9.624432 
L 500.742678 9.018354 
L 501.921573 8.412277 
L 503.100468 7.806199 
L 504.279363 7.200122 
L 505.458258 6.594044 
L 506.637153 5.987967 
L 507.816048 5.381889 
L 508.994943 4.775812 
L 510.173838 4.169734 
L 511.352733 3.563656 
L 512.531628 2.957579 
L 513.710523 2.351501 
L 514.889418 1.745424 
L 516.068313 1.139346 
L 517.247208 0.533269 
L 518.426103 -0.072809 
L 519.604998 -0.678887 
L 520.783893 -1.284964 
L 521.962788 -1.891042 
L 523.141683 -2.497119 
L 524.320578 -3.103197 
L 525.499473 -3.709274 
L 526.678368 -4.315352 
L 527.857263 -4.92143 
L 529.036158 -5.527507 
L 530.215053 -6.133585 
L 531.393948 -6.739662 
L 532.572843 -7.34574 
L 533.751738 -7.951817 
L 534.930633 -8.557895 
L 536.109528 -9.163973 
L 537.288423 -9.77005 
L 538.467318 -10.376128 
L 539.646213 -10.982205 
L 540.825108 -11.588283 
L 542.004003 -12.19436 
L 543.182898 -12.800438 
L 544.361793 -13.406516 
L 545.540688 -14.012593 
L 546.719583 -14.618671 
L 547.898478 -15.224748 
L 549.077373 -15.830826 
L 550.256268 -16.436903 
L 551.435163 -17.042981 
L 552.614058 -17.649059 
L 553.792953 -18.255136 
L 554.971848 -18.861214 
L 556.150743 -19.467291 
L 557.329638 -20.073369 
L 558.508533 -20.679446 
L 559.687428 -21.285524 
L 560.866323 -21.891602 
L 562.045218 -22.497679 
L 563.224113 -23.103757 
L 564.403008 -23.709834 
L 565.581903 -24.315912 
L 566.760798 -24.921989 
L 567.939693 -25.528067 
L 569.118588 -26.134144 
L 570.297483 -26.740222 
L 571.476378 -27.3463 
L 572.655273 -27.952377 
L 573.834168 -28.558455 
L 575.013063 -29.164532 
L 576.191958 -29.77061 
L 577.370853 -30.376687 
L 578.549748 -30.982765 
L 579.728643 -31.588843 
L 580.907538 -32.19492 
L 582.086433 -32.800998 
L 583.265328 -33.407075 
L 584.444223 -34.013153 
L 585.623118 -34.61923 
L 586.802013 -35.225308 
L 587.980908 -35.831386 
L 589.159803 -36.437463 
L 590.338698 -37.043541 
L 591.517593 -37.649618 
L 592.696488 -38.255696 
L 593.875383 -38.861773 
L 595.054278 -39.467851 
L 596.233173 -40.073929 
L 597.412068 -40.680006 
L 598.590963 -41.286084 
L 599.769858 -41.892161 
L 600.948753 -42.498239 
L 602.127648 -43.104316 
L 603.306543 -43.710394 
L 604.485438 -44.316472 
L 605.664333 -44.922549 
L 606.843228 -45.528627 
L 608.022123 -46.134704 
L 609.201018 -46.740782 
L 610.379913 -47.346859 
L 611.558808 -47.952937 
L 612.737703 -48.559015 
L 613.916598 -49.165092 
L 615.095493 -49.77117 
L 616.274388 -50.377247 
L 617.453284 -50.983325 
L 618.632179 -51.589402 
L 619.811074 -52.19548 
L 620.989969 -52.801558 
L 622.168864 -53.407635 
L 623.347759 -54.013713 
L 624.526654 -54.61979 
L 625.705549 -55.225868 
L 626.884444 -55.831945 
L 628.063339 -56.438023 
L 629.242234 -57.0441 
L 630.421129 -57.650178 
L 631.600024 -58.256256 
L 632.778919 -58.862333 
L 632.778919 -774.248527 
L 632.778919 -774.248527 
L 631.600024 -774.248527 
L 630.421129 -774.248527 
L 629.242234 -774.248527 
L 628.063339 -774.248527 
L 626.884444 -774.248527 
L 625.705549 -774.248527 
L 624.526654 -774.248527 
L 623.347759 -774.248527 
L 622.168864 -774.248527 
L 620.989969 -774.248527 
L 619.811074 -774.248527 
L 618.632179 -774.248527 
L 617.453284 -774.248527 
L 616.274388 -774.248527 
L 615.095493 -774.248527 
L 613.916598 -774.248527 
L 612.737703 -774.248527 
L 611.558808 -774.248527 
L 610.379913 -774.248527 
L 609.201018 -774.248527 
L 608.022123 -774.248527 
L 606.843228 -774.248527 
L 605.664333 -774.248527 
L 604.485438 -774.248527 
L 603.306543 -774.248527 
L 602.127648 -774.248527 
L 600.948753 -774.248527 
L 599.769858 -774.248527 
L 598.590963 -774.248527 
L 597.412068 -774.248527 
L 596.233173 -774.248527 
L 595.054278 -774.248527 
L 593.875383 -774.248527 
L 592.696488 -774.248527 
L 591.517593 -774.248527 
L 590.338698 -774.248527 
L 589.159803 -774.248527 
L 587.980908 -774.248527 
L 586.802013 -774.248527 
L 585.623118 -774.248527 
L 584.444223 -774.248527 
L 583.265328 -774.248527 
L 582.086433 -774.248527 
L 580.907538 -774.248527 
L 579.728643 -774.248527 
L 578.549748 -774.248527 
L 577.370853 -774.248527 
L 576.191958 -774.248527 
L 575.013063 -774.248527 
L 573.834168 -774.248527 
L 572.655273 -774.248527 
L 571.476378 -774.248527 
L 570.297483 -774.248527 
L 569.118588 -774.248527 
L 567.939693 -774.248527 
L 566.760798 -774.248527 
L 565.581903 -774.248527 
L 564.403008 -774.248527 
L 563.224113 -774.248527 
L 562.045218 -774.248527 
L 560.866323 -774.248527 
L 559.687428 -774.248527 
L 558.508533 -774.248527 
L 557.329638 -774.248527 
L 556.150743 -774.248527 
L 554.971848 -774.248527 
L 553.792953 -774.248527 
L 552.614058 -774.248527 
L 551.435163 -774.248527 
L 550.256268 -774.248527 
L 549.077373 -774.248527 
L 547.898478 -774.248527 
L 546.719583 -774.248527 
L 545.540688 -774.248527 
L 544.361793 -774.248527 
L 543.182898 -774.248527 
L 542.004003 -774.248527 
L 540.825108 -774.248527 
L 539.646213 -774.248527 
L 538.467318 -774.248527 
L 537.288423 -774.248527 
L 536.109528 -774.248527 
L 534.930633 -774.248527 
L 533.751738 -774.248527 
L 532.572843 -774.248527 
L 531.393948 -774.248527 
L 530.215053 -774.248527 
L 529.036158 -774.248527 
L 527.857263 -774.248527 
L 526.678368 -774.248527 
L 525.499473 -774.248527 
L 524.320578 -774.248527 
L 523.141683 -774.248527 
L 521.962788 -774.248527 
L 520.783893 -774.248527 
L 519.604998 -774.248527 
L 518.426103 -774.248527 
L 517.247208 -774.248527 
L 516.068313 -774.248527 
L 514.889418 -774.248527 
L 513.710523 -774.248527 
L 512.531628 -774.248527 
L 511.352733 -774.248527 
L 510.173838 -774.248527 
L 508.994943 -774.248527 
L 507.816048 -774.248527 
L 506.637153 -774.248527 
L 505.458258 -774.248527 
L 504.279363 -774.248527 
L 503.100468 -774.248527 
L 501.921573 -774.248527 
L 500.742678 -774.248527 
L 499.563783 -774.248527 
L 498.384888 -774.248527 
L 497.205993 -774.248527 
L 496.027098 -774.248527 
L 494.848203 -774.248527 
L 493.669308 -774.248527 
L 492.490413 -774.248527 
L 491.311518 -774.248527 
L 490.132623 -774.248527 
L 488.953728 -774.248527 
L 487.774833 -774.248527 
L 486.595938 -774.248527 
L 485.417043 -774.248527 
L 484.238148 -774.248527 
L 483.059253 -774.248527 
L 481.880358 -774.248527 
L 480.701463 -774.248527 
L 479.522568 -774.248527 
L 478.343673 -774.248527 
L 477.164778 -774.248527 
L 475.985883 -774.248527 
L 474.806988 -774.248527 
L 473.628093 -774.248527 
L 472.449198 -774.248527 
L 471.270303 -774.248527 
L 470.091408 -774.248527 
L 468.912513 -774.248527 
L 467.733618 -774.248527 
L 466.554723 -774.248527 
L 465.375828 -774.248527 
L 464.196933 -774.248527 
L 463.018038 -774.248527 
L 461.839143 -774.248527 
L 460.660248 -774.248527 
L 459.481353 -774.248527 
L 458.302458 -774.248527 
L 457.123563 -774.248527 
L 455.944668 -774.248527 
L 454.765773 -774.248527 
L 453.586878 -774.248527 
L 452.407983 -774.248527 
L 451.229088 -774.248527 
L 450.050193 -774.248527 
L 448.871298 -774.248527 
L 447.692403 -774.248527 
L 446.513508 -774.248527 
L 445.334613 -774.248527 
L 444.155718 -774.248527 
L 442.976823 -774.248527 
L 441.797928 -774.248527 
L 440.619033 -774.248527 
L 439.440138 -774.248527 
L 438.261243 -774.248527 
L 437.082348 -774.248527 
L 435.903453 -774.248527 
L 434.724558 -774.248527 
L 433.545663 -774.248527 
L 432.366768 -774.248527 
L 431.187873 -774.248527 
L 430.008978 -774.248527 
L 428.830083 -774.248527 
L 427.651188 -774.248527 
L 426.472293 -774.248527 
L 425.293398 -774.248527 
L 424.114503 -774.248527 
L 422.935608 -774.248527 
L 421.756713 -774.248527 
L 420.577818 -774.248527 
L 419.398923 -774.248527 
L 418.220028 -774.248527 
L 417.041133 -774.248527 
L 415.862238 -774.248527 
L 414.683343 -774.248527 
L 413.504448 -774.248527 
L 412.325553 -774.248527 
L 411.146658 -774.248527 
L 409.967763 -774.248527 
L 408.788868 -774.248527 
L 407.609973 -774.248527 
L 406.431078 -774.248527 
L 405.252183 -774.248527 
L 404.073288 -774.248527 
L 402.894393 -774.248527 
L 401.715498 -774.248527 
L 400.536603 -774.248527 
L 399.357708 -774.248527 
L 398.178813 -774.248527 
L 396.999918 -774.248527 
L 395.821023 -774.248527 
L 394.642128 -774.248527 
L 393.463233 -774.248527 
L 392.284338 -774.248527 
L 391.105443 -774.248527 
L 389.926548 -774.248527 
L 388.747653 -774.248527 
L 387.568758 -774.248527 
L 386.389863 -774.248527 
L 385.210968 -774.248527 
L 384.032073 -774.248527 
L 382.853178 -774.248527 
L 381.674283 -774.248527 
L 380.495388 -774.248527 
L 379.316493 -774.248527 
L 378.137598 -774.248527 
L 376.958703 -774.248527 
L 375.779808 -774.248527 
L 374.600913 -774.248527 
L 373.422018 -774.248527 
L 372.243123 -774.248527 
L 371.064228 -774.248527 
L 369.885333 -774.248527 
L 368.706438 -774.248527 
L 367.527543 -774.248527 
L 366.348648 -774.248527 
L 365.169753 -774.248527 
L 363.990858 -774.248527 
L 362.811963 -774.248527 
L 361.633068 -774.248527 
L 360.454173 -774.248527 
L 359.275278 -774.248527 
L 358.096383 -774.248527 
L 356.917488 -774.248527 
L 355.738593 -774.248527 
L 354.559698 -774.248527 
L 353.380803 -774.248527 
L 352.201908 -774.248527 
L 351.023013 -774.248527 
L 349.844118 -774.248527 
L 348.665223 -774.248527 
L 347.486328 -774.248527 
L 346.307433 -774.248527 
L 345.128538 -774.248527 
L 343.949643 -774.248527 
L 342.770748 -774.248527 
L 341.591853 -774.248527 
L 340.412958 -774.248527 
L 339.234063 -774.248527 
L 338.055168 -774.248527 
L 336.876273 -774.248527 
L 335.697378 -774.248527 
L 334.518483 -774.248527 
L 333.339588 -774.248527 
L 332.160693 -774.248527 
L 330.981798 -774.248527 
L 329.802903 -774.248527 
L 328.624008 -774.248527 
L 327.445113 -774.248527 
L 326.266218 -774.248527 
L 325.087323 -774.248527 
L 323.908428 -774.248527 
L 322.729533 -774.248527 
L 321.550638 -774.248527 
L 320.371743 -774.248527 
L 319.192848 -774.248527 
L 318.013953 -774.248527 
L 316.835058 -774.248527 
L 315.656163 -774.248527 
L 314.477268 -774.248527 
L 313.298373 -774.248527 
L 312.119478 -774.248527 
L 310.940583 -774.248527 
L 309.761688 -774.248527 
L 308.582793 -774.248527 
L 307.403898 -774.248527 
L 306.225003 -774.248527 
L 305.046108 -774.248527 
L 303.867213 -774.248527 
L 302.688318 -774.248527 
L 301.509423 -774.248527 
L 300.330528 -774.248527 
L 299.151633 -774.248527 
L 297.972738 -774.248527 
L 296.793843 -774.248527 
L 295.614948 -774.248527 
L 294.436053 -774.248527 
L 293.257158 -774.248527 
L 292.078263 -774.248527 
L 290.899368 -774.248527 
L 289.720473 -774.248527 
L 288.541578 -774.248527 
L 287.362683 -774.248527 
L 286.183788 -774.248527 
L 285.004893 -774.248527 
L 283.825998 -774.248527 
L 282.647103 -774.248527 
L 281.468208 -774.248527 
L 280.289313 -774.248527 
L 279.110418 -774.248527 
L 277.931523 -774.248527 
L 276.752628 -774.248527 
L 275.573733 -774.248527 
L 274.394838 -774.248527 
L 273.215943 -774.248527 
L 272.037048 -774.248527 
L 270.858153 -774.248527 
L 269.679258 -774.248527 
L 268.500363 -774.248527 
L 267.321468 -774.248527 
L 266.142573 -774.248527 
L 264.963678 -774.248527 
L 263.784783 -774.248527 
L 262.605888 -774.248527 
L 261.426993 -774.248527 
L 260.248098 -774.248527 
L 259.069203 -774.248527 
L 257.890308 -774.248527 
L 256.711413 -774.248527 
L 255.532518 -774.248527 
L 254.353623 -774.248527 
L 253.174728 -774.248527 
L 251.995833 -774.248527 
L 250.816938 -774.248527 
L 249.638043 -774.248527 
L 248.459148 -774.248527 
L 247.280253 -774.248527 
L 246.101358 -774.248527 
L 244.922463 -774.248527 
L 243.743568 -774.248527 
L 242.564673 -774.248527 
L 241.385778 -774.248527 
L 240.206883 -774.248527 
L 239.027988 -774.248527 
L 237.849093 -774.248527 
L 236.670198 -774.248527 
L 235.491303 -774.248527 
L 234.312408 -774.248527 
L 233.133513 -774.248527 
L 231.954618 -774.248527 
L 230.775723 -774.248527 
L 229.596828 -774.248527 
L 228.417933 -774.248527 
L 227.239038 -774.248527 
L 226.060143 -774.248527 
L 224.881248 -774.248527 
L 223.702353 -774.248527 
L 222.523458 -774.248527 
L 221.344563 -774.248527 
L 220.165668 -774.248527 
L 218.986773 -774.248527 
L 217.807878 -774.248527 
L 216.628983 -774.248527 
L 215.450088 -774.248527 
L 214.271193 -774.248527 
L 213.092298 -774.248527 
L 211.913403 -774.248527 
L 210.734508 -774.248527 
L 209.555613 -774.248527 
L 208.376718 -774.248527 
L 207.197823 -774.248527 
L 206.018928 -774.248527 
L 204.840033 -774.248527 
L 203.661138 -774.248527 
L 202.482243 -774.248527 
L 201.303348 -774.248527 
L 200.124453 -774.248527 
L 198.945558 -774.248527 
L 197.766663 -774.248527 
L 196.587768 -774.248527 
L 195.408873 -774.248527 
L 194.229978 -774.248527 
L 193.051083 -774.248527 
L 191.872188 -774.248527 
L 190.693293 -774.248527 
L 189.514398 -774.248527 
L 188.335503 -774.248527 
L 187.156608 -774.248527 
L 185.977713 -774.248527 
L 184.798818 -774.248527 
L 183.619923 -774.248527 
L 182.441028 -774.248527 
L 181.262133 -774.248527 
L 180.083238 -774.248527 
L 178.904343 -774.248527 
L 177.725448 -774.248527 
L 176.546553 -774.248527 
L 175.367658 -774.248527 
L 174.188763 -774.248527 
L 173.009868 -774.248527 
L 171.830973 -774.248527 
L 170.652078 -774.248527 
L 169.473183 -774.248527 
L 168.294288 -774.248527 
L 167.115393 -774.248527 
L 165.936498 -774.248527 
L 164.757603 -774.248527 
L 163.578708 -774.248527 
L 162.399813 -774.248527 
L 161.220918 -774.248527 
L 160.042023 -774.248527 
L 158.863128 -774.248527 
L 157.684233 -774.248527 
L 156.505338 -774.248527 
L 155.326443 -774.248527 
L 154.147548 -774.248527 
L 152.968653 -774.248527 
L 151.789758 -774.248527 
L 150.610863 -774.248527 
L 149.431968 -774.248527 
L 148.253073 -774.248527 
L 147.074178 -774.248527 
L 145.895283 -774.248527 
L 144.716388 -774.248527 
L 143.537493 -774.248527 
L 142.358598 -774.248527 
L 141.179703 -774.248527 
L 140.000808 -774.248527 
L 138.821913 -774.248527 
L 137.643018 -774.248527 
L 136.464123 -774.248527 
L 135.285228 -774.248527 
L 134.106333 -774.248527 
L 132.927438 -774.248527 
L 131.748543 -774.248527 
L 130.569648 -774.248527 
L 129.390753 -774.248527 
L 128.211858 -774.248527 
L 127.032963 -774.248527 
L 125.854068 -774.248527 
L 124.675173 -774.248527 
L 123.496278 -774.248527 
L 122.317383 -774.248527 
L 121.138488 -774.248527 
L 119.959593 -774.248527 
L 118.780698 -774.248527 
L 117.601803 -774.248527 
L 116.422908 -774.248527 
L 115.244013 -774.248527 
L 114.065118 -774.248527 
L 112.886223 -774.248527 
L 111.707328 -774.248527 
L 110.528433 -774.248527 
L 109.349538 -774.248527 
L 108.170643 -774.248527 
L 106.991748 -774.248527 
L 105.812853 -774.248527 
L 104.633958 -774.248527 
L 103.455063 -774.248527 
L 102.276168 -774.248527 
L 101.097273 -774.248527 
L 99.918378 -774.248527 
L 98.739483 -774.248527 
L 97.560588 -774.248527 
L 96.381693 -774.248527 
L 95.202798 -774.248527 
L 94.023903 -774.248527 
L 92.845008 -774.248527 
L 91.666113 -774.248527 
L 90.487218 -774.248527 
L 89.308323 -774.248527 
L 88.129428 -774.248527 
L 86.950533 -774.248527 
L 85.771638 -774.248527 
L 84.592743 -774.248527 
L 83.413848 -774.248527 
L 82.234953 -774.248527 
L 81.056058 -774.248527 
L 79.877163 -774.248527 
L 78.698268 -774.248527 
L 77.519373 -774.248527 
L 76.340478 -774.248527 
L 75.161583 -774.248527 
L 73.982688 -774.248527 
L 72.803793 -774.248527 
L 71.624898 -774.248527 
L 70.446003 -774.248527 
L 69.267108 -774.248527 
L 68.088213 -774.248527 
L 66.909318 -774.248527 
L 65.730423 -774.248527 
L 64.551528 -774.248527 
L 63.372633 -774.248527 
L 62.193738 -774.248527 
L 61.014843 -774.248527 
L 59.835948 -774.248527 
L 58.657053 -774.248527 
L 57.478158 -774.248527 
L 56.299263 -774.248527 
L 55.120368 -774.248527 
L 53.941473 -774.248527 
L 52.762578 -774.248527 
L 51.583683 -774.248527 
L 50.404788 -774.248527 
L 49.225893 -774.248527 
L 48.046998 -774.248527 
L 46.868103 -774.248527 
L 45.689208 -774.248527 
L 44.510312 -774.248527 
z
" clip-path="url(#peb8d785356)" style="fill: #eceff1; fill-opacity: 0.45; stroke: #eceff1; stroke-opacity: 0.45"/>
   </g>
   <g id="matplotlib.axis_1">
    <g id="xtick_1">
     <g id="line2d_1">
      <path d="M 388.935855 371.540982 
L 388.935855 22.318125 
" clip-path="url(#peb8d785356)" style="fill: none; stroke: #f4f4f4; stroke-width: 0.8; stroke-linecap: square"/>
     </g>
     <g id="line2d_2">
      <defs>
       <path id="mbdfb127ef5" d="M 0 0 
L 0 3.5 
" style="stroke: #000000; stroke-width: 0.8"/>
      </defs>
      <g>
       <use xlink:href="#mbdfb127ef5" x="388.935855" y="371.540982" style="stroke: #000000; stroke-width: 0.8"/>
      </g>
     </g>
     <g id="text_1">
      <!-- $\mathdefault{10^{0}}$ -->
      <g transform="translate(380.135855 386.13942) scale(0.1 -0.1)">
       <defs>
        <path id="DejaVuSans-31" d="M 794 531 
L 1825 531 
L 1825 4091 
L 703 3866 
L 703 4441 
L 1819 4666 
L 2450 4666 
L 2450 531 
L 3481 531 
L 3481 0 
L 794 0 
L 794 531 
z
" transform="scale(0.015625)"/>
        <path id="DejaVuSans-30" d="M 2034 4250 
Q 1547 4250 1301 3770 
Q 1056 3291 1056 2328 
Q 1056 1369 1301 889 
Q 1547 409 2034 409 
Q 2525 409 2770 889 
Q 3016 1369 3016 2328 
Q 3016 3291 2770 3770 
Q 2525 4250 2034 4250 
z
M 2034 4750 
Q 2819 4750 3233 4129 
Q 3647 3509 3647 2328 
Q 3647 1150 3233 529 
Q 2819 -91 2034 -91 
Q 1250 -91 836 529 
Q 422 1150 422 2328 
Q 422 3509 836 4129 
Q 1250 4750 2034 4750 
z
" transform="scale(0.015625)"/>
       </defs>
       <use xlink:href="#DejaVuSans-31" transform="translate(0 0.765625)"/>
       <use xlink:href="#DejaVuSans-30" transform="translate(63.623047 0.765625)"/>
       <use xlink:href="#DejaVuSans-30" transform="translate(128.203125 39.046875) scale(0.7)"/>
      </g>
     </g>
    </g>
    <g id="xtick_2">
     <g id="line2d_3">
      <path d="M 44.510312 371.540982 
L 44.510312 22.318125 
" clip-path="url(#peb8d785356)" style="fill: none; stroke: #f4f4f4; stroke-width: 0.8; stroke-linecap: square"/>
     </g>
     <g id="line2d_4">
      <defs>
       <path id="mf5fb536eb5" d="M 0 0 
L 0 2 
" style="stroke: #000000; stroke-width: 0.6"/>
      </defs>
      <g>
       <use xlink:href="#mf5fb536eb5" x="44.510312" y="371.540982" style="stroke: #000000; stroke-width: 0.6"/>
      </g>
     </g>
    </g>
    <g id="xtick_3">
     <g id="line2d_5">
      <path d="M 131.281314 371.540982 
L 131.281314 22.318125 
" clip-path="url(#peb8d785356)" style="fill: none; stroke: #f4f4f4; stroke-width: 0.8; stroke-linecap: square"/>
     </g>
     <g id="line2d_6">
      <g>
       <use xlink:href="#mf5fb536eb5" x="131.281314" y="371.540982" style="stroke: #000000; stroke-width: 0.6"/>
      </g>
     </g>
    </g>
    <g id="xtick_4">
     <g id="line2d_7">
      <path d="M 192.84632 371.540982 
L 192.84632 22.318125 
" clip-path="url(#peb8d785356)" style="fill: none; stroke: #f4f4f4; stroke-width: 0.8; stroke-linecap: square"/>
     </g>
     <g id="line2d_8">
      <g>
       <use xlink:href="#mf5fb536eb5" x="192.84632" y="371.540982" style="stroke: #000000; stroke-width: 0.6"/>
      </g>
     </g>
    </g>
    <g id="xtick_5">
     <g id="line2d_9">
      <path d="M 240.599848 371.540982 
L 240.599848 22.318125 
" clip-path="url(#peb8d785356)" style="fill: none; stroke: #f4f4f4; stroke-width: 0.8; stroke-linecap: square"/>
     </g>
     <g id="line2d_10">
      <g>
       <use xlink:href="#mf5fb536eb5" x="240.599848" y="371.540982" style="stroke: #000000; stroke-width: 0.6"/>
      </g>
     </g>
    </g>
    <g id="xtick_6">
     <g id="line2d_11">
      <path d="M 279.617321 371.540982 
L 279.617321 22.318125 
" clip-path="url(#peb8d785356)" style="fill: none; stroke: #f4f4f4; stroke-width: 0.8; stroke-linecap: square"/>
     </g>
     <g id="line2d_12">
      <g>
       <use xlink:href="#mf5fb536eb5" x="279.617321" y="371.540982" style="stroke: #000000; stroke-width: 0.6"/>
      </g>
     </g>
    </g>
    <g id="xtick_7">
     <g id="line2d_13">
      <path d="M 312.606125 371.540982 
L 312.606125 22.318125 
" clip-path="url(#peb8d785356)" style="fill: none; stroke: #f4f4f4; stroke-width: 0.8; stroke-linecap: square"/>
     </g>
     <g id="line2d_14">
      <g>
       <use xlink:href="#mf5fb536eb5" x="312.606125" y="371.540982" style="stroke: #000000; stroke-width: 0.6"/>
      </g>
     </g>
    </g>
    <g id="xtick_8">
     <g id="line2d_15">
      <path d="M 341.182327 371.540982 
L 341.182327 22.318125 
" clip-path="url(#peb8d785356)" style="fill: none; stroke: #f4f4f4; stroke-width: 0.8; stroke-linecap: square"/>
     </g>
     <g id="line2d_16">
      <g>
       <use xlink:href="#mf5fb536eb5" x="341.182327" y="371.540982" style="stroke: #000000; stroke-width: 0.6"/>
      </g>
     </g>
    </g>
    <g id="xtick_9">
     <g id="line2d_17">
      <path d="M 366.388323 371.540982 
L 366.388323 22.318125 
" clip-path="url(#peb8d785356)" style="fill: none; stroke: #f4f4f4; stroke-width: 0.8; stroke-linecap: square"/>
     </g>
     <g id="line2d_18">
      <g>
       <use xlink:href="#mf5fb536eb5" x="366.388323" y="371.540982" style="stroke: #000000; stroke-width: 0.6"/>
      </g>
     </g>
    </g>
    <g id="xtick_10">
     <g id="line2d_19">
      <path d="M 537.271862 371.540982 
L 537.271862 22.318125 
" clip-path="url(#peb8d785356)" style="fill: none; stroke: #f4f4f4; stroke-width: 0.8; stroke-linecap: square"/>
     </g>
     <g id="line2d_20">
      <g>
       <use xlink:href="#mf5fb536eb5" x="537.271862" y="371.540982" style="stroke: #000000; stroke-width: 0.6"/>
      </g>
     </g>
    </g>
    <g id="xtick_11">
     <g id="line2d_21">
      <path d="M 624.042864 371.540982 
L 624.042864 22.318125 
" clip-path="url(#peb8d785356)" style="fill: none; stroke: #f4f4f4; stroke-width: 0.8; stroke-linecap: square"/>
     </g>
     <g id="line2d_22">
      <g>
       <use xlink:href="#mf5fb536eb5" x="624.042864" y="371.540982" style="stroke: #000000; stroke-width: 0.6"/>
      </g>
     </g>
    </g>
    <g id="text_2">
     <!-- Arithmetic intensity  (FLOP / byte) -->
     <g transform="translate(262.281022 399.057701) scale(0.09 -0.09)">
      <defs>
       <path id="DejaVuSans-41" d="M 2188 4044 
L 1331 1722 
L 3047 1722 
L 2188 4044 
z
M 1831 4666 
L 2547 4666 
L 4325 0 
L 3669 0 
L 3244 1197 
L 1141 1197 
L 716 0 
L 50 0 
L 1831 4666 
z
" transform="scale(0.015625)"/>
       <path id="DejaVuSans-72" d="M 2631 2963 
Q 2534 3019 2420 3045 
Q 2306 3072 2169 3072 
Q 1681 3072 1420 2755 
Q 1159 2438 1159 1844 
L 1159 0 
L 581 0 
L 581 3500 
L 1159 3500 
L 1159 2956 
Q 1341 3275 1631 3429 
Q 1922 3584 2338 3584 
Q 2397 3584 2469 3576 
Q 2541 3569 2628 3553 
L 2631 2963 
z
" transform="scale(0.015625)"/>
       <path id="DejaVuSans-69" d="M 603 3500 
L 1178 3500 
L 1178 0 
L 603 0 
L 603 3500 
z
M 603 4863 
L 1178 4863 
L 1178 4134 
L 603 4134 
L 603 4863 
z
" transform="scale(0.015625)"/>
       <path id="DejaVuSans-74" d="M 1172 4494 
L 1172 3500 
L 2356 3500 
L 2356 3053 
L 1172 3053 
L 1172 1153 
Q 1172 725 1289 603 
Q 1406 481 1766 481 
L 2356 481 
L 2356 0 
L 1766 0 
Q 1100 0 847 248 
Q 594 497 594 1153 
L 594 3053 
L 172 3053 
L 172 3500 
L 594 3500 
L 594 4494 
L 1172 4494 
z
" transform="scale(0.015625)"/>
       <path id="DejaVuSans-68" d="M 3513 2113 
L 3513 0 
L 2938 0 
L 2938 2094 
Q 2938 2591 2744 2837 
Q 2550 3084 2163 3084 
Q 1697 3084 1428 2787 
Q 1159 2491 1159 1978 
L 1159 0 
L 581 0 
L 581 4863 
L 1159 4863 
L 1159 2956 
Q 1366 3272 1645 3428 
Q 1925 3584 2291 3584 
Q 2894 3584 3203 3211 
Q 3513 2838 3513 2113 
z
" transform="scale(0.015625)"/>
       <path id="DejaVuSans-6d" d="M 3328 2828 
Q 3544 3216 3844 3400 
Q 4144 3584 4550 3584 
Q 5097 3584 5394 3201 
Q 5691 2819 5691 2113 
L 5691 0 
L 5113 0 
L 5113 2094 
Q 5113 2597 4934 2840 
Q 4756 3084 4391 3084 
Q 3944 3084 3684 2787 
Q 3425 2491 3425 1978 
L 3425 0 
L 2847 0 
L 2847 2094 
Q 2847 2600 2669 2842 
Q 2491 3084 2119 3084 
Q 1678 3084 1418 2786 
Q 1159 2488 1159 1978 
L 1159 0 
L 581 0 
L 581 3500 
L 1159 3500 
L 1159 2956 
Q 1356 3278 1631 3431 
Q 1906 3584 2284 3584 
Q 2666 3584 2933 3390 
Q 3200 3197 3328 2828 
z
" transform="scale(0.015625)"/>
       <path id="DejaVuSans-65" d="M 3597 1894 
L 3597 1613 
L 953 1613 
Q 991 1019 1311 708 
Q 1631 397 2203 397 
Q 2534 397 2845 478 
Q 3156 559 3463 722 
L 3463 178 
Q 3153 47 2828 -22 
Q 2503 -91 2169 -91 
Q 1331 -91 842 396 
Q 353 884 353 1716 
Q 353 2575 817 3079 
Q 1281 3584 2069 3584 
Q 2775 3584 3186 3129 
Q 3597 2675 3597 1894 
z
M 3022 2063 
Q 3016 2534 2758 2815 
Q 2500 3097 2075 3097 
Q 1594 3097 1305 2825 
Q 1016 2553 972 2059 
L 3022 2063 
z
" transform="scale(0.015625)"/>
       <path id="DejaVuSans-63" d="M 3122 3366 
L 3122 2828 
Q 2878 2963 2633 3030 
Q 2388 3097 2138 3097 
Q 1578 3097 1268 2742 
Q 959 2388 959 1747 
Q 959 1106 1268 751 
Q 1578 397 2138 397 
Q 2388 397 2633 464 
Q 2878 531 3122 666 
L 3122 134 
Q 2881 22 2623 -34 
Q 2366 -91 2075 -91 
Q 1284 -91 818 406 
Q 353 903 353 1747 
Q 353 2603 823 3093 
Q 1294 3584 2113 3584 
Q 2378 3584 2631 3529 
Q 2884 3475 3122 3366 
z
" transform="scale(0.015625)"/>
       <path id="DejaVuSans-20" transform="scale(0.015625)"/>
       <path id="DejaVuSans-6e" d="M 3513 2113 
L 3513 0 
L 2938 0 
L 2938 2094 
Q 2938 2591 2744 2837 
Q 2550 3084 2163 3084 
Q 1697 3084 1428 2787 
Q 1159 2491 1159 1978 
L 1159 0 
L 581 0 
L 581 3500 
L 1159 3500 
L 1159 2956 
Q 1366 3272 1645 3428 
Q 1925 3584 2291 3584 
Q 2894 3584 3203 3211 
Q 3513 2838 3513 2113 
z
" transform="scale(0.015625)"/>
       <path id="DejaVuSans-73" d="M 2834 3397 
L 2834 2853 
Q 2591 2978 2328 3040 
Q 2066 3103 1784 3103 
Q 1356 3103 1142 2972 
Q 928 2841 928 2578 
Q 928 2378 1081 2264 
Q 1234 2150 1697 2047 
L 1894 2003 
Q 2506 1872 2764 1633 
Q 3022 1394 3022 966 
Q 3022 478 2636 193 
Q 2250 -91 1575 -91 
Q 1294 -91 989 -36 
Q 684 19 347 128 
L 347 722 
Q 666 556 975 473 
Q 1284 391 1588 391 
Q 1994 391 2212 530 
Q 2431 669 2431 922 
Q 2431 1156 2273 1281 
Q 2116 1406 1581 1522 
L 1381 1569 
Q 847 1681 609 1914 
Q 372 2147 372 2553 
Q 372 3047 722 3315 
Q 1072 3584 1716 3584 
Q 2034 3584 2315 3537 
Q 2597 3491 2834 3397 
z
" transform="scale(0.015625)"/>
       <path id="DejaVuSans-79" d="M 2059 -325 
Q 1816 -950 1584 -1140 
Q 1353 -1331 966 -1331 
L 506 -1331 
L 506 -850 
L 844 -850 
Q 1081 -850 1212 -737 
Q 1344 -625 1503 -206 
L 1606 56 
L 191 3500 
L 800 3500 
L 1894 763 
L 2988 3500 
L 3597 3500 
L 2059 -325 
z
" transform="scale(0.015625)"/>
       <path id="DejaVuSans-28" d="M 1984 4856 
Q 1566 4138 1362 3434 
Q 1159 2731 1159 2009 
Q 1159 1288 1364 580 
Q 1569 -128 1984 -844 
L 1484 -844 
Q 1016 -109 783 600 
Q 550 1309 550 2009 
Q 550 2706 781 3412 
Q 1013 4119 1484 4856 
L 1984 4856 
z
" transform="scale(0.015625)"/>
       <path id="DejaVuSans-46" d="M 628 4666 
L 3309 4666 
L 3309 4134 
L 1259 4134 
L 1259 2759 
L 3109 2759 
L 3109 2228 
L 1259 2228 
L 1259 0 
L 628 0 
L 628 4666 
z
" transform="scale(0.015625)"/>
       <path id="DejaVuSans-4c" d="M 628 4666 
L 1259 4666 
L 1259 531 
L 3531 531 
L 3531 0 
L 628 0 
L 628 4666 
z
" transform="scale(0.015625)"/>
       <path id="DejaVuSans-4f" d="M 2522 4238 
Q 1834 4238 1429 3725 
Q 1025 3213 1025 2328 
Q 1025 1447 1429 934 
Q 1834 422 2522 422 
Q 3209 422 3611 934 
Q 4013 1447 4013 2328 
Q 4013 3213 3611 3725 
Q 3209 4238 2522 4238 
z
M 2522 4750 
Q 3503 4750 4090 4092 
Q 4678 3434 4678 2328 
Q 4678 1225 4090 567 
Q 3503 -91 2522 -91 
Q 1538 -91 948 565 
Q 359 1222 359 2328 
Q 359 3434 948 4092 
Q 1538 4750 2522 4750 
z
" transform="scale(0.015625)"/>
       <path id="DejaVuSans-50" d="M 1259 4147 
L 1259 2394 
L 2053 2394 
Q 2494 2394 2734 2622 
Q 2975 2850 2975 3272 
Q 2975 3691 2734 3919 
Q 2494 4147 2053 4147 
L 1259 4147 
z
M 628 4666 
L 2053 4666 
Q 2838 4666 3239 4311 
Q 3641 3956 3641 3272 
Q 3641 2581 3239 2228 
Q 2838 1875 2053 1875 
L 1259 1875 
L 1259 0 
L 628 0 
L 628 4666 
z
" transform="scale(0.015625)"/>
       <path id="DejaVuSans-2f" d="M 1625 4666 
L 2156 4666 
L 531 -594 
L 0 -594 
L 1625 4666 
z
" transform="scale(0.015625)"/>
       <path id="DejaVuSans-62" d="M 3116 1747 
Q 3116 2381 2855 2742 
Q 2594 3103 2138 3103 
Q 1681 3103 1420 2742 
Q 1159 2381 1159 1747 
Q 1159 1113 1420 752 
Q 1681 391 2138 391 
Q 2594 391 2855 752 
Q 3116 1113 3116 1747 
z
M 1159 2969 
Q 1341 3281 1617 3432 
Q 1894 3584 2278 3584 
Q 2916 3584 3314 3078 
Q 3713 2572 3713 1747 
Q 3713 922 3314 415 
Q 2916 -91 2278 -91 
Q 1894 -91 1617 61 
Q 1341 213 1159 525 
L 1159 0 
L 581 0 
L 581 4863 
L 1159 4863 
L 1159 2969 
z
" transform="scale(0.015625)"/>
       <path id="DejaVuSans-29" d="M 513 4856 
L 1013 4856 
Q 1481 4119 1714 3412 
Q 1947 2706 1947 2009 
Q 1947 1309 1714 600 
Q 1481 -109 1013 -844 
L 513 -844 
Q 928 -128 1133 580 
Q 1338 1288 1338 2009 
Q 1338 2731 1133 3434 
Q 928 4138 513 4856 
z
" transform="scale(0.015625)"/>
      </defs>
      <use xlink:href="#DejaVuSans-41"/>
      <use xlink:href="#DejaVuSans-72" transform="translate(68.408203 0)"/>
      <use xlink:href="#DejaVuSans-69" transform="translate(109.521484 0)"/>
      <use xlink:href="#DejaVuSans-74" transform="translate(137.304688 0)"/>
      <use xlink:href="#DejaVuSans-68" transform="translate(176.513672 0)"/>
      <use xlink:href="#DejaVuSans-6d" transform="translate(239.892578 0)"/>
      <use xlink:href="#DejaVuSans-65" transform="translate(337.304688 0)"/>
      <use xlink:href="#DejaVuSans-74" transform="translate(398.828125 0)"/>
      <use xlink:href="#DejaVuSans-69" transform="translate(438.037109 0)"/>
      <use xlink:href="#DejaVuSans-63" transform="translate(465.820312 0)"/>
      <use xlink:href="#DejaVuSans-20" transform="translate(520.800781 0)"/>
      <use xlink:href="#DejaVuSans-69" transform="translate(552.587891 0)"/>
      <use xlink:href="#DejaVuSans-6e" transform="translate(580.371094 0)"/>
      <use xlink:href="#DejaVuSans-74" transform="translate(643.75 0)"/>
      <use xlink:href="#DejaVuSans-65" transform="translate(682.958984 0)"/>
      <use xlink:href="#DejaVuSans-6e" transform="translate(744.482422 0)"/>
      <use xlink:href="#DejaVuSans-73" transform="translate(807.861328 0)"/>
      <use xlink:href="#DejaVuSans-69" transform="translate(859.960938 0)"/>
      <use xlink:href="#DejaVuSans-74" transform="translate(887.744141 0)"/>
      <use xlink:href="#DejaVuSans-79" transform="translate(926.953125 0)"/>
      <use xlink:href="#DejaVuSans-20" transform="translate(986.132812 0)"/>
      <use xlink:href="#DejaVuSans-20" transform="translate(1017.919922 0)"/>
      <use xlink:href="#DejaVuSans-28" transform="translate(1049.707031 0)"/>
      <use xlink:href="#DejaVuSans-46" transform="translate(1088.720703 0)"/>
      <use xlink:href="#DejaVuSans-4c" transform="translate(1146.240234 0)"/>
      <use xlink:href="#DejaVuSans-4f" transform="translate(1198.328125 0)"/>
      <use xlink:href="#DejaVuSans-50" transform="translate(1277.039062 0)"/>
      <use xlink:href="#DejaVuSans-20" transform="translate(1337.341797 0)"/>
      <use xlink:href="#DejaVuSans-2f" transform="translate(1369.128906 0)"/>
      <use xlink:href="#DejaVuSans-20" transform="translate(1402.820312 0)"/>
      <use xlink:href="#DejaVuSans-62" transform="translate(1434.607422 0)"/>
      <use xlink:href="#DejaVuSans-79" transform="translate(1498.083984 0)"/>
      <use xlink:href="#DejaVuSans-74" transform="translate(1557.263672 0)"/>
      <use xlink:href="#DejaVuSans-65" transform="translate(1596.472656 0)"/>
      <use xlink:href="#DejaVuSans-29" transform="translate(1657.996094 0)"/>
     </g>
    </g>
   </g>
   <g id="matplotlib.axis_2">
    <g id="ytick_1">
     <g id="line2d_23">
      <path d="M 44.510313 239.079111 
L 632.778919 239.079111 
" clip-path="url(#peb8d785356)" style="fill: none; stroke: #f4f4f4; stroke-width: 0.8; stroke-linecap: square"/>
     </g>
     <g id="line2d_24">
      <defs>
       <path id="mff33d253cf" d="M 0 0 
L -3.5 0 
" style="stroke: #000000; stroke-width: 0.8"/>
      </defs>
      <g>
       <use xlink:href="#mff33d253cf" x="44.510313" y="239.079111" style="stroke: #000000; stroke-width: 0.8"/>
      </g>
     </g>
     <g id="text_3">
      <!-- $\mathdefault{10^{0}}$ -->
      <g transform="translate(19.910313 242.87833) scale(0.1 -0.1)">
       <use xlink:href="#DejaVuSans-31" transform="translate(0 0.765625)"/>
       <use xlink:href="#DejaVuSans-30" transform="translate(63.623047 0.765625)"/>
       <use xlink:href="#DejaVuSans-30" transform="translate(128.203125 39.046875) scale(0.7)"/>
      </g>
     </g>
    </g>
    <g id="ytick_2">
     <g id="line2d_25">
      <path d="M 44.510313 371.540982 
L 632.778919 371.540982 
" clip-path="url(#peb8d785356)" style="fill: none; stroke: #f4f4f4; stroke-width: 0.8; stroke-linecap: square"/>
     </g>
     <g id="line2d_26">
      <defs>
       <path id="mf68cb3c199" d="M 0 0 
L -2 0 
" style="stroke: #000000; stroke-width: 0.6"/>
      </defs>
      <g>
       <use xlink:href="#mf68cb3c199" x="44.510313" y="371.540982" style="stroke: #000000; stroke-width: 0.6"/>
      </g>
     </g>
    </g>
    <g id="ytick_3">
     <g id="line2d_27">
      <path d="M 44.510313 339.890013 
L 632.778919 339.890013 
" clip-path="url(#peb8d785356)" style="fill: none; stroke: #f4f4f4; stroke-width: 0.8; stroke-linecap: square"/>
     </g>
     <g id="line2d_28">
      <g>
       <use xlink:href="#mf68cb3c199" x="44.510313" y="339.890013" style="stroke: #000000; stroke-width: 0.6"/>
      </g>
     </g>
    </g>
    <g id="ytick_4">
     <g id="line2d_29">
      <path d="M 44.510313 315.339615 
L 632.778919 315.339615 
" clip-path="url(#peb8d785356)" style="fill: none; stroke: #f4f4f4; stroke-width: 0.8; stroke-linecap: square"/>
     </g>
     <g id="line2d_30">
      <g>
       <use xlink:href="#mf68cb3c199" x="44.510313" y="315.339615" style="stroke: #000000; stroke-width: 0.6"/>
      </g>
     </g>
    </g>
    <g id="ytick_5">
     <g id="line2d_31">
      <path d="M 44.510313 295.280479 
L 632.778919 295.280479 
" clip-path="url(#peb8d785356)" style="fill: none; stroke: #f4f4f4; stroke-width: 0.8; stroke-linecap: square"/>
     </g>
     <g id="line2d_32">
      <g>
       <use xlink:href="#mf68cb3c199" x="44.510313" y="295.280479" style="stroke: #000000; stroke-width: 0.6"/>
      </g>
     </g>
    </g>
    <g id="ytick_6">
     <g id="line2d_33">
      <path d="M 44.510313 278.32072 
L 632.778919 278.32072 
" clip-path="url(#peb8d785356)" style="fill: none; stroke: #f4f4f4; stroke-width: 0.8; stroke-linecap: square"/>
     </g>
     <g id="line2d_34">
      <g>
       <use xlink:href="#mf68cb3c199" x="44.510313" y="278.32072" style="stroke: #000000; stroke-width: 0.6"/>
      </g>
     </g>
    </g>
    <g id="ytick_7">
     <g id="line2d_35">
      <path d="M 44.510313 263.62951 
L 632.778919 263.62951 
" clip-path="url(#peb8d785356)" style="fill: none; stroke: #f4f4f4; stroke-width: 0.8; stroke-linecap: square"/>
     </g>
     <g id="line2d_36">
      <g>
       <use xlink:href="#mf68cb3c199" x="44.510313" y="263.62951" style="stroke: #000000; stroke-width: 0.6"/>
      </g>
     </g>
    </g>
    <g id="ytick_8">
     <g id="line2d_37">
      <path d="M 44.510313 250.670944 
L 632.778919 250.670944 
" clip-path="url(#peb8d785356)" style="fill: none; stroke: #f4f4f4; stroke-width: 0.8; stroke-linecap: square"/>
     </g>
     <g id="line2d_38">
      <g>
       <use xlink:href="#mf68cb3c199" x="44.510313" y="250.670944" style="stroke: #000000; stroke-width: 0.6"/>
      </g>
     </g>
    </g>
    <g id="ytick_9">
     <g id="line2d_39">
      <path d="M 44.510313 162.818608 
L 632.778919 162.818608 
" clip-path="url(#peb8d785356)" style="fill: none; stroke: #f4f4f4; stroke-width: 0.8; stroke-linecap: square"/>
     </g>
     <g id="line2d_40">
      <g>
       <use xlink:href="#mf68cb3c199" x="44.510313" y="162.818608" style="stroke: #000000; stroke-width: 0.6"/>
      </g>
     </g>
    </g>
    <g id="ytick_10">
     <g id="line2d_41">
      <path d="M 44.510313 118.209073 
L 632.778919 118.209073 
" clip-path="url(#peb8d785356)" style="fill: none; stroke: #f4f4f4; stroke-width: 0.8; stroke-linecap: square"/>
     </g>
     <g id="line2d_42">
      <g>
       <use xlink:href="#mf68cb3c199" x="44.510313" y="118.209073" style="stroke: #000000; stroke-width: 0.6"/>
      </g>
     </g>
    </g>
    <g id="ytick_11">
     <g id="line2d_43">
      <path d="M 44.510313 86.558104 
L 632.778919 86.558104 
" clip-path="url(#peb8d785356)" style="fill: none; stroke: #f4f4f4; stroke-width: 0.8; stroke-linecap: square"/>
     </g>
     <g id="line2d_44">
      <g>
       <use xlink:href="#mf68cb3c199" x="44.510313" y="86.558104" style="stroke: #000000; stroke-width: 0.6"/>
      </g>
     </g>
    </g>
    <g id="ytick_12">
     <g id="line2d_45">
      <path d="M 44.510313 62.007705 
L 632.778919 62.007705 
" clip-path="url(#peb8d785356)" style="fill: none; stroke: #f4f4f4; stroke-width: 0.8; stroke-linecap: square"/>
     </g>
     <g id="line2d_46">
      <g>
       <use xlink:href="#mf68cb3c199" x="44.510313" y="62.007705" style="stroke: #000000; stroke-width: 0.6"/>
      </g>
     </g>
    </g>
    <g id="ytick_13">
     <g id="line2d_47">
      <path d="M 44.510313 41.948569 
L 632.778919 41.948569 
" clip-path="url(#peb8d785356)" style="fill: none; stroke: #f4f4f4; stroke-width: 0.8; stroke-linecap: square"/>
     </g>
     <g id="line2d_48">
      <g>
       <use xlink:href="#mf68cb3c199" x="44.510313" y="41.948569" style="stroke: #000000; stroke-width: 0.6"/>
      </g>
     </g>
    </g>
    <g id="ytick_14">
     <g id="line2d_49">
      <path d="M 44.510313 24.988811 
L 632.778919 24.988811 
" clip-path="url(#peb8d785356)" style="fill: none; stroke: #f4f4f4; stroke-width: 0.8; stroke-linecap: square"/>
     </g>
     <g id="line2d_50">
      <g>
       <use xlink:href="#mf68cb3c199" x="44.510313" y="24.988811" style="stroke: #000000; stroke-width: 0.6"/>
      </g>
     </g>
    </g>
    <g id="text_4">
     <!-- Achieved TFLOPS -->
     <g transform="translate(14.038594 235.787054) rotate(-90) scale(0.09 -0.09)">
      <defs>
       <path id="DejaVuSans-76" d="M 191 3500 
L 800 3500 
L 1894 563 
L 2988 3500 
L 3597 3500 
L 2284 0 
L 1503 0 
L 191 3500 
z
" transform="scale(0.015625)"/>
       <path id="DejaVuSans-64" d="M 2906 2969 
L 2906 4863 
L 3481 4863 
L 3481 0 
L 2906 0 
L 2906 525 
Q 2725 213 2448 61 
Q 2172 -91 1784 -91 
Q 1150 -91 751 415 
Q 353 922 353 1747 
Q 353 2572 751 3078 
Q 1150 3584 1784 3584 
Q 2172 3584 2448 3432 
Q 2725 3281 2906 2969 
z
M 947 1747 
Q 947 1113 1208 752 
Q 1469 391 1925 391 
Q 2381 391 2643 752 
Q 2906 1113 2906 1747 
Q 2906 2381 2643 2742 
Q 2381 3103 1925 3103 
Q 1469 3103 1208 2742 
Q 947 2381 947 1747 
z
" transform="scale(0.015625)"/>
       <path id="DejaVuSans-54" d="M -19 4666 
L 3928 4666 
L 3928 4134 
L 2272 4134 
L 2272 0 
L 1638 0 
L 1638 4134 
L -19 4134 
L -19 4666 
z
" transform="scale(0.015625)"/>
       <path id="DejaVuSans-53" d="M 3425 4513 
L 3425 3897 
Q 3066 4069 2747 4153 
Q 2428 4238 2131 4238 
Q 1616 4238 1336 4038 
Q 1056 3838 1056 3469 
Q 1056 3159 1242 3001 
Q 1428 2844 1947 2747 
L 2328 2669 
Q 3034 2534 3370 2195 
Q 3706 1856 3706 1288 
Q 3706 609 3251 259 
Q 2797 -91 1919 -91 
Q 1588 -91 1214 -16 
Q 841 59 441 206 
L 441 856 
Q 825 641 1194 531 
Q 1563 422 1919 422 
Q 2459 422 2753 634 
Q 3047 847 3047 1241 
Q 3047 1584 2836 1778 
Q 2625 1972 2144 2069 
L 1759 2144 
Q 1053 2284 737 2584 
Q 422 2884 422 3419 
Q 422 4038 858 4394 
Q 1294 4750 2059 4750 
Q 2388 4750 2728 4690 
Q 3069 4631 3425 4513 
z
" transform="scale(0.015625)"/>
      </defs>
      <use xlink:href="#DejaVuSans-41"/>
      <use xlink:href="#DejaVuSans-63" transform="translate(66.658203 0)"/>
      <use xlink:href="#DejaVuSans-68" transform="translate(121.638672 0)"/>
      <use xlink:href="#DejaVuSans-69" transform="translate(185.017578 0)"/>
      <use xlink:href="#DejaVuSans-65" transform="translate(212.800781 0)"/>
      <use xlink:href="#DejaVuSans-76" transform="translate(274.324219 0)"/>
      <use xlink:href="#DejaVuSans-65" transform="translate(333.503906 0)"/>
      <use xlink:href="#DejaVuSans-64" transform="translate(395.027344 0)"/>
      <use xlink:href="#DejaVuSans-20" transform="translate(458.503906 0)"/>
      <use xlink:href="#DejaVuSans-54" transform="translate(490.291016 0)"/>
      <use xlink:href="#DejaVuSans-46" transform="translate(551.375 0)"/>
      <use xlink:href="#DejaVuSans-4c" transform="translate(608.894531 0)"/>
      <use xlink:href="#DejaVuSans-4f" transform="translate(660.982422 0)"/>
      <use xlink:href="#DejaVuSans-50" transform="translate(739.693359 0)"/>
      <use xlink:href="#DejaVuSans-53" transform="translate(799.996094 0)"/>
     </g>
    </g>
   </g>
   <g id="patch_3">
    <path d="M 44.510313 371.540982 
L 44.510313 22.318125 
" style="fill: none; stroke: #000000; stroke-width: 0.8; stroke-linejoin: miter; stroke-linecap: square"/>
   </g>
   <g id="patch_4">
    <path d="M 632.778919 371.540982 
L 632.778919 22.318125 
" style="fill: none; stroke: #000000; stroke-width: 0.8; stroke-linejoin: miter; stroke-linecap: square"/>
   </g>
   <g id="patch_5">
    <path d="M 44.510312 371.540982 
L 632.778919 371.540982 
" style="fill: none; stroke: #000000; stroke-width: 0.8; stroke-linejoin: miter; stroke-linecap: square"/>
   </g>
   <g id="patch_6">
    <path d="M 44.510312 22.318125 
L 632.778919 22.318125 
" style="fill: none; stroke: #000000; stroke-width: 0.8; stroke-linejoin: miter; stroke-linecap: square"/>
   </g>
   <g id="text_5">
    <!-- HBM 4.8 TB/s roof -->
    <g style="fill: #546e7a" transform="translate(103.554099 213.483966) rotate(-33) scale(0.07 -0.07)">
     <defs>
      <path id="DejaVuSans-48" d="M 628 4666 
L 1259 4666 
L 1259 2753 
L 3553 2753 
L 3553 4666 
L 4184 4666 
L 4184 0 
L 3553 0 
L 3553 2222 
L 1259 2222 
L 1259 0 
L 628 0 
L 628 4666 
z
" transform="scale(0.015625)"/>
      <path id="DejaVuSans-42" d="M 1259 2228 
L 1259 519 
L 2272 519 
Q 2781 519 3026 730 
Q 3272 941 3272 1375 
Q 3272 1813 3026 2020 
Q 2781 2228 2272 2228 
L 1259 2228 
z
M 1259 4147 
L 1259 2741 
L 2194 2741 
Q 2656 2741 2882 2914 
Q 3109 3088 3109 3444 
Q 3109 3797 2882 3972 
Q 2656 4147 2194 4147 
L 1259 4147 
z
M 628 4666 
L 2241 4666 
Q 2963 4666 3353 4366 
Q 3744 4066 3744 3513 
Q 3744 3084 3544 2831 
Q 3344 2578 2956 2516 
Q 3422 2416 3680 2098 
Q 3938 1781 3938 1306 
Q 3938 681 3513 340 
Q 3088 0 2303 0 
L 628 0 
L 628 4666 
z
" transform="scale(0.015625)"/>
      <path id="DejaVuSans-4d" d="M 628 4666 
L 1569 4666 
L 2759 1491 
L 3956 4666 
L 4897 4666 
L 4897 0 
L 4281 0 
L 4281 4097 
L 3078 897 
L 2444 897 
L 1241 4097 
L 1241 0 
L 628 0 
L 628 4666 
z
" transform="scale(0.015625)"/>
      <path id="DejaVuSans-34" d="M 2419 4116 
L 825 1625 
L 2419 1625 
L 2419 4116 
z
M 2253 4666 
L 3047 4666 
L 3047 1625 
L 3713 1625 
L 3713 1100 
L 3047 1100 
L 3047 0 
L 2419 0 
L 2419 1100 
L 313 1100 
L 313 1709 
L 2253 4666 
z
" transform="scale(0.015625)"/>
      <path id="DejaVuSans-2e" d="M 684 794 
L 1344 794 
L 1344 0 
L 684 0 
L 684 794 
z
" transform="scale(0.015625)"/>
      <path id="DejaVuSans-38" d="M 2034 2216 
Q 1584 2216 1326 1975 
Q 1069 1734 1069 1313 
Q 1069 891 1326 650 
Q 1584 409 2034 409 
Q 2484 409 2743 651 
Q 3003 894 3003 1313 
Q 3003 1734 2745 1975 
Q 2488 2216 2034 2216 
z
M 1403 2484 
Q 997 2584 770 2862 
Q 544 3141 544 3541 
Q 544 4100 942 4425 
Q 1341 4750 2034 4750 
Q 2731 4750 3128 4425 
Q 3525 4100 3525 3541 
Q 3525 3141 3298 2862 
Q 3072 2584 2669 2484 
Q 3125 2378 3379 2068 
Q 3634 1759 3634 1313 
Q 3634 634 3220 271 
Q 2806 -91 2034 -91 
Q 1263 -91 848 271 
Q 434 634 434 1313 
Q 434 1759 690 2068 
Q 947 2378 1403 2484 
z
M 1172 3481 
Q 1172 3119 1398 2916 
Q 1625 2713 2034 2713 
Q 2441 2713 2670 2916 
Q 2900 3119 2900 3481 
Q 2900 3844 2670 4047 
Q 2441 4250 2034 4250 
Q 1625 4250 1398 4047 
Q 1172 3844 1172 3481 
z
" transform="scale(0.015625)"/>
      <path id="DejaVuSans-6f" d="M 1959 3097 
Q 1497 3097 1228 2736 
Q 959 2375 959 1747 
Q 959 1119 1226 758 
Q 1494 397 1959 397 
Q 2419 397 2687 759 
Q 2956 1122 2956 1747 
Q 2956 2369 2687 2733 
Q 2419 3097 1959 3097 
z
M 1959 3584 
Q 2709 3584 3137 3096 
Q 3566 2609 3566 1747 
Q 3566 888 3137 398 
Q 2709 -91 1959 -91 
Q 1206 -91 779 398 
Q 353 888 353 1747 
Q 353 2609 779 3096 
Q 1206 3584 1959 3584 
z
" transform="scale(0.015625)"/>
      <path id="DejaVuSans-66" d="M 2375 4863 
L 2375 4384 
L 1825 4384 
Q 1516 4384 1395 4259 
Q 1275 4134 1275 3809 
L 1275 3500 
L 2222 3500 
L 2222 3053 
L 1275 3053 
L 1275 0 
L 697 0 
L 697 3053 
L 147 3053 
L 147 3500 
L 697 3500 
L 697 3744 
Q 697 4328 969 4595 
Q 1241 4863 1831 4863 
L 2375 4863 
z
" transform="scale(0.015625)"/>
     </defs>
     <use xlink:href="#DejaVuSans-48"/>
     <use xlink:href="#DejaVuSans-42" transform="translate(75.195312 0)"/>
     <use xlink:href="#DejaVuSans-4d" transform="translate(143.798828 0)"/>
     <use xlink:href="#DejaVuSans-20" transform="translate(230.078125 0)"/>
     <use xlink:href="#DejaVuSans-34" transform="translate(261.865234 0)"/>
     <use xlink:href="#DejaVuSans-2e" transform="translate(325.488281 0)"/>
     <use xlink:href="#DejaVuSans-38" transform="translate(357.275391 0)"/>
     <use xlink:href="#DejaVuSans-20" transform="translate(420.898438 0)"/>
     <use xlink:href="#DejaVuSans-54" transform="translate(452.685547 0)"/>
     <use xlink:href="#DejaVuSans-42" transform="translate(513.769531 0)"/>
     <use xlink:href="#DejaVuSans-2f" transform="translate(582.373047 0)"/>
     <use xlink:href="#DejaVuSans-73" transform="translate(616.064453 0)"/>
     <use xlink:href="#DejaVuSans-20" transform="translate(668.164062 0)"/>
     <use xlink:href="#DejaVuSans-72" transform="translate(699.951172 0)"/>
     <use xlink:href="#DejaVuSans-6f" transform="translate(738.814453 0)"/>
     <use xlink:href="#DejaVuSans-6f" transform="translate(799.996094 0)"/>
     <use xlink:href="#DejaVuSans-66" transform="translate(861.177734 0)"/>
    </g>
   </g>
   <g id="PathCollection_1">
    <defs>
     <path id="m9aab6f5ce3" d="M 0 2.915476 
C 0.773193 2.915476 1.514823 2.608283 2.061553 2.061553 
C 2.608283 1.514823 2.915476 0.773193 2.915476 0 
C 2.915476 -0.773193 2.608283 -1.514823 2.061553 -2.061553 
C 1.514823 -2.608283 0.773193 -2.915476 0 -2.915476 
C -0.773193 -2.915476 -1.514823 -2.608283 -2.061553 -2.061553 
C -2.608283 -1.514823 -2.915476 -0.773193 -2.915476 0 
C -2.915476 0.773193 -2.608283 1.514823 -2.061553 2.061553 
C -1.514823 2.608283 -0.773193 2.915476 0 2.915476 
z
" style="stroke: #ffffff; stroke-opacity: 0.55; stroke-width: 0.4"/>
    </defs>
    <g clip-path="url(#peb8d785356)">
     <use xlink:href="#m9aab6f5ce3" x="388.935855" y="329.403925" style="fill: #cfd8dc; fill-opacity: 0.55; stroke: #ffffff; stroke-opacity: 0.55; stroke-width: 0.4"/>
     <use xlink:href="#m9aab6f5ce3" x="388.935855" y="329.403925" style="fill: #cfd8dc; fill-opacity: 0.55; stroke: #ffffff; stroke-opacity: 0.55; stroke-width: 0.4"/>
     <use xlink:href="#m9aab6f5ce3" x="288.556127" y="242.430253" style="fill: #cfd8dc; fill-opacity: 0.55; stroke: #ffffff; stroke-opacity: 0.55; stroke-width: 0.4"/>
     <use xlink:href="#m9aab6f5ce3" x="288.353376" y="242.430253" style="fill: #cfd8dc; fill-opacity: 0.55; stroke: #ffffff; stroke-opacity: 0.55; stroke-width: 0.4"/>
     <use xlink:href="#m9aab6f5ce3" x="240.599848" y="331.933247" style="fill: #cfd8dc; fill-opacity: 0.55; stroke: #ffffff; stroke-opacity: 0.55; stroke-width: 0.4"/>
     <use xlink:href="#m9aab6f5ce3" x="388.935855" y="331.933247" style="fill: #cfd8dc; fill-opacity: 0.55; stroke: #ffffff; stroke-opacity: 0.55; stroke-width: 0.4"/>
     <use xlink:href="#m9aab6f5ce3" x="279.309624" y="249.455233" style="fill: #cfd8dc; fill-opacity: 0.55; stroke: #ffffff; stroke-opacity: 0.55; stroke-width: 0.4"/>
     <use xlink:href="#m9aab6f5ce3" x="279.617321" y="249.455233" style="fill: #cfd8dc; fill-opacity: 0.55; stroke: #ffffff; stroke-opacity: 0.55; stroke-width: 0.4"/>
     <use xlink:href="#m9aab6f5ce3" x="288.353376" y="455.392126" style="fill: #cfd8dc; fill-opacity: 0.55; stroke: #ffffff; stroke-opacity: 0.55; stroke-width: 0.4"/>
     <use xlink:href="#m9aab6f5ce3" x="288.353376" y="455.392126" style="fill: #cfd8dc; fill-opacity: 0.55; stroke: #ffffff; stroke-opacity: 0.55; stroke-width: 0.4"/>
     <use xlink:href="#m9aab6f5ce3" x="288.479595" y="481.924933" style="fill: #cfd8dc; fill-opacity: 0.55; stroke: #ffffff; stroke-opacity: 0.55; stroke-width: 0.4"/>
     <use xlink:href="#m9aab6f5ce3" x="287.940109" y="481.924933" style="fill: #cfd8dc; fill-opacity: 0.55; stroke: #ffffff; stroke-opacity: 0.55; stroke-width: 0.4"/>
     <use xlink:href="#m9aab6f5ce3" x="388.935855" y="421.793839" style="fill: #cfd8dc; fill-opacity: 0.55; stroke: #ffffff; stroke-opacity: 0.55; stroke-width: 0.4"/>
     <use xlink:href="#m9aab6f5ce3" x="388.935855" y="410.782591" style="fill: #cfd8dc; fill-opacity: 0.55; stroke: #ffffff; stroke-opacity: 0.55; stroke-width: 0.4"/>
     <use xlink:href="#m9aab6f5ce3" x="388.935855" y="434.030955" style="fill: #cfd8dc; fill-opacity: 0.55; stroke: #ffffff; stroke-opacity: 0.55; stroke-width: 0.4"/>
     <use xlink:href="#m9aab6f5ce3" x="388.935855" y="427.742349" style="fill: #cfd8dc; fill-opacity: 0.55; stroke: #ffffff; stroke-opacity: 0.55; stroke-width: 0.4"/>
     <use xlink:href="#m9aab6f5ce3" x="388.935855" y="440.700916" style="fill: #cfd8dc; fill-opacity: 0.55; stroke: #ffffff; stroke-opacity: 0.55; stroke-width: 0.4"/>
     <use xlink:href="#m9aab6f5ce3" x="388.935855" y="440.700916" style="fill: #cfd8dc; fill-opacity: 0.55; stroke: #ffffff; stroke-opacity: 0.55; stroke-width: 0.4"/>
    </g>
   </g>
   <g id="PathCollection_2">
    <g clip-path="url(#peb8d785356)">
     <use xlink:href="#m9aab6f5ce3" x="436.689383" y="367.933425" style="fill: #cfd8dc; fill-opacity: 0.55; stroke: #ffffff; stroke-opacity: 0.55; stroke-width: 0.4"/>
     <use xlink:href="#m9aab6f5ce3" x="436.689383" y="367.933425" style="fill: #cfd8dc; fill-opacity: 0.55; stroke: #ffffff; stroke-opacity: 0.55; stroke-width: 0.4"/>
     <use xlink:href="#m9aab6f5ce3" x="329.290177" y="405.664429" style="fill: #cfd8dc; fill-opacity: 0.55; stroke: #ffffff; stroke-opacity: 0.55; stroke-width: 0.4"/>
     <use xlink:href="#m9aab6f5ce3" x="326.417602" y="405.664429" style="fill: #cfd8dc; fill-opacity: 0.55; stroke: #ffffff; stroke-opacity: 0.55; stroke-width: 0.4"/>
     <use xlink:href="#m9aab6f5ce3" x="436.50561" y="165.604089" style="fill: #cfd8dc; fill-opacity: 0.55; stroke: #ffffff; stroke-opacity: 0.55; stroke-width: 0.4"/>
     <use xlink:href="#m9aab6f5ce3" x="436.495627" y="166.738333" style="fill: #cfd8dc; fill-opacity: 0.55; stroke: #ffffff; stroke-opacity: 0.55; stroke-width: 0.4"/>
     <use xlink:href="#m9aab6f5ce3" x="436.008926" y="190.154488" style="fill: #cfd8dc; fill-opacity: 0.55; stroke: #ffffff; stroke-opacity: 0.55; stroke-width: 0.4"/>
     <use xlink:href="#m9aab6f5ce3" x="435.997933" y="190.862019" style="fill: #cfd8dc; fill-opacity: 0.55; stroke: #ffffff; stroke-opacity: 0.55; stroke-width: 0.4"/>
     <use xlink:href="#m9aab6f5ce3" x="436.525333" y="188.058793" style="fill: #cfd8dc; fill-opacity: 0.55; stroke: #ffffff; stroke-opacity: 0.55; stroke-width: 0.4"/>
     <use xlink:href="#m9aab6f5ce3" x="436.522779" y="188.752932" style="fill: #cfd8dc; fill-opacity: 0.55; stroke: #ffffff; stroke-opacity: 0.55; stroke-width: 0.4"/>
    </g>
   </g>
   <g id="text_6">
    <!-- Normalization — roofline (H200) -->
    <g transform="translate(44.510313 16.318125) scale(0.12 -0.12)">
     <defs>
      <path id="DejaVuSans-Bold-4e" d="M 588 4666 
L 1931 4666 
L 3628 1466 
L 3628 4666 
L 4769 4666 
L 4769 0 
L 3425 0 
L 1728 3200 
L 1728 0 
L 588 0 
L 588 4666 
z
" transform="scale(0.015625)"/>
      <path id="DejaVuSans-Bold-6f" d="M 2203 2784 
Q 1831 2784 1636 2517 
Q 1441 2250 1441 1747 
Q 1441 1244 1636 976 
Q 1831 709 2203 709 
Q 2569 709 2762 976 
Q 2956 1244 2956 1747 
Q 2956 2250 2762 2517 
Q 2569 2784 2203 2784 
z
M 2203 3584 
Q 3106 3584 3614 3096 
Q 4122 2609 4122 1747 
Q 4122 884 3614 396 
Q 3106 -91 2203 -91 
Q 1297 -91 786 396 
Q 275 884 275 1747 
Q 275 2609 786 3096 
Q 1297 3584 2203 3584 
z
" transform="scale(0.015625)"/>
      <path id="DejaVuSans-Bold-72" d="M 3138 2547 
Q 2991 2616 2845 2648 
Q 2700 2681 2553 2681 
Q 2122 2681 1889 2404 
Q 1656 2128 1656 1613 
L 1656 0 
L 538 0 
L 538 3500 
L 1656 3500 
L 1656 2925 
Q 1872 3269 2151 3426 
Q 2431 3584 2822 3584 
Q 2878 3584 2943 3579 
Q 3009 3575 3134 3559 
L 3138 2547 
z
" transform="scale(0.015625)"/>
      <path id="DejaVuSans-Bold-6d" d="M 3781 2919 
Q 3994 3244 4286 3414 
Q 4578 3584 4928 3584 
Q 5531 3584 5847 3212 
Q 6163 2841 6163 2131 
L 6163 0 
L 5038 0 
L 5038 1825 
Q 5041 1866 5042 1909 
Q 5044 1953 5044 2034 
Q 5044 2406 4934 2573 
Q 4825 2741 4581 2741 
Q 4263 2741 4089 2478 
Q 3916 2216 3909 1719 
L 3909 0 
L 2784 0 
L 2784 1825 
Q 2784 2406 2684 2573 
Q 2584 2741 2328 2741 
Q 2006 2741 1831 2477 
Q 1656 2213 1656 1722 
L 1656 0 
L 531 0 
L 531 3500 
L 1656 3500 
L 1656 2988 
Q 1863 3284 2130 3434 
Q 2397 3584 2719 3584 
Q 3081 3584 3359 3409 
Q 3638 3234 3781 2919 
z
" transform="scale(0.015625)"/>
      <path id="DejaVuSans-Bold-61" d="M 2106 1575 
Q 1756 1575 1579 1456 
Q 1403 1338 1403 1106 
Q 1403 894 1545 773 
Q 1688 653 1941 653 
Q 2256 653 2472 879 
Q 2688 1106 2688 1447 
L 2688 1575 
L 2106 1575 
z
M 3816 1997 
L 3816 0 
L 2688 0 
L 2688 519 
Q 2463 200 2181 54 
Q 1900 -91 1497 -91 
Q 953 -91 614 226 
Q 275 544 275 1050 
Q 275 1666 698 1953 
Q 1122 2241 2028 2241 
L 2688 2241 
L 2688 2328 
Q 2688 2594 2478 2717 
Q 2269 2841 1825 2841 
Q 1466 2841 1156 2769 
Q 847 2697 581 2553 
L 581 3406 
Q 941 3494 1303 3539 
Q 1666 3584 2028 3584 
Q 2975 3584 3395 3211 
Q 3816 2838 3816 1997 
z
" transform="scale(0.015625)"/>
      <path id="DejaVuSans-Bold-6c" d="M 538 4863 
L 1656 4863 
L 1656 0 
L 538 0 
L 538 4863 
z
" transform="scale(0.015625)"/>
      <path id="DejaVuSans-Bold-69" d="M 538 3500 
L 1656 3500 
L 1656 0 
L 538 0 
L 538 3500 
z
M 538 4863 
L 1656 4863 
L 1656 3950 
L 538 3950 
L 538 4863 
z
" transform="scale(0.015625)"/>
      <path id="DejaVuSans-Bold-7a" d="M 366 3500 
L 3419 3500 
L 3419 2719 
L 1575 800 
L 3419 800 
L 3419 0 
L 288 0 
L 288 781 
L 2131 2700 
L 366 2700 
L 366 3500 
z
" transform="scale(0.015625)"/>
      <path id="DejaVuSans-Bold-74" d="M 1759 4494 
L 1759 3500 
L 2913 3500 
L 2913 2700 
L 1759 2700 
L 1759 1216 
Q 1759 972 1856 886 
Q 1953 800 2241 800 
L 2816 800 
L 2816 0 
L 1856 0 
Q 1194 0 917 276 
Q 641 553 641 1216 
L 641 2700 
L 84 2700 
L 84 3500 
L 641 3500 
L 641 4494 
L 1759 4494 
z
" transform="scale(0.015625)"/>
      <path id="DejaVuSans-Bold-6e" d="M 4056 2131 
L 4056 0 
L 2931 0 
L 2931 347 
L 2931 1631 
Q 2931 2084 2911 2256 
Q 2891 2428 2841 2509 
Q 2775 2619 2662 2680 
Q 2550 2741 2406 2741 
Q 2056 2741 1856 2470 
Q 1656 2200 1656 1722 
L 1656 0 
L 538 0 
L 538 3500 
L 1656 3500 
L 1656 2988 
Q 1909 3294 2193 3439 
Q 2478 3584 2822 3584 
Q 3428 3584 3742 3212 
Q 4056 2841 4056 2131 
z
" transform="scale(0.015625)"/>
      <path id="DejaVuSans-Bold-20" transform="scale(0.015625)"/>
      <path id="DejaVuSans-Bold-2014" d="M 344 2156 
L 6056 2156 
L 6056 1350 
L 344 1350 
L 344 2156 
z
" transform="scale(0.015625)"/>
      <path id="DejaVuSans-Bold-66" d="M 2841 4863 
L 2841 4128 
L 2222 4128 
Q 1984 4128 1890 4042 
Q 1797 3956 1797 3744 
L 1797 3500 
L 2753 3500 
L 2753 2700 
L 1797 2700 
L 1797 0 
L 678 0 
L 678 2700 
L 122 2700 
L 122 3500 
L 678 3500 
L 678 3744 
Q 678 4316 997 4589 
Q 1316 4863 1984 4863 
L 2841 4863 
z
" transform="scale(0.015625)"/>
      <path id="DejaVuSans-Bold-65" d="M 4031 1759 
L 4031 1441 
L 1416 1441 
Q 1456 1047 1700 850 
Q 1944 653 2381 653 
Q 2734 653 3104 758 
Q 3475 863 3866 1075 
L 3866 213 
Q 3469 63 3072 -14 
Q 2675 -91 2278 -91 
Q 1328 -91 801 392 
Q 275 875 275 1747 
Q 275 2603 792 3093 
Q 1309 3584 2216 3584 
Q 3041 3584 3536 3087 
Q 4031 2591 4031 1759 
z
M 2881 2131 
Q 2881 2450 2695 2645 
Q 2509 2841 2209 2841 
Q 1884 2841 1681 2658 
Q 1478 2475 1428 2131 
L 2881 2131 
z
" transform="scale(0.015625)"/>
      <path id="DejaVuSans-Bold-28" d="M 2413 -844 
L 1484 -844 
Q 1006 -72 778 623 
Q 550 1319 550 2003 
Q 550 2688 779 3389 
Q 1009 4091 1484 4856 
L 2413 4856 
Q 2013 4116 1813 3408 
Q 1613 2700 1613 2009 
Q 1613 1319 1811 609 
Q 2009 -100 2413 -844 
z
" transform="scale(0.015625)"/>
      <path id="DejaVuSans-Bold-48" d="M 588 4666 
L 1791 4666 
L 1791 2888 
L 3566 2888 
L 3566 4666 
L 4769 4666 
L 4769 0 
L 3566 0 
L 3566 1978 
L 1791 1978 
L 1791 0 
L 588 0 
L 588 4666 
z
" transform="scale(0.015625)"/>
      <path id="DejaVuSans-Bold-32" d="M 1844 884 
L 3897 884 
L 3897 0 
L 506 0 
L 506 884 
L 2209 2388 
Q 2438 2594 2547 2791 
Q 2656 2988 2656 3200 
Q 2656 3528 2436 3728 
Q 2216 3928 1850 3928 
Q 1569 3928 1234 3808 
Q 900 3688 519 3450 
L 519 4475 
Q 925 4609 1322 4679 
Q 1719 4750 2100 4750 
Q 2938 4750 3402 4381 
Q 3866 4013 3866 3353 
Q 3866 2972 3669 2642 
Q 3472 2313 2841 1759 
L 1844 884 
z
" transform="scale(0.015625)"/>
      <path id="DejaVuSans-Bold-30" d="M 2944 2338 
Q 2944 3213 2780 3570 
Q 2616 3928 2228 3928 
Q 1841 3928 1675 3570 
Q 1509 3213 1509 2338 
Q 1509 1453 1675 1090 
Q 1841 728 2228 728 
Q 2613 728 2778 1090 
Q 2944 1453 2944 2338 
z
M 4147 2328 
Q 4147 1169 3647 539 
Q 3147 -91 2228 -91 
Q 1306 -91 806 539 
Q 306 1169 306 2328 
Q 306 3491 806 4120 
Q 1306 4750 2228 4750 
Q 3147 4750 3647 4120 
Q 4147 3491 4147 2328 
z
" transform="scale(0.015625)"/>
      <path id="DejaVuSans-Bold-29" d="M 513 -844 
Q 913 -100 1113 609 
Q 1313 1319 1313 2009 
Q 1313 2700 1113 3408 
Q 913 4116 513 4856 
L 1441 4856 
Q 1916 4091 2145 3389 
Q 2375 2688 2375 2003 
Q 2375 1319 2147 623 
Q 1919 -72 1441 -844 
L 513 -844 
z
" transform="scale(0.015625)"/>
     </defs>
     <use xlink:href="#DejaVuSans-Bold-4e"/>
     <use xlink:href="#DejaVuSans-Bold-6f" transform="translate(83.691406 0)"/>
     <use xlink:href="#DejaVuSans-Bold-72" transform="translate(152.392578 0)"/>
     <use xlink:href="#DejaVuSans-Bold-6d" transform="translate(201.708984 0)"/>
     <use xlink:href="#DejaVuSans-Bold-61" transform="translate(305.908203 0)"/>
     <use xlink:href="#DejaVuSans-Bold-6c" transform="translate(373.388672 0)"/>
     <use xlink:href="#DejaVuSans-Bold-69" transform="translate(407.666016 0)"/>
     <use xlink:href="#DejaVuSans-Bold-7a" transform="translate(441.943359 0)"/>
     <use xlink:href="#DejaVuSans-Bold-61" transform="translate(500.146484 0)"/>
     <use xlink:href="#DejaVuSans-Bold-74" transform="translate(567.626953 0)"/>
     <use xlink:href="#DejaVuSans-Bold-69" transform="translate(615.429688 0)"/>
     <use xlink:href="#DejaVuSans-Bold-6f" transform="translate(649.707031 0)"/>
     <use xlink:href="#DejaVuSans-Bold-6e" transform="translate(718.408203 0)"/>
     <use xlink:href="#DejaVuSans-Bold-20" transform="translate(789.599609 0)"/>
     <use xlink:href="#DejaVuSans-Bold-2014" transform="translate(824.414062 0)"/>
     <use xlink:href="#DejaVuSans-Bold-20" transform="translate(924.414062 0)"/>
     <use xlink:href="#DejaVuSans-Bold-72" transform="translate(959.228516 0)"/>
     <use xlink:href="#DejaVuSans-Bold-6f" transform="translate(1008.544922 0)"/>
     <use xlink:href="#DejaVuSans-Bold-6f" transform="translate(1077.246094 0)"/>
     <use xlink:href="#DejaVuSans-Bold-66" transform="translate(1145.947266 0)"/>
     <use xlink:href="#DejaVuSans-Bold-6c" transform="translate(1189.453125 0)"/>
     <use xlink:href="#DejaVuSans-Bold-69" transform="translate(1223.730469 0)"/>
     <use xlink:href="#DejaVuSans-Bold-6e" transform="translate(1258.007812 0)"/>
     <use xlink:href="#DejaVuSans-Bold-65" transform="translate(1329.199219 0)"/>
     <use xlink:href="#DejaVuSans-Bold-20" transform="translate(1397.021484 0)"/>
     <use xlink:href="#DejaVuSans-Bold-28" transform="translate(1431.835938 0)"/>
     <use xlink:href="#DejaVuSans-Bold-48" transform="translate(1477.539062 0)"/>
     <use xlink:href="#DejaVuSans-Bold-32" transform="translate(1561.230469 0)"/>
     <use xlink:href="#DejaVuSans-Bold-30" transform="translate(1630.810547 0)"/>
     <use xlink:href="#DejaVuSans-Bold-30" transform="translate(1700.390625 0)"/>
     <use xlink:href="#DejaVuSans-Bold-29" transform="translate(1769.970703 0)"/>
    </g>
   </g>
   <g id="line2d_51">
    <path d="M 44.510312 243.570374 
L 520.229603 -1 
L 520.229603 -1 
" clip-path="url(#peb8d785356)" style="fill: none; stroke: #37474f; stroke-width: 1.4; stroke-linecap: square"/>
   </g>
   <g id="legend_1">
    <g id="patch_7">
     <path d="M 489.596887 367.790982 
L 627.528919 367.790982 
Q 629.028919 367.790982 629.028919 366.290982 
L 629.028919 345.023795 
Q 629.028919 343.523795 627.528919 343.523795 
L 489.596887 343.523795 
Q 488.096887 343.523795 488.096887 345.023795 
L 488.096887 366.290982 
Q 488.096887 367.790982 489.596887 367.790982 
z
" style="fill: #ffffff; opacity: 0.9; stroke: #cccccc; stroke-linejoin: miter"/>
    </g>
    <g id="PathCollection_3">
     <g>
      <use xlink:href="#m9aab6f5ce3" x="498.596887" y="350.253873" style="fill: #cfd8dc; fill-opacity: 0.55; stroke: #ffffff; stroke-opacity: 0.55; stroke-width: 0.4"/>
     </g>
    </g>
    <g id="text_7">
     <!-- torch-ref (ref) -->
     <g transform="translate(512.096887 352.222623) scale(0.075 -0.075)">
      <defs>
       <path id="DejaVuSans-2d" d="M 313 2009 
L 1997 2009 
L 1997 1497 
L 313 1497 
L 313 2009 
z
" transform="scale(0.015625)"/>
      </defs>
      <use xlink:href="#DejaVuSans-74"/>
      <use xlink:href="#DejaVuSans-6f" transform="translate(39.208984 0)"/>
      <use xlink:href="#DejaVuSans-72" transform="translate(100.390625 0)"/>
      <use xlink:href="#DejaVuSans-63" transform="translate(139.253906 0)"/>
      <use xlink:href="#DejaVuSans-68" transform="translate(194.234375 0)"/>
      <use xlink:href="#DejaVuSans-2d" transform="translate(257.613281 0)"/>
      <use xlink:href="#DejaVuSans-72" transform="translate(293.697266 0)"/>
      <use xlink:href="#DejaVuSans-65" transform="translate(332.560547 0)"/>
      <use xlink:href="#DejaVuSans-66" transform="translate(394.083984 0)"/>
      <use xlink:href="#DejaVuSans-20" transform="translate(429.289062 0)"/>
      <use xlink:href="#DejaVuSans-28" transform="translate(461.076172 0)"/>
      <use xlink:href="#DejaVuSans-72" transform="translate(500.089844 0)"/>
      <use xlink:href="#DejaVuSans-65" transform="translate(538.953125 0)"/>
      <use xlink:href="#DejaVuSans-66" transform="translate(600.476562 0)"/>
      <use xlink:href="#DejaVuSans-29" transform="translate(635.681641 0)"/>
     </g>
    </g>
    <g id="PathCollection_4">
     <g>
      <use xlink:href="#m9aab6f5ce3" x="498.596887" y="361.262467" style="fill: #cfd8dc; fill-opacity: 0.55; stroke: #ffffff; stroke-opacity: 0.55; stroke-width: 0.4"/>
     </g>
    </g>
    <g id="text_8">
     <!-- torch (ref) -->
     <g transform="translate(512.096887 363.231217) scale(0.075 -0.075)">
      <use xlink:href="#DejaVuSans-74"/>
      <use xlink:href="#DejaVuSans-6f" transform="translate(39.208984 0)"/>
      <use xlink:href="#DejaVuSans-72" transform="translate(100.390625 0)"/>
      <use xlink:href="#DejaVuSans-63" transform="translate(139.253906 0)"/>
      <use xlink:href="#DejaVuSans-68" transform="translate(194.234375 0)"/>
      <use xlink:href="#DejaVuSans-20" transform="translate(257.613281 0)"/>
      <use xlink:href="#DejaVuSans-28" transform="translate(289.400391 0)"/>
      <use xlink:href="#DejaVuSans-72" transform="translate(328.414062 0)"/>
      <use xlink:href="#DejaVuSans-65" transform="translate(367.277344 0)"/>
      <use xlink:href="#DejaVuSans-66" transform="translate(428.800781 0)"/>
      <use xlink:href="#DejaVuSans-29" transform="translate(464.005859 0)"/>
     </g>
    </g>
    <g id="PathCollection_5">
     <defs>
      <path id="m179a6e184c" d="M 0 -4.062019 
L -4.062019 4.062019 
L 4.062019 4.062019 
z
" style="stroke: #ffffff; stroke-width: 0.6"/>
     </defs>
     <g>
      <use xlink:href="#m179a6e184c" x="585.19845" y="350.253873" style="fill: #00897b; stroke: #ffffff; stroke-width: 0.6"/>
     </g>
    </g>
    <g id="text_9">
     <!-- TileOPs -->
     <g transform="translate(598.69845 352.222623) scale(0.075 -0.075)">
      <defs>
       <path id="DejaVuSans-6c" d="M 603 4863 
L 1178 4863 
L 1178 0 
L 603 0 
L 603 4863 
z
" transform="scale(0.015625)"/>
      </defs>
      <use xlink:href="#DejaVuSans-54"/>
      <use xlink:href="#DejaVuSans-69" transform="translate(57.958984 0)"/>
      <use xlink:href="#DejaVuSans-6c" transform="translate(85.742188 0)"/>
      <use xlink:href="#DejaVuSans-65" transform="translate(113.525391 0)"/>
      <use xlink:href="#DejaVuSans-4f" transform="translate(175.048828 0)"/>
      <use xlink:href="#DejaVuSans-50" transform="translate(253.759766 0)"/>
      <use xlink:href="#DejaVuSans-73" transform="translate(312.3125 0)"/>
     </g>
    </g>
   </g>
   <g id="PathCollection_6">
    <g clip-path="url(#peb8d785356)">
     <use xlink:href="#m179a6e184c" x="388.935855" y="745.74293" style="fill: #00897b; stroke: #ffffff; stroke-width: 0.6"/>
     <use xlink:href="#m179a6e184c" x="388.935855" y="745.74293" style="fill: #00897b; stroke: #ffffff; stroke-width: 0.6"/>
     <use xlink:href="#m179a6e184c" x="288.556127" y="208.533887" style="fill: #00897b; stroke: #ffffff; stroke-width: 0.6"/>
     <use xlink:href="#m179a6e184c" x="288.353376" y="210.213624" style="fill: #00897b; stroke: #ffffff; stroke-width: 0.6"/>
     <use xlink:href="#m179a6e184c" x="240.599848" y="745.74293" style="fill: #00897b; stroke: #ffffff; stroke-width: 0.6"/>
     <use xlink:href="#m179a6e184c" x="388.935855" y="745.74293" style="fill: #00897b; stroke: #ffffff; stroke-width: 0.6"/>
     <use xlink:href="#m179a6e184c" x="279.309624" y="202.848899" style="fill: #00897b; stroke: #ffffff; stroke-width: 0.6"/>
     <use xlink:href="#m179a6e184c" x="279.617321" y="201.277148" style="fill: #00897b; stroke: #ffffff; stroke-width: 0.6"/>
     <use xlink:href="#m179a6e184c" x="288.353376" y="165.604089" style="fill: #00897b; stroke: #ffffff; stroke-width: 0.6"/>
     <use xlink:href="#m179a6e184c" x="288.353376" y="165.604089" style="fill: #00897b; stroke: #ffffff; stroke-width: 0.6"/>
     <use xlink:href="#m179a6e184c" x="388.935855" y="745.74293" style="fill: #00897b; stroke: #ffffff; stroke-width: 0.6"/>
     <use xlink:href="#m179a6e184c" x="288.479595" y="156.407824" style="fill: #00897b; stroke: #ffffff; stroke-width: 0.6"/>
     <use xlink:href="#m179a6e184c" x="287.940109" y="166.169749" style="fill: #00897b; stroke: #ffffff; stroke-width: 0.6"/>
     <use xlink:href="#m179a6e184c" x="240.599848" y="745.74293" style="fill: #00897b; stroke: #ffffff; stroke-width: 0.6"/>
     <use xlink:href="#m179a6e184c" x="436.689383" y="371.540982" style="fill: #00897b; stroke: #ffffff; stroke-width: 0.6"/>
     <use xlink:href="#m179a6e184c" x="436.689383" y="371.540982" style="fill: #00897b; stroke: #ffffff; stroke-width: 0.6"/>
     <use xlink:href="#m179a6e184c" x="329.290177" y="302.871119" style="fill: #00897b; stroke: #ffffff; stroke-width: 0.6"/>
     <use xlink:href="#m179a6e184c" x="326.417602" y="302.871119" style="fill: #00897b; stroke: #ffffff; stroke-width: 0.6"/>
     <use xlink:href="#m179a6e184c" x="436.50561" y="121.560214" style="fill: #00897b; stroke: #ffffff; stroke-width: 0.6"/>
     <use xlink:href="#m179a6e184c" x="436.495627" y="127.382772" style="fill: #00897b; stroke: #ffffff; stroke-width: 0.6"/>
     <use xlink:href="#m179a6e184c" x="388.935855" y="745.74293" style="fill: #00897b; stroke: #ffffff; stroke-width: 0.6"/>
     <use xlink:href="#m179a6e184c" x="436.008926" y="113.190975" style="fill: #00897b; stroke: #ffffff; stroke-width: 0.6"/>
     <use xlink:href="#m179a6e184c" x="435.997933" y="114.956994" style="fill: #00897b; stroke: #ffffff; stroke-width: 0.6"/>
     <use xlink:href="#m179a6e184c" x="240.599848" y="745.74293" style="fill: #00897b; stroke: #ffffff; stroke-width: 0.6"/>
     <use xlink:href="#m179a6e184c" x="436.525333" y="109.064717" style="fill: #00897b; stroke: #ffffff; stroke-width: 0.6"/>
     <use xlink:href="#m179a6e184c" x="436.522779" y="110.765224" style="fill: #00897b; stroke: #ffffff; stroke-width: 0.6"/>
     <use xlink:href="#m179a6e184c" x="302.164853" y="669.482427" style="fill: #00897b; stroke: #ffffff; stroke-width: 0.6"/>
     <use xlink:href="#m179a6e184c" x="388.935855" y="133.953121" style="fill: #00897b; stroke: #ffffff; stroke-width: 0.6"/>
     <use xlink:href="#m179a6e184c" x="388.935855" y="133.110046" style="fill: #00897b; stroke: #ffffff; stroke-width: 0.6"/>
     <use xlink:href="#m179a6e184c" x="388.935855" y="745.74293" style="fill: #00897b; stroke: #ffffff; stroke-width: 0.6"/>
     <use xlink:href="#m179a6e184c" x="388.935855" y="118.209073" style="fill: #00897b; stroke: #ffffff; stroke-width: 0.6"/>
     <use xlink:href="#m179a6e184c" x="388.935855" y="121.560214" style="fill: #00897b; stroke: #ffffff; stroke-width: 0.6"/>
     <use xlink:href="#m179a6e184c" x="240.599848" y="745.74293" style="fill: #00897b; stroke: #ffffff; stroke-width: 0.6"/>
     <use xlink:href="#m179a6e184c" x="388.935855" y="114.601515" style="fill: #00897b; stroke: #ffffff; stroke-width: 0.6"/>
     <use xlink:href="#m179a6e184c" x="388.935855" y="116.751824" style="fill: #00897b; stroke: #ffffff; stroke-width: 0.6"/>
     <use xlink:href="#m179a6e184c" x="240.599848" y="745.74293" style="fill: #00897b; stroke: #ffffff; stroke-width: 0.6"/>
    </g>
   </g>
  </g>
 </g>
 <defs>
  <clipPath id="peb8d785356">
   <rect x="44.510313" y="22.318125" width="588.268606" height="349.222857"/>
  </clipPath>
 </defs>
</svg>
