<?xml version="1.0" encoding="utf-8" standalone="no"?>
<!DOCTYPE svg PUBLIC "-//W3C//DTD SVG 1.1//EN"
  "http://www.w3.org/Graphics/SVG/1.1/DTD/svg11.dtd">
<svg xmlns:xlink="http://www.w3.org/1999/xlink" width="640.098838pt" height="408.12942pt" viewBox="0 0 640.098838 408.12942" xmlns="http://www.w3.org/2000/svg" version="1.1">
 <metadata>
  <rdf:RDF xmlns:dc="http://purl.org/dc/elements/1.1/" xmlns:cc="http://creativecommons.org/ns#" xmlns:rdf="http://www.w3.org/1999/02/22-rdf-syntax-ns#">
   <cc:Work>
    <dc:type rdf:resource="http://purl.org/dc/dcmitype/StillImage"/>
    <dc:date>2026-06-16T16:27:18.062980</dc:date>
    <dc:format>image/svg+xml</dc:format>
    <dc:creator>
     <cc:Agent>
      <dc:title>Matplotlib v3.10.9, https://matplotlib.org/</dc:title>
     </cc:Agent>
    </dc:creator>
   </cc:Work>
  </rdf:RDF>
 </metadata>
 <defs>
  <style type="text/css">*{stroke-linejoin: round; stroke-linecap: butt}</style>
 </defs>
 <g id="figure_1">
  <g id="patch_1">
   <path d="M 0 408.12942 
L 640.098838 408.12942 
L 640.098838 0 
L 0 0 
z
" style="fill: #ffffff"/>
  </g>
  <g id="axes_1">
   <g id="patch_2">
    <path d="M 67.410313 371.540982 
L 632.898838 371.540982 
L 632.898838 22.318125 
L 67.410313 22.318125 
z
" style="fill: #ffffff"/>
   </g>
   <g id="FillBetweenPolyCollection_1">
    <path d="M 67.410313 -1453.825983 
L 67.410313 -24.889159 
L 68.543556 -25.779857 
L 69.6768 -26.670555 
L 70.810043 -27.561253 
L 71.943287 -28.45195 
L 73.07653 -29.342648 
L 74.209774 -30.233346 
L 75.343017 -31.124044 
L 76.476261 -32.014742 
L 77.609504 -32.90544 
L 78.742748 -33.796138 
L 79.875991 -34.686835 
L 81.009235 -35.577533 
L 82.142478 -36.468231 
L 83.275722 -37.358929 
L 84.408966 -38.249627 
L 85.542209 -39.140325 
L 86.675453 -40.031022 
L 87.808696 -40.92172 
L 88.94194 -41.812418 
L 90.075183 -42.703116 
L 91.208427 -43.593814 
L 92.34167 -44.484512 
L 93.474914 -45.37521 
L 94.608157 -46.265907 
L 95.741401 -47.156605 
L 96.874644 -48.047303 
L 98.007888 -48.938001 
L 99.141132 -49.828699 
L 100.274375 -50.719397 
L 101.407619 -51.610095 
L 102.540862 -52.500792 
L 103.674106 -53.39149 
L 104.807349 -54.282188 
L 105.940593 -55.172886 
L 107.073836 -56.063584 
L 108.20708 -56.954282 
L 109.340323 -57.84498 
L 110.473567 -58.735677 
L 111.60681 -59.626375 
L 112.740054 -60.517073 
L 113.873298 -61.407771 
L 115.006541 -62.298469 
L 116.139785 -63.189167 
L 117.273028 -64.079864 
L 118.406272 -64.970562 
L 119.539515 -65.86126 
L 120.672759 -66.751958 
L 121.806002 -67.642656 
L 122.939246 -68.533354 
L 124.072489 -69.424052 
L 125.205733 -70.314749 
L 126.338976 -71.205447 
L 127.47222 -72.096145 
L 128.605464 -72.986843 
L 129.738707 -73.877541 
L 130.871951 -74.768239 
L 132.005194 -75.658937 
L 133.138438 -76.549634 
L 134.271681 -77.440332 
L 135.404925 -78.33103 
L 136.538168 -79.221728 
L 137.671412 -80.112426 
L 138.804655 -81.003124 
L 139.937899 -81.893822 
L 141.071142 -82.784519 
L 142.204386 -83.675217 
L 143.337629 -84.565915 
L 144.470873 -85.456613 
L 145.604117 -86.347311 
L 146.73736 -87.238009 
L 147.870604 -88.128706 
L 149.003847 -89.019404 
L 150.137091 -89.910102 
L 151.270334 -90.8008 
L 152.403578 -91.691498 
L 153.536821 -92.582196 
L 154.670065 -93.472894 
L 155.803308 -94.363591 
L 156.936552 -95.254289 
L 158.069795 -96.144987 
L 159.203039 -97.035685 
L 160.336283 -97.926383 
L 161.469526 -98.817081 
L 162.60277 -99.707779 
L 163.736013 -100.598476 
L 164.869257 -101.489174 
L 166.0025 -102.379872 
L 167.135744 -103.27057 
L 168.268987 -104.161268 
L 169.402231 -105.051966 
L 170.535474 -105.942664 
L 171.668718 -106.833361 
L 172.801961 -107.724059 
L 173.935205 -108.614757 
L 175.068449 -109.505455 
L 176.201692 -110.396153 
L 177.334936 -111.286851 
L 178.468179 -112.177548 
L 179.601423 -113.068246 
L 180.734666 -113.958944 
L 181.86791 -114.849642 
L 183.001153 -115.74034 
L 184.134397 -116.631038 
L 185.26764 -117.521736 
L 186.400884 -118.412433 
L 187.534127 -119.303131 
L 188.667371 -120.193829 
L 189.800615 -121.084527 
L 190.933858 -121.975225 
L 192.067102 -122.865923 
L 193.200345 -123.756621 
L 194.333589 -124.647318 
L 195.466832 -125.538016 
L 196.600076 -126.428714 
L 197.733319 -127.319412 
L 198.866563 -128.21011 
L 199.999806 -129.100808 
L 201.13305 -129.991506 
L 202.266293 -130.882203 
L 203.399537 -131.772901 
L 204.532781 -132.663599 
L 205.666024 -133.554297 
L 206.799268 -134.444995 
L 207.932511 -135.335693 
L 209.065755 -136.22639 
L 210.198998 -137.117088 
L 211.332242 -138.007786 
L 212.465485 -138.898484 
L 213.598729 -139.789182 
L 214.731972 -140.67988 
L 215.865216 -141.570578 
L 216.998459 -142.461275 
L 218.131703 -143.351973 
L 219.264946 -144.242671 
L 220.39819 -145.133369 
L 221.531434 -146.024067 
L 222.664677 -146.914765 
L 223.797921 -147.805463 
L 224.931164 -148.69616 
L 226.064408 -149.586858 
L 227.197651 -150.477556 
L 228.330895 -151.368254 
L 229.464138 -152.258952 
L 230.597382 -153.14965 
L 231.730625 -154.040348 
L 232.863869 -154.931045 
L 233.997112 -155.821743 
L 235.130356 -156.712441 
L 236.2636 -157.603139 
L 237.396843 -158.493837 
L 238.530087 -159.384535 
L 239.66333 -160.275232 
L 240.796574 -161.16593 
L 241.929817 -162.056628 
L 243.063061 -162.947326 
L 244.196304 -163.838024 
L 245.329548 -164.728722 
L 246.462791 -165.61942 
L 247.596035 -166.510117 
L 248.729278 -167.400815 
L 249.862522 -168.291513 
L 250.995766 -169.182211 
L 252.129009 -170.072909 
L 253.262253 -170.963607 
L 254.395496 -171.854305 
L 255.52874 -172.745002 
L 256.661983 -173.6357 
L 257.795227 -174.526398 
L 258.92847 -175.417096 
L 260.061714 -176.307794 
L 261.194957 -177.198492 
L 262.328201 -178.08919 
L 263.461444 -178.979887 
L 264.594688 -179.870585 
L 265.727932 -180.761283 
L 266.861175 -181.651981 
L 267.994419 -182.542679 
L 269.127662 -183.433377 
L 270.260906 -184.324074 
L 271.394149 -185.214772 
L 272.527393 -186.10547 
L 273.660636 -186.996168 
L 274.79388 -187.886866 
L 275.927123 -188.777564 
L 277.060367 -189.668262 
L 278.19361 -190.558959 
L 279.326854 -191.449657 
L 280.460098 -192.340355 
L 281.593341 -193.231053 
L 282.726585 -194.121751 
L 283.859828 -195.012449 
L 284.993072 -195.903147 
L 286.126315 -196.793844 
L 287.259559 -197.684542 
L 288.392802 -198.57524 
L 289.526046 -199.465938 
L 290.659289 -200.356636 
L 291.792533 -201.247334 
L 292.925776 -202.138032 
L 294.05902 -203.028729 
L 295.192263 -203.919427 
L 296.325507 -204.810125 
L 297.458751 -205.700823 
L 298.591994 -206.591521 
L 299.725238 -207.482219 
L 300.858481 -208.372916 
L 301.991725 -209.263614 
L 303.124968 -210.154312 
L 304.258212 -211.04501 
L 305.391455 -211.935708 
L 306.524699 -212.826406 
L 307.657942 -213.717104 
L 308.791186 -214.607801 
L 309.924429 -215.498499 
L 311.057673 -216.389197 
L 312.190917 -217.279895 
L 313.32416 -218.170593 
L 314.457404 -219.061291 
L 315.590647 -219.951989 
L 316.723891 -220.842686 
L 317.857134 -221.733384 
L 318.990378 -222.624082 
L 320.123621 -223.51478 
L 321.256865 -224.405478 
L 322.390108 -225.296176 
L 323.523352 -226.186874 
L 324.656595 -227.077571 
L 325.789839 -227.968269 
L 326.923083 -228.858967 
L 328.056326 -229.749665 
L 329.18957 -230.640363 
L 330.322813 -231.531061 
L 331.456057 -232.421758 
L 332.5893 -233.312456 
L 333.722544 -234.203154 
L 334.855787 -235.093852 
L 335.989031 -235.98455 
L 337.122274 -236.875248 
L 338.255518 -237.765946 
L 339.388761 -238.656643 
L 340.522005 -239.547341 
L 341.655249 -240.438039 
L 342.788492 -241.328737 
L 343.921736 -242.219435 
L 345.054979 -243.110133 
L 346.188223 -244.000831 
L 347.321466 -244.891528 
L 348.45471 -245.782226 
L 349.587953 -246.672924 
L 350.721197 -247.563622 
L 351.85444 -248.45432 
L 352.987684 -249.345018 
L 354.120927 -250.235716 
L 355.254171 -251.126413 
L 356.387415 -252.017111 
L 357.520658 -252.907809 
L 358.653902 -253.798507 
L 359.787145 -254.689205 
L 360.920389 -255.579903 
L 362.053632 -256.4706 
L 363.186876 -257.361298 
L 364.320119 -258.251996 
L 365.453363 -259.142694 
L 366.586606 -260.033392 
L 367.71985 -260.92409 
L 368.853093 -261.814788 
L 369.986337 -262.705485 
L 371.11958 -263.596183 
L 372.252824 -264.486881 
L 373.386068 -265.377579 
L 374.519311 -266.268277 
L 375.652555 -267.158975 
L 376.785798 -268.049673 
L 377.919042 -268.94037 
L 379.052285 -269.831068 
L 380.185529 -270.721766 
L 381.318772 -271.612464 
L 382.452016 -272.503162 
L 383.585259 -273.39386 
L 384.718503 -274.284558 
L 385.851746 -275.175255 
L 386.98499 -276.065953 
L 388.118234 -276.956651 
L 389.251477 -277.847349 
L 390.384721 -278.738047 
L 391.517964 -279.628745 
L 392.651208 -280.519442 
L 393.784451 -281.41014 
L 394.917695 -282.300838 
L 396.050938 -283.191536 
L 397.184182 -284.082234 
L 398.317425 -284.972932 
L 399.450669 -285.86363 
L 400.583912 -286.754327 
L 401.717156 -287.645025 
L 402.8504 -288.535723 
L 403.983643 -289.426421 
L 405.116887 -290.317119 
L 406.25013 -291.207817 
L 407.383374 -292.098515 
L 408.516617 -292.989212 
L 409.649861 -293.87991 
L 410.783104 -294.770608 
L 411.916348 -295.661306 
L 413.049591 -296.552004 
L 414.182835 -297.442702 
L 415.316078 -298.3334 
L 416.449322 -299.224097 
L 417.582566 -300.114795 
L 418.715809 -301.005493 
L 419.849053 -301.896191 
L 420.982296 -302.786889 
L 422.11554 -303.677587 
L 423.248783 -304.568284 
L 424.382027 -305.458982 
L 425.51527 -306.34968 
L 426.648514 -307.240378 
L 427.781757 -308.131076 
L 428.915001 -309.021774 
L 430.048244 -309.912472 
L 431.181488 -310.803169 
L 432.314732 -311.693867 
L 433.447975 -312.584565 
L 434.581219 -313.475263 
L 435.714462 -314.365961 
L 436.847706 -315.256659 
L 437.980949 -316.147357 
L 439.114193 -317.038054 
L 440.247436 -317.928752 
L 441.38068 -318.81945 
L 442.513923 -319.710148 
L 443.647167 -320.600846 
L 444.78041 -321.491544 
L 445.913654 -322.382242 
L 447.046897 -323.272939 
L 448.180141 -324.163637 
L 449.313385 -325.054335 
L 450.446628 -325.945033 
L 451.579872 -326.835731 
L 452.713115 -327.726429 
L 453.846359 -328.617126 
L 454.979602 -329.507824 
L 456.112846 -330.398522 
L 457.246089 -331.28922 
L 458.379333 -332.179918 
L 459.512576 -333.070616 
L 460.64582 -333.961314 
L 461.779063 -334.852011 
L 462.912307 -335.742709 
L 464.045551 -336.633407 
L 465.178794 -337.524105 
L 466.312038 -338.414803 
L 467.445281 -339.305501 
L 468.578525 -340.196199 
L 469.711768 -341.086896 
L 470.845012 -341.977594 
L 471.978255 -342.868292 
L 473.111499 -343.75899 
L 474.244742 -344.649688 
L 475.377986 -345.540386 
L 476.511229 -346.431084 
L 477.644473 -347.321781 
L 478.777717 -348.212479 
L 479.91096 -349.103177 
L 481.044204 -349.993875 
L 482.177447 -350.884573 
L 483.310691 -351.775271 
L 484.443934 -352.665968 
L 485.577178 -353.556666 
L 486.710421 -354.447364 
L 487.843665 -355.338062 
L 488.976908 -356.22876 
L 490.110152 -357.119458 
L 491.243395 -358.010156 
L 492.376639 -358.900853 
L 493.509883 -359.791551 
L 494.643126 -360.682249 
L 495.77637 -361.572947 
L 496.909613 -362.463645 
L 498.042857 -363.354343 
L 499.1761 -364.245041 
L 500.309344 -365.135738 
L 501.442587 -366.026436 
L 502.575831 -366.917134 
L 503.709074 -367.807832 
L 504.842318 -368.69853 
L 505.975561 -369.589228 
L 507.108805 -370.479926 
L 508.242049 -371.370623 
L 509.375292 -372.261321 
L 510.508536 -373.152019 
L 511.641779 -374.042717 
L 512.775023 -374.933415 
L 513.908266 -375.824113 
L 515.04151 -376.71481 
L 516.174753 -377.605508 
L 517.307997 -378.496206 
L 518.44124 -379.386904 
L 519.574484 -380.277602 
L 520.707727 -381.1683 
L 521.840971 -382.058998 
L 522.974214 -382.949695 
L 524.107458 -383.840393 
L 525.240702 -384.731091 
L 526.373945 -385.621789 
L 527.507189 -386.512487 
L 528.640432 -387.403185 
L 529.773676 -388.293883 
L 530.906919 -389.18458 
L 532.040163 -390.075278 
L 533.173406 -390.965976 
L 534.30665 -391.856674 
L 535.439893 -392.747372 
L 536.573137 -393.63807 
L 537.70638 -394.528768 
L 538.839624 -395.419465 
L 539.972868 -396.310163 
L 541.106111 -397.200861 
L 542.239355 -398.091559 
L 543.372598 -398.982257 
L 544.505842 -399.872955 
L 545.639085 -400.763652 
L 546.772329 -401.65435 
L 547.905572 -402.545048 
L 549.038816 -403.435746 
L 550.172059 -404.326444 
L 551.305303 -405.217142 
L 552.438546 -406.10784 
L 553.57179 -406.998537 
L 554.705034 -407.889235 
L 555.838277 -408.779933 
L 556.971521 -409.670631 
L 558.104764 -410.561329 
L 559.238008 -411.452027 
L 560.371251 -412.342725 
L 561.504495 -413.233422 
L 562.637738 -414.12412 
L 563.770982 -415.014818 
L 564.904225 -415.905516 
L 566.037469 -416.796214 
L 567.170712 -417.686912 
L 568.303956 -418.57761 
L 569.4372 -419.468307 
L 570.570443 -420.359005 
L 571.703687 -421.249703 
L 572.83693 -422.140401 
L 573.970174 -423.031099 
L 575.103417 -423.921797 
L 576.236661 -424.812494 
L 577.369904 -425.703192 
L 578.503148 -426.59389 
L 579.636391 -427.484588 
L 580.769635 -428.375286 
L 581.902878 -429.265984 
L 583.036122 -430.156682 
L 584.169366 -431.047379 
L 585.302609 -431.938077 
L 586.435853 -432.828775 
L 587.569096 -433.719473 
L 588.70234 -434.610171 
L 589.835583 -435.500869 
L 590.968827 -436.391567 
L 592.10207 -437.282264 
L 593.235314 -438.172962 
L 594.368557 -439.06366 
L 595.501801 -439.954358 
L 596.635044 -440.845056 
L 597.768288 -441.735754 
L 598.901531 -442.626452 
L 600.034775 -443.517149 
L 601.168019 -444.407847 
L 602.301262 -445.298545 
L 603.434506 -446.189243 
L 604.567749 -447.079941 
L 605.700993 -447.970639 
L 606.834236 -448.861336 
L 607.96748 -449.752034 
L 609.100723 -450.642732 
L 610.233967 -451.53343 
L 611.36721 -452.424128 
L 612.500454 -453.314826 
L 613.633697 -454.205524 
L 614.766941 -455.096221 
L 615.900185 -455.986919 
L 617.033428 -456.877617 
L 618.166672 -457.768315 
L 619.299915 -458.659013 
L 620.433159 -459.549711 
L 621.566402 -460.440409 
L 622.699646 -461.331106 
L 623.832889 -462.221804 
L 624.966133 -463.112502 
L 626.099376 -464.0032 
L 627.23262 -464.893898 
L 628.365863 -465.784596 
L 629.499107 -466.675294 
L 630.632351 -467.565991 
L 631.765594 -468.456689 
L 632.898838 -469.347387 
L 632.898838 -1453.825983 
L 632.898838 -1453.825983 
L 631.765594 -1453.825983 
L 630.632351 -1453.825983 
L 629.499107 -1453.825983 
L 628.365863 -1453.825983 
L 627.23262 -1453.825983 
L 626.099376 -1453.825983 
L 624.966133 -1453.825983 
L 623.832889 -1453.825983 
L 622.699646 -1453.825983 
L 621.566402 -1453.825983 
L 620.433159 -1453.825983 
L 619.299915 -1453.825983 
L 618.166672 -1453.825983 
L 617.033428 -1453.825983 
L 615.900185 -1453.825983 
L 614.766941 -1453.825983 
L 613.633697 -1453.825983 
L 612.500454 -1453.825983 
L 611.36721 -1453.825983 
L 610.233967 -1453.825983 
L 609.100723 -1453.825983 
L 607.96748 -1453.825983 
L 606.834236 -1453.825983 
L 605.700993 -1453.825983 
L 604.567749 -1453.825983 
L 603.434506 -1453.825983 
L 602.301262 -1453.825983 
L 601.168019 -1453.825983 
L 600.034775 -1453.825983 
L 598.901531 -1453.825983 
L 597.768288 -1453.825983 
L 596.635044 -1453.825983 
L 595.501801 -1453.825983 
L 594.368557 -1453.825983 
L 593.235314 -1453.825983 
L 592.10207 -1453.825983 
L 590.968827 -1453.825983 
L 589.835583 -1453.825983 
L 588.70234 -1453.825983 
L 587.569096 -1453.825983 
L 586.435853 -1453.825983 
L 585.302609 -1453.825983 
L 584.169366 -1453.825983 
L 583.036122 -1453.825983 
L 581.902878 -1453.825983 
L 580.769635 -1453.825983 
L 579.636391 -1453.825983 
L 578.503148 -1453.825983 
L 577.369904 -1453.825983 
L 576.236661 -1453.825983 
L 575.103417 -1453.825983 
L 573.970174 -1453.825983 
L 572.83693 -1453.825983 
L 571.703687 -1453.825983 
L 570.570443 -1453.825983 
L 569.4372 -1453.825983 
L 568.303956 -1453.825983 
L 567.170712 -1453.825983 
L 566.037469 -1453.825983 
L 564.904225 -1453.825983 
L 563.770982 -1453.825983 
L 562.637738 -1453.825983 
L 561.504495 -1453.825983 
L 560.371251 -1453.825983 
L 559.238008 -1453.825983 
L 558.104764 -1453.825983 
L 556.971521 -1453.825983 
L 555.838277 -1453.825983 
L 554.705034 -1453.825983 
L 553.57179 -1453.825983 
L 552.438546 -1453.825983 
L 551.305303 -1453.825983 
L 550.172059 -1453.825983 
L 549.038816 -1453.825983 
L 547.905572 -1453.825983 
L 546.772329 -1453.825983 
L 545.639085 -1453.825983 
L 544.505842 -1453.825983 
L 543.372598 -1453.825983 
L 542.239355 -1453.825983 
L 541.106111 -1453.825983 
L 539.972868 -1453.825983 
L 538.839624 -1453.825983 
L 537.70638 -1453.825983 
L 536.573137 -1453.825983 
L 535.439893 -1453.825983 
L 534.30665 -1453.825983 
L 533.173406 -1453.825983 
L 532.040163 -1453.825983 
L 530.906919 -1453.825983 
L 529.773676 -1453.825983 
L 528.640432 -1453.825983 
L 527.507189 -1453.825983 
L 526.373945 -1453.825983 
L 525.240702 -1453.825983 
L 524.107458 -1453.825983 
L 522.974214 -1453.825983 
L 521.840971 -1453.825983 
L 520.707727 -1453.825983 
L 519.574484 -1453.825983 
L 518.44124 -1453.825983 
L 517.307997 -1453.825983 
L 516.174753 -1453.825983 
L 515.04151 -1453.825983 
L 513.908266 -1453.825983 
L 512.775023 -1453.825983 
L 511.641779 -1453.825983 
L 510.508536 -1453.825983 
L 509.375292 -1453.825983 
L 508.242049 -1453.825983 
L 507.108805 -1453.825983 
L 505.975561 -1453.825983 
L 504.842318 -1453.825983 
L 503.709074 -1453.825983 
L 502.575831 -1453.825983 
L 501.442587 -1453.825983 
L 500.309344 -1453.825983 
L 499.1761 -1453.825983 
L 498.042857 -1453.825983 
L 496.909613 -1453.825983 
L 495.77637 -1453.825983 
L 494.643126 -1453.825983 
L 493.509883 -1453.825983 
L 492.376639 -1453.825983 
L 491.243395 -1453.825983 
L 490.110152 -1453.825983 
L 488.976908 -1453.825983 
L 487.843665 -1453.825983 
L 486.710421 -1453.825983 
L 485.577178 -1453.825983 
L 484.443934 -1453.825983 
L 483.310691 -1453.825983 
L 482.177447 -1453.825983 
L 481.044204 -1453.825983 
L 479.91096 -1453.825983 
L 478.777717 -1453.825983 
L 477.644473 -1453.825983 
L 476.511229 -1453.825983 
L 475.377986 -1453.825983 
L 474.244742 -1453.825983 
L 473.111499 -1453.825983 
L 471.978255 -1453.825983 
L 470.845012 -1453.825983 
L 469.711768 -1453.825983 
L 468.578525 -1453.825983 
L 467.445281 -1453.825983 
L 466.312038 -1453.825983 
L 465.178794 -1453.825983 
L 464.045551 -1453.825983 
L 462.912307 -1453.825983 
L 461.779063 -1453.825983 
L 460.64582 -1453.825983 
L 459.512576 -1453.825983 
L 458.379333 -1453.825983 
L 457.246089 -1453.825983 
L 456.112846 -1453.825983 
L 454.979602 -1453.825983 
L 453.846359 -1453.825983 
L 452.713115 -1453.825983 
L 451.579872 -1453.825983 
L 450.446628 -1453.825983 
L 449.313385 -1453.825983 
L 448.180141 -1453.825983 
L 447.046897 -1453.825983 
L 445.913654 -1453.825983 
L 444.78041 -1453.825983 
L 443.647167 -1453.825983 
L 442.513923 -1453.825983 
L 441.38068 -1453.825983 
L 440.247436 -1453.825983 
L 439.114193 -1453.825983 
L 437.980949 -1453.825983 
L 436.847706 -1453.825983 
L 435.714462 -1453.825983 
L 434.581219 -1453.825983 
L 433.447975 -1453.825983 
L 432.314732 -1453.825983 
L 431.181488 -1453.825983 
L 430.048244 -1453.825983 
L 428.915001 -1453.825983 
L 427.781757 -1453.825983 
L 426.648514 -1453.825983 
L 425.51527 -1453.825983 
L 424.382027 -1453.825983 
L 423.248783 -1453.825983 
L 422.11554 -1453.825983 
L 420.982296 -1453.825983 
L 419.849053 -1453.825983 
L 418.715809 -1453.825983 
L 417.582566 -1453.825983 
L 416.449322 -1453.825983 
L 415.316078 -1453.825983 
L 414.182835 -1453.825983 
L 413.049591 -1453.825983 
L 411.916348 -1453.825983 
L 410.783104 -1453.825983 
L 409.649861 -1453.825983 
L 408.516617 -1453.825983 
L 407.383374 -1453.825983 
L 406.25013 -1453.825983 
L 405.116887 -1453.825983 
L 403.983643 -1453.825983 
L 402.8504 -1453.825983 
L 401.717156 -1453.825983 
L 400.583912 -1453.825983 
L 399.450669 -1453.825983 
L 398.317425 -1453.825983 
L 397.184182 -1453.825983 
L 396.050938 -1453.825983 
L 394.917695 -1453.825983 
L 393.784451 -1453.825983 
L 392.651208 -1453.825983 
L 391.517964 -1453.825983 
L 390.384721 -1453.825983 
L 389.251477 -1453.825983 
L 388.118234 -1453.825983 
L 386.98499 -1453.825983 
L 385.851746 -1453.825983 
L 384.718503 -1453.825983 
L 383.585259 -1453.825983 
L 382.452016 -1453.825983 
L 381.318772 -1453.825983 
L 380.185529 -1453.825983 
L 379.052285 -1453.825983 
L 377.919042 -1453.825983 
L 376.785798 -1453.825983 
L 375.652555 -1453.825983 
L 374.519311 -1453.825983 
L 373.386068 -1453.825983 
L 372.252824 -1453.825983 
L 371.11958 -1453.825983 
L 369.986337 -1453.825983 
L 368.853093 -1453.825983 
L 367.71985 -1453.825983 
L 366.586606 -1453.825983 
L 365.453363 -1453.825983 
L 364.320119 -1453.825983 
L 363.186876 -1453.825983 
L 362.053632 -1453.825983 
L 360.920389 -1453.825983 
L 359.787145 -1453.825983 
L 358.653902 -1453.825983 
L 357.520658 -1453.825983 
L 356.387415 -1453.825983 
L 355.254171 -1453.825983 
L 354.120927 -1453.825983 
L 352.987684 -1453.825983 
L 351.85444 -1453.825983 
L 350.721197 -1453.825983 
L 349.587953 -1453.825983 
L 348.45471 -1453.825983 
L 347.321466 -1453.825983 
L 346.188223 -1453.825983 
L 345.054979 -1453.825983 
L 343.921736 -1453.825983 
L 342.788492 -1453.825983 
L 341.655249 -1453.825983 
L 340.522005 -1453.825983 
L 339.388761 -1453.825983 
L 338.255518 -1453.825983 
L 337.122274 -1453.825983 
L 335.989031 -1453.825983 
L 334.855787 -1453.825983 
L 333.722544 -1453.825983 
L 332.5893 -1453.825983 
L 331.456057 -1453.825983 
L 330.322813 -1453.825983 
L 329.18957 -1453.825983 
L 328.056326 -1453.825983 
L 326.923083 -1453.825983 
L 325.789839 -1453.825983 
L 324.656595 -1453.825983 
L 323.523352 -1453.825983 
L 322.390108 -1453.825983 
L 321.256865 -1453.825983 
L 320.123621 -1453.825983 
L 318.990378 -1453.825983 
L 317.857134 -1453.825983 
L 316.723891 -1453.825983 
L 315.590647 -1453.825983 
L 314.457404 -1453.825983 
L 313.32416 -1453.825983 
L 312.190917 -1453.825983 
L 311.057673 -1453.825983 
L 309.924429 -1453.825983 
L 308.791186 -1453.825983 
L 307.657942 -1453.825983 
L 306.524699 -1453.825983 
L 305.391455 -1453.825983 
L 304.258212 -1453.825983 
L 303.124968 -1453.825983 
L 301.991725 -1453.825983 
L 300.858481 -1453.825983 
L 299.725238 -1453.825983 
L 298.591994 -1453.825983 
L 297.458751 -1453.825983 
L 296.325507 -1453.825983 
L 295.192263 -1453.825983 
L 294.05902 -1453.825983 
L 292.925776 -1453.825983 
L 291.792533 -1453.825983 
L 290.659289 -1453.825983 
L 289.526046 -1453.825983 
L 288.392802 -1453.825983 
L 287.259559 -1453.825983 
L 286.126315 -1453.825983 
L 284.993072 -1453.825983 
L 283.859828 -1453.825983 
L 282.726585 -1453.825983 
L 281.593341 -1453.825983 
L 280.460098 -1453.825983 
L 279.326854 -1453.825983 
L 278.19361 -1453.825983 
L 277.060367 -1453.825983 
L 275.927123 -1453.825983 
L 274.79388 -1453.825983 
L 273.660636 -1453.825983 
L 272.527393 -1453.825983 
L 271.394149 -1453.825983 
L 270.260906 -1453.825983 
L 269.127662 -1453.825983 
L 267.994419 -1453.825983 
L 266.861175 -1453.825983 
L 265.727932 -1453.825983 
L 264.594688 -1453.825983 
L 263.461444 -1453.825983 
L 262.328201 -1453.825983 
L 261.194957 -1453.825983 
L 260.061714 -1453.825983 
L 258.92847 -1453.825983 
L 257.795227 -1453.825983 
L 256.661983 -1453.825983 
L 255.52874 -1453.825983 
L 254.395496 -1453.825983 
L 253.262253 -1453.825983 
L 252.129009 -1453.825983 
L 250.995766 -1453.825983 
L 249.862522 -1453.825983 
L 248.729278 -1453.825983 
L 247.596035 -1453.825983 
L 246.462791 -1453.825983 
L 245.329548 -1453.825983 
L 244.196304 -1453.825983 
L 243.063061 -1453.825983 
L 241.929817 -1453.825983 
L 240.796574 -1453.825983 
L 239.66333 -1453.825983 
L 238.530087 -1453.825983 
L 237.396843 -1453.825983 
L 236.2636 -1453.825983 
L 235.130356 -1453.825983 
L 233.997112 -1453.825983 
L 232.863869 -1453.825983 
L 231.730625 -1453.825983 
L 230.597382 -1453.825983 
L 229.464138 -1453.825983 
L 228.330895 -1453.825983 
L 227.197651 -1453.825983 
L 226.064408 -1453.825983 
L 224.931164 -1453.825983 
L 223.797921 -1453.825983 
L 222.664677 -1453.825983 
L 221.531434 -1453.825983 
L 220.39819 -1453.825983 
L 219.264946 -1453.825983 
L 218.131703 -1453.825983 
L 216.998459 -1453.825983 
L 215.865216 -1453.825983 
L 214.731972 -1453.825983 
L 213.598729 -1453.825983 
L 212.465485 -1453.825983 
L 211.332242 -1453.825983 
L 210.198998 -1453.825983 
L 209.065755 -1453.825983 
L 207.932511 -1453.825983 
L 206.799268 -1453.825983 
L 205.666024 -1453.825983 
L 204.532781 -1453.825983 
L 203.399537 -1453.825983 
L 202.266293 -1453.825983 
L 201.13305 -1453.825983 
L 199.999806 -1453.825983 
L 198.866563 -1453.825983 
L 197.733319 -1453.825983 
L 196.600076 -1453.825983 
L 195.466832 -1453.825983 
L 194.333589 -1453.825983 
L 193.200345 -1453.825983 
L 192.067102 -1453.825983 
L 190.933858 -1453.825983 
L 189.800615 -1453.825983 
L 188.667371 -1453.825983 
L 187.534127 -1453.825983 
L 186.400884 -1453.825983 
L 185.26764 -1453.825983 
L 184.134397 -1453.825983 
L 183.001153 -1453.825983 
L 181.86791 -1453.825983 
L 180.734666 -1453.825983 
L 179.601423 -1453.825983 
L 178.468179 -1453.825983 
L 177.334936 -1453.825983 
L 176.201692 -1453.825983 
L 175.068449 -1453.825983 
L 173.935205 -1453.825983 
L 172.801961 -1453.825983 
L 171.668718 -1453.825983 
L 170.535474 -1453.825983 
L 169.402231 -1453.825983 
L 168.268987 -1453.825983 
L 167.135744 -1453.825983 
L 166.0025 -1453.825983 
L 164.869257 -1453.825983 
L 163.736013 -1453.825983 
L 162.60277 -1453.825983 
L 161.469526 -1453.825983 
L 160.336283 -1453.825983 
L 159.203039 -1453.825983 
L 158.069795 -1453.825983 
L 156.936552 -1453.825983 
L 155.803308 -1453.825983 
L 154.670065 -1453.825983 
L 153.536821 -1453.825983 
L 152.403578 -1453.825983 
L 151.270334 -1453.825983 
L 150.137091 -1453.825983 
L 149.003847 -1453.825983 
L 147.870604 -1453.825983 
L 146.73736 -1453.825983 
L 145.604117 -1453.825983 
L 144.470873 -1453.825983 
L 143.337629 -1453.825983 
L 142.204386 -1453.825983 
L 141.071142 -1453.825983 
L 139.937899 -1453.825983 
L 138.804655 -1453.825983 
L 137.671412 -1453.825983 
L 136.538168 -1453.825983 
L 135.404925 -1453.825983 
L 134.271681 -1453.825983 
L 133.138438 -1453.825983 
L 132.005194 -1453.825983 
L 130.871951 -1453.825983 
L 129.738707 -1453.825983 
L 128.605464 -1453.825983 
L 127.47222 -1453.825983 
L 126.338976 -1453.825983 
L 125.205733 -1453.825983 
L 124.072489 -1453.825983 
L 122.939246 -1453.825983 
L 121.806002 -1453.825983 
L 120.672759 -1453.825983 
L 119.539515 -1453.825983 
L 118.406272 -1453.825983 
L 117.273028 -1453.825983 
L 116.139785 -1453.825983 
L 115.006541 -1453.825983 
L 113.873298 -1453.825983 
L 112.740054 -1453.825983 
L 111.60681 -1453.825983 
L 110.473567 -1453.825983 
L 109.340323 -1453.825983 
L 108.20708 -1453.825983 
L 107.073836 -1453.825983 
L 105.940593 -1453.825983 
L 104.807349 -1453.825983 
L 103.674106 -1453.825983 
L 102.540862 -1453.825983 
L 101.407619 -1453.825983 
L 100.274375 -1453.825983 
L 99.141132 -1453.825983 
L 98.007888 -1453.825983 
L 96.874644 -1453.825983 
L 95.741401 -1453.825983 
L 94.608157 -1453.825983 
L 93.474914 -1453.825983 
L 92.34167 -1453.825983 
L 91.208427 -1453.825983 
L 90.075183 -1453.825983 
L 88.94194 -1453.825983 
L 87.808696 -1453.825983 
L 86.675453 -1453.825983 
L 85.542209 -1453.825983 
L 84.408966 -1453.825983 
L 83.275722 -1453.825983 
L 82.142478 -1453.825983 
L 81.009235 -1453.825983 
L 79.875991 -1453.825983 
L 78.742748 -1453.825983 
L 77.609504 -1453.825983 
L 76.476261 -1453.825983 
L 75.343017 -1453.825983 
L 74.209774 -1453.825983 
L 73.07653 -1453.825983 
L 71.943287 -1453.825983 
L 70.810043 -1453.825983 
L 69.6768 -1453.825983 
L 68.543556 -1453.825983 
L 67.410313 -1453.825983 
z
" clip-path="url(#p6597bb8322)" style="fill: #eceff1; fill-opacity: 0.45; stroke: #eceff1; stroke-opacity: 0.45"/>
   </g>
   <g id="matplotlib.axis_1">
    <g id="xtick_1">
     <g id="line2d_1">
      <path d="M 181.326403 371.540982 
L 181.326403 22.318125 
" clip-path="url(#p6597bb8322)" style="fill: none; stroke: #f4f4f4; stroke-width: 0.8; stroke-linecap: square"/>
     </g>
     <g id="line2d_2">
      <defs>
       <path id="m9984fdc24b" d="M 0 0 
L 0 3.5 
" style="stroke: #000000; stroke-width: 0.8"/>
      </defs>
      <g>
       <use xlink:href="#m9984fdc24b" x="181.326403" y="371.540982" style="stroke: #000000; stroke-width: 0.8"/>
      </g>
     </g>
     <g id="text_1">
      <!-- $\mathdefault{10^{0}}$ -->
      <g transform="translate(172.526403 386.13942) scale(0.1 -0.1)">
       <defs>
        <path id="DejaVuSans-31" d="M 794 531 
L 1825 531 
L 1825 4091 
L 703 3866 
L 703 4441 
L 1819 4666 
L 2450 4666 
L 2450 531 
L 3481 531 
L 3481 0 
L 794 0 
L 794 531 
z
" transform="scale(0.015625)"/>
        <path id="DejaVuSans-30" d="M 2034 4250 
Q 1547 4250 1301 3770 
Q 1056 3291 1056 2328 
Q 1056 1369 1301 889 
Q 1547 409 2034 409 
Q 2525 409 2770 889 
Q 3016 1369 3016 2328 
Q 3016 3291 2770 3770 
Q 2525 4250 2034 4250 
z
M 2034 4750 
Q 2819 4750 3233 4129 
Q 3647 3509 3647 2328 
Q 3647 1150 3233 529 
Q 2819 -91 2034 -91 
Q 1250 -91 836 529 
Q 422 1150 422 2328 
Q 422 3509 836 4129 
Q 1250 4750 2034 4750 
z
" transform="scale(0.015625)"/>
       </defs>
       <use xlink:href="#DejaVuSans-31" transform="translate(0 0.765625)"/>
       <use xlink:href="#DejaVuSans-30" transform="translate(63.623047 0.765625)"/>
       <use xlink:href="#DejaVuSans-30" transform="translate(128.203125 39.046875) scale(0.7)"/>
      </g>
     </g>
    </g>
    <g id="xtick_2">
     <g id="line2d_3">
      <path d="M 67.410313 371.540982 
L 67.410313 22.318125 
" clip-path="url(#p6597bb8322)" style="fill: none; stroke: #f4f4f4; stroke-width: 0.8; stroke-linecap: square"/>
     </g>
     <g id="line2d_4">
      <defs>
       <path id="m5f66b5f934" d="M 0 0 
L 0 2 
" style="stroke: #000000; stroke-width: 0.6"/>
      </defs>
      <g>
       <use xlink:href="#m5f66b5f934" x="67.410313" y="371.540982" style="stroke: #000000; stroke-width: 0.6"/>
      </g>
     </g>
    </g>
    <g id="xtick_3">
     <g id="line2d_5">
      <path d="M 101.786511 371.540982 
L 101.786511 22.318125 
" clip-path="url(#p6597bb8322)" style="fill: none; stroke: #f4f4f4; stroke-width: 0.8; stroke-linecap: square"/>
     </g>
     <g id="line2d_6">
      <g>
       <use xlink:href="#m5f66b5f934" x="101.786511" y="371.540982" style="stroke: #000000; stroke-width: 0.6"/>
      </g>
     </g>
    </g>
    <g id="xtick_4">
     <g id="line2d_7">
      <path d="M 131.564528 371.540982 
L 131.564528 22.318125 
" clip-path="url(#p6597bb8322)" style="fill: none; stroke: #f4f4f4; stroke-width: 0.8; stroke-linecap: square"/>
     </g>
     <g id="line2d_8">
      <g>
       <use xlink:href="#m5f66b5f934" x="131.564528" y="371.540982" style="stroke: #000000; stroke-width: 0.6"/>
      </g>
     </g>
    </g>
    <g id="xtick_5">
     <g id="line2d_9">
      <path d="M 157.830601 371.540982 
L 157.830601 22.318125 
" clip-path="url(#p6597bb8322)" style="fill: none; stroke: #f4f4f4; stroke-width: 0.8; stroke-linecap: square"/>
     </g>
     <g id="line2d_10">
      <g>
       <use xlink:href="#m5f66b5f934" x="157.830601" y="371.540982" style="stroke: #000000; stroke-width: 0.6"/>
      </g>
     </g>
    </g>
    <g id="xtick_6">
     <g id="line2d_11">
      <path d="M 335.900907 371.540982 
L 335.900907 22.318125 
" clip-path="url(#p6597bb8322)" style="fill: none; stroke: #f4f4f4; stroke-width: 0.8; stroke-linecap: square"/>
     </g>
     <g id="line2d_12">
      <g>
       <use xlink:href="#m5f66b5f934" x="335.900907" y="371.540982" style="stroke: #000000; stroke-width: 0.6"/>
      </g>
     </g>
    </g>
    <g id="xtick_7">
     <g id="line2d_13">
      <path d="M 426.321195 371.540982 
L 426.321195 22.318125 
" clip-path="url(#p6597bb8322)" style="fill: none; stroke: #f4f4f4; stroke-width: 0.8; stroke-linecap: square"/>
     </g>
     <g id="line2d_14">
      <g>
       <use xlink:href="#m5f66b5f934" x="426.321195" y="371.540982" style="stroke: #000000; stroke-width: 0.6"/>
      </g>
     </g>
    </g>
    <g id="xtick_8">
     <g id="line2d_15">
      <path d="M 490.47541 371.540982 
L 490.47541 22.318125 
" clip-path="url(#p6597bb8322)" style="fill: none; stroke: #f4f4f4; stroke-width: 0.8; stroke-linecap: square"/>
     </g>
     <g id="line2d_16">
      <g>
       <use xlink:href="#m5f66b5f934" x="490.47541" y="371.540982" style="stroke: #000000; stroke-width: 0.6"/>
      </g>
     </g>
    </g>
    <g id="xtick_9">
     <g id="line2d_17">
      <path d="M 540.237286 371.540982 
L 540.237286 22.318125 
" clip-path="url(#p6597bb8322)" style="fill: none; stroke: #f4f4f4; stroke-width: 0.8; stroke-linecap: square"/>
     </g>
     <g id="line2d_18">
      <g>
       <use xlink:href="#m5f66b5f934" x="540.237286" y="371.540982" style="stroke: #000000; stroke-width: 0.6"/>
      </g>
     </g>
    </g>
    <g id="xtick_10">
     <g id="line2d_19">
      <path d="M 580.895698 371.540982 
L 580.895698 22.318125 
" clip-path="url(#p6597bb8322)" style="fill: none; stroke: #f4f4f4; stroke-width: 0.8; stroke-linecap: square"/>
     </g>
     <g id="line2d_20">
      <g>
       <use xlink:href="#m5f66b5f934" x="580.895698" y="371.540982" style="stroke: #000000; stroke-width: 0.6"/>
      </g>
     </g>
    </g>
    <g id="xtick_11">
     <g id="line2d_21">
      <path d="M 615.271897 371.540982 
L 615.271897 22.318125 
" clip-path="url(#p6597bb8322)" style="fill: none; stroke: #f4f4f4; stroke-width: 0.8; stroke-linecap: square"/>
     </g>
     <g id="line2d_22">
      <g>
       <use xlink:href="#m5f66b5f934" x="615.271897" y="371.540982" style="stroke: #000000; stroke-width: 0.6"/>
      </g>
     </g>
    </g>
    <g id="text_2">
     <!-- Arithmetic intensity  (FLOP / byte) -->
     <g transform="translate(273.790981 399.057701) scale(0.09 -0.09)">
      <defs>
       <path id="DejaVuSans-41" d="M 2188 4044 
L 1331 1722 
L 3047 1722 
L 2188 4044 
z
M 1831 4666 
L 2547 4666 
L 4325 0 
L 3669 0 
L 3244 1197 
L 1141 1197 
L 716 0 
L 50 0 
L 1831 4666 
z
" transform="scale(0.015625)"/>
       <path id="DejaVuSans-72" d="M 2631 2963 
Q 2534 3019 2420 3045 
Q 2306 3072 2169 3072 
Q 1681 3072 1420 2755 
Q 1159 2438 1159 1844 
L 1159 0 
L 581 0 
L 581 3500 
L 1159 3500 
L 1159 2956 
Q 1341 3275 1631 3429 
Q 1922 3584 2338 3584 
Q 2397 3584 2469 3576 
Q 2541 3569 2628 3553 
L 2631 2963 
z
" transform="scale(0.015625)"/>
       <path id="DejaVuSans-69" d="M 603 3500 
L 1178 3500 
L 1178 0 
L 603 0 
L 603 3500 
z
M 603 4863 
L 1178 4863 
L 1178 4134 
L 603 4134 
L 603 4863 
z
" transform="scale(0.015625)"/>
       <path id="DejaVuSans-74" d="M 1172 4494 
L 1172 3500 
L 2356 3500 
L 2356 3053 
L 1172 3053 
L 1172 1153 
Q 1172 725 1289 603 
Q 1406 481 1766 481 
L 2356 481 
L 2356 0 
L 1766 0 
Q 1100 0 847 248 
Q 594 497 594 1153 
L 594 3053 
L 172 3053 
L 172 3500 
L 594 3500 
L 594 4494 
L 1172 4494 
z
" transform="scale(0.015625)"/>
       <path id="DejaVuSans-68" d="M 3513 2113 
L 3513 0 
L 2938 0 
L 2938 2094 
Q 2938 2591 2744 2837 
Q 2550 3084 2163 3084 
Q 1697 3084 1428 2787 
Q 1159 2491 1159 1978 
L 1159 0 
L 581 0 
L 581 4863 
L 1159 4863 
L 1159 2956 
Q 1366 3272 1645 3428 
Q 1925 3584 2291 3584 
Q 2894 3584 3203 3211 
Q 3513 2838 3513 2113 
z
" transform="scale(0.015625)"/>
       <path id="DejaVuSans-6d" d="M 3328 2828 
Q 3544 3216 3844 3400 
Q 4144 3584 4550 3584 
Q 5097 3584 5394 3201 
Q 5691 2819 5691 2113 
L 5691 0 
L 5113 0 
L 5113 2094 
Q 5113 2597 4934 2840 
Q 4756 3084 4391 3084 
Q 3944 3084 3684 2787 
Q 3425 2491 3425 1978 
L 3425 0 
L 2847 0 
L 2847 2094 
Q 2847 2600 2669 2842 
Q 2491 3084 2119 3084 
Q 1678 3084 1418 2786 
Q 1159 2488 1159 1978 
L 1159 0 
L 581 0 
L 581 3500 
L 1159 3500 
L 1159 2956 
Q 1356 3278 1631 3431 
Q 1906 3584 2284 3584 
Q 2666 3584 2933 3390 
Q 3200 3197 3328 2828 
z
" transform="scale(0.015625)"/>
       <path id="DejaVuSans-65" d="M 3597 1894 
L 3597 1613 
L 953 1613 
Q 991 1019 1311 708 
Q 1631 397 2203 397 
Q 2534 397 2845 478 
Q 3156 559 3463 722 
L 3463 178 
Q 3153 47 2828 -22 
Q 2503 -91 2169 -91 
Q 1331 -91 842 396 
Q 353 884 353 1716 
Q 353 2575 817 3079 
Q 1281 3584 2069 3584 
Q 2775 3584 3186 3129 
Q 3597 2675 3597 1894 
z
M 3022 2063 
Q 3016 2534 2758 2815 
Q 2500 3097 2075 3097 
Q 1594 3097 1305 2825 
Q 1016 2553 972 2059 
L 3022 2063 
z
" transform="scale(0.015625)"/>
       <path id="DejaVuSans-63" d="M 3122 3366 
L 3122 2828 
Q 2878 2963 2633 3030 
Q 2388 3097 2138 3097 
Q 1578 3097 1268 2742 
Q 959 2388 959 1747 
Q 959 1106 1268 751 
Q 1578 397 2138 397 
Q 2388 397 2633 464 
Q 2878 531 3122 666 
L 3122 134 
Q 2881 22 2623 -34 
Q 2366 -91 2075 -91 
Q 1284 -91 818 406 
Q 353 903 353 1747 
Q 353 2603 823 3093 
Q 1294 3584 2113 3584 
Q 2378 3584 2631 3529 
Q 2884 3475 3122 3366 
z
" transform="scale(0.015625)"/>
       <path id="DejaVuSans-20" transform="scale(0.015625)"/>
       <path id="DejaVuSans-6e" d="M 3513 2113 
L 3513 0 
L 2938 0 
L 2938 2094 
Q 2938 2591 2744 2837 
Q 2550 3084 2163 3084 
Q 1697 3084 1428 2787 
Q 1159 2491 1159 1978 
L 1159 0 
L 581 0 
L 581 3500 
L 1159 3500 
L 1159 2956 
Q 1366 3272 1645 3428 
Q 1925 3584 2291 3584 
Q 2894 3584 3203 3211 
Q 3513 2838 3513 2113 
z
" transform="scale(0.015625)"/>
       <path id="DejaVuSans-73" d="M 2834 3397 
L 2834 2853 
Q 2591 2978 2328 3040 
Q 2066 3103 1784 3103 
Q 1356 3103 1142 2972 
Q 928 2841 928 2578 
Q 928 2378 1081 2264 
Q 1234 2150 1697 2047 
L 1894 2003 
Q 2506 1872 2764 1633 
Q 3022 1394 3022 966 
Q 3022 478 2636 193 
Q 2250 -91 1575 -91 
Q 1294 -91 989 -36 
Q 684 19 347 128 
L 347 722 
Q 666 556 975 473 
Q 1284 391 1588 391 
Q 1994 391 2212 530 
Q 2431 669 2431 922 
Q 2431 1156 2273 1281 
Q 2116 1406 1581 1522 
L 1381 1569 
Q 847 1681 609 1914 
Q 372 2147 372 2553 
Q 372 3047 722 3315 
Q 1072 3584 1716 3584 
Q 2034 3584 2315 3537 
Q 2597 3491 2834 3397 
z
" transform="scale(0.015625)"/>
       <path id="DejaVuSans-79" d="M 2059 -325 
Q 1816 -950 1584 -1140 
Q 1353 -1331 966 -1331 
L 506 -1331 
L 506 -850 
L 844 -850 
Q 1081 -850 1212 -737 
Q 1344 -625 1503 -206 
L 1606 56 
L 191 3500 
L 800 3500 
L 1894 763 
L 2988 3500 
L 3597 3500 
L 2059 -325 
z
" transform="scale(0.015625)"/>
       <path id="DejaVuSans-28" d="M 1984 4856 
Q 1566 4138 1362 3434 
Q 1159 2731 1159 2009 
Q 1159 1288 1364 580 
Q 1569 -128 1984 -844 
L 1484 -844 
Q 1016 -109 783 600 
Q 550 1309 550 2009 
Q 550 2706 781 3412 
Q 1013 4119 1484 4856 
L 1984 4856 
z
" transform="scale(0.015625)"/>
       <path id="DejaVuSans-46" d="M 628 4666 
L 3309 4666 
L 3309 4134 
L 1259 4134 
L 1259 2759 
L 3109 2759 
L 3109 2228 
L 1259 2228 
L 1259 0 
L 628 0 
L 628 4666 
z
" transform="scale(0.015625)"/>
       <path id="DejaVuSans-4c" d="M 628 4666 
L 1259 4666 
L 1259 531 
L 3531 531 
L 3531 0 
L 628 0 
L 628 4666 
z
" transform="scale(0.015625)"/>
       <path id="DejaVuSans-4f" d="M 2522 4238 
Q 1834 4238 1429 3725 
Q 1025 3213 1025 2328 
Q 1025 1447 1429 934 
Q 1834 422 2522 422 
Q 3209 422 3611 934 
Q 4013 1447 4013 2328 
Q 4013 3213 3611 3725 
Q 3209 4238 2522 4238 
z
M 2522 4750 
Q 3503 4750 4090 4092 
Q 4678 3434 4678 2328 
Q 4678 1225 4090 567 
Q 3503 -91 2522 -91 
Q 1538 -91 948 565 
Q 359 1222 359 2328 
Q 359 3434 948 4092 
Q 1538 4750 2522 4750 
z
" transform="scale(0.015625)"/>
       <path id="DejaVuSans-50" d="M 1259 4147 
L 1259 2394 
L 2053 2394 
Q 2494 2394 2734 2622 
Q 2975 2850 2975 3272 
Q 2975 3691 2734 3919 
Q 2494 4147 2053 4147 
L 1259 4147 
z
M 628 4666 
L 2053 4666 
Q 2838 4666 3239 4311 
Q 3641 3956 3641 3272 
Q 3641 2581 3239 2228 
Q 2838 1875 2053 1875 
L 1259 1875 
L 1259 0 
L 628 0 
L 628 4666 
z
" transform="scale(0.015625)"/>
       <path id="DejaVuSans-2f" d="M 1625 4666 
L 2156 4666 
L 531 -594 
L 0 -594 
L 1625 4666 
z
" transform="scale(0.015625)"/>
       <path id="DejaVuSans-62" d="M 3116 1747 
Q 3116 2381 2855 2742 
Q 2594 3103 2138 3103 
Q 1681 3103 1420 2742 
Q 1159 2381 1159 1747 
Q 1159 1113 1420 752 
Q 1681 391 2138 391 
Q 2594 391 2855 752 
Q 3116 1113 3116 1747 
z
M 1159 2969 
Q 1341 3281 1617 3432 
Q 1894 3584 2278 3584 
Q 2916 3584 3314 3078 
Q 3713 2572 3713 1747 
Q 3713 922 3314 415 
Q 2916 -91 2278 -91 
Q 1894 -91 1617 61 
Q 1341 213 1159 525 
L 1159 0 
L 581 0 
L 581 4863 
L 1159 4863 
L 1159 2969 
z
" transform="scale(0.015625)"/>
       <path id="DejaVuSans-29" d="M 513 4856 
L 1013 4856 
Q 1481 4119 1714 3412 
Q 1947 2706 1947 2009 
Q 1947 1309 1714 600 
Q 1481 -109 1013 -844 
L 513 -844 
Q 928 -128 1133 580 
Q 1338 1288 1338 2009 
Q 1338 2731 1133 3434 
Q 928 4138 513 4856 
z
" transform="scale(0.015625)"/>
      </defs>
      <use xlink:href="#DejaVuSans-41"/>
      <use xlink:href="#DejaVuSans-72" transform="translate(68.408203 0)"/>
      <use xlink:href="#DejaVuSans-69" transform="translate(109.521484 0)"/>
      <use xlink:href="#DejaVuSans-74" transform="translate(137.304688 0)"/>
      <use xlink:href="#DejaVuSans-68" transform="translate(176.513672 0)"/>
      <use xlink:href="#DejaVuSans-6d" transform="translate(239.892578 0)"/>
      <use xlink:href="#DejaVuSans-65" transform="translate(337.304688 0)"/>
      <use xlink:href="#DejaVuSans-74" transform="translate(398.828125 0)"/>
      <use xlink:href="#DejaVuSans-69" transform="translate(438.037109 0)"/>
      <use xlink:href="#DejaVuSans-63" transform="translate(465.820312 0)"/>
      <use xlink:href="#DejaVuSans-20" transform="translate(520.800781 0)"/>
      <use xlink:href="#DejaVuSans-69" transform="translate(552.587891 0)"/>
      <use xlink:href="#DejaVuSans-6e" transform="translate(580.371094 0)"/>
      <use xlink:href="#DejaVuSans-74" transform="translate(643.75 0)"/>
      <use xlink:href="#DejaVuSans-65" transform="translate(682.958984 0)"/>
      <use xlink:href="#DejaVuSans-6e" transform="translate(744.482422 0)"/>
      <use xlink:href="#DejaVuSans-73" transform="translate(807.861328 0)"/>
      <use xlink:href="#DejaVuSans-69" transform="translate(859.960938 0)"/>
      <use xlink:href="#DejaVuSans-74" transform="translate(887.744141 0)"/>
      <use xlink:href="#DejaVuSans-79" transform="translate(926.953125 0)"/>
      <use xlink:href="#DejaVuSans-20" transform="translate(986.132812 0)"/>
      <use xlink:href="#DejaVuSans-20" transform="translate(1017.919922 0)"/>
      <use xlink:href="#DejaVuSans-28" transform="translate(1049.707031 0)"/>
      <use xlink:href="#DejaVuSans-46" transform="translate(1088.720703 0)"/>
      <use xlink:href="#DejaVuSans-4c" transform="translate(1146.240234 0)"/>
      <use xlink:href="#DejaVuSans-4f" transform="translate(1198.328125 0)"/>
      <use xlink:href="#DejaVuSans-50" transform="translate(1277.039062 0)"/>
      <use xlink:href="#DejaVuSans-20" transform="translate(1337.341797 0)"/>
      <use xlink:href="#DejaVuSans-2f" transform="translate(1369.128906 0)"/>
      <use xlink:href="#DejaVuSans-20" transform="translate(1402.820312 0)"/>
      <use xlink:href="#DejaVuSans-62" transform="translate(1434.607422 0)"/>
      <use xlink:href="#DejaVuSans-79" transform="translate(1498.083984 0)"/>
      <use xlink:href="#DejaVuSans-74" transform="translate(1557.263672 0)"/>
      <use xlink:href="#DejaVuSans-65" transform="translate(1596.472656 0)"/>
      <use xlink:href="#DejaVuSans-29" transform="translate(1657.996094 0)"/>
     </g>
    </g>
   </g>
   <g id="matplotlib.axis_2">
    <g id="ytick_1">
     <g id="line2d_23">
      <path d="M 67.410313 160.514854 
L 632.898838 160.514854 
" clip-path="url(#p6597bb8322)" style="fill: none; stroke: #f4f4f4; stroke-width: 0.8; stroke-linecap: square"/>
     </g>
     <g id="line2d_24">
      <defs>
       <path id="m08d9750489" d="M 0 0 
L -3.5 0 
" style="stroke: #000000; stroke-width: 0.8"/>
      </defs>
      <g>
       <use xlink:href="#m08d9750489" x="67.410313" y="160.514854" style="stroke: #000000; stroke-width: 0.8"/>
      </g>
     </g>
     <g id="text_3">
      <!-- $\mathdefault{10^{0}}$ -->
      <g transform="translate(42.810313 164.314073) scale(0.1 -0.1)">
       <use xlink:href="#DejaVuSans-31" transform="translate(0 0.765625)"/>
       <use xlink:href="#DejaVuSans-30" transform="translate(63.623047 0.765625)"/>
       <use xlink:href="#DejaVuSans-30" transform="translate(128.203125 39.046875) scale(0.7)"/>
      </g>
     </g>
    </g>
    <g id="ytick_2">
     <g id="line2d_25">
      <path d="M 67.410313 371.540982 
L 632.898838 371.540982 
" clip-path="url(#p6597bb8322)" style="fill: none; stroke: #f4f4f4; stroke-width: 0.8; stroke-linecap: square"/>
     </g>
     <g id="line2d_26">
      <defs>
       <path id="m0eaa106c25" d="M 0 0 
L -2 0 
" style="stroke: #000000; stroke-width: 0.6"/>
      </defs>
      <g>
       <use xlink:href="#m0eaa106c25" x="67.410313" y="371.540982" style="stroke: #000000; stroke-width: 0.6"/>
      </g>
     </g>
     <g id="text_4">
      <!-- $\mathdefault{3\times10^{-1}}$ -->
      <g transform="translate(19.910313 375.340201) scale(0.1 -0.1)">
       <defs>
        <path id="DejaVuSans-33" d="M 2597 2516 
Q 3050 2419 3304 2112 
Q 3559 1806 3559 1356 
Q 3559 666 3084 287 
Q 2609 -91 1734 -91 
Q 1441 -91 1130 -33 
Q 819 25 488 141 
L 488 750 
Q 750 597 1062 519 
Q 1375 441 1716 441 
Q 2309 441 2620 675 
Q 2931 909 2931 1356 
Q 2931 1769 2642 2001 
Q 2353 2234 1838 2234 
L 1294 2234 
L 1294 2753 
L 1863 2753 
Q 2328 2753 2575 2939 
Q 2822 3125 2822 3475 
Q 2822 3834 2567 4026 
Q 2313 4219 1838 4219 
Q 1578 4219 1281 4162 
Q 984 4106 628 3988 
L 628 4550 
Q 988 4650 1302 4700 
Q 1616 4750 1894 4750 
Q 2613 4750 3031 4423 
Q 3450 4097 3450 3541 
Q 3450 3153 3228 2886 
Q 3006 2619 2597 2516 
z
" transform="scale(0.015625)"/>
        <path id="DejaVuSans-d7" d="M 4488 3438 
L 3059 2003 
L 4488 575 
L 4116 197 
L 2681 1631 
L 1247 197 
L 878 575 
L 2303 2003 
L 878 3438 
L 1247 3816 
L 2681 2381 
L 4116 3816 
L 4488 3438 
z
" transform="scale(0.015625)"/>
        <path id="DejaVuSans-2212" d="M 678 2272 
L 4684 2272 
L 4684 1741 
L 678 1741 
L 678 2272 
z
" transform="scale(0.015625)"/>
       </defs>
       <use xlink:href="#DejaVuSans-33" transform="translate(0 0.684375)"/>
       <use xlink:href="#DejaVuSans-d7" transform="translate(83.105469 0.684375)"/>
       <use xlink:href="#DejaVuSans-31" transform="translate(186.376953 0.684375)"/>
       <use xlink:href="#DejaVuSans-30" transform="translate(250 0.684375)"/>
       <use xlink:href="#DejaVuSans-2212" transform="translate(314.580078 38.965625) scale(0.7)"/>
       <use xlink:href="#DejaVuSans-31" transform="translate(373.232422 38.965625) scale(0.7)"/>
      </g>
     </g>
    </g>
    <g id="ytick_3">
     <g id="line2d_27">
      <path d="M 67.410313 321.117556 
L 632.898838 321.117556 
" clip-path="url(#p6597bb8322)" style="fill: none; stroke: #f4f4f4; stroke-width: 0.8; stroke-linecap: square"/>
     </g>
     <g id="line2d_28">
      <g>
       <use xlink:href="#m0eaa106c25" x="67.410313" y="321.117556" style="stroke: #000000; stroke-width: 0.6"/>
      </g>
     </g>
     <g id="text_5">
      <!-- $\mathdefault{4\times10^{-1}}$ -->
      <g transform="translate(19.910313 324.916775) scale(0.1 -0.1)">
       <defs>
        <path id="DejaVuSans-34" d="M 2419 4116 
L 825 1625 
L 2419 1625 
L 2419 4116 
z
M 2253 4666 
L 3047 4666 
L 3047 1625 
L 3713 1625 
L 3713 1100 
L 3047 1100 
L 3047 0 
L 2419 0 
L 2419 1100 
L 313 1100 
L 313 1709 
L 2253 4666 
z
" transform="scale(0.015625)"/>
       </defs>
       <use xlink:href="#DejaVuSans-34" transform="translate(0 0.684375)"/>
       <use xlink:href="#DejaVuSans-d7" transform="translate(83.105469 0.684375)"/>
       <use xlink:href="#DejaVuSans-31" transform="translate(186.376953 0.684375)"/>
       <use xlink:href="#DejaVuSans-30" transform="translate(250 0.684375)"/>
       <use xlink:href="#DejaVuSans-2212" transform="translate(314.580078 38.965625) scale(0.7)"/>
       <use xlink:href="#DejaVuSans-31" transform="translate(373.232422 38.965625) scale(0.7)"/>
      </g>
     </g>
    </g>
    <g id="ytick_4">
     <g id="line2d_29">
      <path d="M 67.410313 282.006108 
L 632.898838 282.006108 
" clip-path="url(#p6597bb8322)" style="fill: none; stroke: #f4f4f4; stroke-width: 0.8; stroke-linecap: square"/>
     </g>
     <g id="line2d_30">
      <g>
       <use xlink:href="#m0eaa106c25" x="67.410313" y="282.006108" style="stroke: #000000; stroke-width: 0.6"/>
      </g>
     </g>
    </g>
    <g id="ytick_5">
     <g id="line2d_31">
      <path d="M 67.410313 250.049728 
L 632.898838 250.049728 
" clip-path="url(#p6597bb8322)" style="fill: none; stroke: #f4f4f4; stroke-width: 0.8; stroke-linecap: square"/>
     </g>
     <g id="line2d_32">
      <g>
       <use xlink:href="#m0eaa106c25" x="67.410313" y="250.049728" style="stroke: #000000; stroke-width: 0.6"/>
      </g>
     </g>
     <g id="text_6">
      <!-- $\mathdefault{6\times10^{-1}}$ -->
      <g transform="translate(19.910313 253.848947) scale(0.1 -0.1)">
       <defs>
        <path id="DejaVuSans-36" d="M 2113 2584 
Q 1688 2584 1439 2293 
Q 1191 2003 1191 1497 
Q 1191 994 1439 701 
Q 1688 409 2113 409 
Q 2538 409 2786 701 
Q 3034 994 3034 1497 
Q 3034 2003 2786 2293 
Q 2538 2584 2113 2584 
z
M 3366 4563 
L 3366 3988 
Q 3128 4100 2886 4159 
Q 2644 4219 2406 4219 
Q 1781 4219 1451 3797 
Q 1122 3375 1075 2522 
Q 1259 2794 1537 2939 
Q 1816 3084 2150 3084 
Q 2853 3084 3261 2657 
Q 3669 2231 3669 1497 
Q 3669 778 3244 343 
Q 2819 -91 2113 -91 
Q 1303 -91 875 529 
Q 447 1150 447 2328 
Q 447 3434 972 4092 
Q 1497 4750 2381 4750 
Q 2619 4750 2861 4703 
Q 3103 4656 3366 4563 
z
" transform="scale(0.015625)"/>
       </defs>
       <use xlink:href="#DejaVuSans-36" transform="translate(0 0.684375)"/>
       <use xlink:href="#DejaVuSans-d7" transform="translate(83.105469 0.684375)"/>
       <use xlink:href="#DejaVuSans-31" transform="translate(186.376953 0.684375)"/>
       <use xlink:href="#DejaVuSans-30" transform="translate(250 0.684375)"/>
       <use xlink:href="#DejaVuSans-2212" transform="translate(314.580078 38.965625) scale(0.7)"/>
       <use xlink:href="#DejaVuSans-31" transform="translate(373.232422 38.965625) scale(0.7)"/>
      </g>
     </g>
    </g>
    <g id="ytick_6">
     <g id="line2d_33">
      <path d="M 67.410313 223.030994 
L 632.898838 223.030994 
" clip-path="url(#p6597bb8322)" style="fill: none; stroke: #f4f4f4; stroke-width: 0.8; stroke-linecap: square"/>
     </g>
     <g id="line2d_34">
      <g>
       <use xlink:href="#m0eaa106c25" x="67.410313" y="223.030994" style="stroke: #000000; stroke-width: 0.6"/>
      </g>
     </g>
    </g>
    <g id="ytick_7">
     <g id="line2d_35">
      <path d="M 67.410313 199.626302 
L 632.898838 199.626302 
" clip-path="url(#p6597bb8322)" style="fill: none; stroke: #f4f4f4; stroke-width: 0.8; stroke-linecap: square"/>
     </g>
     <g id="line2d_36">
      <g>
       <use xlink:href="#m0eaa106c25" x="67.410313" y="199.626302" style="stroke: #000000; stroke-width: 0.6"/>
      </g>
     </g>
    </g>
    <g id="ytick_8">
     <g id="line2d_37">
      <path d="M 67.410313 178.981901 
L 632.898838 178.981901 
" clip-path="url(#p6597bb8322)" style="fill: none; stroke: #f4f4f4; stroke-width: 0.8; stroke-linecap: square"/>
     </g>
     <g id="line2d_38">
      <g>
       <use xlink:href="#m0eaa106c25" x="67.410313" y="178.981901" style="stroke: #000000; stroke-width: 0.6"/>
      </g>
     </g>
    </g>
    <g id="ytick_9">
     <g id="line2d_39">
      <path d="M 67.410313 39.023601 
L 632.898838 39.023601 
" clip-path="url(#p6597bb8322)" style="fill: none; stroke: #f4f4f4; stroke-width: 0.8; stroke-linecap: square"/>
     </g>
     <g id="line2d_40">
      <g>
       <use xlink:href="#m0eaa106c25" x="67.410313" y="39.023601" style="stroke: #000000; stroke-width: 0.6"/>
      </g>
     </g>
     <g id="text_7">
      <!-- $\mathdefault{2\times10^{0}}$ -->
      <g transform="translate(25.810313 42.822819) scale(0.1 -0.1)">
       <defs>
        <path id="DejaVuSans-32" d="M 1228 531 
L 3431 531 
L 3431 0 
L 469 0 
L 469 531 
Q 828 903 1448 1529 
Q 2069 2156 2228 2338 
Q 2531 2678 2651 2914 
Q 2772 3150 2772 3378 
Q 2772 3750 2511 3984 
Q 2250 4219 1831 4219 
Q 1534 4219 1204 4116 
Q 875 4013 500 3803 
L 500 4441 
Q 881 4594 1212 4672 
Q 1544 4750 1819 4750 
Q 2544 4750 2975 4387 
Q 3406 4025 3406 3419 
Q 3406 3131 3298 2873 
Q 3191 2616 2906 2266 
Q 2828 2175 2409 1742 
Q 1991 1309 1228 531 
z
" transform="scale(0.015625)"/>
       </defs>
       <use xlink:href="#DejaVuSans-32" transform="translate(0 0.765625)"/>
       <use xlink:href="#DejaVuSans-d7" transform="translate(83.105469 0.765625)"/>
       <use xlink:href="#DejaVuSans-31" transform="translate(186.376953 0.765625)"/>
       <use xlink:href="#DejaVuSans-30" transform="translate(250 0.765625)"/>
       <use xlink:href="#DejaVuSans-30" transform="translate(314.580078 39.046875) scale(0.7)"/>
      </g>
     </g>
    </g>
    <g id="text_8">
     <!-- Achieved TFLOPS -->
     <g transform="translate(14.038594 235.787054) rotate(-90) scale(0.09 -0.09)">
      <defs>
       <path id="DejaVuSans-76" d="M 191 3500 
L 800 3500 
L 1894 563 
L 2988 3500 
L 3597 3500 
L 2284 0 
L 1503 0 
L 191 3500 
z
" transform="scale(0.015625)"/>
       <path id="DejaVuSans-64" d="M 2906 2969 
L 2906 4863 
L 3481 4863 
L 3481 0 
L 2906 0 
L 2906 525 
Q 2725 213 2448 61 
Q 2172 -91 1784 -91 
Q 1150 -91 751 415 
Q 353 922 353 1747 
Q 353 2572 751 3078 
Q 1150 3584 1784 3584 
Q 2172 3584 2448 3432 
Q 2725 3281 2906 2969 
z
M 947 1747 
Q 947 1113 1208 752 
Q 1469 391 1925 391 
Q 2381 391 2643 752 
Q 2906 1113 2906 1747 
Q 2906 2381 2643 2742 
Q 2381 3103 1925 3103 
Q 1469 3103 1208 2742 
Q 947 2381 947 1747 
z
" transform="scale(0.015625)"/>
       <path id="DejaVuSans-54" d="M -19 4666 
L 3928 4666 
L 3928 4134 
L 2272 4134 
L 2272 0 
L 1638 0 
L 1638 4134 
L -19 4134 
L -19 4666 
z
" transform="scale(0.015625)"/>
       <path id="DejaVuSans-53" d="M 3425 4513 
L 3425 3897 
Q 3066 4069 2747 4153 
Q 2428 4238 2131 4238 
Q 1616 4238 1336 4038 
Q 1056 3838 1056 3469 
Q 1056 3159 1242 3001 
Q 1428 2844 1947 2747 
L 2328 2669 
Q 3034 2534 3370 2195 
Q 3706 1856 3706 1288 
Q 3706 609 3251 259 
Q 2797 -91 1919 -91 
Q 1588 -91 1214 -16 
Q 841 59 441 206 
L 441 856 
Q 825 641 1194 531 
Q 1563 422 1919 422 
Q 2459 422 2753 634 
Q 3047 847 3047 1241 
Q 3047 1584 2836 1778 
Q 2625 1972 2144 2069 
L 1759 2144 
Q 1053 2284 737 2584 
Q 422 2884 422 3419 
Q 422 4038 858 4394 
Q 1294 4750 2059 4750 
Q 2388 4750 2728 4690 
Q 3069 4631 3425 4513 
z
" transform="scale(0.015625)"/>
      </defs>
      <use xlink:href="#DejaVuSans-41"/>
      <use xlink:href="#DejaVuSans-63" transform="translate(66.658203 0)"/>
      <use xlink:href="#DejaVuSans-68" transform="translate(121.638672 0)"/>
      <use xlink:href="#DejaVuSans-69" transform="translate(185.017578 0)"/>
      <use xlink:href="#DejaVuSans-65" transform="translate(212.800781 0)"/>
      <use xlink:href="#DejaVuSans-76" transform="translate(274.324219 0)"/>
      <use xlink:href="#DejaVuSans-65" transform="translate(333.503906 0)"/>
      <use xlink:href="#DejaVuSans-64" transform="translate(395.027344 0)"/>
      <use xlink:href="#DejaVuSans-20" transform="translate(458.503906 0)"/>
      <use xlink:href="#DejaVuSans-54" transform="translate(490.291016 0)"/>
      <use xlink:href="#DejaVuSans-46" transform="translate(551.375 0)"/>
      <use xlink:href="#DejaVuSans-4c" transform="translate(608.894531 0)"/>
      <use xlink:href="#DejaVuSans-4f" transform="translate(660.982422 0)"/>
      <use xlink:href="#DejaVuSans-50" transform="translate(739.693359 0)"/>
      <use xlink:href="#DejaVuSans-53" transform="translate(799.996094 0)"/>
     </g>
    </g>
   </g>
   <g id="patch_3">
    <path d="M 67.410313 371.540982 
L 67.410313 22.318125 
" style="fill: none; stroke: #000000; stroke-width: 0.8; stroke-linejoin: miter; stroke-linecap: square"/>
   </g>
   <g id="patch_4">
    <path d="M 632.898838 371.540982 
L 632.898838 22.318125 
" style="fill: none; stroke: #000000; stroke-width: 0.8; stroke-linejoin: miter; stroke-linecap: square"/>
   </g>
   <g id="patch_5">
    <path d="M 67.410313 371.540982 
L 632.898838 371.540982 
" style="fill: none; stroke: #000000; stroke-width: 0.8; stroke-linejoin: miter; stroke-linecap: square"/>
   </g>
   <g id="patch_6">
    <path d="M 67.410313 22.318125 
L 632.898838 22.318125 
" style="fill: none; stroke: #000000; stroke-width: 0.8; stroke-linejoin: miter; stroke-linecap: square"/>
   </g>
   <g id="PathCollection_1">
    <defs>
     <path id="md76c330ee9" d="M 0 2.915476 
C 0.773193 2.915476 1.514823 2.608283 2.061553 2.061553 
C 2.608283 1.514823 2.915476 0.773193 2.915476 0 
C 2.915476 -0.773193 2.608283 -1.514823 2.061553 -2.061553 
C 1.514823 -2.608283 0.773193 -2.915476 0 -2.915476 
C -0.773193 -2.915476 -1.514823 -2.608283 -2.061553 -2.061553 
C -2.608283 -1.514823 -2.915476 -0.773193 -2.915476 0 
C -2.915476 0.773193 -2.608283 1.514823 -2.061553 2.061553 
C -1.514823 2.608283 -0.773193 2.915476 0 2.915476 
z
" style="stroke: #ffffff; stroke-opacity: 0.55; stroke-width: 0.4"/>
    </defs>
    <g clip-path="url(#p6597bb8322)">
     <use xlink:href="#md76c330ee9" x="428.562459" y="481.720258" style="fill: #cfd8dc; fill-opacity: 0.55; stroke: #ffffff; stroke-opacity: 0.55; stroke-width: 0.4"/>
     <use xlink:href="#md76c330ee9" x="426.321195" y="481.720258" style="fill: #cfd8dc; fill-opacity: 0.55; stroke: #ffffff; stroke-opacity: 0.55; stroke-width: 0.4"/>
     <use xlink:href="#md76c330ee9" x="274.822656" y="471.094287" style="fill: #cfd8dc; fill-opacity: 0.55; stroke: #ffffff; stroke-opacity: 0.55; stroke-width: 0.4"/>
     <use xlink:href="#md76c330ee9" x="271.746691" y="505.12495" style="fill: #cfd8dc; fill-opacity: 0.55; stroke: #ffffff; stroke-opacity: 0.55; stroke-width: 0.4"/>
    </g>
   </g>
   <g id="text_9">
    <!-- Quantization — roofline (H200) -->
    <g transform="translate(67.410313 16.318125) scale(0.12 -0.12)">
     <defs>
      <path id="DejaVuSans-Bold-51" d="M 2847 -84 
L 2753 -84 
Q 1600 -84 959 553 
Q 319 1191 319 2328 
Q 319 3463 958 4106 
Q 1597 4750 2719 4750 
Q 3853 4750 4486 4112 
Q 5119 3475 5119 2328 
Q 5119 1541 4783 972 
Q 4447 403 3816 116 
L 4756 -934 
L 3609 -934 
L 2847 -84 
z
M 2719 3878 
Q 2169 3878 1866 3472 
Q 1563 3066 1563 2328 
Q 1563 1578 1859 1179 
Q 2156 781 2719 781 
Q 3272 781 3575 1187 
Q 3878 1594 3878 2328 
Q 3878 3066 3575 3472 
Q 3272 3878 2719 3878 
z
" transform="scale(0.015625)"/>
      <path id="DejaVuSans-Bold-75" d="M 500 1363 
L 500 3500 
L 1625 3500 
L 1625 3150 
Q 1625 2866 1622 2436 
Q 1619 2006 1619 1863 
Q 1619 1441 1641 1255 
Q 1663 1069 1716 984 
Q 1784 875 1895 815 
Q 2006 756 2150 756 
Q 2500 756 2700 1025 
Q 2900 1294 2900 1772 
L 2900 3500 
L 4019 3500 
L 4019 0 
L 2900 0 
L 2900 506 
Q 2647 200 2364 54 
Q 2081 -91 1741 -91 
Q 1134 -91 817 281 
Q 500 653 500 1363 
z
" transform="scale(0.015625)"/>
      <path id="DejaVuSans-Bold-61" d="M 2106 1575 
Q 1756 1575 1579 1456 
Q 1403 1338 1403 1106 
Q 1403 894 1545 773 
Q 1688 653 1941 653 
Q 2256 653 2472 879 
Q 2688 1106 2688 1447 
L 2688 1575 
L 2106 1575 
z
M 3816 1997 
L 3816 0 
L 2688 0 
L 2688 519 
Q 2463 200 2181 54 
Q 1900 -91 1497 -91 
Q 953 -91 614 226 
Q 275 544 275 1050 
Q 275 1666 698 1953 
Q 1122 2241 2028 2241 
L 2688 2241 
L 2688 2328 
Q 2688 2594 2478 2717 
Q 2269 2841 1825 2841 
Q 1466 2841 1156 2769 
Q 847 2697 581 2553 
L 581 3406 
Q 941 3494 1303 3539 
Q 1666 3584 2028 3584 
Q 2975 3584 3395 3211 
Q 3816 2838 3816 1997 
z
" transform="scale(0.015625)"/>
      <path id="DejaVuSans-Bold-6e" d="M 4056 2131 
L 4056 0 
L 2931 0 
L 2931 347 
L 2931 1631 
Q 2931 2084 2911 2256 
Q 2891 2428 2841 2509 
Q 2775 2619 2662 2680 
Q 2550 2741 2406 2741 
Q 2056 2741 1856 2470 
Q 1656 2200 1656 1722 
L 1656 0 
L 538 0 
L 538 3500 
L 1656 3500 
L 1656 2988 
Q 1909 3294 2193 3439 
Q 2478 3584 2822 3584 
Q 3428 3584 3742 3212 
Q 4056 2841 4056 2131 
z
" transform="scale(0.015625)"/>
      <path id="DejaVuSans-Bold-74" d="M 1759 4494 
L 1759 3500 
L 2913 3500 
L 2913 2700 
L 1759 2700 
L 1759 1216 
Q 1759 972 1856 886 
Q 1953 800 2241 800 
L 2816 800 
L 2816 0 
L 1856 0 
Q 1194 0 917 276 
Q 641 553 641 1216 
L 641 2700 
L 84 2700 
L 84 3500 
L 641 3500 
L 641 4494 
L 1759 4494 
z
" transform="scale(0.015625)"/>
      <path id="DejaVuSans-Bold-69" d="M 538 3500 
L 1656 3500 
L 1656 0 
L 538 0 
L 538 3500 
z
M 538 4863 
L 1656 4863 
L 1656 3950 
L 538 3950 
L 538 4863 
z
" transform="scale(0.015625)"/>
      <path id="DejaVuSans-Bold-7a" d="M 366 3500 
L 3419 3500 
L 3419 2719 
L 1575 800 
L 3419 800 
L 3419 0 
L 288 0 
L 288 781 
L 2131 2700 
L 366 2700 
L 366 3500 
z
" transform="scale(0.015625)"/>
      <path id="DejaVuSans-Bold-6f" d="M 2203 2784 
Q 1831 2784 1636 2517 
Q 1441 2250 1441 1747 
Q 1441 1244 1636 976 
Q 1831 709 2203 709 
Q 2569 709 2762 976 
Q 2956 1244 2956 1747 
Q 2956 2250 2762 2517 
Q 2569 2784 2203 2784 
z
M 2203 3584 
Q 3106 3584 3614 3096 
Q 4122 2609 4122 1747 
Q 4122 884 3614 396 
Q 3106 -91 2203 -91 
Q 1297 -91 786 396 
Q 275 884 275 1747 
Q 275 2609 786 3096 
Q 1297 3584 2203 3584 
z
" transform="scale(0.015625)"/>
      <path id="DejaVuSans-Bold-20" transform="scale(0.015625)"/>
      <path id="DejaVuSans-Bold-2014" d="M 344 2156 
L 6056 2156 
L 6056 1350 
L 344 1350 
L 344 2156 
z
" transform="scale(0.015625)"/>
      <path id="DejaVuSans-Bold-72" d="M 3138 2547 
Q 2991 2616 2845 2648 
Q 2700 2681 2553 2681 
Q 2122 2681 1889 2404 
Q 1656 2128 1656 1613 
L 1656 0 
L 538 0 
L 538 3500 
L 1656 3500 
L 1656 2925 
Q 1872 3269 2151 3426 
Q 2431 3584 2822 3584 
Q 2878 3584 2943 3579 
Q 3009 3575 3134 3559 
L 3138 2547 
z
" transform="scale(0.015625)"/>
      <path id="DejaVuSans-Bold-66" d="M 2841 4863 
L 2841 4128 
L 2222 4128 
Q 1984 4128 1890 4042 
Q 1797 3956 1797 3744 
L 1797 3500 
L 2753 3500 
L 2753 2700 
L 1797 2700 
L 1797 0 
L 678 0 
L 678 2700 
L 122 2700 
L 122 3500 
L 678 3500 
L 678 3744 
Q 678 4316 997 4589 
Q 1316 4863 1984 4863 
L 2841 4863 
z
" transform="scale(0.015625)"/>
      <path id="DejaVuSans-Bold-6c" d="M 538 4863 
L 1656 4863 
L 1656 0 
L 538 0 
L 538 4863 
z
" transform="scale(0.015625)"/>
      <path id="DejaVuSans-Bold-65" d="M 4031 1759 
L 4031 1441 
L 1416 1441 
Q 1456 1047 1700 850 
Q 1944 653 2381 653 
Q 2734 653 3104 758 
Q 3475 863 3866 1075 
L 3866 213 
Q 3469 63 3072 -14 
Q 2675 -91 2278 -91 
Q 1328 -91 801 392 
Q 275 875 275 1747 
Q 275 2603 792 3093 
Q 1309 3584 2216 3584 
Q 3041 3584 3536 3087 
Q 4031 2591 4031 1759 
z
M 2881 2131 
Q 2881 2450 2695 2645 
Q 2509 2841 2209 2841 
Q 1884 2841 1681 2658 
Q 1478 2475 1428 2131 
L 2881 2131 
z
" transform="scale(0.015625)"/>
      <path id="DejaVuSans-Bold-28" d="M 2413 -844 
L 1484 -844 
Q 1006 -72 778 623 
Q 550 1319 550 2003 
Q 550 2688 779 3389 
Q 1009 4091 1484 4856 
L 2413 4856 
Q 2013 4116 1813 3408 
Q 1613 2700 1613 2009 
Q 1613 1319 1811 609 
Q 2009 -100 2413 -844 
z
" transform="scale(0.015625)"/>
      <path id="DejaVuSans-Bold-48" d="M 588 4666 
L 1791 4666 
L 1791 2888 
L 3566 2888 
L 3566 4666 
L 4769 4666 
L 4769 0 
L 3566 0 
L 3566 1978 
L 1791 1978 
L 1791 0 
L 588 0 
L 588 4666 
z
" transform="scale(0.015625)"/>
      <path id="DejaVuSans-Bold-32" d="M 1844 884 
L 3897 884 
L 3897 0 
L 506 0 
L 506 884 
L 2209 2388 
Q 2438 2594 2547 2791 
Q 2656 2988 2656 3200 
Q 2656 3528 2436 3728 
Q 2216 3928 1850 3928 
Q 1569 3928 1234 3808 
Q 900 3688 519 3450 
L 519 4475 
Q 925 4609 1322 4679 
Q 1719 4750 2100 4750 
Q 2938 4750 3402 4381 
Q 3866 4013 3866 3353 
Q 3866 2972 3669 2642 
Q 3472 2313 2841 1759 
L 1844 884 
z
" transform="scale(0.015625)"/>
      <path id="DejaVuSans-Bold-30" d="M 2944 2338 
Q 2944 3213 2780 3570 
Q 2616 3928 2228 3928 
Q 1841 3928 1675 3570 
Q 1509 3213 1509 2338 
Q 1509 1453 1675 1090 
Q 1841 728 2228 728 
Q 2613 728 2778 1090 
Q 2944 1453 2944 2338 
z
M 4147 2328 
Q 4147 1169 3647 539 
Q 3147 -91 2228 -91 
Q 1306 -91 806 539 
Q 306 1169 306 2328 
Q 306 3491 806 4120 
Q 1306 4750 2228 4750 
Q 3147 4750 3647 4120 
Q 4147 3491 4147 2328 
z
" transform="scale(0.015625)"/>
      <path id="DejaVuSans-Bold-29" d="M 513 -844 
Q 913 -100 1113 609 
Q 1313 1319 1313 2009 
Q 1313 2700 1113 3408 
Q 913 4116 513 4856 
L 1441 4856 
Q 1916 4091 2145 3389 
Q 2375 2688 2375 2003 
Q 2375 1319 2147 623 
Q 1919 -72 1441 -844 
L 513 -844 
z
" transform="scale(0.015625)"/>
     </defs>
     <use xlink:href="#DejaVuSans-Bold-51"/>
     <use xlink:href="#DejaVuSans-Bold-75" transform="translate(85.009766 0)"/>
     <use xlink:href="#DejaVuSans-Bold-61" transform="translate(156.201172 0)"/>
     <use xlink:href="#DejaVuSans-Bold-6e" transform="translate(223.681641 0)"/>
     <use xlink:href="#DejaVuSans-Bold-74" transform="translate(294.873047 0)"/>
     <use xlink:href="#DejaVuSans-Bold-69" transform="translate(342.675781 0)"/>
     <use xlink:href="#DejaVuSans-Bold-7a" transform="translate(376.953125 0)"/>
     <use xlink:href="#DejaVuSans-Bold-61" transform="translate(435.15625 0)"/>
     <use xlink:href="#DejaVuSans-Bold-74" transform="translate(502.636719 0)"/>
     <use xlink:href="#DejaVuSans-Bold-69" transform="translate(550.439453 0)"/>
     <use xlink:href="#DejaVuSans-Bold-6f" transform="translate(584.716797 0)"/>
     <use xlink:href="#DejaVuSans-Bold-6e" transform="translate(653.417969 0)"/>
     <use xlink:href="#DejaVuSans-Bold-20" transform="translate(724.609375 0)"/>
     <use xlink:href="#DejaVuSans-Bold-2014" transform="translate(759.423828 0)"/>
     <use xlink:href="#DejaVuSans-Bold-20" transform="translate(859.423828 0)"/>
     <use xlink:href="#DejaVuSans-Bold-72" transform="translate(894.238281 0)"/>
     <use xlink:href="#DejaVuSans-Bold-6f" transform="translate(943.554688 0)"/>
     <use xlink:href="#DejaVuSans-Bold-6f" transform="translate(1012.255859 0)"/>
     <use xlink:href="#DejaVuSans-Bold-66" transform="translate(1080.957031 0)"/>
     <use xlink:href="#DejaVuSans-Bold-6c" transform="translate(1124.462891 0)"/>
     <use xlink:href="#DejaVuSans-Bold-69" transform="translate(1158.740234 0)"/>
     <use xlink:href="#DejaVuSans-Bold-6e" transform="translate(1193.017578 0)"/>
     <use xlink:href="#DejaVuSans-Bold-65" transform="translate(1264.208984 0)"/>
     <use xlink:href="#DejaVuSans-Bold-20" transform="translate(1332.03125 0)"/>
     <use xlink:href="#DejaVuSans-Bold-28" transform="translate(1366.845703 0)"/>
     <use xlink:href="#DejaVuSans-Bold-48" transform="translate(1412.548828 0)"/>
     <use xlink:href="#DejaVuSans-Bold-32" transform="translate(1496.240234 0)"/>
     <use xlink:href="#DejaVuSans-Bold-30" transform="translate(1565.820312 0)"/>
     <use xlink:href="#DejaVuSans-Bold-30" transform="translate(1635.400391 0)"/>
     <use xlink:href="#DejaVuSans-Bold-29" transform="translate(1704.980469 0)"/>
    </g>
   </g>
   <g id="line2d_41">
    <path d="M 0 0 
" clip-path="url(#p6597bb8322)" style="fill: none; stroke: #37474f; stroke-width: 1.4; stroke-linecap: square"/>
   </g>
   <g id="legend_1">
    <g id="patch_7">
     <path d="M 489.716806 367.790982 
L 627.648838 367.790982 
Q 629.148838 367.790982 629.148838 366.290982 
L 629.148838 356.032388 
Q 629.148838 354.532388 627.648838 354.532388 
L 489.716806 354.532388 
Q 488.216806 354.532388 488.216806 356.032388 
L 488.216806 366.290982 
Q 488.216806 367.790982 489.716806 367.790982 
z
" style="fill: #ffffff; opacity: 0.9; stroke: #cccccc; stroke-linejoin: miter"/>
    </g>
    <g id="PathCollection_2">
     <g>
      <use xlink:href="#md76c330ee9" x="498.716806" y="361.262467" style="fill: #cfd8dc; fill-opacity: 0.55; stroke: #ffffff; stroke-opacity: 0.55; stroke-width: 0.4"/>
     </g>
    </g>
    <g id="text_10">
     <!-- torch-ref (ref) -->
     <g transform="translate(512.216806 363.231217) scale(0.075 -0.075)">
      <defs>
       <path id="DejaVuSans-6f" d="M 1959 3097 
Q 1497 3097 1228 2736 
Q 959 2375 959 1747 
Q 959 1119 1226 758 
Q 1494 397 1959 397 
Q 2419 397 2687 759 
Q 2956 1122 2956 1747 
Q 2956 2369 2687 2733 
Q 2419 3097 1959 3097 
z
M 1959 3584 
Q 2709 3584 3137 3096 
Q 3566 2609 3566 1747 
Q 3566 888 3137 398 
Q 2709 -91 1959 -91 
Q 1206 -91 779 398 
Q 353 888 353 1747 
Q 353 2609 779 3096 
Q 1206 3584 1959 3584 
z
" transform="scale(0.015625)"/>
       <path id="DejaVuSans-2d" d="M 313 2009 
L 1997 2009 
L 1997 1497 
L 313 1497 
L 313 2009 
z
" transform="scale(0.015625)"/>
       <path id="DejaVuSans-66" d="M 2375 4863 
L 2375 4384 
L 1825 4384 
Q 1516 4384 1395 4259 
Q 1275 4134 1275 3809 
L 1275 3500 
L 2222 3500 
L 2222 3053 
L 1275 3053 
L 1275 0 
L 697 0 
L 697 3053 
L 147 3053 
L 147 3500 
L 697 3500 
L 697 3744 
Q 697 4328 969 4595 
Q 1241 4863 1831 4863 
L 2375 4863 
z
" transform="scale(0.015625)"/>
      </defs>
      <use xlink:href="#DejaVuSans-74"/>
      <use xlink:href="#DejaVuSans-6f" transform="translate(39.208984 0)"/>
      <use xlink:href="#DejaVuSans-72" transform="translate(100.390625 0)"/>
      <use xlink:href="#DejaVuSans-63" transform="translate(139.253906 0)"/>
      <use xlink:href="#DejaVuSans-68" transform="translate(194.234375 0)"/>
      <use xlink:href="#DejaVuSans-2d" transform="translate(257.613281 0)"/>
      <use xlink:href="#DejaVuSans-72" transform="translate(293.697266 0)"/>
      <use xlink:href="#DejaVuSans-65" transform="translate(332.560547 0)"/>
      <use xlink:href="#DejaVuSans-66" transform="translate(394.083984 0)"/>
      <use xlink:href="#DejaVuSans-20" transform="translate(429.289062 0)"/>
      <use xlink:href="#DejaVuSans-28" transform="translate(461.076172 0)"/>
      <use xlink:href="#DejaVuSans-72" transform="translate(500.089844 0)"/>
      <use xlink:href="#DejaVuSans-65" transform="translate(538.953125 0)"/>
      <use xlink:href="#DejaVuSans-66" transform="translate(600.476562 0)"/>
      <use xlink:href="#DejaVuSans-29" transform="translate(635.681641 0)"/>
     </g>
    </g>
    <g id="PathCollection_3">
     <defs>
      <path id="mbd9220bb7a" d="M 0 -4.062019 
L -4.062019 4.062019 
L 4.062019 4.062019 
z
" style="stroke: #ffffff; stroke-width: 0.6"/>
     </defs>
     <g>
      <use xlink:href="#mbd9220bb7a" x="585.318369" y="361.262467" style="fill: #00897b; stroke: #ffffff; stroke-width: 0.6"/>
     </g>
    </g>
    <g id="text_11">
     <!-- TileOPs -->
     <g transform="translate(598.818369 363.231217) scale(0.075 -0.075)">
      <defs>
       <path id="DejaVuSans-6c" d="M 603 4863 
L 1178 4863 
L 1178 0 
L 603 0 
L 603 4863 
z
" transform="scale(0.015625)"/>
      </defs>
      <use xlink:href="#DejaVuSans-54"/>
      <use xlink:href="#DejaVuSans-69" transform="translate(57.958984 0)"/>
      <use xlink:href="#DejaVuSans-6c" transform="translate(85.742188 0)"/>
      <use xlink:href="#DejaVuSans-65" transform="translate(113.525391 0)"/>
      <use xlink:href="#DejaVuSans-4f" transform="translate(175.048828 0)"/>
      <use xlink:href="#DejaVuSans-50" transform="translate(253.759766 0)"/>
      <use xlink:href="#DejaVuSans-73" transform="translate(312.3125 0)"/>
     </g>
    </g>
   </g>
   <g id="PathCollection_4">
    <g clip-path="url(#p6597bb8322)">
     <use xlink:href="#mbd9220bb7a" x="428.562459" y="160.514854" style="fill: #00897b; stroke: #ffffff; stroke-width: 0.6"/>
     <use xlink:href="#mbd9220bb7a" x="426.321195" y="162.276425" style="fill: #00897b; stroke: #ffffff; stroke-width: 0.6"/>
     <use xlink:href="#mbd9220bb7a" x="274.822656" y="215.675726" style="fill: #00897b; stroke: #ffffff; stroke-width: 0.6"/>
     <use xlink:href="#mbd9220bb7a" x="271.746691" y="167.669922" style="fill: #00897b; stroke: #ffffff; stroke-width: 0.6"/>
    </g>
   </g>
  </g>
 </g>
 <defs>
  <clipPath id="p6597bb8322">
   <rect x="67.410313" y="22.318125" width="565.488525" height="349.222857"/>
  </clipPath>
 </defs>
</svg>
