<?xml version="1.0" encoding="utf-8" standalone="no"?>
<!DOCTYPE svg PUBLIC "-//W3C//DTD SVG 1.1//EN"
  "http://www.w3.org/Graphics/SVG/1.1/DTD/svg11.dtd">
<svg xmlns:xlink="http://www.w3.org/1999/xlink" width="640.098838pt" height="407.576065pt" viewBox="0 0 640.098838 407.576065" xmlns="http://www.w3.org/2000/svg" version="1.1">
 <metadata>
  <rdf:RDF xmlns:dc="http://purl.org/dc/elements/1.1/" xmlns:cc="http://creativecommons.org/ns#" xmlns:rdf="http://www.w3.org/1999/02/22-rdf-syntax-ns#">
   <cc:Work>
    <dc:type rdf:resource="http://purl.org/dc/dcmitype/StillImage"/>
    <dc:date>2026-06-16T16:27:17.853286</dc:date>
    <dc:format>image/svg+xml</dc:format>
    <dc:creator>
     <cc:Agent>
      <dc:title>Matplotlib v3.10.9, https://matplotlib.org/</dc:title>
     </cc:Agent>
    </dc:creator>
   </cc:Work>
  </rdf:RDF>
 </metadata>
 <defs>
  <style type="text/css">*{stroke-linejoin: round; stroke-linecap: butt}</style>
 </defs>
 <g id="figure_1">
  <g id="patch_1">
   <path d="M 0 407.576065 
L 640.098838 407.576065 
L 640.098838 0 
L 0 0 
z
" style="fill: #ffffff"/>
  </g>
  <g id="axes_1">
   <g id="patch_2">
    <path d="M 67.410313 370.987627 
L 632.898838 370.987627 
L 632.898838 56.219065 
L 67.410313 56.219065 
z
" style="fill: #ffffff"/>
   </g>
   <g id="FillBetweenPolyCollection_1">
    <path d="M 67.410312 -2191.868235 
L 67.410312 111.620948 
L 68.543556 109.853437 
L 69.6768 108.085927 
L 70.810043 106.318416 
L 71.943287 104.550905 
L 73.07653 102.783395 
L 74.209774 101.015884 
L 75.343017 99.248373 
L 76.476261 97.480863 
L 77.609504 95.713352 
L 78.742748 93.945842 
L 79.875991 92.178331 
L 81.009235 90.41082 
L 82.142478 88.64331 
L 83.275722 86.875799 
L 84.408966 85.108288 
L 85.542209 83.340778 
L 86.675453 81.573267 
L 87.808696 79.805757 
L 88.94194 78.038246 
L 90.075183 76.270735 
L 91.208427 74.503225 
L 92.34167 72.735714 
L 93.474914 70.968203 
L 94.608157 69.200693 
L 95.741401 67.433182 
L 96.874644 65.665672 
L 98.007888 63.898161 
L 99.141132 62.13065 
L 100.274375 60.36314 
L 101.407619 58.595629 
L 102.540862 56.828118 
L 103.674106 55.060608 
L 104.807349 53.293097 
L 105.940593 51.525587 
L 107.073836 49.758076 
L 108.20708 47.990565 
L 109.340323 46.223055 
L 110.473567 44.455544 
L 111.60681 42.688033 
L 112.740054 40.920523 
L 113.873298 39.153012 
L 115.006541 37.385502 
L 116.139785 35.617991 
L 117.273028 33.85048 
L 118.406272 32.08297 
L 119.539515 30.315459 
L 120.672759 28.547949 
L 121.806002 26.780438 
L 122.939246 25.012927 
L 124.072489 23.245417 
L 125.205733 21.477906 
L 126.338976 19.710395 
L 127.47222 17.942885 
L 128.605464 16.175374 
L 129.738707 14.407864 
L 130.871951 12.640353 
L 132.005194 10.872842 
L 133.138438 9.105332 
L 134.271681 7.337821 
L 135.404925 5.57031 
L 136.538168 3.8028 
L 137.671412 2.035289 
L 138.804655 0.267779 
L 139.937899 -1.499732 
L 141.071142 -3.267243 
L 142.204386 -5.034753 
L 143.337629 -6.802264 
L 144.470873 -8.569775 
L 145.604117 -10.337285 
L 146.73736 -12.104796 
L 147.870604 -13.872306 
L 149.003847 -15.639817 
L 150.137091 -17.407328 
L 151.270334 -19.174838 
L 152.403578 -20.942349 
L 153.536821 -22.70986 
L 154.670065 -24.47737 
L 155.803308 -26.244881 
L 156.936552 -28.012391 
L 158.069795 -29.779902 
L 159.203039 -31.547413 
L 160.336283 -33.314923 
L 161.469526 -35.082434 
L 162.60277 -36.849945 
L 163.736013 -38.617455 
L 164.869257 -40.384966 
L 166.0025 -42.152476 
L 167.135744 -43.919987 
L 168.268987 -45.687498 
L 169.402231 -47.455008 
L 170.535474 -49.222519 
L 171.668718 -50.990029 
L 172.801961 -52.75754 
L 173.935205 -54.525051 
L 175.068449 -56.292561 
L 176.201692 -58.060072 
L 177.334936 -59.827583 
L 178.468179 -61.595093 
L 179.601423 -63.362604 
L 180.734666 -65.130114 
L 181.86791 -66.897625 
L 183.001153 -68.665136 
L 184.134397 -70.432646 
L 185.26764 -72.200157 
L 186.400884 -73.967668 
L 187.534127 -75.735178 
L 188.667371 -77.502689 
L 189.800615 -79.270199 
L 190.933858 -81.03771 
L 192.067102 -82.805221 
L 193.200345 -84.572731 
L 194.333589 -86.340242 
L 195.466832 -88.107753 
L 196.600076 -89.875263 
L 197.733319 -91.642774 
L 198.866563 -93.410284 
L 199.999806 -95.177795 
L 201.13305 -96.945306 
L 202.266293 -98.712816 
L 203.399537 -100.480327 
L 204.532781 -102.247838 
L 205.666024 -104.015348 
L 206.799268 -105.782859 
L 207.932511 -107.550369 
L 209.065755 -109.31788 
L 210.198998 -111.085391 
L 211.332242 -112.852901 
L 212.465485 -114.620412 
L 213.598729 -116.387922 
L 214.731972 -118.155433 
L 215.865216 -119.922944 
L 216.998459 -121.690454 
L 218.131703 -123.457965 
L 219.264946 -125.225476 
L 220.39819 -126.992986 
L 221.531434 -128.760497 
L 222.664677 -130.528007 
L 223.797921 -132.295518 
L 224.931164 -134.063029 
L 226.064408 -135.830539 
L 227.197651 -137.59805 
L 228.330895 -139.365561 
L 229.464138 -141.133071 
L 230.597382 -142.900582 
L 231.730625 -144.668092 
L 232.863869 -146.435603 
L 233.997112 -148.203114 
L 235.130356 -149.970624 
L 236.2636 -151.738135 
L 237.396843 -153.505646 
L 238.530087 -155.273156 
L 239.66333 -157.040667 
L 240.796574 -158.808177 
L 241.929817 -160.575688 
L 243.063061 -162.343199 
L 244.196304 -164.110709 
L 245.329548 -165.87822 
L 246.462791 -167.645731 
L 247.596035 -169.413241 
L 248.729278 -171.180752 
L 249.862522 -172.948262 
L 250.995766 -174.715773 
L 252.129009 -176.483284 
L 253.262253 -178.250794 
L 254.395496 -180.018305 
L 255.52874 -181.785816 
L 256.661983 -183.553326 
L 257.795227 -185.320837 
L 258.92847 -187.088347 
L 260.061714 -188.855858 
L 261.194957 -190.623369 
L 262.328201 -192.390879 
L 263.461444 -194.15839 
L 264.594688 -195.9259 
L 265.727932 -197.693411 
L 266.861175 -199.460922 
L 267.994419 -201.228432 
L 269.127662 -202.995943 
L 270.260906 -204.763454 
L 271.394149 -206.530964 
L 272.527393 -208.298475 
L 273.660636 -210.065985 
L 274.79388 -211.833496 
L 275.927123 -213.601007 
L 277.060367 -215.368517 
L 278.19361 -217.136028 
L 279.326854 -218.903539 
L 280.460098 -220.671049 
L 281.593341 -222.43856 
L 282.726585 -224.20607 
L 283.859828 -225.973581 
L 284.993072 -227.741092 
L 286.126315 -229.508602 
L 287.259559 -231.276113 
L 288.392802 -233.043624 
L 289.526046 -234.811134 
L 290.659289 -236.578645 
L 291.792533 -238.346155 
L 292.925776 -240.113666 
L 294.05902 -241.881177 
L 295.192263 -243.648687 
L 296.325507 -245.416198 
L 297.458751 -247.183709 
L 298.591994 -248.951219 
L 299.725238 -250.71873 
L 300.858481 -252.48624 
L 301.991725 -254.253751 
L 303.124968 -256.021262 
L 304.258212 -257.788772 
L 305.391455 -259.556283 
L 306.524699 -261.323793 
L 307.657942 -263.091304 
L 308.791186 -264.858815 
L 309.924429 -266.626325 
L 311.057673 -268.393836 
L 312.190917 -270.161347 
L 313.32416 -271.928857 
L 314.457404 -273.696368 
L 315.590647 -275.463878 
L 316.723891 -277.231389 
L 317.857134 -278.9989 
L 318.990378 -280.76641 
L 320.123621 -282.533921 
L 321.256865 -284.301432 
L 322.390108 -286.068942 
L 323.523352 -287.836453 
L 324.656595 -289.603963 
L 325.789839 -291.371474 
L 326.923083 -293.138985 
L 328.056326 -294.906495 
L 329.18957 -296.674006 
L 330.322813 -298.441517 
L 331.456057 -300.209027 
L 332.5893 -301.976538 
L 333.722544 -303.744048 
L 334.855787 -305.511559 
L 335.989031 -307.27907 
L 337.122274 -309.04658 
L 338.255518 -310.814091 
L 339.388761 -312.581602 
L 340.522005 -314.349112 
L 341.655249 -316.116623 
L 342.788492 -317.884133 
L 343.921736 -319.651644 
L 345.054979 -321.419155 
L 346.188223 -323.186665 
L 347.321466 -324.954176 
L 348.45471 -326.721687 
L 349.587953 -328.489197 
L 350.721197 -330.256708 
L 351.85444 -332.024218 
L 352.987684 -333.791729 
L 354.120927 -335.55924 
L 355.254171 -337.32675 
L 356.387415 -339.094261 
L 357.520658 -340.861771 
L 358.653902 -342.629282 
L 359.787145 -344.396793 
L 360.920389 -346.164303 
L 362.053632 -347.931814 
L 363.186876 -349.699325 
L 364.320119 -351.466835 
L 365.453363 -353.234346 
L 366.586606 -355.001856 
L 367.71985 -356.769367 
L 368.853093 -358.536878 
L 369.986337 -360.304388 
L 371.11958 -362.071899 
L 372.252824 -363.83941 
L 373.386068 -365.60692 
L 374.519311 -367.374431 
L 375.652555 -369.141941 
L 376.785798 -370.909452 
L 377.919042 -372.676963 
L 379.052285 -374.444473 
L 380.185529 -376.211984 
L 381.318772 -377.979495 
L 382.452016 -379.747005 
L 383.585259 -381.514516 
L 384.718503 -383.282026 
L 385.851746 -385.049537 
L 386.98499 -386.817048 
L 388.118234 -388.584558 
L 389.251477 -390.352069 
L 390.384721 -392.11958 
L 391.517964 -393.88709 
L 392.651208 -395.654601 
L 393.784451 -397.422111 
L 394.917695 -399.189622 
L 396.050938 -400.957133 
L 397.184182 -402.724643 
L 398.317425 -404.492154 
L 399.450669 -406.259665 
L 400.583912 -408.027175 
L 401.717156 -409.794686 
L 402.8504 -411.562196 
L 403.983643 -413.329707 
L 405.116887 -415.097218 
L 406.25013 -416.864728 
L 407.383374 -418.632239 
L 408.516617 -420.399749 
L 409.649861 -422.16726 
L 410.783104 -423.934771 
L 411.916348 -425.702281 
L 413.049591 -427.469792 
L 414.182835 -429.237303 
L 415.316078 -431.004813 
L 416.449322 -432.772324 
L 417.582566 -434.539834 
L 418.715809 -436.307345 
L 419.849053 -438.074856 
L 420.982296 -439.842366 
L 422.11554 -441.609877 
L 423.248783 -443.377388 
L 424.382027 -445.144898 
L 425.51527 -446.912409 
L 426.648514 -448.679919 
L 427.781757 -450.44743 
L 428.915001 -452.214941 
L 430.048244 -453.982451 
L 431.181488 -455.749962 
L 432.314732 -457.517473 
L 433.447975 -459.284983 
L 434.581219 -461.052494 
L 435.714462 -462.820004 
L 436.847706 -464.587515 
L 437.980949 -466.355026 
L 439.114193 -468.122536 
L 440.247436 -469.890047 
L 441.38068 -471.657558 
L 442.513923 -473.425068 
L 443.647167 -475.192579 
L 444.78041 -476.960089 
L 445.913654 -478.7276 
L 447.046897 -480.495111 
L 448.180141 -482.262621 
L 449.313385 -484.030132 
L 450.446628 -485.797642 
L 451.579872 -487.565153 
L 452.713115 -489.332664 
L 453.846359 -491.100174 
L 454.979602 -492.867685 
L 456.112846 -494.635196 
L 457.246089 -496.402706 
L 458.379333 -498.170217 
L 459.512576 -499.937727 
L 460.64582 -501.705238 
L 461.779063 -503.472749 
L 462.912307 -505.240259 
L 464.045551 -507.00777 
L 465.178794 -508.775281 
L 466.312038 -510.542791 
L 467.445281 -512.310302 
L 468.578525 -514.077812 
L 469.711768 -515.845323 
L 470.845012 -517.612834 
L 471.978255 -519.380344 
L 473.111499 -521.147855 
L 474.244742 -522.915366 
L 475.377986 -524.682876 
L 476.511229 -526.450387 
L 477.644473 -528.217897 
L 478.777717 -529.985408 
L 479.91096 -531.752919 
L 481.044204 -533.520429 
L 482.177447 -535.28794 
L 483.310691 -537.055451 
L 484.443934 -538.822961 
L 485.577178 -540.590472 
L 486.710421 -542.357982 
L 487.843665 -544.125493 
L 488.976908 -545.893004 
L 490.110152 -547.660514 
L 491.243395 -549.428025 
L 492.376639 -551.195536 
L 493.509883 -552.963046 
L 494.643126 -554.730557 
L 495.77637 -556.498067 
L 496.909613 -558.265578 
L 498.042857 -560.033089 
L 499.1761 -561.800599 
L 500.309344 -563.56811 
L 501.442587 -565.33562 
L 502.575831 -567.103131 
L 503.709074 -568.870642 
L 504.842318 -570.638152 
L 505.975561 -572.405663 
L 507.108805 -574.173174 
L 508.242049 -575.940684 
L 509.375292 -577.708195 
L 510.508536 -579.475705 
L 511.641779 -581.243216 
L 512.775023 -583.010727 
L 513.908266 -584.778237 
L 515.04151 -586.545748 
L 516.174753 -588.313259 
L 517.307997 -590.080769 
L 518.44124 -591.84828 
L 519.574484 -593.61579 
L 520.707727 -595.383301 
L 521.840971 -597.150812 
L 522.974214 -598.918322 
L 524.107458 -600.685833 
L 525.240702 -602.453344 
L 526.373945 -604.220854 
L 527.507189 -605.988365 
L 528.640432 -607.755875 
L 529.773676 -609.523386 
L 530.906919 -611.290897 
L 532.040163 -613.058407 
L 533.173406 -614.825918 
L 534.30665 -616.593429 
L 535.439893 -618.360939 
L 536.573137 -620.12845 
L 537.70638 -621.89596 
L 538.839624 -623.663471 
L 539.972868 -625.430982 
L 541.106111 -627.198492 
L 542.239355 -628.966003 
L 543.372598 -630.733513 
L 544.505842 -632.501024 
L 545.639085 -634.268535 
L 546.772329 -636.036045 
L 547.905572 -637.803556 
L 549.038816 -639.571067 
L 550.172059 -641.338577 
L 551.305303 -643.106088 
L 552.438546 -644.873598 
L 553.57179 -646.641109 
L 554.705034 -648.40862 
L 555.838277 -650.17613 
L 556.971521 -651.943641 
L 558.104764 -653.711152 
L 559.238008 -655.478662 
L 560.371251 -657.246173 
L 561.504495 -659.013683 
L 562.637738 -660.781194 
L 563.770982 -662.548705 
L 564.904225 -664.316215 
L 566.037469 -666.083726 
L 567.170712 -667.851237 
L 568.303956 -669.618747 
L 569.4372 -671.386258 
L 570.570443 -673.153768 
L 571.703687 -674.921279 
L 572.83693 -676.68879 
L 573.970174 -678.4563 
L 575.103417 -680.223811 
L 576.236661 -681.991322 
L 577.369904 -683.758832 
L 578.503148 -685.526343 
L 579.636391 -687.293853 
L 580.769635 -689.061364 
L 581.902878 -690.828875 
L 583.036122 -692.596385 
L 584.169366 -694.363896 
L 585.302609 -696.131407 
L 586.435853 -697.898917 
L 587.569096 -699.666428 
L 588.70234 -701.433938 
L 589.835583 -703.201449 
L 590.968827 -704.96896 
L 592.10207 -706.73647 
L 593.235314 -708.503981 
L 594.368557 -710.271491 
L 595.501801 -712.039002 
L 596.635044 -713.806513 
L 597.768288 -715.574023 
L 598.901531 -717.341534 
L 600.034775 -719.109045 
L 601.168019 -720.876555 
L 602.301262 -722.644066 
L 603.434506 -724.411576 
L 604.567749 -726.179087 
L 605.700993 -727.946598 
L 606.834236 -729.714108 
L 607.96748 -731.481619 
L 609.100723 -733.24913 
L 610.233967 -735.01664 
L 611.36721 -736.784151 
L 612.500454 -738.551661 
L 613.633697 -740.319172 
L 614.766941 -742.086683 
L 615.900185 -743.854193 
L 617.033428 -745.621704 
L 618.166672 -747.389215 
L 619.299915 -749.156725 
L 620.433159 -750.924236 
L 621.566402 -752.691746 
L 622.699646 -754.459257 
L 623.832889 -756.226768 
L 624.966133 -757.994278 
L 626.099376 -759.761789 
L 627.23262 -761.5293 
L 628.365863 -763.29681 
L 629.499107 -765.064321 
L 630.632351 -766.831831 
L 631.765594 -768.599342 
L 632.898838 -770.366853 
L 632.898838 -2191.868235 
L 632.898838 -2191.868235 
L 631.765594 -2191.868235 
L 630.632351 -2191.868235 
L 629.499107 -2191.868235 
L 628.365863 -2191.868235 
L 627.23262 -2191.868235 
L 626.099376 -2191.868235 
L 624.966133 -2191.868235 
L 623.832889 -2191.868235 
L 622.699646 -2191.868235 
L 621.566402 -2191.868235 
L 620.433159 -2191.868235 
L 619.299915 -2191.868235 
L 618.166672 -2191.868235 
L 617.033428 -2191.868235 
L 615.900185 -2191.868235 
L 614.766941 -2191.868235 
L 613.633697 -2191.868235 
L 612.500454 -2191.868235 
L 611.36721 -2191.868235 
L 610.233967 -2191.868235 
L 609.100723 -2191.868235 
L 607.96748 -2191.868235 
L 606.834236 -2191.868235 
L 605.700993 -2191.868235 
L 604.567749 -2191.868235 
L 603.434506 -2191.868235 
L 602.301262 -2191.868235 
L 601.168019 -2191.868235 
L 600.034775 -2191.868235 
L 598.901531 -2191.868235 
L 597.768288 -2191.868235 
L 596.635044 -2191.868235 
L 595.501801 -2191.868235 
L 594.368557 -2191.868235 
L 593.235314 -2191.868235 
L 592.10207 -2191.868235 
L 590.968827 -2191.868235 
L 589.835583 -2191.868235 
L 588.70234 -2191.868235 
L 587.569096 -2191.868235 
L 586.435853 -2191.868235 
L 585.302609 -2191.868235 
L 584.169366 -2191.868235 
L 583.036122 -2191.868235 
L 581.902878 -2191.868235 
L 580.769635 -2191.868235 
L 579.636391 -2191.868235 
L 578.503148 -2191.868235 
L 577.369904 -2191.868235 
L 576.236661 -2191.868235 
L 575.103417 -2191.868235 
L 573.970174 -2191.868235 
L 572.83693 -2191.868235 
L 571.703687 -2191.868235 
L 570.570443 -2191.868235 
L 569.4372 -2191.868235 
L 568.303956 -2191.868235 
L 567.170712 -2191.868235 
L 566.037469 -2191.868235 
L 564.904225 -2191.868235 
L 563.770982 -2191.868235 
L 562.637738 -2191.868235 
L 561.504495 -2191.868235 
L 560.371251 -2191.868235 
L 559.238008 -2191.868235 
L 558.104764 -2191.868235 
L 556.971521 -2191.868235 
L 555.838277 -2191.868235 
L 554.705034 -2191.868235 
L 553.57179 -2191.868235 
L 552.438546 -2191.868235 
L 551.305303 -2191.868235 
L 550.172059 -2191.868235 
L 549.038816 -2191.868235 
L 547.905572 -2191.868235 
L 546.772329 -2191.868235 
L 545.639085 -2191.868235 
L 544.505842 -2191.868235 
L 543.372598 -2191.868235 
L 542.239355 -2191.868235 
L 541.106111 -2191.868235 
L 539.972868 -2191.868235 
L 538.839624 -2191.868235 
L 537.70638 -2191.868235 
L 536.573137 -2191.868235 
L 535.439893 -2191.868235 
L 534.30665 -2191.868235 
L 533.173406 -2191.868235 
L 532.040163 -2191.868235 
L 530.906919 -2191.868235 
L 529.773676 -2191.868235 
L 528.640432 -2191.868235 
L 527.507189 -2191.868235 
L 526.373945 -2191.868235 
L 525.240702 -2191.868235 
L 524.107458 -2191.868235 
L 522.974214 -2191.868235 
L 521.840971 -2191.868235 
L 520.707727 -2191.868235 
L 519.574484 -2191.868235 
L 518.44124 -2191.868235 
L 517.307997 -2191.868235 
L 516.174753 -2191.868235 
L 515.04151 -2191.868235 
L 513.908266 -2191.868235 
L 512.775023 -2191.868235 
L 511.641779 -2191.868235 
L 510.508536 -2191.868235 
L 509.375292 -2191.868235 
L 508.242049 -2191.868235 
L 507.108805 -2191.868235 
L 505.975561 -2191.868235 
L 504.842318 -2191.868235 
L 503.709074 -2191.868235 
L 502.575831 -2191.868235 
L 501.442587 -2191.868235 
L 500.309344 -2191.868235 
L 499.1761 -2191.868235 
L 498.042857 -2191.868235 
L 496.909613 -2191.868235 
L 495.77637 -2191.868235 
L 494.643126 -2191.868235 
L 493.509883 -2191.868235 
L 492.376639 -2191.868235 
L 491.243395 -2191.868235 
L 490.110152 -2191.868235 
L 488.976908 -2191.868235 
L 487.843665 -2191.868235 
L 486.710421 -2191.868235 
L 485.577178 -2191.868235 
L 484.443934 -2191.868235 
L 483.310691 -2191.868235 
L 482.177447 -2191.868235 
L 481.044204 -2191.868235 
L 479.91096 -2191.868235 
L 478.777717 -2191.868235 
L 477.644473 -2191.868235 
L 476.511229 -2191.868235 
L 475.377986 -2191.868235 
L 474.244742 -2191.868235 
L 473.111499 -2191.868235 
L 471.978255 -2191.868235 
L 470.845012 -2191.868235 
L 469.711768 -2191.868235 
L 468.578525 -2191.868235 
L 467.445281 -2191.868235 
L 466.312038 -2191.868235 
L 465.178794 -2191.868235 
L 464.045551 -2191.868235 
L 462.912307 -2191.868235 
L 461.779063 -2191.868235 
L 460.64582 -2191.868235 
L 459.512576 -2191.868235 
L 458.379333 -2191.868235 
L 457.246089 -2191.868235 
L 456.112846 -2191.868235 
L 454.979602 -2191.868235 
L 453.846359 -2191.868235 
L 452.713115 -2191.868235 
L 451.579872 -2191.868235 
L 450.446628 -2191.868235 
L 449.313385 -2191.868235 
L 448.180141 -2191.868235 
L 447.046897 -2191.868235 
L 445.913654 -2191.868235 
L 444.78041 -2191.868235 
L 443.647167 -2191.868235 
L 442.513923 -2191.868235 
L 441.38068 -2191.868235 
L 440.247436 -2191.868235 
L 439.114193 -2191.868235 
L 437.980949 -2191.868235 
L 436.847706 -2191.868235 
L 435.714462 -2191.868235 
L 434.581219 -2191.868235 
L 433.447975 -2191.868235 
L 432.314732 -2191.868235 
L 431.181488 -2191.868235 
L 430.048244 -2191.868235 
L 428.915001 -2191.868235 
L 427.781757 -2191.868235 
L 426.648514 -2191.868235 
L 425.51527 -2191.868235 
L 424.382027 -2191.868235 
L 423.248783 -2191.868235 
L 422.11554 -2191.868235 
L 420.982296 -2191.868235 
L 419.849053 -2191.868235 
L 418.715809 -2191.868235 
L 417.582566 -2191.868235 
L 416.449322 -2191.868235 
L 415.316078 -2191.868235 
L 414.182835 -2191.868235 
L 413.049591 -2191.868235 
L 411.916348 -2191.868235 
L 410.783104 -2191.868235 
L 409.649861 -2191.868235 
L 408.516617 -2191.868235 
L 407.383374 -2191.868235 
L 406.25013 -2191.868235 
L 405.116887 -2191.868235 
L 403.983643 -2191.868235 
L 402.8504 -2191.868235 
L 401.717156 -2191.868235 
L 400.583912 -2191.868235 
L 399.450669 -2191.868235 
L 398.317425 -2191.868235 
L 397.184182 -2191.868235 
L 396.050938 -2191.868235 
L 394.917695 -2191.868235 
L 393.784451 -2191.868235 
L 392.651208 -2191.868235 
L 391.517964 -2191.868235 
L 390.384721 -2191.868235 
L 389.251477 -2191.868235 
L 388.118234 -2191.868235 
L 386.98499 -2191.868235 
L 385.851746 -2191.868235 
L 384.718503 -2191.868235 
L 383.585259 -2191.868235 
L 382.452016 -2191.868235 
L 381.318772 -2191.868235 
L 380.185529 -2191.868235 
L 379.052285 -2191.868235 
L 377.919042 -2191.868235 
L 376.785798 -2191.868235 
L 375.652555 -2191.868235 
L 374.519311 -2191.868235 
L 373.386068 -2191.868235 
L 372.252824 -2191.868235 
L 371.11958 -2191.868235 
L 369.986337 -2191.868235 
L 368.853093 -2191.868235 
L 367.71985 -2191.868235 
L 366.586606 -2191.868235 
L 365.453363 -2191.868235 
L 364.320119 -2191.868235 
L 363.186876 -2191.868235 
L 362.053632 -2191.868235 
L 360.920389 -2191.868235 
L 359.787145 -2191.868235 
L 358.653902 -2191.868235 
L 357.520658 -2191.868235 
L 356.387415 -2191.868235 
L 355.254171 -2191.868235 
L 354.120927 -2191.868235 
L 352.987684 -2191.868235 
L 351.85444 -2191.868235 
L 350.721197 -2191.868235 
L 349.587953 -2191.868235 
L 348.45471 -2191.868235 
L 347.321466 -2191.868235 
L 346.188223 -2191.868235 
L 345.054979 -2191.868235 
L 343.921736 -2191.868235 
L 342.788492 -2191.868235 
L 341.655249 -2191.868235 
L 340.522005 -2191.868235 
L 339.388761 -2191.868235 
L 338.255518 -2191.868235 
L 337.122274 -2191.868235 
L 335.989031 -2191.868235 
L 334.855787 -2191.868235 
L 333.722544 -2191.868235 
L 332.5893 -2191.868235 
L 331.456057 -2191.868235 
L 330.322813 -2191.868235 
L 329.18957 -2191.868235 
L 328.056326 -2191.868235 
L 326.923083 -2191.868235 
L 325.789839 -2191.868235 
L 324.656595 -2191.868235 
L 323.523352 -2191.868235 
L 322.390108 -2191.868235 
L 321.256865 -2191.868235 
L 320.123621 -2191.868235 
L 318.990378 -2191.868235 
L 317.857134 -2191.868235 
L 316.723891 -2191.868235 
L 315.590647 -2191.868235 
L 314.457404 -2191.868235 
L 313.32416 -2191.868235 
L 312.190917 -2191.868235 
L 311.057673 -2191.868235 
L 309.924429 -2191.868235 
L 308.791186 -2191.868235 
L 307.657942 -2191.868235 
L 306.524699 -2191.868235 
L 305.391455 -2191.868235 
L 304.258212 -2191.868235 
L 303.124968 -2191.868235 
L 301.991725 -2191.868235 
L 300.858481 -2191.868235 
L 299.725238 -2191.868235 
L 298.591994 -2191.868235 
L 297.458751 -2191.868235 
L 296.325507 -2191.868235 
L 295.192263 -2191.868235 
L 294.05902 -2191.868235 
L 292.925776 -2191.868235 
L 291.792533 -2191.868235 
L 290.659289 -2191.868235 
L 289.526046 -2191.868235 
L 288.392802 -2191.868235 
L 287.259559 -2191.868235 
L 286.126315 -2191.868235 
L 284.993072 -2191.868235 
L 283.859828 -2191.868235 
L 282.726585 -2191.868235 
L 281.593341 -2191.868235 
L 280.460098 -2191.868235 
L 279.326854 -2191.868235 
L 278.19361 -2191.868235 
L 277.060367 -2191.868235 
L 275.927123 -2191.868235 
L 274.79388 -2191.868235 
L 273.660636 -2191.868235 
L 272.527393 -2191.868235 
L 271.394149 -2191.868235 
L 270.260906 -2191.868235 
L 269.127662 -2191.868235 
L 267.994419 -2191.868235 
L 266.861175 -2191.868235 
L 265.727932 -2191.868235 
L 264.594688 -2191.868235 
L 263.461444 -2191.868235 
L 262.328201 -2191.868235 
L 261.194957 -2191.868235 
L 260.061714 -2191.868235 
L 258.92847 -2191.868235 
L 257.795227 -2191.868235 
L 256.661983 -2191.868235 
L 255.52874 -2191.868235 
L 254.395496 -2191.868235 
L 253.262253 -2191.868235 
L 252.129009 -2191.868235 
L 250.995766 -2191.868235 
L 249.862522 -2191.868235 
L 248.729278 -2191.868235 
L 247.596035 -2191.868235 
L 246.462791 -2191.868235 
L 245.329548 -2191.868235 
L 244.196304 -2191.868235 
L 243.063061 -2191.868235 
L 241.929817 -2191.868235 
L 240.796574 -2191.868235 
L 239.66333 -2191.868235 
L 238.530087 -2191.868235 
L 237.396843 -2191.868235 
L 236.2636 -2191.868235 
L 235.130356 -2191.868235 
L 233.997112 -2191.868235 
L 232.863869 -2191.868235 
L 231.730625 -2191.868235 
L 230.597382 -2191.868235 
L 229.464138 -2191.868235 
L 228.330895 -2191.868235 
L 227.197651 -2191.868235 
L 226.064408 -2191.868235 
L 224.931164 -2191.868235 
L 223.797921 -2191.868235 
L 222.664677 -2191.868235 
L 221.531434 -2191.868235 
L 220.39819 -2191.868235 
L 219.264946 -2191.868235 
L 218.131703 -2191.868235 
L 216.998459 -2191.868235 
L 215.865216 -2191.868235 
L 214.731972 -2191.868235 
L 213.598729 -2191.868235 
L 212.465485 -2191.868235 
L 211.332242 -2191.868235 
L 210.198998 -2191.868235 
L 209.065755 -2191.868235 
L 207.932511 -2191.868235 
L 206.799268 -2191.868235 
L 205.666024 -2191.868235 
L 204.532781 -2191.868235 
L 203.399537 -2191.868235 
L 202.266293 -2191.868235 
L 201.13305 -2191.868235 
L 199.999806 -2191.868235 
L 198.866563 -2191.868235 
L 197.733319 -2191.868235 
L 196.600076 -2191.868235 
L 195.466832 -2191.868235 
L 194.333589 -2191.868235 
L 193.200345 -2191.868235 
L 192.067102 -2191.868235 
L 190.933858 -2191.868235 
L 189.800615 -2191.868235 
L 188.667371 -2191.868235 
L 187.534127 -2191.868235 
L 186.400884 -2191.868235 
L 185.26764 -2191.868235 
L 184.134397 -2191.868235 
L 183.001153 -2191.868235 
L 181.86791 -2191.868235 
L 180.734666 -2191.868235 
L 179.601423 -2191.868235 
L 178.468179 -2191.868235 
L 177.334936 -2191.868235 
L 176.201692 -2191.868235 
L 175.068449 -2191.868235 
L 173.935205 -2191.868235 
L 172.801961 -2191.868235 
L 171.668718 -2191.868235 
L 170.535474 -2191.868235 
L 169.402231 -2191.868235 
L 168.268987 -2191.868235 
L 167.135744 -2191.868235 
L 166.0025 -2191.868235 
L 164.869257 -2191.868235 
L 163.736013 -2191.868235 
L 162.60277 -2191.868235 
L 161.469526 -2191.868235 
L 160.336283 -2191.868235 
L 159.203039 -2191.868235 
L 158.069795 -2191.868235 
L 156.936552 -2191.868235 
L 155.803308 -2191.868235 
L 154.670065 -2191.868235 
L 153.536821 -2191.868235 
L 152.403578 -2191.868235 
L 151.270334 -2191.868235 
L 150.137091 -2191.868235 
L 149.003847 -2191.868235 
L 147.870604 -2191.868235 
L 146.73736 -2191.868235 
L 145.604117 -2191.868235 
L 144.470873 -2191.868235 
L 143.337629 -2191.868235 
L 142.204386 -2191.868235 
L 141.071142 -2191.868235 
L 139.937899 -2191.868235 
L 138.804655 -2191.868235 
L 137.671412 -2191.868235 
L 136.538168 -2191.868235 
L 135.404925 -2191.868235 
L 134.271681 -2191.868235 
L 133.138438 -2191.868235 
L 132.005194 -2191.868235 
L 130.871951 -2191.868235 
L 129.738707 -2191.868235 
L 128.605464 -2191.868235 
L 127.47222 -2191.868235 
L 126.338976 -2191.868235 
L 125.205733 -2191.868235 
L 124.072489 -2191.868235 
L 122.939246 -2191.868235 
L 121.806002 -2191.868235 
L 120.672759 -2191.868235 
L 119.539515 -2191.868235 
L 118.406272 -2191.868235 
L 117.273028 -2191.868235 
L 116.139785 -2191.868235 
L 115.006541 -2191.868235 
L 113.873298 -2191.868235 
L 112.740054 -2191.868235 
L 111.60681 -2191.868235 
L 110.473567 -2191.868235 
L 109.340323 -2191.868235 
L 108.20708 -2191.868235 
L 107.073836 -2191.868235 
L 105.940593 -2191.868235 
L 104.807349 -2191.868235 
L 103.674106 -2191.868235 
L 102.540862 -2191.868235 
L 101.407619 -2191.868235 
L 100.274375 -2191.868235 
L 99.141132 -2191.868235 
L 98.007888 -2191.868235 
L 96.874644 -2191.868235 
L 95.741401 -2191.868235 
L 94.608157 -2191.868235 
L 93.474914 -2191.868235 
L 92.34167 -2191.868235 
L 91.208427 -2191.868235 
L 90.075183 -2191.868235 
L 88.94194 -2191.868235 
L 87.808696 -2191.868235 
L 86.675453 -2191.868235 
L 85.542209 -2191.868235 
L 84.408966 -2191.868235 
L 83.275722 -2191.868235 
L 82.142478 -2191.868235 
L 81.009235 -2191.868235 
L 79.875991 -2191.868235 
L 78.742748 -2191.868235 
L 77.609504 -2191.868235 
L 76.476261 -2191.868235 
L 75.343017 -2191.868235 
L 74.209774 -2191.868235 
L 73.07653 -2191.868235 
L 71.943287 -2191.868235 
L 70.810043 -2191.868235 
L 69.6768 -2191.868235 
L 68.543556 -2191.868235 
L 67.410312 -2191.868235 
z
" clip-path="url(#p7c72df6d97)" style="fill: #eceff1; fill-opacity: 0.45; stroke: #eceff1; stroke-opacity: 0.45"/>
   </g>
   <g id="matplotlib.axis_1">
    <g id="xtick_1">
     <g id="line2d_1">
      <path d="M 338.578648 370.987627 
L 338.578648 56.219065 
" clip-path="url(#p7c72df6d97)" style="fill: none; stroke: #f4f4f4; stroke-width: 0.8; stroke-linecap: square"/>
     </g>
     <g id="line2d_2">
      <defs>
       <path id="m3f9ae9b74b" d="M 0 0 
L 0 3.5 
" style="stroke: #000000; stroke-width: 0.8"/>
      </defs>
      <g>
       <use xlink:href="#m3f9ae9b74b" x="338.578648" y="370.987627" style="stroke: #000000; stroke-width: 0.8"/>
      </g>
     </g>
     <g id="text_1">
      <!-- $\mathdefault{10^{0}}$ -->
      <g transform="translate(329.778648 385.586065) scale(0.1 -0.1)">
       <defs>
        <path id="DejaVuSans-31" d="M 794 531 
L 1825 531 
L 1825 4091 
L 703 3866 
L 703 4441 
L 1819 4666 
L 2450 4666 
L 2450 531 
L 3481 531 
L 3481 0 
L 794 0 
L 794 531 
z
" transform="scale(0.015625)"/>
        <path id="DejaVuSans-30" d="M 2034 4250 
Q 1547 4250 1301 3770 
Q 1056 3291 1056 2328 
Q 1056 1369 1301 889 
Q 1547 409 2034 409 
Q 2525 409 2770 889 
Q 3016 1369 3016 2328 
Q 3016 3291 2770 3770 
Q 2525 4250 2034 4250 
z
M 2034 4750 
Q 2819 4750 3233 4129 
Q 3647 3509 3647 2328 
Q 3647 1150 3233 529 
Q 2819 -91 2034 -91 
Q 1250 -91 836 529 
Q 422 1150 422 2328 
Q 422 3509 836 4129 
Q 1250 4750 2034 4750 
z
" transform="scale(0.015625)"/>
       </defs>
       <use xlink:href="#DejaVuSans-31" transform="translate(0 0.765625)"/>
       <use xlink:href="#DejaVuSans-30" transform="translate(63.623047 0.765625)"/>
       <use xlink:href="#DejaVuSans-30" transform="translate(128.203125 39.046875) scale(0.7)"/>
      </g>
     </g>
    </g>
    <g id="xtick_2">
     <g id="line2d_3">
      <path d="M 84.639888 370.987627 
L 84.639888 56.219065 
" clip-path="url(#p7c72df6d97)" style="fill: none; stroke: #f4f4f4; stroke-width: 0.8; stroke-linecap: square"/>
     </g>
     <g id="line2d_4">
      <defs>
       <path id="mf692e60626" d="M 0 0 
L 0 2 
" style="stroke: #000000; stroke-width: 0.6"/>
      </defs>
      <g>
       <use xlink:href="#mf692e60626" x="84.639888" y="370.987627" style="stroke: #000000; stroke-width: 0.6"/>
      </g>
     </g>
    </g>
    <g id="xtick_3">
     <g id="line2d_5">
      <path d="M 148.614588 370.987627 
L 148.614588 56.219065 
" clip-path="url(#p7c72df6d97)" style="fill: none; stroke: #f4f4f4; stroke-width: 0.8; stroke-linecap: square"/>
     </g>
     <g id="line2d_6">
      <g>
       <use xlink:href="#mf692e60626" x="148.614588" y="370.987627" style="stroke: #000000; stroke-width: 0.6"/>
      </g>
     </g>
    </g>
    <g id="xtick_4">
     <g id="line2d_7">
      <path d="M 194.00536 370.987627 
L 194.00536 56.219065 
" clip-path="url(#p7c72df6d97)" style="fill: none; stroke: #f4f4f4; stroke-width: 0.8; stroke-linecap: square"/>
     </g>
     <g id="line2d_8">
      <g>
       <use xlink:href="#mf692e60626" x="194.00536" y="370.987627" style="stroke: #000000; stroke-width: 0.6"/>
      </g>
     </g>
    </g>
    <g id="xtick_5">
     <g id="line2d_9">
      <path d="M 229.213177 370.987627 
L 229.213177 56.219065 
" clip-path="url(#p7c72df6d97)" style="fill: none; stroke: #f4f4f4; stroke-width: 0.8; stroke-linecap: square"/>
     </g>
     <g id="line2d_10">
      <g>
       <use xlink:href="#mf692e60626" x="229.213177" y="370.987627" style="stroke: #000000; stroke-width: 0.6"/>
      </g>
     </g>
    </g>
    <g id="xtick_6">
     <g id="line2d_11">
      <path d="M 257.980059 370.987627 
L 257.980059 56.219065 
" clip-path="url(#p7c72df6d97)" style="fill: none; stroke: #f4f4f4; stroke-width: 0.8; stroke-linecap: square"/>
     </g>
     <g id="line2d_12">
      <g>
       <use xlink:href="#mf692e60626" x="257.980059" y="370.987627" style="stroke: #000000; stroke-width: 0.6"/>
      </g>
     </g>
    </g>
    <g id="xtick_7">
     <g id="line2d_13">
      <path d="M 282.302111 370.987627 
L 282.302111 56.219065 
" clip-path="url(#p7c72df6d97)" style="fill: none; stroke: #f4f4f4; stroke-width: 0.8; stroke-linecap: square"/>
     </g>
     <g id="line2d_14">
      <g>
       <use xlink:href="#mf692e60626" x="282.302111" y="370.987627" style="stroke: #000000; stroke-width: 0.6"/>
      </g>
     </g>
    </g>
    <g id="xtick_8">
     <g id="line2d_15">
      <path d="M 303.370831 370.987627 
L 303.370831 56.219065 
" clip-path="url(#p7c72df6d97)" style="fill: none; stroke: #f4f4f4; stroke-width: 0.8; stroke-linecap: square"/>
     </g>
     <g id="line2d_16">
      <g>
       <use xlink:href="#mf692e60626" x="303.370831" y="370.987627" style="stroke: #000000; stroke-width: 0.6"/>
      </g>
     </g>
    </g>
    <g id="xtick_9">
     <g id="line2d_17">
      <path d="M 321.954758 370.987627 
L 321.954758 56.219065 
" clip-path="url(#p7c72df6d97)" style="fill: none; stroke: #f4f4f4; stroke-width: 0.8; stroke-linecap: square"/>
     </g>
     <g id="line2d_18">
      <g>
       <use xlink:href="#mf692e60626" x="321.954758" y="370.987627" style="stroke: #000000; stroke-width: 0.6"/>
      </g>
     </g>
    </g>
    <g id="xtick_10">
     <g id="line2d_19">
      <path d="M 447.944119 370.987627 
L 447.944119 56.219065 
" clip-path="url(#p7c72df6d97)" style="fill: none; stroke: #f4f4f4; stroke-width: 0.8; stroke-linecap: square"/>
     </g>
     <g id="line2d_20">
      <g>
       <use xlink:href="#mf692e60626" x="447.944119" y="370.987627" style="stroke: #000000; stroke-width: 0.6"/>
      </g>
     </g>
    </g>
    <g id="xtick_11">
     <g id="line2d_21">
      <path d="M 511.918819 370.987627 
L 511.918819 56.219065 
" clip-path="url(#p7c72df6d97)" style="fill: none; stroke: #f4f4f4; stroke-width: 0.8; stroke-linecap: square"/>
     </g>
     <g id="line2d_22">
      <g>
       <use xlink:href="#mf692e60626" x="511.918819" y="370.987627" style="stroke: #000000; stroke-width: 0.6"/>
      </g>
     </g>
    </g>
    <g id="xtick_12">
     <g id="line2d_23">
      <path d="M 557.30959 370.987627 
L 557.30959 56.219065 
" clip-path="url(#p7c72df6d97)" style="fill: none; stroke: #f4f4f4; stroke-width: 0.8; stroke-linecap: square"/>
     </g>
     <g id="line2d_24">
      <g>
       <use xlink:href="#mf692e60626" x="557.30959" y="370.987627" style="stroke: #000000; stroke-width: 0.6"/>
      </g>
     </g>
    </g>
    <g id="xtick_13">
     <g id="line2d_25">
      <path d="M 592.517408 370.987627 
L 592.517408 56.219065 
" clip-path="url(#p7c72df6d97)" style="fill: none; stroke: #f4f4f4; stroke-width: 0.8; stroke-linecap: square"/>
     </g>
     <g id="line2d_26">
      <g>
       <use xlink:href="#mf692e60626" x="592.517408" y="370.987627" style="stroke: #000000; stroke-width: 0.6"/>
      </g>
     </g>
    </g>
    <g id="xtick_14">
     <g id="line2d_27">
      <path d="M 621.28429 370.987627 
L 621.28429 56.219065 
" clip-path="url(#p7c72df6d97)" style="fill: none; stroke: #f4f4f4; stroke-width: 0.8; stroke-linecap: square"/>
     </g>
     <g id="line2d_28">
      <g>
       <use xlink:href="#mf692e60626" x="621.28429" y="370.987627" style="stroke: #000000; stroke-width: 0.6"/>
      </g>
     </g>
    </g>
    <g id="text_2">
     <!-- Arithmetic intensity  (FLOP / byte) -->
     <g transform="translate(273.790981 398.504346) scale(0.09 -0.09)">
      <defs>
       <path id="DejaVuSans-41" d="M 2188 4044 
L 1331 1722 
L 3047 1722 
L 2188 4044 
z
M 1831 4666 
L 2547 4666 
L 4325 0 
L 3669 0 
L 3244 1197 
L 1141 1197 
L 716 0 
L 50 0 
L 1831 4666 
z
" transform="scale(0.015625)"/>
       <path id="DejaVuSans-72" d="M 2631 2963 
Q 2534 3019 2420 3045 
Q 2306 3072 2169 3072 
Q 1681 3072 1420 2755 
Q 1159 2438 1159 1844 
L 1159 0 
L 581 0 
L 581 3500 
L 1159 3500 
L 1159 2956 
Q 1341 3275 1631 3429 
Q 1922 3584 2338 3584 
Q 2397 3584 2469 3576 
Q 2541 3569 2628 3553 
L 2631 2963 
z
" transform="scale(0.015625)"/>
       <path id="DejaVuSans-69" d="M 603 3500 
L 1178 3500 
L 1178 0 
L 603 0 
L 603 3500 
z
M 603 4863 
L 1178 4863 
L 1178 4134 
L 603 4134 
L 603 4863 
z
" transform="scale(0.015625)"/>
       <path id="DejaVuSans-74" d="M 1172 4494 
L 1172 3500 
L 2356 3500 
L 2356 3053 
L 1172 3053 
L 1172 1153 
Q 1172 725 1289 603 
Q 1406 481 1766 481 
L 2356 481 
L 2356 0 
L 1766 0 
Q 1100 0 847 248 
Q 594 497 594 1153 
L 594 3053 
L 172 3053 
L 172 3500 
L 594 3500 
L 594 4494 
L 1172 4494 
z
" transform="scale(0.015625)"/>
       <path id="DejaVuSans-68" d="M 3513 2113 
L 3513 0 
L 2938 0 
L 2938 2094 
Q 2938 2591 2744 2837 
Q 2550 3084 2163 3084 
Q 1697 3084 1428 2787 
Q 1159 2491 1159 1978 
L 1159 0 
L 581 0 
L 581 4863 
L 1159 4863 
L 1159 2956 
Q 1366 3272 1645 3428 
Q 1925 3584 2291 3584 
Q 2894 3584 3203 3211 
Q 3513 2838 3513 2113 
z
" transform="scale(0.015625)"/>
       <path id="DejaVuSans-6d" d="M 3328 2828 
Q 3544 3216 3844 3400 
Q 4144 3584 4550 3584 
Q 5097 3584 5394 3201 
Q 5691 2819 5691 2113 
L 5691 0 
L 5113 0 
L 5113 2094 
Q 5113 2597 4934 2840 
Q 4756 3084 4391 3084 
Q 3944 3084 3684 2787 
Q 3425 2491 3425 1978 
L 3425 0 
L 2847 0 
L 2847 2094 
Q 2847 2600 2669 2842 
Q 2491 3084 2119 3084 
Q 1678 3084 1418 2786 
Q 1159 2488 1159 1978 
L 1159 0 
L 581 0 
L 581 3500 
L 1159 3500 
L 1159 2956 
Q 1356 3278 1631 3431 
Q 1906 3584 2284 3584 
Q 2666 3584 2933 3390 
Q 3200 3197 3328 2828 
z
" transform="scale(0.015625)"/>
       <path id="DejaVuSans-65" d="M 3597 1894 
L 3597 1613 
L 953 1613 
Q 991 1019 1311 708 
Q 1631 397 2203 397 
Q 2534 397 2845 478 
Q 3156 559 3463 722 
L 3463 178 
Q 3153 47 2828 -22 
Q 2503 -91 2169 -91 
Q 1331 -91 842 396 
Q 353 884 353 1716 
Q 353 2575 817 3079 
Q 1281 3584 2069 3584 
Q 2775 3584 3186 3129 
Q 3597 2675 3597 1894 
z
M 3022 2063 
Q 3016 2534 2758 2815 
Q 2500 3097 2075 3097 
Q 1594 3097 1305 2825 
Q 1016 2553 972 2059 
L 3022 2063 
z
" transform="scale(0.015625)"/>
       <path id="DejaVuSans-63" d="M 3122 3366 
L 3122 2828 
Q 2878 2963 2633 3030 
Q 2388 3097 2138 3097 
Q 1578 3097 1268 2742 
Q 959 2388 959 1747 
Q 959 1106 1268 751 
Q 1578 397 2138 397 
Q 2388 397 2633 464 
Q 2878 531 3122 666 
L 3122 134 
Q 2881 22 2623 -34 
Q 2366 -91 2075 -91 
Q 1284 -91 818 406 
Q 353 903 353 1747 
Q 353 2603 823 3093 
Q 1294 3584 2113 3584 
Q 2378 3584 2631 3529 
Q 2884 3475 3122 3366 
z
" transform="scale(0.015625)"/>
       <path id="DejaVuSans-20" transform="scale(0.015625)"/>
       <path id="DejaVuSans-6e" d="M 3513 2113 
L 3513 0 
L 2938 0 
L 2938 2094 
Q 2938 2591 2744 2837 
Q 2550 3084 2163 3084 
Q 1697 3084 1428 2787 
Q 1159 2491 1159 1978 
L 1159 0 
L 581 0 
L 581 3500 
L 1159 3500 
L 1159 2956 
Q 1366 3272 1645 3428 
Q 1925 3584 2291 3584 
Q 2894 3584 3203 3211 
Q 3513 2838 3513 2113 
z
" transform="scale(0.015625)"/>
       <path id="DejaVuSans-73" d="M 2834 3397 
L 2834 2853 
Q 2591 2978 2328 3040 
Q 2066 3103 1784 3103 
Q 1356 3103 1142 2972 
Q 928 2841 928 2578 
Q 928 2378 1081 2264 
Q 1234 2150 1697 2047 
L 1894 2003 
Q 2506 1872 2764 1633 
Q 3022 1394 3022 966 
Q 3022 478 2636 193 
Q 2250 -91 1575 -91 
Q 1294 -91 989 -36 
Q 684 19 347 128 
L 347 722 
Q 666 556 975 473 
Q 1284 391 1588 391 
Q 1994 391 2212 530 
Q 2431 669 2431 922 
Q 2431 1156 2273 1281 
Q 2116 1406 1581 1522 
L 1381 1569 
Q 847 1681 609 1914 
Q 372 2147 372 2553 
Q 372 3047 722 3315 
Q 1072 3584 1716 3584 
Q 2034 3584 2315 3537 
Q 2597 3491 2834 3397 
z
" transform="scale(0.015625)"/>
       <path id="DejaVuSans-79" d="M 2059 -325 
Q 1816 -950 1584 -1140 
Q 1353 -1331 966 -1331 
L 506 -1331 
L 506 -850 
L 844 -850 
Q 1081 -850 1212 -737 
Q 1344 -625 1503 -206 
L 1606 56 
L 191 3500 
L 800 3500 
L 1894 763 
L 2988 3500 
L 3597 3500 
L 2059 -325 
z
" transform="scale(0.015625)"/>
       <path id="DejaVuSans-28" d="M 1984 4856 
Q 1566 4138 1362 3434 
Q 1159 2731 1159 2009 
Q 1159 1288 1364 580 
Q 1569 -128 1984 -844 
L 1484 -844 
Q 1016 -109 783 600 
Q 550 1309 550 2009 
Q 550 2706 781 3412 
Q 1013 4119 1484 4856 
L 1984 4856 
z
" transform="scale(0.015625)"/>
       <path id="DejaVuSans-46" d="M 628 4666 
L 3309 4666 
L 3309 4134 
L 1259 4134 
L 1259 2759 
L 3109 2759 
L 3109 2228 
L 1259 2228 
L 1259 0 
L 628 0 
L 628 4666 
z
" transform="scale(0.015625)"/>
       <path id="DejaVuSans-4c" d="M 628 4666 
L 1259 4666 
L 1259 531 
L 3531 531 
L 3531 0 
L 628 0 
L 628 4666 
z
" transform="scale(0.015625)"/>
       <path id="DejaVuSans-4f" d="M 2522 4238 
Q 1834 4238 1429 3725 
Q 1025 3213 1025 2328 
Q 1025 1447 1429 934 
Q 1834 422 2522 422 
Q 3209 422 3611 934 
Q 4013 1447 4013 2328 
Q 4013 3213 3611 3725 
Q 3209 4238 2522 4238 
z
M 2522 4750 
Q 3503 4750 4090 4092 
Q 4678 3434 4678 2328 
Q 4678 1225 4090 567 
Q 3503 -91 2522 -91 
Q 1538 -91 948 565 
Q 359 1222 359 2328 
Q 359 3434 948 4092 
Q 1538 4750 2522 4750 
z
" transform="scale(0.015625)"/>
       <path id="DejaVuSans-50" d="M 1259 4147 
L 1259 2394 
L 2053 2394 
Q 2494 2394 2734 2622 
Q 2975 2850 2975 3272 
Q 2975 3691 2734 3919 
Q 2494 4147 2053 4147 
L 1259 4147 
z
M 628 4666 
L 2053 4666 
Q 2838 4666 3239 4311 
Q 3641 3956 3641 3272 
Q 3641 2581 3239 2228 
Q 2838 1875 2053 1875 
L 1259 1875 
L 1259 0 
L 628 0 
L 628 4666 
z
" transform="scale(0.015625)"/>
       <path id="DejaVuSans-2f" d="M 1625 4666 
L 2156 4666 
L 531 -594 
L 0 -594 
L 1625 4666 
z
" transform="scale(0.015625)"/>
       <path id="DejaVuSans-62" d="M 3116 1747 
Q 3116 2381 2855 2742 
Q 2594 3103 2138 3103 
Q 1681 3103 1420 2742 
Q 1159 2381 1159 1747 
Q 1159 1113 1420 752 
Q 1681 391 2138 391 
Q 2594 391 2855 752 
Q 3116 1113 3116 1747 
z
M 1159 2969 
Q 1341 3281 1617 3432 
Q 1894 3584 2278 3584 
Q 2916 3584 3314 3078 
Q 3713 2572 3713 1747 
Q 3713 922 3314 415 
Q 2916 -91 2278 -91 
Q 1894 -91 1617 61 
Q 1341 213 1159 525 
L 1159 0 
L 581 0 
L 581 4863 
L 1159 4863 
L 1159 2969 
z
" transform="scale(0.015625)"/>
       <path id="DejaVuSans-29" d="M 513 4856 
L 1013 4856 
Q 1481 4119 1714 3412 
Q 1947 2706 1947 2009 
Q 1947 1309 1714 600 
Q 1481 -109 1013 -844 
L 513 -844 
Q 928 -128 1133 580 
Q 1338 1288 1338 2009 
Q 1338 2731 1133 3434 
Q 928 4138 513 4856 
z
" transform="scale(0.015625)"/>
      </defs>
      <use xlink:href="#DejaVuSans-41"/>
      <use xlink:href="#DejaVuSans-72" transform="translate(68.408203 0)"/>
      <use xlink:href="#DejaVuSans-69" transform="translate(109.521484 0)"/>
      <use xlink:href="#DejaVuSans-74" transform="translate(137.304688 0)"/>
      <use xlink:href="#DejaVuSans-68" transform="translate(176.513672 0)"/>
      <use xlink:href="#DejaVuSans-6d" transform="translate(239.892578 0)"/>
      <use xlink:href="#DejaVuSans-65" transform="translate(337.304688 0)"/>
      <use xlink:href="#DejaVuSans-74" transform="translate(398.828125 0)"/>
      <use xlink:href="#DejaVuSans-69" transform="translate(438.037109 0)"/>
      <use xlink:href="#DejaVuSans-63" transform="translate(465.820312 0)"/>
      <use xlink:href="#DejaVuSans-20" transform="translate(520.800781 0)"/>
      <use xlink:href="#DejaVuSans-69" transform="translate(552.587891 0)"/>
      <use xlink:href="#DejaVuSans-6e" transform="translate(580.371094 0)"/>
      <use xlink:href="#DejaVuSans-74" transform="translate(643.75 0)"/>
      <use xlink:href="#DejaVuSans-65" transform="translate(682.958984 0)"/>
      <use xlink:href="#DejaVuSans-6e" transform="translate(744.482422 0)"/>
      <use xlink:href="#DejaVuSans-73" transform="translate(807.861328 0)"/>
      <use xlink:href="#DejaVuSans-69" transform="translate(859.960938 0)"/>
      <use xlink:href="#DejaVuSans-74" transform="translate(887.744141 0)"/>
      <use xlink:href="#DejaVuSans-79" transform="translate(926.953125 0)"/>
      <use xlink:href="#DejaVuSans-20" transform="translate(986.132812 0)"/>
      <use xlink:href="#DejaVuSans-20" transform="translate(1017.919922 0)"/>
      <use xlink:href="#DejaVuSans-28" transform="translate(1049.707031 0)"/>
      <use xlink:href="#DejaVuSans-46" transform="translate(1088.720703 0)"/>
      <use xlink:href="#DejaVuSans-4c" transform="translate(1146.240234 0)"/>
      <use xlink:href="#DejaVuSans-4f" transform="translate(1198.328125 0)"/>
      <use xlink:href="#DejaVuSans-50" transform="translate(1277.039062 0)"/>
      <use xlink:href="#DejaVuSans-20" transform="translate(1337.341797 0)"/>
      <use xlink:href="#DejaVuSans-2f" transform="translate(1369.128906 0)"/>
      <use xlink:href="#DejaVuSans-20" transform="translate(1402.820312 0)"/>
      <use xlink:href="#DejaVuSans-62" transform="translate(1434.607422 0)"/>
      <use xlink:href="#DejaVuSans-79" transform="translate(1498.083984 0)"/>
      <use xlink:href="#DejaVuSans-74" transform="translate(1557.263672 0)"/>
      <use xlink:href="#DejaVuSans-65" transform="translate(1596.472656 0)"/>
      <use xlink:href="#DejaVuSans-29" transform="translate(1657.996094 0)"/>
     </g>
    </g>
   </g>
   <g id="matplotlib.axis_2">
    <g id="ytick_1">
     <g id="line2d_29">
      <path d="M 67.410313 74.702245 
L 632.898838 74.702245 
" clip-path="url(#p7c72df6d97)" style="fill: none; stroke: #f4f4f4; stroke-width: 0.8; stroke-linecap: square"/>
     </g>
     <g id="line2d_30">
      <defs>
       <path id="mab2940a788" d="M 0 0 
L -3.5 0 
" style="stroke: #000000; stroke-width: 0.8"/>
      </defs>
      <g>
       <use xlink:href="#mab2940a788" x="67.410313" y="74.702245" style="stroke: #000000; stroke-width: 0.8"/>
      </g>
     </g>
     <g id="text_3">
      <!-- $\mathdefault{10^{0}}$ -->
      <g transform="translate(42.810313 78.501464) scale(0.1 -0.1)">
       <use xlink:href="#DejaVuSans-31" transform="translate(0 0.765625)"/>
       <use xlink:href="#DejaVuSans-30" transform="translate(63.623047 0.765625)"/>
       <use xlink:href="#DejaVuSans-30" transform="translate(128.203125 39.046875) scale(0.7)"/>
      </g>
     </g>
    </g>
    <g id="ytick_2">
     <g id="line2d_31">
      <path d="M 67.410313 370.987627 
L 632.898838 370.987627 
" clip-path="url(#p7c72df6d97)" style="fill: none; stroke: #f4f4f4; stroke-width: 0.8; stroke-linecap: square"/>
     </g>
     <g id="line2d_32">
      <defs>
       <path id="mdc041799ae" d="M 0 0 
L -2 0 
" style="stroke: #000000; stroke-width: 0.6"/>
      </defs>
      <g>
       <use xlink:href="#mdc041799ae" x="67.410313" y="370.987627" style="stroke: #000000; stroke-width: 0.6"/>
      </g>
     </g>
     <g id="text_4">
      <!-- $\mathdefault{3\times10^{-1}}$ -->
      <g transform="translate(19.910313 374.786846) scale(0.1 -0.1)">
       <defs>
        <path id="DejaVuSans-33" d="M 2597 2516 
Q 3050 2419 3304 2112 
Q 3559 1806 3559 1356 
Q 3559 666 3084 287 
Q 2609 -91 1734 -91 
Q 1441 -91 1130 -33 
Q 819 25 488 141 
L 488 750 
Q 750 597 1062 519 
Q 1375 441 1716 441 
Q 2309 441 2620 675 
Q 2931 909 2931 1356 
Q 2931 1769 2642 2001 
Q 2353 2234 1838 2234 
L 1294 2234 
L 1294 2753 
L 1863 2753 
Q 2328 2753 2575 2939 
Q 2822 3125 2822 3475 
Q 2822 3834 2567 4026 
Q 2313 4219 1838 4219 
Q 1578 4219 1281 4162 
Q 984 4106 628 3988 
L 628 4550 
Q 988 4650 1302 4700 
Q 1616 4750 1894 4750 
Q 2613 4750 3031 4423 
Q 3450 4097 3450 3541 
Q 3450 3153 3228 2886 
Q 3006 2619 2597 2516 
z
" transform="scale(0.015625)"/>
        <path id="DejaVuSans-d7" d="M 4488 3438 
L 3059 2003 
L 4488 575 
L 4116 197 
L 2681 1631 
L 1247 197 
L 878 575 
L 2303 2003 
L 878 3438 
L 1247 3816 
L 2681 2381 
L 4116 3816 
L 4488 3438 
z
" transform="scale(0.015625)"/>
        <path id="DejaVuSans-2212" d="M 678 2272 
L 4684 2272 
L 4684 1741 
L 678 1741 
L 678 2272 
z
" transform="scale(0.015625)"/>
       </defs>
       <use xlink:href="#DejaVuSans-33" transform="translate(0 0.684375)"/>
       <use xlink:href="#DejaVuSans-d7" transform="translate(83.105469 0.684375)"/>
       <use xlink:href="#DejaVuSans-31" transform="translate(186.376953 0.684375)"/>
       <use xlink:href="#DejaVuSans-30" transform="translate(250 0.684375)"/>
       <use xlink:href="#DejaVuSans-2212" transform="translate(314.580078 38.965625) scale(0.7)"/>
       <use xlink:href="#DejaVuSans-31" transform="translate(373.232422 38.965625) scale(0.7)"/>
      </g>
     </g>
    </g>
    <g id="ytick_3">
     <g id="line2d_33">
      <path d="M 67.410313 300.192014 
L 632.898838 300.192014 
" clip-path="url(#p7c72df6d97)" style="fill: none; stroke: #f4f4f4; stroke-width: 0.8; stroke-linecap: square"/>
     </g>
     <g id="line2d_34">
      <g>
       <use xlink:href="#mdc041799ae" x="67.410313" y="300.192014" style="stroke: #000000; stroke-width: 0.6"/>
      </g>
     </g>
     <g id="text_5">
      <!-- $\mathdefault{4\times10^{-1}}$ -->
      <g transform="translate(19.910313 303.991233) scale(0.1 -0.1)">
       <defs>
        <path id="DejaVuSans-34" d="M 2419 4116 
L 825 1625 
L 2419 1625 
L 2419 4116 
z
M 2253 4666 
L 3047 4666 
L 3047 1625 
L 3713 1625 
L 3713 1100 
L 3047 1100 
L 3047 0 
L 2419 0 
L 2419 1100 
L 313 1100 
L 313 1709 
L 2253 4666 
z
" transform="scale(0.015625)"/>
       </defs>
       <use xlink:href="#DejaVuSans-34" transform="translate(0 0.684375)"/>
       <use xlink:href="#DejaVuSans-d7" transform="translate(83.105469 0.684375)"/>
       <use xlink:href="#DejaVuSans-31" transform="translate(186.376953 0.684375)"/>
       <use xlink:href="#DejaVuSans-30" transform="translate(250 0.684375)"/>
       <use xlink:href="#DejaVuSans-2212" transform="translate(314.580078 38.965625) scale(0.7)"/>
       <use xlink:href="#DejaVuSans-31" transform="translate(373.232422 38.965625) scale(0.7)"/>
      </g>
     </g>
    </g>
    <g id="ytick_4">
     <g id="line2d_35">
      <path d="M 67.410313 245.27867 
L 632.898838 245.27867 
" clip-path="url(#p7c72df6d97)" style="fill: none; stroke: #f4f4f4; stroke-width: 0.8; stroke-linecap: square"/>
     </g>
     <g id="line2d_36">
      <g>
       <use xlink:href="#mdc041799ae" x="67.410313" y="245.27867" style="stroke: #000000; stroke-width: 0.6"/>
      </g>
     </g>
    </g>
    <g id="ytick_5">
     <g id="line2d_37">
      <path d="M 67.410313 200.411202 
L 632.898838 200.411202 
" clip-path="url(#p7c72df6d97)" style="fill: none; stroke: #f4f4f4; stroke-width: 0.8; stroke-linecap: square"/>
     </g>
     <g id="line2d_38">
      <g>
       <use xlink:href="#mdc041799ae" x="67.410313" y="200.411202" style="stroke: #000000; stroke-width: 0.6"/>
      </g>
     </g>
     <g id="text_6">
      <!-- $\mathdefault{6\times10^{-1}}$ -->
      <g transform="translate(19.910313 204.21042) scale(0.1 -0.1)">
       <defs>
        <path id="DejaVuSans-36" d="M 2113 2584 
Q 1688 2584 1439 2293 
Q 1191 2003 1191 1497 
Q 1191 994 1439 701 
Q 1688 409 2113 409 
Q 2538 409 2786 701 
Q 3034 994 3034 1497 
Q 3034 2003 2786 2293 
Q 2538 2584 2113 2584 
z
M 3366 4563 
L 3366 3988 
Q 3128 4100 2886 4159 
Q 2644 4219 2406 4219 
Q 1781 4219 1451 3797 
Q 1122 3375 1075 2522 
Q 1259 2794 1537 2939 
Q 1816 3084 2150 3084 
Q 2853 3084 3261 2657 
Q 3669 2231 3669 1497 
Q 3669 778 3244 343 
Q 2819 -91 2113 -91 
Q 1303 -91 875 529 
Q 447 1150 447 2328 
Q 447 3434 972 4092 
Q 1497 4750 2381 4750 
Q 2619 4750 2861 4703 
Q 3103 4656 3366 4563 
z
" transform="scale(0.015625)"/>
       </defs>
       <use xlink:href="#DejaVuSans-36" transform="translate(0 0.684375)"/>
       <use xlink:href="#DejaVuSans-d7" transform="translate(83.105469 0.684375)"/>
       <use xlink:href="#DejaVuSans-31" transform="translate(186.376953 0.684375)"/>
       <use xlink:href="#DejaVuSans-30" transform="translate(250 0.684375)"/>
       <use xlink:href="#DejaVuSans-2212" transform="translate(314.580078 38.965625) scale(0.7)"/>
       <use xlink:href="#DejaVuSans-31" transform="translate(373.232422 38.965625) scale(0.7)"/>
      </g>
     </g>
    </g>
    <g id="ytick_6">
     <g id="line2d_39">
      <path d="M 67.410313 162.476297 
L 632.898838 162.476297 
" clip-path="url(#p7c72df6d97)" style="fill: none; stroke: #f4f4f4; stroke-width: 0.8; stroke-linecap: square"/>
     </g>
     <g id="line2d_40">
      <g>
       <use xlink:href="#mdc041799ae" x="67.410313" y="162.476297" style="stroke: #000000; stroke-width: 0.6"/>
      </g>
     </g>
    </g>
    <g id="ytick_7">
     <g id="line2d_41">
      <path d="M 67.410313 129.615589 
L 632.898838 129.615589 
" clip-path="url(#p7c72df6d97)" style="fill: none; stroke: #f4f4f4; stroke-width: 0.8; stroke-linecap: square"/>
     </g>
     <g id="line2d_42">
      <g>
       <use xlink:href="#mdc041799ae" x="67.410313" y="129.615589" style="stroke: #000000; stroke-width: 0.6"/>
      </g>
     </g>
    </g>
    <g id="ytick_8">
     <g id="line2d_43">
      <path d="M 67.410313 100.630389 
L 632.898838 100.630389 
" clip-path="url(#p7c72df6d97)" style="fill: none; stroke: #f4f4f4; stroke-width: 0.8; stroke-linecap: square"/>
     </g>
     <g id="line2d_44">
      <g>
       <use xlink:href="#mdc041799ae" x="67.410313" y="100.630389" style="stroke: #000000; stroke-width: 0.6"/>
      </g>
     </g>
    </g>
    <g id="text_7">
     <!-- Achieved TFLOPS -->
     <g transform="translate(14.038594 252.460846) rotate(-90) scale(0.09 -0.09)">
      <defs>
       <path id="DejaVuSans-76" d="M 191 3500 
L 800 3500 
L 1894 563 
L 2988 3500 
L 3597 3500 
L 2284 0 
L 1503 0 
L 191 3500 
z
" transform="scale(0.015625)"/>
       <path id="DejaVuSans-64" d="M 2906 2969 
L 2906 4863 
L 3481 4863 
L 3481 0 
L 2906 0 
L 2906 525 
Q 2725 213 2448 61 
Q 2172 -91 1784 -91 
Q 1150 -91 751 415 
Q 353 922 353 1747 
Q 353 2572 751 3078 
Q 1150 3584 1784 3584 
Q 2172 3584 2448 3432 
Q 2725 3281 2906 2969 
z
M 947 1747 
Q 947 1113 1208 752 
Q 1469 391 1925 391 
Q 2381 391 2643 752 
Q 2906 1113 2906 1747 
Q 2906 2381 2643 2742 
Q 2381 3103 1925 3103 
Q 1469 3103 1208 2742 
Q 947 2381 947 1747 
z
" transform="scale(0.015625)"/>
       <path id="DejaVuSans-54" d="M -19 4666 
L 3928 4666 
L 3928 4134 
L 2272 4134 
L 2272 0 
L 1638 0 
L 1638 4134 
L -19 4134 
L -19 4666 
z
" transform="scale(0.015625)"/>
       <path id="DejaVuSans-53" d="M 3425 4513 
L 3425 3897 
Q 3066 4069 2747 4153 
Q 2428 4238 2131 4238 
Q 1616 4238 1336 4038 
Q 1056 3838 1056 3469 
Q 1056 3159 1242 3001 
Q 1428 2844 1947 2747 
L 2328 2669 
Q 3034 2534 3370 2195 
Q 3706 1856 3706 1288 
Q 3706 609 3251 259 
Q 2797 -91 1919 -91 
Q 1588 -91 1214 -16 
Q 841 59 441 206 
L 441 856 
Q 825 641 1194 531 
Q 1563 422 1919 422 
Q 2459 422 2753 634 
Q 3047 847 3047 1241 
Q 3047 1584 2836 1778 
Q 2625 1972 2144 2069 
L 1759 2144 
Q 1053 2284 737 2584 
Q 422 2884 422 3419 
Q 422 4038 858 4394 
Q 1294 4750 2059 4750 
Q 2388 4750 2728 4690 
Q 3069 4631 3425 4513 
z
" transform="scale(0.015625)"/>
      </defs>
      <use xlink:href="#DejaVuSans-41"/>
      <use xlink:href="#DejaVuSans-63" transform="translate(66.658203 0)"/>
      <use xlink:href="#DejaVuSans-68" transform="translate(121.638672 0)"/>
      <use xlink:href="#DejaVuSans-69" transform="translate(185.017578 0)"/>
      <use xlink:href="#DejaVuSans-65" transform="translate(212.800781 0)"/>
      <use xlink:href="#DejaVuSans-76" transform="translate(274.324219 0)"/>
      <use xlink:href="#DejaVuSans-65" transform="translate(333.503906 0)"/>
      <use xlink:href="#DejaVuSans-64" transform="translate(395.027344 0)"/>
      <use xlink:href="#DejaVuSans-20" transform="translate(458.503906 0)"/>
      <use xlink:href="#DejaVuSans-54" transform="translate(490.291016 0)"/>
      <use xlink:href="#DejaVuSans-46" transform="translate(551.375 0)"/>
      <use xlink:href="#DejaVuSans-4c" transform="translate(608.894531 0)"/>
      <use xlink:href="#DejaVuSans-4f" transform="translate(660.982422 0)"/>
      <use xlink:href="#DejaVuSans-50" transform="translate(739.693359 0)"/>
      <use xlink:href="#DejaVuSans-53" transform="translate(799.996094 0)"/>
     </g>
    </g>
   </g>
   <g id="patch_3">
    <path d="M 67.410313 370.987627 
L 67.410313 56.219065 
" style="fill: none; stroke: #000000; stroke-width: 0.8; stroke-linejoin: miter; stroke-linecap: square"/>
   </g>
   <g id="patch_4">
    <path d="M 632.898838 370.987627 
L 632.898838 56.219065 
" style="fill: none; stroke: #000000; stroke-width: 0.8; stroke-linejoin: miter; stroke-linecap: square"/>
   </g>
   <g id="patch_5">
    <path d="M 67.410312 370.987627 
L 632.898838 370.987627 
" style="fill: none; stroke: #000000; stroke-width: 0.8; stroke-linejoin: miter; stroke-linecap: square"/>
   </g>
   <g id="patch_6">
    <path d="M 67.410312 56.219065 
L 632.898838 56.219065 
" style="fill: none; stroke: #000000; stroke-width: 0.8; stroke-linejoin: miter; stroke-linecap: square"/>
   </g>
   <g id="text_8">
    <!-- HBM 4.8 TB/s roof -->
    <g style="fill: #546e7a" transform="translate(111.703298 45.834867) rotate(-33) scale(0.07 -0.07)">
     <defs>
      <path id="DejaVuSans-48" d="M 628 4666 
L 1259 4666 
L 1259 2753 
L 3553 2753 
L 3553 4666 
L 4184 4666 
L 4184 0 
L 3553 0 
L 3553 2222 
L 1259 2222 
L 1259 0 
L 628 0 
L 628 4666 
z
" transform="scale(0.015625)"/>
      <path id="DejaVuSans-42" d="M 1259 2228 
L 1259 519 
L 2272 519 
Q 2781 519 3026 730 
Q 3272 941 3272 1375 
Q 3272 1813 3026 2020 
Q 2781 2228 2272 2228 
L 1259 2228 
z
M 1259 4147 
L 1259 2741 
L 2194 2741 
Q 2656 2741 2882 2914 
Q 3109 3088 3109 3444 
Q 3109 3797 2882 3972 
Q 2656 4147 2194 4147 
L 1259 4147 
z
M 628 4666 
L 2241 4666 
Q 2963 4666 3353 4366 
Q 3744 4066 3744 3513 
Q 3744 3084 3544 2831 
Q 3344 2578 2956 2516 
Q 3422 2416 3680 2098 
Q 3938 1781 3938 1306 
Q 3938 681 3513 340 
Q 3088 0 2303 0 
L 628 0 
L 628 4666 
z
" transform="scale(0.015625)"/>
      <path id="DejaVuSans-4d" d="M 628 4666 
L 1569 4666 
L 2759 1491 
L 3956 4666 
L 4897 4666 
L 4897 0 
L 4281 0 
L 4281 4097 
L 3078 897 
L 2444 897 
L 1241 4097 
L 1241 0 
L 628 0 
L 628 4666 
z
" transform="scale(0.015625)"/>
      <path id="DejaVuSans-2e" d="M 684 794 
L 1344 794 
L 1344 0 
L 684 0 
L 684 794 
z
" transform="scale(0.015625)"/>
      <path id="DejaVuSans-38" d="M 2034 2216 
Q 1584 2216 1326 1975 
Q 1069 1734 1069 1313 
Q 1069 891 1326 650 
Q 1584 409 2034 409 
Q 2484 409 2743 651 
Q 3003 894 3003 1313 
Q 3003 1734 2745 1975 
Q 2488 2216 2034 2216 
z
M 1403 2484 
Q 997 2584 770 2862 
Q 544 3141 544 3541 
Q 544 4100 942 4425 
Q 1341 4750 2034 4750 
Q 2731 4750 3128 4425 
Q 3525 4100 3525 3541 
Q 3525 3141 3298 2862 
Q 3072 2584 2669 2484 
Q 3125 2378 3379 2068 
Q 3634 1759 3634 1313 
Q 3634 634 3220 271 
Q 2806 -91 2034 -91 
Q 1263 -91 848 271 
Q 434 634 434 1313 
Q 434 1759 690 2068 
Q 947 2378 1403 2484 
z
M 1172 3481 
Q 1172 3119 1398 2916 
Q 1625 2713 2034 2713 
Q 2441 2713 2670 2916 
Q 2900 3119 2900 3481 
Q 2900 3844 2670 4047 
Q 2441 4250 2034 4250 
Q 1625 4250 1398 4047 
Q 1172 3844 1172 3481 
z
" transform="scale(0.015625)"/>
      <path id="DejaVuSans-6f" d="M 1959 3097 
Q 1497 3097 1228 2736 
Q 959 2375 959 1747 
Q 959 1119 1226 758 
Q 1494 397 1959 397 
Q 2419 397 2687 759 
Q 2956 1122 2956 1747 
Q 2956 2369 2687 2733 
Q 2419 3097 1959 3097 
z
M 1959 3584 
Q 2709 3584 3137 3096 
Q 3566 2609 3566 1747 
Q 3566 888 3137 398 
Q 2709 -91 1959 -91 
Q 1206 -91 779 398 
Q 353 888 353 1747 
Q 353 2609 779 3096 
Q 1206 3584 1959 3584 
z
" transform="scale(0.015625)"/>
      <path id="DejaVuSans-66" d="M 2375 4863 
L 2375 4384 
L 1825 4384 
Q 1516 4384 1395 4259 
Q 1275 4134 1275 3809 
L 1275 3500 
L 2222 3500 
L 2222 3053 
L 1275 3053 
L 1275 0 
L 697 0 
L 697 3053 
L 147 3053 
L 147 3500 
L 697 3500 
L 697 3744 
Q 697 4328 969 4595 
Q 1241 4863 1831 4863 
L 2375 4863 
z
" transform="scale(0.015625)"/>
     </defs>
     <use xlink:href="#DejaVuSans-48"/>
     <use xlink:href="#DejaVuSans-42" transform="translate(75.195312 0)"/>
     <use xlink:href="#DejaVuSans-4d" transform="translate(143.798828 0)"/>
     <use xlink:href="#DejaVuSans-20" transform="translate(230.078125 0)"/>
     <use xlink:href="#DejaVuSans-34" transform="translate(261.865234 0)"/>
     <use xlink:href="#DejaVuSans-2e" transform="translate(325.488281 0)"/>
     <use xlink:href="#DejaVuSans-38" transform="translate(357.275391 0)"/>
     <use xlink:href="#DejaVuSans-20" transform="translate(420.898438 0)"/>
     <use xlink:href="#DejaVuSans-54" transform="translate(452.685547 0)"/>
     <use xlink:href="#DejaVuSans-42" transform="translate(513.769531 0)"/>
     <use xlink:href="#DejaVuSans-2f" transform="translate(582.373047 0)"/>
     <use xlink:href="#DejaVuSans-73" transform="translate(616.064453 0)"/>
     <use xlink:href="#DejaVuSans-20" transform="translate(668.164062 0)"/>
     <use xlink:href="#DejaVuSans-72" transform="translate(699.951172 0)"/>
     <use xlink:href="#DejaVuSans-6f" transform="translate(738.814453 0)"/>
     <use xlink:href="#DejaVuSans-6f" transform="translate(799.996094 0)"/>
     <use xlink:href="#DejaVuSans-66" transform="translate(861.177734 0)"/>
    </g>
   </g>
   <g id="PathCollection_1">
    <defs>
     <path id="mb183380081" d="M 0 2.915476 
C 0.773193 2.915476 1.514823 2.608283 2.061553 2.061553 
C 2.608283 1.514823 2.915476 0.773193 2.915476 0 
C 2.915476 -0.773193 2.608283 -1.514823 2.061553 -2.061553 
C 1.514823 -2.608283 0.773193 -2.915476 0 -2.915476 
C -0.773193 -2.915476 -1.514823 -2.608283 -2.061553 -2.061553 
C -2.608283 -1.514823 -2.915476 -0.773193 -2.915476 0 
C -2.915476 0.773193 -2.608283 1.514823 -2.061553 2.061553 
C -1.514823 2.608283 -0.773193 2.915476 0 2.915476 
z
" style="stroke: #ffffff; stroke-opacity: 0.55; stroke-width: 0.4"/>
    </defs>
    <g clip-path="url(#p7c72df6d97)">
     <use xlink:href="#mb183380081" x="229.213177" y="470.768439" style="fill: #cfd8dc; fill-opacity: 0.55; stroke: #ffffff; stroke-opacity: 0.55; stroke-width: 0.4"/>
     <use xlink:href="#mb183380081" x="220.682396" y="425.900971" style="fill: #cfd8dc; fill-opacity: 0.55; stroke: #ffffff; stroke-opacity: 0.55; stroke-width: 0.4"/>
     <use xlink:href="#mb183380081" x="261.974729" y="496.696584" style="fill: #cfd8dc; fill-opacity: 0.55; stroke: #ffffff; stroke-opacity: 0.55; stroke-width: 0.4"/>
     <use xlink:href="#mb183380081" x="324.003891" y="312.814769" style="fill: #cfd8dc; fill-opacity: 0.55; stroke: #ffffff; stroke-opacity: 0.55; stroke-width: 0.4"/>
     <use xlink:href="#mb183380081" x="488.325549" y="250.25035" style="fill: #cfd8dc; fill-opacity: 0.55; stroke: #ffffff; stroke-opacity: 0.55; stroke-width: 0.4"/>
     <use xlink:href="#mb183380081" x="402.553348" y="276.737154" style="fill: #cfd8dc; fill-opacity: 0.55; stroke: #ffffff; stroke-opacity: 0.55; stroke-width: 0.4"/>
     <use xlink:href="#mb183380081" x="211.983601" y="541.564052" style="fill: #cfd8dc; fill-opacity: 0.55; stroke: #ffffff; stroke-opacity: 0.55; stroke-width: 0.4"/>
     <use xlink:href="#mb183380081" x="378.231296" y="447.31358" style="fill: #cfd8dc; fill-opacity: 0.55; stroke: #ffffff; stroke-opacity: 0.55; stroke-width: 0.4"/>
     <use xlink:href="#mb183380081" x="285.489715" y="767.053822" style="fill: #cfd8dc; fill-opacity: 0.55; stroke: #ffffff; stroke-opacity: 0.55; stroke-width: 0.4"/>
    </g>
   </g>
   <g id="text_9">
    <!-- Pooling — roofline (H200) -->
    <g transform="translate(67.410313 50.219065) scale(0.12 -0.12)">
     <defs>
      <path id="DejaVuSans-Bold-50" d="M 588 4666 
L 2584 4666 
Q 3475 4666 3951 4270 
Q 4428 3875 4428 3144 
Q 4428 2409 3951 2014 
Q 3475 1619 2584 1619 
L 1791 1619 
L 1791 0 
L 588 0 
L 588 4666 
z
M 1791 3794 
L 1791 2491 
L 2456 2491 
Q 2806 2491 2997 2661 
Q 3188 2831 3188 3144 
Q 3188 3456 2997 3625 
Q 2806 3794 2456 3794 
L 1791 3794 
z
" transform="scale(0.015625)"/>
      <path id="DejaVuSans-Bold-6f" d="M 2203 2784 
Q 1831 2784 1636 2517 
Q 1441 2250 1441 1747 
Q 1441 1244 1636 976 
Q 1831 709 2203 709 
Q 2569 709 2762 976 
Q 2956 1244 2956 1747 
Q 2956 2250 2762 2517 
Q 2569 2784 2203 2784 
z
M 2203 3584 
Q 3106 3584 3614 3096 
Q 4122 2609 4122 1747 
Q 4122 884 3614 396 
Q 3106 -91 2203 -91 
Q 1297 -91 786 396 
Q 275 884 275 1747 
Q 275 2609 786 3096 
Q 1297 3584 2203 3584 
z
" transform="scale(0.015625)"/>
      <path id="DejaVuSans-Bold-6c" d="M 538 4863 
L 1656 4863 
L 1656 0 
L 538 0 
L 538 4863 
z
" transform="scale(0.015625)"/>
      <path id="DejaVuSans-Bold-69" d="M 538 3500 
L 1656 3500 
L 1656 0 
L 538 0 
L 538 3500 
z
M 538 4863 
L 1656 4863 
L 1656 3950 
L 538 3950 
L 538 4863 
z
" transform="scale(0.015625)"/>
      <path id="DejaVuSans-Bold-6e" d="M 4056 2131 
L 4056 0 
L 2931 0 
L 2931 347 
L 2931 1631 
Q 2931 2084 2911 2256 
Q 2891 2428 2841 2509 
Q 2775 2619 2662 2680 
Q 2550 2741 2406 2741 
Q 2056 2741 1856 2470 
Q 1656 2200 1656 1722 
L 1656 0 
L 538 0 
L 538 3500 
L 1656 3500 
L 1656 2988 
Q 1909 3294 2193 3439 
Q 2478 3584 2822 3584 
Q 3428 3584 3742 3212 
Q 4056 2841 4056 2131 
z
" transform="scale(0.015625)"/>
      <path id="DejaVuSans-Bold-67" d="M 2919 594 
Q 2688 288 2409 144 
Q 2131 0 1766 0 
Q 1125 0 706 504 
Q 288 1009 288 1791 
Q 288 2575 706 3076 
Q 1125 3578 1766 3578 
Q 2131 3578 2409 3434 
Q 2688 3291 2919 2981 
L 2919 3500 
L 4044 3500 
L 4044 353 
Q 4044 -491 3511 -936 
Q 2978 -1381 1966 -1381 
Q 1638 -1381 1331 -1331 
Q 1025 -1281 716 -1178 
L 716 -306 
Q 1009 -475 1290 -558 
Q 1572 -641 1856 -641 
Q 2406 -641 2662 -400 
Q 2919 -159 2919 353 
L 2919 594 
z
M 2181 2772 
Q 1834 2772 1640 2515 
Q 1447 2259 1447 1791 
Q 1447 1309 1634 1061 
Q 1822 813 2181 813 
Q 2531 813 2725 1069 
Q 2919 1325 2919 1791 
Q 2919 2259 2725 2515 
Q 2531 2772 2181 2772 
z
" transform="scale(0.015625)"/>
      <path id="DejaVuSans-Bold-20" transform="scale(0.015625)"/>
      <path id="DejaVuSans-Bold-2014" d="M 344 2156 
L 6056 2156 
L 6056 1350 
L 344 1350 
L 344 2156 
z
" transform="scale(0.015625)"/>
      <path id="DejaVuSans-Bold-72" d="M 3138 2547 
Q 2991 2616 2845 2648 
Q 2700 2681 2553 2681 
Q 2122 2681 1889 2404 
Q 1656 2128 1656 1613 
L 1656 0 
L 538 0 
L 538 3500 
L 1656 3500 
L 1656 2925 
Q 1872 3269 2151 3426 
Q 2431 3584 2822 3584 
Q 2878 3584 2943 3579 
Q 3009 3575 3134 3559 
L 3138 2547 
z
" transform="scale(0.015625)"/>
      <path id="DejaVuSans-Bold-66" d="M 2841 4863 
L 2841 4128 
L 2222 4128 
Q 1984 4128 1890 4042 
Q 1797 3956 1797 3744 
L 1797 3500 
L 2753 3500 
L 2753 2700 
L 1797 2700 
L 1797 0 
L 678 0 
L 678 2700 
L 122 2700 
L 122 3500 
L 678 3500 
L 678 3744 
Q 678 4316 997 4589 
Q 1316 4863 1984 4863 
L 2841 4863 
z
" transform="scale(0.015625)"/>
      <path id="DejaVuSans-Bold-65" d="M 4031 1759 
L 4031 1441 
L 1416 1441 
Q 1456 1047 1700 850 
Q 1944 653 2381 653 
Q 2734 653 3104 758 
Q 3475 863 3866 1075 
L 3866 213 
Q 3469 63 3072 -14 
Q 2675 -91 2278 -91 
Q 1328 -91 801 392 
Q 275 875 275 1747 
Q 275 2603 792 3093 
Q 1309 3584 2216 3584 
Q 3041 3584 3536 3087 
Q 4031 2591 4031 1759 
z
M 2881 2131 
Q 2881 2450 2695 2645 
Q 2509 2841 2209 2841 
Q 1884 2841 1681 2658 
Q 1478 2475 1428 2131 
L 2881 2131 
z
" transform="scale(0.015625)"/>
      <path id="DejaVuSans-Bold-28" d="M 2413 -844 
L 1484 -844 
Q 1006 -72 778 623 
Q 550 1319 550 2003 
Q 550 2688 779 3389 
Q 1009 4091 1484 4856 
L 2413 4856 
Q 2013 4116 1813 3408 
Q 1613 2700 1613 2009 
Q 1613 1319 1811 609 
Q 2009 -100 2413 -844 
z
" transform="scale(0.015625)"/>
      <path id="DejaVuSans-Bold-48" d="M 588 4666 
L 1791 4666 
L 1791 2888 
L 3566 2888 
L 3566 4666 
L 4769 4666 
L 4769 0 
L 3566 0 
L 3566 1978 
L 1791 1978 
L 1791 0 
L 588 0 
L 588 4666 
z
" transform="scale(0.015625)"/>
      <path id="DejaVuSans-Bold-32" d="M 1844 884 
L 3897 884 
L 3897 0 
L 506 0 
L 506 884 
L 2209 2388 
Q 2438 2594 2547 2791 
Q 2656 2988 2656 3200 
Q 2656 3528 2436 3728 
Q 2216 3928 1850 3928 
Q 1569 3928 1234 3808 
Q 900 3688 519 3450 
L 519 4475 
Q 925 4609 1322 4679 
Q 1719 4750 2100 4750 
Q 2938 4750 3402 4381 
Q 3866 4013 3866 3353 
Q 3866 2972 3669 2642 
Q 3472 2313 2841 1759 
L 1844 884 
z
" transform="scale(0.015625)"/>
      <path id="DejaVuSans-Bold-30" d="M 2944 2338 
Q 2944 3213 2780 3570 
Q 2616 3928 2228 3928 
Q 1841 3928 1675 3570 
Q 1509 3213 1509 2338 
Q 1509 1453 1675 1090 
Q 1841 728 2228 728 
Q 2613 728 2778 1090 
Q 2944 1453 2944 2338 
z
M 4147 2328 
Q 4147 1169 3647 539 
Q 3147 -91 2228 -91 
Q 1306 -91 806 539 
Q 306 1169 306 2328 
Q 306 3491 806 4120 
Q 1306 4750 2228 4750 
Q 3147 4750 3647 4120 
Q 4147 3491 4147 2328 
z
" transform="scale(0.015625)"/>
      <path id="DejaVuSans-Bold-29" d="M 513 -844 
Q 913 -100 1113 609 
Q 1313 1319 1313 2009 
Q 1313 2700 1113 3408 
Q 913 4116 513 4856 
L 1441 4856 
Q 1916 4091 2145 3389 
Q 2375 2688 2375 2003 
Q 2375 1319 2147 623 
Q 1919 -72 1441 -844 
L 513 -844 
z
" transform="scale(0.015625)"/>
     </defs>
     <use xlink:href="#DejaVuSans-Bold-50"/>
     <use xlink:href="#DejaVuSans-Bold-6f" transform="translate(73.291016 0)"/>
     <use xlink:href="#DejaVuSans-Bold-6f" transform="translate(141.992188 0)"/>
     <use xlink:href="#DejaVuSans-Bold-6c" transform="translate(210.693359 0)"/>
     <use xlink:href="#DejaVuSans-Bold-69" transform="translate(244.970703 0)"/>
     <use xlink:href="#DejaVuSans-Bold-6e" transform="translate(279.248047 0)"/>
     <use xlink:href="#DejaVuSans-Bold-67" transform="translate(350.439453 0)"/>
     <use xlink:href="#DejaVuSans-Bold-20" transform="translate(422.021484 0)"/>
     <use xlink:href="#DejaVuSans-Bold-2014" transform="translate(456.835938 0)"/>
     <use xlink:href="#DejaVuSans-Bold-20" transform="translate(556.835938 0)"/>
     <use xlink:href="#DejaVuSans-Bold-72" transform="translate(591.650391 0)"/>
     <use xlink:href="#DejaVuSans-Bold-6f" transform="translate(640.966797 0)"/>
     <use xlink:href="#DejaVuSans-Bold-6f" transform="translate(709.667969 0)"/>
     <use xlink:href="#DejaVuSans-Bold-66" transform="translate(778.369141 0)"/>
     <use xlink:href="#DejaVuSans-Bold-6c" transform="translate(821.875 0)"/>
     <use xlink:href="#DejaVuSans-Bold-69" transform="translate(856.152344 0)"/>
     <use xlink:href="#DejaVuSans-Bold-6e" transform="translate(890.429688 0)"/>
     <use xlink:href="#DejaVuSans-Bold-65" transform="translate(961.621094 0)"/>
     <use xlink:href="#DejaVuSans-Bold-20" transform="translate(1029.443359 0)"/>
     <use xlink:href="#DejaVuSans-Bold-28" transform="translate(1064.257812 0)"/>
     <use xlink:href="#DejaVuSans-Bold-48" transform="translate(1109.960938 0)"/>
     <use xlink:href="#DejaVuSans-Bold-32" transform="translate(1193.652344 0)"/>
     <use xlink:href="#DejaVuSans-Bold-30" transform="translate(1263.232422 0)"/>
     <use xlink:href="#DejaVuSans-Bold-30" transform="translate(1332.8125 0)"/>
     <use xlink:href="#DejaVuSans-Bold-29" transform="translate(1402.392578 0)"/>
    </g>
   </g>
   <g id="line2d_45">
    <path d="M 67.410312 111.620948 
L 139.617495 -1 
L 139.617495 -1 
" clip-path="url(#p7c72df6d97)" style="fill: none; stroke: #37474f; stroke-width: 1.4; stroke-linecap: square"/>
   </g>
   <g id="legend_1">
    <g id="patch_7">
     <path d="M 489.716806 367.237627 
L 627.648838 367.237627 
Q 629.148838 367.237627 629.148838 365.737627 
L 629.148838 355.479033 
Q 629.148838 353.979033 627.648838 353.979033 
L 489.716806 353.979033 
Q 488.216806 353.979033 488.216806 355.479033 
L 488.216806 365.737627 
Q 488.216806 367.237627 489.716806 367.237627 
z
" style="fill: #ffffff; opacity: 0.9; stroke: #cccccc; stroke-linejoin: miter"/>
    </g>
    <g id="PathCollection_2">
     <g>
      <use xlink:href="#mb183380081" x="498.716806" y="360.709111" style="fill: #cfd8dc; fill-opacity: 0.55; stroke: #ffffff; stroke-opacity: 0.55; stroke-width: 0.4"/>
     </g>
    </g>
    <g id="text_10">
     <!-- torch-ref (ref) -->
     <g transform="translate(512.216806 362.677861) scale(0.075 -0.075)">
      <defs>
       <path id="DejaVuSans-2d" d="M 313 2009 
L 1997 2009 
L 1997 1497 
L 313 1497 
L 313 2009 
z
" transform="scale(0.015625)"/>
      </defs>
      <use xlink:href="#DejaVuSans-74"/>
      <use xlink:href="#DejaVuSans-6f" transform="translate(39.208984 0)"/>
      <use xlink:href="#DejaVuSans-72" transform="translate(100.390625 0)"/>
      <use xlink:href="#DejaVuSans-63" transform="translate(139.253906 0)"/>
      <use xlink:href="#DejaVuSans-68" transform="translate(194.234375 0)"/>
      <use xlink:href="#DejaVuSans-2d" transform="translate(257.613281 0)"/>
      <use xlink:href="#DejaVuSans-72" transform="translate(293.697266 0)"/>
      <use xlink:href="#DejaVuSans-65" transform="translate(332.560547 0)"/>
      <use xlink:href="#DejaVuSans-66" transform="translate(394.083984 0)"/>
      <use xlink:href="#DejaVuSans-20" transform="translate(429.289062 0)"/>
      <use xlink:href="#DejaVuSans-28" transform="translate(461.076172 0)"/>
      <use xlink:href="#DejaVuSans-72" transform="translate(500.089844 0)"/>
      <use xlink:href="#DejaVuSans-65" transform="translate(538.953125 0)"/>
      <use xlink:href="#DejaVuSans-66" transform="translate(600.476562 0)"/>
      <use xlink:href="#DejaVuSans-29" transform="translate(635.681641 0)"/>
     </g>
    </g>
    <g id="PathCollection_3">
     <defs>
      <path id="m73c76098d3" d="M 0 -4.062019 
L -4.062019 4.062019 
L 4.062019 4.062019 
z
" style="stroke: #ffffff; stroke-width: 0.6"/>
     </defs>
     <g>
      <use xlink:href="#m73c76098d3" x="585.318369" y="360.709111" style="fill: #00897b; stroke: #ffffff; stroke-width: 0.6"/>
     </g>
    </g>
    <g id="text_11">
     <!-- TileOPs -->
     <g transform="translate(598.818369 362.677861) scale(0.075 -0.075)">
      <defs>
       <path id="DejaVuSans-6c" d="M 603 4863 
L 1178 4863 
L 1178 0 
L 603 0 
L 603 4863 
z
" transform="scale(0.015625)"/>
      </defs>
      <use xlink:href="#DejaVuSans-54"/>
      <use xlink:href="#DejaVuSans-69" transform="translate(57.958984 0)"/>
      <use xlink:href="#DejaVuSans-6c" transform="translate(85.742188 0)"/>
      <use xlink:href="#DejaVuSans-65" transform="translate(113.525391 0)"/>
      <use xlink:href="#DejaVuSans-4f" transform="translate(175.048828 0)"/>
      <use xlink:href="#DejaVuSans-50" transform="translate(253.759766 0)"/>
      <use xlink:href="#DejaVuSans-73" transform="translate(312.3125 0)"/>
     </g>
    </g>
   </g>
   <g id="PathCollection_4">
    <g clip-path="url(#p7c72df6d97)">
     <use xlink:href="#m73c76098d3" x="229.213177" y="641.344865" style="fill: #00897b; stroke: #ffffff; stroke-width: 0.6"/>
     <use xlink:href="#m73c76098d3" x="220.682396" y="667.273009" style="fill: #00897b; stroke: #ffffff; stroke-width: 0.6"/>
     <use xlink:href="#m73c76098d3" x="261.974729" y="696.258209" style="fill: #00897b; stroke: #ffffff; stroke-width: 0.6"/>
     <use xlink:href="#m73c76098d3" x="324.003891" y="362.918387" style="fill: #00897b; stroke: #ffffff; stroke-width: 0.6"/>
     <use xlink:href="#m73c76098d3" x="488.325549" y="362.918387" style="fill: #00897b; stroke: #ffffff; stroke-width: 0.6"/>
     <use xlink:href="#m73c76098d3" x="402.553348" y="496.696584" style="fill: #00897b; stroke: #ffffff; stroke-width: 0.6"/>
     <use xlink:href="#m73c76098d3" x="211.983601" y="306.422467" style="fill: #00897b; stroke: #ffffff; stroke-width: 0.6"/>
     <use xlink:href="#m73c76098d3" x="378.231296" y="667.273009" style="fill: #00897b; stroke: #ffffff; stroke-width: 0.6"/>
     <use xlink:href="#m73c76098d3" x="285.489715" y="811.92129" style="fill: #00897b; stroke: #ffffff; stroke-width: 0.6"/>
    </g>
   </g>
  </g>
 </g>
 <defs>
  <clipPath id="p7c72df6d97">
   <rect x="67.410313" y="56.219065" width="565.488525" height="314.768562"/>
  </clipPath>
 </defs>
</svg>
