<svg xmlns="http://www.w3.org/2000/svg" viewBox="0 0 700 874" width="700" height="874" font-family="'Noto Sans SC','PingFang SC','Microsoft YaHei',sans-serif"><defs><marker id="arrow" viewBox="0 0 10 10" refX="9" refY="5" markerWidth="8" markerHeight="8" orient="auto-start-reverse"><path d="M0,0 L10,5 L0,10 z" fill="#6B5FA0"/></marker></defs><rect width="700" height="874" fill="#FFFFFF"/><text x="350.0" y="28.0" font-size="15" font-weight="bold" fill="#4A2C8F" text-anchor="middle">TileOPs components and how they call each other</text><rect x="256" y="48" width="184" height="46" rx="5" fill="#EFE9FA" stroke="#8E6CCF" stroke-width="1.2"/><text x="266.0" y="68.0" font-size="13" font-weight="bold" fill="#4A2C8F" text-anchor="start">spec</text><text x="266.0" y="86.0" font-size="11" font-weight="normal" fill="#5B5670" text-anchor="start">src/tileops/manifest/spec/</text><rect x="44" y="44" width="204" height="76" rx="4" fill="#FFFFFF" stroke="#CFC6E6" stroke-width="1"/><rect x="54" y="56" width="18" height="13" fill="#EFE9FA" stroke="#8E6CCF" stroke-width="1"/><text x="80.0" y="67.0" font-size="12" font-weight="normal" fill="#2A2540" text-anchor="start">Written by the developer</text><rect x="54" y="77" width="18" height="13" fill="#E2F6F8" stroke="#3AA9B8" stroke-width="1"/><text x="80.0" y="88.0" font-size="12" font-weight="normal" fill="#2A2540" text-anchor="start">Provided by the system</text><rect x="54" y="98" width="18" height="13" fill="#E8F6EA" stroke="#6DBA7A" stroke-width="1"/><text x="80.0" y="109.0" font-size="12" font-weight="normal" fill="#2A2540" text-anchor="start">Publication</text><path d="M20,140 h136.2 l6,20 H680 V368 H20 Z" fill="#FBFAFE" stroke="#CFC6E6" stroke-width="1.2"/><line x1="20" y1="160" x2="162.2" y2="160" stroke="#CFC6E6" stroke-width="1.2"/><text x="30.0" y="155.0" font-size="13" font-weight="bold" fill="#4A2C8F" text-anchor="start">Implementation</text><rect x="44" y="188" width="184" height="62" rx="5" fill="#E2F6F8" stroke="#3AA9B8" stroke-width="1.2"/><text x="54.0" y="208.0" font-size="13" font-weight="bold" fill="#0B5E6A" text-anchor="start">Code generation</text><text x="54.0" y="226.0" font-size="11" font-weight="normal" fill="#5B5670" text-anchor="start">call checks, shape inference</text><text x="54.0" y="242.0" font-size="11" font-weight="normal" fill="#5B5670" text-anchor="start">dtype checks, eval_roofline</text><rect x="256" y="188" width="184" height="62" rx="5" fill="#EFE9FA" stroke="#8E6CCF" stroke-width="1.2"/><text x="266.0" y="208.0" font-size="13" font-weight="bold" fill="#4A2C8F" text-anchor="start">Op class</text><text x="266.0" y="226.0" font-size="11" font-weight="normal" fill="#5B5670" text-anchor="start">__init__, forward, docstring</text><text x="266.0" y="242.0" font-size="11" font-weight="normal" fill="#5B5670" text-anchor="start">kernel_types, interfaces</text><rect x="468" y="188" width="184" height="62" rx="5" fill="#E2F6F8" stroke="#3AA9B8" stroke-width="1.2"/><text x="478.0" y="208.0" font-size="13" font-weight="bold" fill="#0B5E6A" text-anchor="start">Op base</text><text x="478.0" y="226.0" font-size="11" font-weight="normal" fill="#5B5670" text-anchor="start">kernel_for: selection</text><text x="478.0" y="242.0" font-size="11" font-weight="normal" fill="#5B5670" text-anchor="start">entry cache, target dispatch</text><rect x="468" y="292" width="184" height="62" rx="5" fill="#EFE9FA" stroke="#8E6CCF" stroke-width="1.2"/><text x="478.0" y="312.0" font-size="13" font-weight="bold" fill="#4A2C8F" text-anchor="start">Kernel implementation</text><text x="478.0" y="330.0" font-size="11" font-weight="normal" fill="#5B5670" text-anchor="start">inherits a kernel interface</text><text x="478.0" y="346.0" font-size="11" font-weight="normal" fill="#5B5670" text-anchor="start">applies, entry_for as needed</text><path d="M20,408 h234.0 l6,20 H680 V702 H20 Z" fill="#FBFAFE" stroke="#CFC6E6" stroke-width="1.2"/><line x1="20" y1="428" x2="260.0" y2="428" stroke="#CFC6E6" stroke-width="1.2"/><text x="30.0" y="423.0" font-size="13" font-weight="bold" fill="#4A2C8F" text-anchor="start">Validation and measurement</text><rect x="44" y="444" width="184" height="46" rx="5" fill="#EFE9FA" stroke="#8E6CCF" stroke-width="1.2"/><text x="54.0" y="464.0" font-size="13" font-weight="bold" fill="#4A2C8F" text-anchor="start">Reference</text><text x="54.0" y="482.0" font-size="11" font-weight="normal" fill="#5B5670" text-anchor="start">ref_program in workloads/</text><rect x="256" y="444" width="184" height="46" rx="5" fill="#E2F6F8" stroke="#3AA9B8" stroke-width="1.2"/><text x="266.0" y="464.0" font-size="13" font-weight="bold" fill="#0B5E6A" text-anchor="start">validator</text><text x="266.0" y="482.0" font-size="11" font-weight="normal" fill="#5B5670" text-anchor="start">validate_manifest.py</text><rect x="468" y="444" width="184" height="46" rx="5" fill="#E2F6F8" stroke="#3AA9B8" stroke-width="1.2"/><text x="478.0" y="464.0" font-size="13" font-weight="bold" fill="#0B5E6A" text-anchor="start">Workload instantiation</text><text x="478.0" y="482.0" font-size="11" font-weight="normal" fill="#5B5670" text-anchor="start">instantiate</text><rect x="44" y="540" width="184" height="46" rx="5" fill="#EFE9FA" stroke="#8E6CCF" stroke-width="1.2"/><text x="54.0" y="560.0" font-size="13" font-weight="bold" fill="#4A2C8F" text-anchor="start">Correctness tests</text><text x="54.0" y="578.0" font-size="11" font-weight="normal" fill="#5B5670" text-anchor="start">tests/ops/</text><rect x="256" y="540" width="184" height="46" rx="5" fill="#EFE9FA" stroke="#8E6CCF" stroke-width="1.2"/><text x="266.0" y="560.0" font-size="13" font-weight="bold" fill="#4A2C8F" text-anchor="start">Benchmark function</text><text x="266.0" y="578.0" font-size="11" font-weight="normal" fill="#5B5670" text-anchor="start">benchmarks/ops/</text><rect x="468" y="540" width="184" height="46" rx="5" fill="#E2F6F8" stroke="#3AA9B8" stroke-width="1.2"/><text x="478.0" y="560.0" font-size="13" font-weight="bold" fill="#0B5E6A" text-anchor="start">Manifest tests</text><text x="478.0" y="578.0" font-size="11" font-weight="normal" fill="#5B5670" text-anchor="start">meta calls, target conformance</text><rect x="256" y="622" width="184" height="46" rx="5" fill="#E2F6F8" stroke="#3AA9B8" stroke-width="1.2"/><text x="266.0" y="642.0" font-size="13" font-weight="bold" fill="#0B5E6A" text-anchor="start">bench.Runner</text><text x="266.0" y="660.0" font-size="11" font-weight="normal" fill="#5B5670" text-anchor="start">checks, timing, FLOPs, bytes</text><path d="M20,742 h111.7 l6,20 H680 V854 H20 Z" fill="#FBFAFE" stroke="#CFC6E6" stroke-width="1.2"/><line x1="20" y1="762" x2="137.7" y2="762" stroke="#CFC6E6" stroke-width="1.2"/><text x="30.0" y="757.0" font-size="13" font-weight="bold" fill="#4A2C8F" text-anchor="start">Publication</text><rect x="44" y="778" width="184" height="62" rx="5" fill="#E8F6EA" stroke="#6DBA7A" stroke-width="1.2"/><text x="54.0" y="798.0" font-size="13" font-weight="bold" fill="#2E6B3A" text-anchor="start">nightly</text><text x="54.0" y="816.0" font-size="11" font-weight="normal" fill="#5B5670" text-anchor="start">runs every benchmark</text><text x="54.0" y="832.0" font-size="11" font-weight="normal" fill="#5B5670" text-anchor="start">keeps history by case id</text><rect x="256" y="778" width="184" height="62" rx="5" fill="#E8F6EA" stroke="#6DBA7A" stroke-width="1.2"/><text x="266.0" y="798.0" font-size="13" font-weight="bold" fill="#2E6B3A" text-anchor="start">Roofline tool</text><text x="266.0" y="816.0" font-size="11" font-weight="normal" fill="#5B5670" text-anchor="start">SOL efficiency</text><text x="266.0" y="832.0" font-size="11" font-weight="normal" fill="#5B5670" text-anchor="start">and bound</text><rect x="468" y="778" width="184" height="62" rx="5" fill="#E8F6EA" stroke="#6DBA7A" stroke-width="1.2"/><text x="478.0" y="798.0" font-size="13" font-weight="bold" fill="#2E6B3A" text-anchor="start">Docs site</text><text x="478.0" y="816.0" font-size="11" font-weight="normal" fill="#5B5670" text-anchor="start">reads specs, docstrings</text><text x="478.0" y="832.0" font-size="11" font-weight="normal" fill="#5B5670" text-anchor="start">and benchmark results</text><path d="M311.2,94.0 L311.2,125.0 L136.0,125.0 L136.0,188.0" fill="none" stroke="#6B5FA0" stroke-width="1.3" marker-end="url(#arrow)"/><rect x="315.2" y="102.5" width="131.7" height="15" fill="#FFFFFF" fill-opacity="0.85"/><text x="317.2" y="113.5" font-size="12" font-weight="normal" fill="#2A2540" text-anchor="start">signature, roofline</text><path d="M440.0,71.0 L690.0,71.0 L690.0,390.0 L560.0,390.0 L560.0,428.0" fill="none" stroke="#6B5FA0" stroke-width="1.3" marker-end="url(#arrow)"/><rect x="479.0" y="55.0" width="172.0" height="15" fill="#FFFFFF" fill-opacity="0.85"/><text x="565.0" y="66.0" font-size="12" font-weight="normal" fill="#2A2540" text-anchor="middle">workload rows, all fields</text><path d="M228.0,208.0 L256.0,208.0" fill="none" stroke="#6B5FA0" stroke-width="1.3" marker-end="url(#arrow)"/><path d="M440.0,208.0 L468.0,208.0" fill="none" stroke="#6B5FA0" stroke-width="1.3" marker-end="url(#arrow)"/><text x="242.0" y="181.0" font-size="12" font-weight="normal" fill="#2A2540" text-anchor="middle">installs methods</text><text x="454.0" y="181.0" font-size="12" font-weight="normal" fill="#2A2540" text-anchor="middle">kernel_for</text><path d="M560.0,250.0 L560.0,292.0" fill="none" stroke="#6B5FA0" stroke-width="1.3" marker-end="url(#arrow)"/><rect x="564.0" y="256.0" width="118.2" height="15" fill="#FFFFFF" fill-opacity="0.85"/><text x="566.0" y="267.0" font-size="12" font-weight="normal" fill="#2A2540" text-anchor="start">builds and caches</text><path d="M278.0,428.0 L278.0,368.0" fill="none" stroke="#6B5FA0" stroke-width="1.3" stroke-dasharray="6,4" marker-end="url(#arrow)"/><rect x="55.0" y="383.0" width="219.0" height="15" fill="#FFFFFF" fill-opacity="0.85"/><text x="272.0" y="394.0" font-size="12" font-weight="normal" fill="#2A2540" text-anchor="end">tests and benchmarks call the op</text><path d="M348.0,444.0 L348.0,250.0" fill="none" stroke="#6B5FA0" stroke-width="1.3" stroke-dasharray="6,4" marker-end="url(#arrow)"/><rect x="352.0" y="366.0" width="138.4" height="15" fill="#FFFFFF" fill-opacity="0.85"/><text x="354.0" y="377.0" font-size="12" font-weight="normal" fill="#2A2540" text-anchor="start">checks the interface</text><path d="M99.2,490.0 L99.2,540.0" fill="none" stroke="#6B5FA0" stroke-width="1.3" marker-end="url(#arrow)"/><rect x="103.2" y="500.0" width="64.5" height="15" fill="#FFFFFF" fill-opacity="0.85"/><text x="105.2" y="511.0" font-size="12" font-weight="normal" fill="#2A2540" text-anchor="start">reference</text><path d="M191.2,490.0 L191.2,515.0 L292.8,515.0 L292.8,540.0" fill="none" stroke="#6B5FA0" stroke-width="1.3" marker-end="url(#arrow)"/><rect x="193.0" y="500.0" width="98.1" height="15" fill="#FFFFFF" fill-opacity="0.85"/><text x="242.0" y="511.0" font-size="12" font-weight="normal" fill="#2A2540" text-anchor="middle">torch baseline</text><path d="M596.8,490.0 L596.8,540.0" fill="none" stroke="#6B5FA0" stroke-width="1.3" marker-end="url(#arrow)"/><rect x="600.8" y="500.0" width="37.6" height="15" fill="#FFFFFF" fill-opacity="0.85"/><text x="602.8" y="511.0" font-size="12" font-weight="normal" fill="#2A2540" text-anchor="start">calls</text><path d="M504.8,490.0 L504.8,515.0 L454.0,515.0 L454.0,645.0 L440.0,645.0" fill="none" stroke="#6B5FA0" stroke-width="1.3" marker-end="url(#arrow)"/><rect x="451.0" y="630.0" width="37.6" height="15" fill="#FFFFFF" fill-opacity="0.85"/><text x="453.0" y="641.0" font-size="12" font-weight="normal" fill="#2A2540" text-anchor="start">calls</text><path d="M348.0,586.0 L348.0,622.0" fill="none" stroke="#6B5FA0" stroke-width="1.3" marker-end="url(#arrow)"/><rect x="352.0" y="589.0" width="104.8" height="15" fill="#FFFFFF" fill-opacity="0.85"/><text x="354.0" y="600.0" font-size="12" font-weight="normal" fill="#2A2540" text-anchor="start">implementations</text><path d="M348.0,668.0 L348.0,729.0 L136.0,729.0 L136.0,778.0" fill="none" stroke="#6B5FA0" stroke-width="1.3" marker-end="url(#arrow)"/><rect x="203.0" y="714.0" width="77.9" height="15" fill="#FFFFFF" fill-opacity="0.85"/><text x="242.0" y="725.0" font-size="12" font-weight="normal" fill="#2A2540" text-anchor="middle">device time</text><path d="M228.0,809.0 L256.0,809.0" fill="none" stroke="#6B5FA0" stroke-width="1.3" marker-end="url(#arrow)"/><path d="M440.0,809.0 L468.0,809.0" fill="none" stroke="#6B5FA0" stroke-width="1.3" marker-end="url(#arrow)"/></svg>
